<svg width="239" height="154" viewBox="0 0 239 154" fill="none" xmlns="http://www.w3.org/2000/svg">
<g clip-path="url(#clip0)">
<path d="M70.4508 79.7323H7.53534L12.187 34.8307H75.6352L70.4508 79.7323Z" fill="#F5F5F5"/>
<path d="M14.4492 72.1985C14.3951 72.1985 15.0475 65.4381 15.9045 57.1152C16.7615 48.7924 17.4988 42.032 17.5567 42.0513C17.6146 42.0706 16.9622 48.8078 16.1014 57.1346C15.2405 65.4613 14.5071 72.2023 14.4492 72.1985Z" fill="#E0E0E0"/>
<path d="M25.9066 43.5597C24.8571 43.6593 23.8025 43.6928 22.7488 43.6602C21.6952 43.6928 20.6405 43.6593 19.5911 43.5597C20.6404 43.4578 21.6952 43.4242 22.7488 43.4591C23.8025 43.4242 24.8573 43.4578 25.9066 43.5597Z" fill="#E0E0E0"/>
<path d="M52.7783 43.5597C52.7783 43.6138 47.1461 43.6602 40.2013 43.6602C33.2566 43.6602 27.6206 43.6138 27.6206 43.5597C27.6206 43.5055 33.2489 43.4591 40.2013 43.4591C47.1538 43.4591 52.7783 43.5016 52.7783 43.5597Z" fill="#E0E0E0"/>
<path d="M25.1616 59.5131C24.1123 59.615 23.0575 59.6485 22.0038 59.6136C20.9502 59.6485 19.8954 59.615 18.8461 59.5131C19.8955 59.4135 20.9502 59.3799 22.0038 59.4125C23.0575 59.3799 24.1121 59.4135 25.1616 59.5131Z" fill="#E0E0E0"/>
<path d="M52.0332 59.5131C52.0332 59.5711 46.401 59.6136 39.4563 59.6136C32.5116 59.6136 26.8755 59.5711 26.8755 59.5131C26.8755 59.4551 32.5078 59.4125 39.4563 59.4125C46.4049 59.4125 52.0332 59.4589 52.0332 59.5131Z" fill="#E0E0E0"/>
<path d="M43.4633 66.869C43.4633 66.9271 37.8311 66.9696 30.8864 66.9696C23.9417 66.9696 18.3056 66.9271 18.3056 66.869C18.3056 66.811 23.934 66.7685 30.8825 66.7685C37.8311 66.7685 43.4633 66.8149 43.4633 66.869Z" fill="#E0E0E0"/>
<path d="M28.6899 48.0653C28.6899 48.1194 26.7018 48.1659 24.2467 48.1659C21.7915 48.1659 19.8034 48.1194 19.8034 48.0653C19.8034 48.0112 21.7915 47.9609 24.2467 47.9609C26.7018 47.9609 28.6899 48.0073 28.6899 48.0653Z" fill="#E0E0E0"/>
<path d="M28.4621 54.6671C28.4621 54.7252 26.4741 54.7677 24.0189 54.7677C21.5637 54.7677 19.5757 54.7252 19.5757 54.6671C19.5757 54.6091 21.5676 54.5666 24.0189 54.5666C26.4702 54.5666 28.4621 54.613 28.4621 54.6671Z" fill="#E0E0E0"/>
<path d="M35.9743 64.1077C35.9743 64.1618 33.9862 64.2082 31.5349 64.2082C29.0836 64.2082 27.0917 64.1618 27.0917 64.1077C27.0917 64.0535 29.0798 64.0071 31.5349 64.0071C33.9901 64.0071 35.9743 64.0497 35.9743 64.1077Z" fill="#E0E0E0"/>
<path d="M61.0162 48.0653C61.0162 48.1194 55.9321 48.1659 49.6669 48.1659C43.4016 48.1659 38.3137 48.1194 38.3137 48.0653C38.3137 48.0112 43.3977 47.9609 49.6669 47.9609C55.936 47.9609 61.0162 48.0073 61.0162 48.0653Z" fill="#E0E0E0"/>
<path d="M54.0097 55.05C54.0097 55.108 48.9295 55.1506 42.6604 55.1506C36.3912 55.1506 31.3072 55.108 31.3072 55.05C31.3072 54.992 36.3912 54.9495 42.6604 54.9495C48.9295 54.9495 54.0097 54.9959 54.0097 55.05Z" fill="#E0E0E0"/>
<path d="M61.823 64.1077C61.823 64.1618 56.739 64.2082 50.4737 64.2082C44.2084 64.2082 39.1205 64.1618 39.1205 64.1077C39.1205 64.0535 44.2006 64.0071 50.4737 64.0071C56.7467 64.0071 61.823 64.0497 61.823 64.1077Z" fill="#E0E0E0"/>
<path d="M41.0931 72.1985C41.0931 72.2527 36.0129 72.2991 29.7437 72.2991C23.4746 72.2991 18.3944 72.2527 18.3944 72.1985C18.3944 72.1444 23.4746 72.098 29.7437 72.098C36.0129 72.098 41.0931 72.1405 41.0931 72.1985Z" fill="#E0E0E0"/>
<path d="M66.2006 72.1985C66.2006 72.2527 61.1165 72.2991 54.8474 72.2991C48.5782 72.2991 43.498 72.2527 43.498 72.1985C43.498 72.1444 48.5782 72.098 54.8474 72.098C61.1165 72.098 66.2006 72.1405 66.2006 72.1985Z" fill="#E0E0E0"/>
<path d="M41.0931 74.8285C41.0931 74.8865 36.009 74.929 29.7438 74.929C23.4785 74.929 18.3906 74.8865 18.3906 74.8285C18.3906 74.7704 23.4707 74.7279 29.7438 74.7279C36.0168 74.7279 41.0931 74.7743 41.0931 74.8285Z" fill="#E0E0E0"/>
<path d="M42.1971 49.9604C42.1971 50.0145 37.1131 50.0609 30.8478 50.0609C24.5825 50.0609 19.4946 50.0145 19.4946 49.9604C19.4946 49.9062 24.5786 49.8598 30.8478 49.8598C37.1169 49.8598 42.1971 49.8907 42.1971 49.9604Z" fill="#E0E0E0"/>
<path d="M36.1442 48.0885C35.1722 48.1881 34.1946 48.2217 33.218 48.1891C32.2428 48.2217 31.2665 48.1881 30.2958 48.0885C31.2663 47.9867 32.2428 47.9531 33.218 47.988C34.1946 47.953 35.1723 47.9866 36.1442 48.0885Z" fill="#E0E0E0"/>
<path d="M24.4204 61.6828C23.4484 61.7822 22.4708 61.8158 21.4943 61.7834C20.519 61.816 19.5427 61.7824 18.572 61.6828C19.5427 61.5832 20.519 61.5496 21.4943 61.5822C22.4708 61.5498 23.4484 61.5834 24.4204 61.6828Z" fill="#E0E0E0"/>
<path d="M24.2814 64.1077C23.3094 64.2073 22.3318 64.2409 21.3553 64.2082C20.38 64.2408 19.4037 64.2072 18.433 64.1077C19.4036 64.0058 20.38 63.9723 21.3553 64.0071C22.3318 63.9722 23.3096 64.0058 24.2814 64.1077Z" fill="#E0E0E0"/>
<path d="M74.9403 39.5799C74.9403 39.6379 60.7923 39.6805 43.3436 39.6805C25.895 39.6805 11.7392 39.6379 11.7392 39.5799C11.7392 39.5219 25.8873 39.4794 43.3436 39.4794C60.8 39.4794 74.9403 39.5258 74.9403 39.5799Z" fill="#E0E0E0"/>
<path d="M16.0049 38.1916C16.4185 38.1916 16.7538 37.8556 16.7538 37.4413C16.7538 37.0269 16.4185 36.691 16.0049 36.691C15.5913 36.691 15.256 37.0269 15.256 37.4413C15.256 37.8556 15.5913 38.1916 16.0049 38.1916Z" fill="white"/>
<path d="M19.2205 38.1916C19.6341 38.1916 19.9694 37.8556 19.9694 37.4413C19.9694 37.0269 19.6341 36.691 19.2205 36.691C18.8069 36.691 18.4716 37.0269 18.4716 37.4413C18.4716 37.8556 18.8069 38.1916 19.2205 38.1916Z" fill="white"/>
<path d="M22.4362 38.1916C22.8498 38.1916 23.1851 37.8556 23.1851 37.4413C23.1851 37.0269 22.8498 36.691 22.4362 36.691C22.0225 36.691 21.6873 37.0269 21.6873 37.4413C21.6873 37.8556 22.0225 38.1916 22.4362 38.1916Z" fill="white"/>
<path d="M233.816 57.2815H170.9L175.552 12.3837H239L233.816 57.2815Z" fill="#F5F5F5"/>
<path d="M177.818 49.7477C177.76 49.7477 178.412 42.9873 179.269 34.6645C180.126 26.3416 180.868 19.5812 180.922 19.6044C180.976 19.6276 180.327 26.361 179.47 34.6877C178.613 43.0144 177.872 49.7516 177.818 49.7477Z" fill="#E0E0E0"/>
<path d="M189.271 21.1088C188.222 21.2084 187.167 21.242 186.114 21.2093C185.06 21.242 184.005 21.2084 182.956 21.1088C185.059 20.9747 187.168 20.9747 189.271 21.1088Z" fill="#E0E0E0"/>
<path d="M216.143 21.1088C216.143 21.1629 210.511 21.2093 203.566 21.2093C196.621 21.2093 190.985 21.1629 190.985 21.1088C190.985 21.0546 196.618 21.0082 203.566 21.0082C210.515 21.0082 216.143 21.0546 216.143 21.1088Z" fill="#E0E0E0"/>
<path d="M188.526 37.0661C186.423 37.2002 184.314 37.2002 182.211 37.0661C184.314 36.9321 186.423 36.9321 188.526 37.0661Z" fill="#E0E0E0"/>
<path d="M215.406 37.0661C215.406 37.1203 209.77 37.1667 202.825 37.1667C195.88 37.1667 190.244 37.1203 190.244 37.0661C190.244 37.012 195.876 36.9656 202.825 36.9656C209.774 36.9656 215.406 37.0081 215.406 37.0661Z" fill="#E0E0E0"/>
<path d="M206.832 44.4221C206.832 44.4762 201.196 44.5226 194.251 44.5226C187.306 44.5226 181.67 44.4762 181.67 44.4221C181.67 44.3679 187.303 44.3215 194.251 44.3215C201.2 44.3215 206.832 44.3641 206.832 44.4221Z" fill="#E0E0E0"/>
<path d="M192.055 25.6145C192.055 25.6686 190.067 25.715 187.611 25.715C185.156 25.715 183.168 25.6686 183.168 25.6145C183.168 25.5603 185.16 25.5255 187.611 25.5255C190.063 25.5255 192.055 25.5565 192.055 25.6145Z" fill="#E0E0E0"/>
<path d="M191.831 32.2163C191.831 32.2743 189.839 32.3168 187.388 32.3168C184.936 32.3168 182.944 32.2743 182.944 32.2163C182.944 32.1583 184.932 32.1157 187.388 32.1157C189.843 32.1157 191.831 32.1621 191.831 32.2163Z" fill="#E0E0E0"/>
<path d="M199.343 41.6568C199.343 41.711 197.351 41.7574 194.9 41.7574C192.448 41.7574 190.457 41.711 190.457 41.6568C190.457 41.6027 192.445 41.5563 194.9 41.5563C197.355 41.5563 199.343 41.6027 199.343 41.6568Z" fill="#E0E0E0"/>
<path d="M224.381 25.6145C224.381 25.6686 219.301 25.715 213.032 25.715C206.762 25.715 201.682 25.6686 201.682 25.6145C201.682 25.5603 206.762 25.5139 213.032 25.5139C219.301 25.5139 224.381 25.5565 224.381 25.6145Z" fill="#E0E0E0"/>
<path d="M217.374 32.5992C217.374 32.6572 212.294 32.6997 206.025 32.6997C199.756 32.6997 194.676 32.6572 194.676 32.5992C194.676 32.5411 199.756 32.487 206.025 32.487C212.294 32.487 217.374 32.545 217.374 32.5992Z" fill="#E0E0E0"/>
<path d="M225.188 41.6568C225.188 41.711 220.108 41.7574 213.838 41.7574C207.569 41.7574 202.485 41.711 202.485 41.6568C202.485 41.6027 207.569 41.5563 213.838 41.5563C220.108 41.5563 225.188 41.6027 225.188 41.6568Z" fill="#E0E0E0"/>
<path d="M204.462 49.7476C204.462 49.8018 199.378 49.8482 193.109 49.8482C186.839 49.8482 181.759 49.8018 181.759 49.7476C181.759 49.6935 186.839 49.6471 193.109 49.6471C199.378 49.6471 204.462 49.6896 204.462 49.7476Z" fill="#E0E0E0"/>
<path d="M229.565 49.7476C229.565 49.8018 224.481 49.8482 218.216 49.8482C211.951 49.8482 206.863 49.8018 206.863 49.7476C206.863 49.6935 211.943 49.6471 218.216 49.6471C224.489 49.6471 229.565 49.6896 229.565 49.7476Z" fill="#E0E0E0"/>
<path d="M204.458 52.3776C204.458 52.4356 199.378 52.4782 193.109 52.4782C186.839 52.4782 181.755 52.4356 181.755 52.3776C181.755 52.3196 186.839 52.277 193.109 52.277C199.378 52.277 204.458 52.3234 204.458 52.3776Z" fill="#E0E0E0"/>
<path d="M205.562 27.5096C205.562 27.5637 200.482 27.6101 194.213 27.6101C187.943 27.6101 182.863 27.5637 182.863 27.5096C182.863 27.4554 187.943 27.409 194.213 27.409C200.482 27.409 205.562 27.4593 205.562 27.5096Z" fill="#E0E0E0"/>
<path d="M199.509 25.6376C197.562 25.7717 195.608 25.7717 193.661 25.6376C195.608 25.5035 197.562 25.5035 199.509 25.6376Z" fill="#E0E0E0"/>
<path d="M187.785 39.232C185.838 39.366 183.884 39.366 181.937 39.232C183.884 39.0979 185.838 39.0979 187.785 39.232Z" fill="#E0E0E0"/>
<path d="M187.646 41.6568C185.699 41.7909 183.745 41.7909 181.798 41.6568C183.745 41.5228 185.699 41.5228 187.646 41.6568Z" fill="#E0E0E0"/>
<path d="M238.305 17.1291C238.305 17.1871 224.157 17.2297 206.708 17.2297C189.26 17.2297 175.108 17.1871 175.108 17.1291C175.108 17.0711 189.252 17.017 206.708 17.017C224.165 17.017 238.305 17.075 238.305 17.1291Z" fill="#E0E0E0"/>
<path d="M179.37 15.7407C179.783 15.7407 180.119 15.4048 180.119 14.9904C180.119 14.576 179.783 14.2401 179.37 14.2401C178.956 14.2401 178.621 14.576 178.621 14.9904C178.621 15.4048 178.956 15.7407 179.37 15.7407Z" fill="white"/>
<path d="M182.585 15.7407C182.999 15.7407 183.334 15.4048 183.334 14.9904C183.334 14.576 182.999 14.2401 182.585 14.2401C182.172 14.2401 181.836 14.576 181.836 14.9904C181.836 15.4048 182.172 15.7407 182.585 15.7407Z" fill="white"/>
<path d="M185.801 15.7407C186.215 15.7407 186.55 15.4048 186.55 14.9904C186.55 14.576 186.215 14.2401 185.801 14.2401C185.387 14.2401 185.052 14.576 185.052 14.9904C185.052 15.4048 185.387 15.7407 185.801 15.7407Z" fill="white"/>
<path d="M101.858 27.9659H62.6723L65.5675 0H105.086L101.858 27.9659Z" fill="#EBEBEB"/>
<path d="M66.9804 23.2708C66.9225 23.2708 67.3124 19.0591 67.8451 13.8766C68.3778 8.69417 68.8565 4.49406 68.9144 4.49793C68.9723 4.50179 68.5785 8.7135 68.0458 13.896C67.5131 19.0784 67.0344 23.2785 66.9804 23.2708Z" fill="#E0E0E0"/>
<path d="M74.1181 5.43381C73.4671 5.5355 72.8073 5.5692 72.1493 5.53437C71.4926 5.5691 70.8341 5.5354 70.1844 5.43381C70.8344 5.33454 71.4926 5.30085 72.1493 5.33326C72.8073 5.30077 73.4668 5.33446 74.1181 5.43381Z" fill="#E0E0E0"/>
<path d="M90.8487 5.43393C90.8487 5.49194 87.3435 5.53448 83.0161 5.53448C78.6887 5.53448 75.1797 5.49194 75.1797 5.43393C75.1797 5.37592 78.6887 5.33337 83.0161 5.33337C87.3435 5.33337 90.8487 5.37978 90.8487 5.43393Z" fill="#E0E0E0"/>
<path d="M73.651 15.3733C72.9998 15.4726 72.3402 15.5063 71.6822 15.4738C71.0256 15.5062 70.3673 15.4725 69.7173 15.3733C70.3673 15.274 71.0256 15.2403 71.6822 15.2727C72.3402 15.2402 72.9998 15.2739 73.651 15.3733Z" fill="#E0E0E0"/>
<path d="M90.3855 15.3734C90.3855 15.4275 86.8803 15.4739 82.5529 15.4739C78.2255 15.4739 74.7165 15.4275 74.7165 15.3734C74.7165 15.3192 78.2255 15.2728 82.5529 15.2728C86.8803 15.2728 90.3855 15.3192 90.3855 15.3734Z" fill="#E0E0E0"/>
<path d="M85.0505 19.9524C85.0505 20.0104 81.5415 20.053 77.2141 20.053C72.8867 20.053 69.3777 20.0104 69.3777 19.9524C69.3777 19.8944 72.8867 19.8519 77.2141 19.8519C81.5415 19.8519 85.0505 19.8983 85.0505 19.9524Z" fill="#E0E0E0"/>
<path d="M75.8475 8.24169C74.9284 8.3412 74.0035 8.3748 73.0796 8.34224C72.1558 8.3748 71.2308 8.3412 70.3118 8.24169C71.2307 8.13987 72.1558 8.10626 73.0796 8.14113C74.0035 8.10626 74.9286 8.13987 75.8475 8.24169Z" fill="#E0E0E0"/>
<path d="M75.7047 12.3529C74.7871 12.4548 73.8632 12.4884 72.9407 12.4534C72.0169 12.4883 71.0917 12.4547 70.1729 12.3529C71.0919 12.2533 72.0169 12.2197 72.9407 12.2523C73.8632 12.2197 74.7869 12.2533 75.7047 12.3529Z" fill="#E0E0E0"/>
<path d="M80.3873 18.2313C79.4684 18.3332 78.5432 18.3668 77.6194 18.3319C76.6956 18.3668 75.7704 18.3332 74.8516 18.2313C75.7706 18.1318 76.6956 18.0982 77.6194 18.1308C78.5432 18.0982 79.4682 18.1318 80.3873 18.2313Z" fill="#E0E0E0"/>
<path d="M95.9829 8.24167C95.9829 8.29581 92.8175 8.34222 88.9108 8.34222C85.0042 8.34222 81.8387 8.29581 81.8387 8.24167C81.8387 8.18752 85.0042 8.14111 88.907 8.14111C92.8098 8.14111 95.9829 8.18366 95.9829 8.24167Z" fill="#E0E0E0"/>
<path d="M91.6169 12.5926C91.6169 12.6468 88.4515 12.6932 84.5487 12.6932C80.6459 12.6932 77.4805 12.6468 77.4805 12.5926C77.4805 12.5385 80.6421 12.4921 84.5487 12.4921C88.4553 12.4921 91.6169 12.5385 91.6169 12.5926Z" fill="#E0E0E0"/>
<path d="M96.4848 18.2314C96.4848 18.2894 93.3193 18.332 89.4127 18.332C85.506 18.332 82.3444 18.2894 82.3444 18.2314C82.3444 18.1734 85.5099 18.1309 89.4127 18.1309C93.3154 18.1309 96.4848 18.1773 96.4848 18.2314Z" fill="#E0E0E0"/>
<path d="M83.572 23.2708C83.572 23.3288 80.4065 23.3713 76.5038 23.3713C72.601 23.3713 69.4355 23.3288 69.4355 23.2708C69.4355 23.2128 72.5971 23.1702 76.5038 23.1702C80.4104 23.1702 83.572 23.205 83.572 23.2708Z" fill="#E0E0E0"/>
<path d="M99.2102 23.2708C99.2102 23.3288 96.0447 23.3713 92.1419 23.3713C88.2391 23.3713 85.0698 23.3288 85.0698 23.2708C85.0698 23.2128 88.2353 23.1702 92.1419 23.1702C96.0485 23.1702 99.2102 23.205 99.2102 23.2708Z" fill="#E0E0E0"/>
<path d="M83.572 24.9106C83.572 24.9686 80.4066 25.0111 76.5038 25.0111C72.601 25.0111 69.4317 24.9686 69.4317 24.9106C69.4317 24.8525 72.5972 24.81 76.5038 24.81C80.4104 24.81 83.572 24.8564 83.572 24.9106Z" fill="#E0E0E0"/>
<path d="M84.2592 9.42123C84.2592 9.47925 81.0937 9.52179 77.1909 9.52179C73.2881 9.52179 70.1227 9.47925 70.1227 9.42123C70.1227 9.36322 73.2843 9.32068 77.1909 9.32068C81.0976 9.32068 84.2592 9.36709 84.2592 9.42123Z" fill="#E0E0E0"/>
<path d="M80.4915 8.25711C79.8895 8.3561 79.2786 8.38981 78.6694 8.35767C78.0602 8.39011 77.4493 8.3564 76.8473 8.25711C77.449 8.15552 78.0602 8.12179 78.6694 8.15656C79.2786 8.12202 79.8897 8.15574 80.4915 8.25711Z" fill="#E0E0E0"/>
<path d="M73.1878 16.7231C72.5858 16.8224 71.9749 16.8561 71.3657 16.8236C70.7565 16.8558 70.1456 16.8221 69.5436 16.7231C70.1456 16.6241 70.7565 16.5904 71.3657 16.6225C71.9749 16.5901 72.5858 16.6238 73.1878 16.7231Z" fill="#E0E0E0"/>
<path d="M73.1028 18.2314C72.5011 18.3328 71.89 18.3665 71.2808 18.3319C70.6716 18.3667 70.0604 18.333 69.4587 18.2314C70.0607 18.1321 70.6716 18.0984 71.2808 18.1308C71.89 18.0987 72.5008 18.1324 73.1028 18.2314Z" fill="#E0E0E0"/>
<path d="M104.653 2.95859C104.653 3.01273 95.8401 3.05914 84.9656 3.05914C74.0911 3.05914 65.278 3.01273 65.278 2.95859C65.278 2.90444 74.0911 2.85803 84.9656 2.85803C95.8401 2.85803 104.653 2.90057 104.653 2.95859Z" fill="#E0E0E0"/>
<path d="M68.4125 1.62439C68.4133 1.71695 68.3866 1.80764 68.3359 1.88502C68.2853 1.9624 68.2128 2.02298 68.1277 2.0591C68.0427 2.09522 67.9488 2.10527 67.8581 2.08796C67.7673 2.07065 67.6837 2.02677 67.6179 1.96187C67.552 1.89697 67.5068 1.81396 67.4881 1.72334C67.4693 1.63271 67.4778 1.53855 67.5124 1.45275C67.5471 1.36695 67.6063 1.29337 67.6827 1.24131C67.7591 1.18926 67.8492 1.16106 67.9416 1.16029C68.0029 1.15978 68.0637 1.17138 68.1206 1.19443C68.1775 1.21748 68.2293 1.25152 68.273 1.29462C68.3167 1.33772 68.3516 1.38902 68.3755 1.4456C68.3994 1.50219 68.412 1.56294 68.4125 1.62439Z" fill="white"/>
<path d="M70.4161 1.62438C70.4168 1.71709 70.3901 1.80795 70.3392 1.88541C70.2884 1.96288 70.2157 2.02346 70.1304 2.05947C70.0451 2.09549 69.9511 2.10531 69.8602 2.08769C69.7694 2.07007 69.6858 2.02581 69.6201 1.96052C69.5543 1.89523 69.5095 1.81185 69.4911 1.72097C69.4728 1.63009 69.4818 1.5358 69.5171 1.45007C69.5523 1.36433 69.6122 1.29102 69.6891 1.23942C69.766 1.18783 69.8564 1.16028 69.949 1.16028C70.0722 1.16027 70.1904 1.20905 70.2779 1.29597C70.3654 1.3829 70.4151 1.50094 70.4161 1.62438Z" fill="white"/>
<path d="M72.4196 1.62438C72.4203 1.71709 72.3936 1.80795 72.3427 1.88541C72.2919 1.96288 72.2192 2.02346 72.1339 2.05947C72.0486 2.09549 71.9546 2.10531 71.8637 2.08769C71.7728 2.07007 71.6892 2.02581 71.6235 1.96052C71.5578 1.89523 71.513 1.81185 71.4946 1.72097C71.4763 1.63009 71.4853 1.5358 71.5205 1.45007C71.5558 1.36433 71.6156 1.29102 71.6925 1.23942C71.7694 1.18783 71.8599 1.16028 71.9524 1.16028C72.0757 1.16027 72.1939 1.20905 72.2814 1.29597C72.3689 1.3829 72.4185 1.50094 72.4196 1.62438Z" fill="white"/>
<path d="M208.353 76.7699H188.619V140.762H208.353V76.7699Z" fill="#EBEBEB"/>
<path d="M225.107 76.7815H208.353V140.75H225.107V76.7815Z" fill="#E0E0E0"/>
<path d="M205.994 79.3611H190.163V93.1449H205.994V79.3611Z" fill="#E0E0E0"/>
<path d="M205.994 94.7073H190.163V108.491H205.994V94.7073Z" fill="#E0E0E0"/>
<path d="M205.994 110.054H190.163V123.837H205.994V110.054Z" fill="#E0E0E0"/>
<path d="M205.994 125.4H190.163V139.184H205.994V125.4Z" fill="#E0E0E0"/>
<path d="M198.077 81.9059C198.077 82.0145 198.045 82.1207 197.984 82.211C197.924 82.3013 197.838 82.3717 197.738 82.4133C197.638 82.4549 197.528 82.4657 197.422 82.4445C197.315 82.4234 197.218 82.3711 197.141 82.2943C197.064 82.2174 197.012 82.1196 196.991 82.0131C196.97 81.9065 196.981 81.7961 197.022 81.6958C197.064 81.5954 197.134 81.5096 197.224 81.4493C197.314 81.389 197.42 81.3568 197.529 81.3568C197.674 81.3568 197.813 81.4146 197.916 81.5176C198.019 81.6206 198.077 81.7603 198.077 81.9059Z" fill="#FAFAFA"/>
<path d="M198.077 97.4301C198.077 97.5387 198.045 97.6449 197.984 97.7352C197.924 97.8255 197.838 97.8959 197.738 97.9374C197.638 97.979 197.528 97.9899 197.422 97.9687C197.315 97.9475 197.218 97.8952 197.141 97.8184C197.064 97.7416 197.012 97.6437 196.991 97.5372C196.97 97.4307 196.981 97.3202 197.022 97.2199C197.064 97.1195 197.134 97.0338 197.224 96.9734C197.314 96.9131 197.42 96.8809 197.529 96.8809C197.674 96.8809 197.813 96.9387 197.916 97.0417C198.019 97.1447 198.077 97.2844 198.077 97.4301Z" fill="#FAFAFA"/>
<path d="M198.077 112.958C198.076 113.067 198.043 113.172 197.983 113.262C197.922 113.352 197.836 113.422 197.736 113.463C197.636 113.504 197.525 113.514 197.419 113.492C197.313 113.471 197.216 113.418 197.14 113.341C197.063 113.264 197.012 113.166 196.991 113.06C196.97 112.954 196.981 112.843 197.023 112.743C197.064 112.643 197.134 112.557 197.224 112.497C197.315 112.437 197.42 112.405 197.529 112.405C197.601 112.405 197.673 112.419 197.739 112.447C197.806 112.475 197.867 112.516 197.918 112.567C197.969 112.619 198.009 112.68 198.036 112.747C198.064 112.814 198.077 112.886 198.077 112.958Z" fill="#FAFAFA"/>
<path d="M198.077 128.482C198.077 128.591 198.045 128.697 197.984 128.787C197.924 128.878 197.838 128.948 197.738 128.99C197.638 129.031 197.528 129.042 197.422 129.021C197.315 129 197.218 128.947 197.141 128.87C197.064 128.794 197.012 128.696 196.991 128.589C196.97 128.483 196.981 128.372 197.022 128.272C197.064 128.172 197.134 128.086 197.224 128.026C197.314 127.965 197.42 127.933 197.529 127.933C197.674 127.933 197.813 127.991 197.916 128.094C198.019 128.197 198.077 128.337 198.077 128.482Z" fill="#FAFAFA"/>
<path d="M190.9 140.762H188.619V153.598H190.9V140.762Z" fill="#E0E0E0"/>
<path d="M208.276 140.762H205.994V153.598H208.276V140.762Z" fill="#E0E0E0"/>
<path d="M224.864 140.762H222.582V153.598H224.864V140.762Z" fill="#E0E0E0"/>
<path d="M22.8454 149.974C22.2586 149.475 20.9538 147.889 21.9614 146.045C22.3474 145.372 23.1195 145.035 23.8221 144.737C24.5518 144.492 25.2403 144.137 25.8642 143.685C26.9721 142.746 27.277 141.183 28.0105 139.93C28.8559 138.495 30.4309 137.416 32.0909 137.494C33.9978 137.579 35.5844 139.129 36.3063 140.897C37.0282 142.664 37.0591 144.645 37.0591 146.54C37.0591 147.595 37.0205 148.787 36.2407 149.502C35.5227 150.16 34.4456 150.167 33.4728 150.136L23.05 149.819" fill="#F5F5F5"/>
<path d="M42.753 121.44H15.3795L20.3091 150.759C20.4123 151.371 20.687 151.942 21.1011 152.404C21.5152 152.866 22.0518 153.201 22.6485 153.37L22.745 153.397C22.825 153.421 22.9061 153.442 22.9882 153.459C23.1713 153.496 23.3573 153.518 23.5441 153.524V153.54L23.6792 153.52H35.901C36.1266 153.519 36.3515 153.496 36.5727 153.451C37.2837 153.343 37.9398 153.004 38.4398 152.486C38.9399 151.969 39.2564 151.301 39.3405 150.585L41.6914 130.389L41.7995 129.584L42.7414 121.583L42.753 121.44ZM37.5879 140.135H34.7815L35.0633 131.627H38.3175L37.5879 140.135ZM38.5916 131.627H41.2938L40.294 140.135H37.862L38.5916 131.627ZM30.566 149.568L30.3961 142.177H34.4379L34.1947 149.568H30.566ZM26.1923 142.177H30.1105L30.2803 149.568H26.7675L26.1923 142.177ZM26.4972 149.568H23.2005C22.8878 147.572 22.4786 144.977 22.0424 142.177H25.9027L26.4972 149.568ZM26.034 140.135L25.37 131.627H29.8789L30.0757 140.135H26.034ZM30.346 140.135L30.1491 131.627H34.7815L34.4997 140.135H30.346ZM30.1105 129.584L29.9291 121.703H35.1289L34.8664 129.584H30.1105ZM29.8403 129.584H25.2079L24.5941 121.703H29.6511L29.8403 129.584ZM24.9454 129.584H20.0505C19.8768 128.498 19.7108 127.465 19.5641 126.541C19.0545 123.354 18.8615 122.155 18.7534 121.703H24.32L24.9454 129.584ZM25.1037 131.627L25.7676 140.135H21.7182C21.5792 139.273 21.4441 138.399 21.3051 137.524C20.9886 135.517 20.672 133.506 20.3748 131.627H25.1037ZM21.4479 140.135H18.7998L17.3676 131.627H20.0968C20.5137 134.256 20.977 137.184 21.4402 140.135H21.4479ZM21.7722 142.177C22.1582 144.733 22.5713 147.255 22.9303 149.568H20.3863L19.1433 142.177H21.7722ZM34.4726 149.568L34.7197 142.177H37.4219L36.7888 149.568H34.4726ZM35.1289 129.584L35.3914 121.703H39.1629L38.4874 129.584H35.1289ZM18.4909 121.703C18.599 122.275 19.1009 125.377 19.7687 129.584H17.0279L15.6999 121.703H18.4909ZM39.1629 149.568H37.0591L37.696 142.177H40.0469L39.1629 149.568ZM41.5177 129.584H38.7615L39.437 121.703H42.4635L41.5177 129.584Z" fill="#E0E0E0"/>
<path d="M223.157 153.594C223.157 153.652 173.197 153.694 111.594 153.694C49.9909 153.694 0.0306396 153.652 0.0306396 153.594C0.0306396 153.536 49.9793 153.493 111.613 153.493C173.247 153.493 223.157 153.54 223.157 153.594Z" fill="#263238"/>
<path d="M124.773 69.936H81.9622L85.1238 39.3828H128.301L124.773 69.936Z" fill="#263238"/>
<path d="M122.592 69.936H79.7812L82.9466 39.3828H126.12L122.592 69.936Z" fill="#455A64"/>
<path d="M121.006 68.5515H81.279L84.2167 40.1989H124.279L121.006 68.5515Z" fill="#F5F5F5"/>
<path d="M85.5833 63.8138C85.5292 63.8138 85.923 59.5402 86.4634 54.2881C87.0039 49.0361 87.4902 44.7741 87.5443 44.7818C87.5983 44.7895 87.2084 49.0361 86.6641 54.3075C86.1198 59.5789 85.6412 63.8138 85.5833 63.8138Z" fill="#263238"/>
<path d="M92.8175 45.741C92.1585 45.8403 91.4912 45.874 90.8256 45.8415C90.1586 45.8741 89.4901 45.8404 88.8298 45.741C89.4901 45.6416 90.1586 45.6079 90.8256 45.6404C91.4912 45.608 92.1585 45.6417 92.8175 45.741Z" fill="#263238"/>
<path d="M109.787 45.741C109.787 45.7951 106.228 45.8415 101.843 45.8415C97.4576 45.8415 93.8984 45.7951 93.8984 45.741C93.8984 45.6868 97.4576 45.6404 101.843 45.6404C106.228 45.6404 109.787 45.6868 109.787 45.741Z" fill="#FEC830"/>
<path d="M92.3465 55.8158C91.6877 55.9174 91.0202 55.9511 90.3546 55.9164C89.6876 55.9512 89.0189 55.9175 88.3588 55.8158C89.0191 55.7164 89.6876 55.6827 90.3546 55.7152C91.0202 55.6828 91.6875 55.7165 92.3465 55.8158Z" fill="#263238"/>
<path d="M109.316 55.8158C109.316 55.8738 105.761 55.9164 101.372 55.9164C96.9827 55.9164 93.4312 55.8738 93.4312 55.8158C93.4312 55.7578 96.9866 55.7153 101.372 55.7153C105.757 55.7153 109.316 55.7617 109.316 55.8158Z" fill="#FEC830"/>
<path d="M103.904 60.4607C103.904 60.5148 100.349 60.5612 95.9636 60.5612C91.5783 60.5612 88.0191 60.5148 88.0191 60.4607C88.0191 60.4065 91.5745 60.3601 95.9636 60.3601C100.353 60.3601 103.904 60.4065 103.904 60.4607Z" fill="#FEC830"/>
<path d="M94.5778 48.5836C93.6462 48.6879 92.7082 48.7228 91.7714 48.688C90.8346 48.7229 89.8965 48.688 88.9649 48.5836C89.8969 48.484 90.8347 48.4504 91.7714 48.483C92.7081 48.4505 93.6459 48.4841 94.5778 48.5836Z" fill="#FEC830"/>
<path d="M94.435 52.7566C93.503 52.8561 92.5652 52.8897 91.6285 52.8572C90.6918 52.8898 89.754 52.8562 88.822 52.7566C89.7538 52.6547 90.6918 52.6211 91.6285 52.6561C92.5652 52.6213 93.5031 52.6549 94.435 52.7566Z" fill="#FEC830"/>
<path d="M99.1754 58.7165C98.2447 58.816 97.3082 58.8496 96.3728 58.817C95.4361 58.8497 94.4983 58.8161 93.5664 58.7165C94.4982 58.6146 95.4361 58.581 96.3728 58.6159C97.3082 58.581 98.2449 58.6146 99.1754 58.7165Z" fill="#FEC830"/>
<path d="M114.987 48.5836C114.987 48.6416 111.779 48.688 107.823 48.688C103.866 48.688 100.654 48.6416 100.654 48.5836C100.654 48.5256 103.862 48.483 107.823 48.483C111.783 48.483 114.987 48.5294 114.987 48.5836Z" fill="#263238"/>
<path d="M110.563 52.9848C110.563 53.0428 107.355 53.0853 103.399 53.0853C99.4418 53.0853 96.23 53.0428 96.23 52.9848C96.23 52.9268 99.438 52.8842 103.399 52.8842C107.359 52.8842 110.563 52.9422 110.563 52.9848Z" fill="#263238"/>
<path d="M115.497 58.7164C115.497 58.7706 112.289 58.817 108.328 58.817C104.368 58.817 101.163 58.7706 101.163 58.7164C101.163 58.6623 104.371 58.6158 108.328 58.6158C112.285 58.6158 115.497 58.6584 115.497 58.7164Z" fill="#263238"/>
<path d="M102.41 63.8138C102.41 63.8679 99.1986 63.9143 95.2418 63.9143C91.2849 63.9143 88.0732 63.8679 88.0732 63.8138C88.0732 63.7596 91.2811 63.7132 95.2418 63.7132C99.2025 63.7132 102.41 63.7673 102.41 63.8138Z" fill="#263238"/>
<path d="M118.261 63.8138C118.261 63.8679 115.053 63.9143 111.092 63.9143C107.132 63.9143 103.927 63.8679 103.927 63.8138C103.927 63.7596 107.135 63.7132 111.092 63.7132C115.049 63.7132 118.261 63.7673 118.261 63.8138Z" fill="#263238"/>
<path d="M102.407 65.4845C102.407 65.5426 99.1986 65.5851 95.2418 65.5851C91.2849 65.5851 88.0732 65.5426 88.0732 65.4845C88.0732 65.4265 91.2811 65.384 95.2418 65.384C99.2025 65.384 102.407 65.4304 102.407 65.4845Z" fill="#263238"/>
<path d="M103.105 49.7824C103.105 49.8366 99.8973 49.883 95.9366 49.883C91.9759 49.883 88.7719 49.8366 88.7719 49.7824C88.7719 49.7283 91.9798 49.6819 95.9366 49.6819C99.8935 49.6819 103.105 49.7283 103.105 49.7824Z" fill="#263238"/>
<path d="M99.2835 48.5991C98.056 48.7383 96.8167 48.7383 95.5892 48.5991C96.817 48.465 98.0557 48.465 99.2835 48.5991Z" fill="#455A64"/>
<path d="M91.8756 57.1849C91.2661 57.2864 90.6472 57.3202 90.0303 57.2855C89.4121 57.3203 88.792 57.2866 88.1812 57.1849C88.7923 57.0856 89.4121 57.0519 90.0303 57.0844C90.6472 57.052 91.2658 57.0857 91.8756 57.1849Z" fill="#455A64"/>
<path d="M91.7907 58.7164C91.1809 58.8157 90.5623 58.8494 89.9454 58.817C89.3286 58.8494 88.71 58.8157 88.1002 58.7164C88.7097 58.6149 89.3286 58.5812 89.9454 58.6159C90.5623 58.5812 91.1812 58.6149 91.7907 58.7164Z" fill="#455A64"/>
<path d="M123.781 43.2309C123.781 43.2851 114.844 43.3315 103.827 43.3315C92.8097 43.3315 83.8731 43.2851 83.8731 43.2309C83.8731 43.1768 92.8059 43.1265 103.827 43.1265C114.848 43.1265 123.781 43.1729 123.781 43.2309Z" fill="#263238"/>
<path d="M87.0386 41.8773C87.0386 41.9714 87.0107 42.0634 86.9586 42.1416C86.9064 42.2198 86.8322 42.2808 86.7455 42.3168C86.6587 42.3528 86.5632 42.3622 86.4711 42.3439C86.379 42.3255 86.2944 42.2802 86.228 42.2137C86.1616 42.1472 86.1164 42.0624 86.0981 41.9701C86.0797 41.8779 86.0891 41.7822 86.1251 41.6953C86.161 41.6084 86.2219 41.5341 86.3 41.4818C86.378 41.4295 86.4699 41.4016 86.5638 41.4016C86.6263 41.4011 86.6882 41.4131 86.7461 41.4368C86.8039 41.4605 86.8565 41.4955 86.9007 41.5398C86.9449 41.5841 86.9798 41.6367 87.0035 41.6947C87.0272 41.7526 87.0391 41.8147 87.0386 41.8773Z" fill="white"/>
<path d="M89.0691 41.8773C89.0691 41.9714 89.0412 42.0634 88.9891 42.1416C88.9369 42.2198 88.8627 42.2808 88.776 42.3168C88.6892 42.3528 88.5937 42.3622 88.5016 42.3439C88.4095 42.3255 88.3249 42.2802 88.2585 42.2137C88.1921 42.1472 88.1469 42.0624 88.1286 41.9701C88.1102 41.8779 88.1197 41.7822 88.1556 41.6953C88.1915 41.6084 88.2524 41.5341 88.3305 41.4818C88.4086 41.4295 88.5004 41.4016 88.5943 41.4016C88.6568 41.4011 88.7187 41.4131 88.7766 41.4368C88.8344 41.4605 88.887 41.4955 88.9312 41.5398C88.9753 41.5841 89.0103 41.6367 89.034 41.6947C89.0577 41.7526 89.0696 41.8147 89.0691 41.8773Z" fill="white"/>
<path d="M91.1035 41.8773C91.1035 41.9716 91.0756 42.0637 91.0232 42.142C90.9709 42.2203 90.8965 42.2813 90.8095 42.3172C90.7225 42.3531 90.6268 42.3623 90.5346 42.3436C90.4424 42.3249 90.3578 42.2792 90.2916 42.2123C90.2253 42.1454 90.1804 42.0603 90.1625 41.9677C90.1446 41.8752 90.1546 41.7794 90.1911 41.6926C90.2277 41.6057 90.2891 41.5317 90.3677 41.4799C90.4463 41.4281 90.5385 41.4009 90.6326 41.4016C90.6947 41.4016 90.7563 41.414 90.8137 41.4379C90.8711 41.4619 90.9232 41.497 90.9669 41.5412C91.0107 41.5854 91.0453 41.6379 91.0688 41.6956C91.0922 41.7533 91.104 41.815 91.1035 41.8773Z" fill="white"/>
<path d="M181.014 70.8604H135.98L139.307 38.7214H184.724L181.014 70.8604Z" fill="#263238"/>
<path d="M178.721 70.8604H133.687L137.014 38.7214H182.435L178.721 70.8604Z" fill="#455A64"/>
<path d="M177.054 69.4062H135.262L138.35 39.5839H180.497L177.054 69.4062Z" fill="#EBEBEB"/>
<path d="M139.817 63.9839C139.759 63.9839 140.176 59.4899 140.747 53.9632C141.319 48.4365 141.824 43.958 141.878 43.9657C141.932 43.9734 141.515 48.4559 140.948 53.9864C140.38 59.5169 139.871 63.9878 139.817 63.9839Z" fill="#263238"/>
<path d="M147.426 44.9636C146.03 45.0977 144.625 45.0977 143.229 44.9636C144.625 44.8244 146.03 44.8244 147.426 44.9636Z" fill="#263238"/>
<path d="M165.276 44.9636C165.276 45.0177 161.531 45.0641 156.918 45.0641C152.305 45.0641 148.564 45.0177 148.564 44.9636C148.564 44.9094 152.301 44.8591 156.918 44.8591C161.535 44.8591 165.276 44.9055 165.276 44.9636Z" fill="#FEC830"/>
<path d="M146.931 55.5606C145.536 55.6946 144.131 55.6946 142.735 55.5606C144.131 55.4265 145.536 55.4265 146.931 55.5606Z" fill="#263238"/>
<path d="M164.778 55.5606C164.778 55.6147 161.037 55.6612 156.424 55.6612C151.811 55.6612 148.066 55.6147 148.066 55.5606C148.066 55.5064 151.807 55.46 156.424 55.46C161.041 55.46 164.778 55.5064 164.778 55.5606Z" fill="#FEC830"/>
<path d="M159.088 60.4452C159.088 60.5032 155.347 60.5458 150.73 60.5458C146.113 60.5458 142.376 60.5032 142.376 60.4452C142.376 60.3872 146.117 60.3447 150.73 60.3447C155.343 60.3447 159.088 60.3911 159.088 60.4452Z" fill="#FEC830"/>
<path d="M149.275 47.9571C148.294 48.0588 147.307 48.0924 146.322 48.0576C145.337 48.0925 144.352 48.0589 143.372 47.9571C145.337 47.823 147.309 47.823 149.275 47.9571Z" fill="#FEC830"/>
<path d="M149.124 52.3389C148.143 52.4434 147.157 52.4783 146.171 52.4433C145.187 52.4782 144.201 52.4433 143.222 52.3389C145.187 52.2048 147.159 52.2048 149.124 52.3389Z" fill="#FEC830"/>
<path d="M154.112 58.612C152.146 58.7461 150.174 58.7461 148.209 58.612C150.174 58.478 152.146 58.478 154.112 58.612Z" fill="#FEC830"/>
<path d="M170.746 47.9571C170.746 48.0151 167.368 48.0576 163.206 48.0576C159.045 48.0576 155.667 48.0151 155.667 47.9571C155.667 47.899 159.041 47.8565 163.206 47.8565C167.372 47.8565 170.746 47.899 170.746 47.9571Z" fill="#263238"/>
<path d="M166.09 52.598C166.09 52.6561 162.716 52.6986 158.555 52.6986C154.393 52.6986 151.012 52.6561 151.012 52.598C151.012 52.54 154.39 52.4975 158.555 52.4975C162.72 52.4975 166.09 52.54 166.09 52.598Z" fill="#263238"/>
<path d="M171.282 58.612C171.282 58.6662 167.905 58.7126 163.743 58.7126C159.582 58.7126 156.204 58.6662 156.204 58.612C156.204 58.5579 159.578 58.5115 163.743 58.5115C167.908 58.5115 171.282 58.554 171.282 58.612Z" fill="#263238"/>
<path d="M157.501 63.9839C157.501 64.0381 154.127 64.0845 149.962 64.0845C145.796 64.0845 142.423 64.0381 142.423 63.9839C142.423 63.9298 145.796 63.8834 149.962 63.8834C154.127 63.8834 157.501 63.9298 157.501 63.9839Z" fill="#263238"/>
<path d="M174.189 63.9839C174.189 64.0381 170.811 64.0845 166.65 64.0845C162.489 64.0845 159.111 64.0381 159.111 63.9839C159.111 63.9298 162.485 63.8834 166.65 63.8834C170.815 63.8834 174.189 63.9298 174.189 63.9839Z" fill="#263238"/>
<path d="M157.501 65.7475C157.501 65.8017 154.123 65.8481 149.962 65.8481C145.8 65.8481 142.446 65.7862 142.446 65.7475C142.446 65.7088 145.82 65.647 149.985 65.647C154.15 65.647 157.501 65.6779 157.501 65.7475Z" fill="#263238"/>
<path d="M158.246 49.214C158.246 49.2682 154.868 49.3146 150.707 49.3146C146.545 49.3146 143.168 49.2682 143.168 49.214C143.168 49.1599 146.542 49.1135 150.707 49.1135C154.872 49.1135 158.246 49.1599 158.246 49.214Z" fill="#263238"/>
<path d="M154.224 47.957C152.933 48.0911 151.631 48.0911 150.34 47.957C151.631 47.823 152.933 47.823 154.224 47.957Z" fill="#455A64"/>
<path d="M146.437 56.9993C145.146 57.1333 143.845 57.1333 142.554 56.9993C143.845 56.8652 145.146 56.8652 146.437 56.9993Z" fill="#455A64"/>
<path d="M146.345 58.612C145.054 58.746 143.752 58.746 142.461 58.612C143.752 58.4779 145.054 58.4779 146.345 58.612Z" fill="#455A64"/>
<path d="M179.995 42.3183C179.995 42.3763 170.595 42.4188 159.007 42.4188C147.418 42.4188 138.014 42.3763 138.014 42.3183C138.014 42.2603 147.41 42.2177 159.007 42.2177C170.603 42.2177 179.995 42.2641 179.995 42.3183Z" fill="#263238"/>
<path d="M141.346 40.8988C141.346 40.9975 141.316 41.094 141.262 41.176C141.207 41.2581 141.129 41.322 141.038 41.3598C140.947 41.3975 140.847 41.4074 140.75 41.3882C140.654 41.3689 140.565 41.3214 140.495 41.2516C140.426 41.1818 140.378 41.0929 140.359 40.9962C140.34 40.8994 140.35 40.7991 140.387 40.7079C140.425 40.6167 140.489 40.5388 140.571 40.484C140.653 40.4292 140.749 40.3999 140.848 40.3999C140.913 40.3994 140.978 40.412 141.039 40.4368C141.099 40.4617 141.154 40.4985 141.201 40.5449C141.247 40.5913 141.284 40.6465 141.309 40.7073C141.334 40.7681 141.346 40.8332 141.346 40.8988Z" fill="white"/>
<path d="M143.48 40.8988C143.48 40.9975 143.451 41.094 143.396 41.176C143.342 41.2581 143.264 41.322 143.173 41.3598C143.082 41.3975 142.982 41.4074 142.885 41.3882C142.789 41.3689 142.7 41.3214 142.63 41.2516C142.561 41.1818 142.513 41.0929 142.494 40.9962C142.475 40.8994 142.485 40.7991 142.522 40.7079C142.56 40.6167 142.624 40.5388 142.706 40.484C142.788 40.4292 142.884 40.3999 142.982 40.3999C143.048 40.3994 143.113 40.412 143.173 40.4368C143.234 40.4617 143.289 40.4985 143.336 40.5449C143.382 40.5913 143.419 40.6465 143.443 40.7073C143.468 40.7681 143.481 40.8332 143.48 40.8988Z" fill="white"/>
<path d="M145.615 40.8988C145.615 40.9977 145.586 41.0943 145.531 41.1764C145.476 41.2585 145.398 41.3225 145.307 41.3601C145.215 41.3978 145.115 41.4074 145.018 41.3878C144.922 41.3683 144.833 41.3204 144.764 41.2502C144.694 41.1801 144.647 41.0908 144.628 40.9938C144.609 40.8967 144.62 40.7963 144.658 40.7052C144.696 40.6141 144.761 40.5365 144.843 40.4821C144.926 40.4278 145.022 40.3992 145.121 40.3999C145.186 40.3999 145.251 40.4128 145.311 40.438C145.371 40.4631 145.426 40.4999 145.472 40.5463C145.518 40.5927 145.554 40.6477 145.579 40.7082C145.603 40.7687 145.616 40.8335 145.615 40.8988Z" fill="white"/>
<path d="M155.32 32.8158H112.312L115.493 2.12329H158.86L155.32 32.8158Z" fill="#263238"/>
<path d="M153.127 32.8158H110.123L113.3 2.12329H156.671L153.127 32.8158Z" fill="#455A64"/>
<path d="M151.533 31.4234H111.629L114.578 2.94702H154.822L151.533 31.4234Z" fill="#FAFAFA"/>
<path d="M116.014 26.6471C115.96 26.6471 116.358 22.3542 116.898 17.0789C117.439 11.8036 117.929 7.5223 117.983 7.53004C118.037 7.53777 117.643 11.8191 117.099 17.0982C116.555 22.3774 116.072 26.651 116.014 26.6471Z" fill="#263238"/>
<path d="M123.279 8.48142C122.618 8.58071 121.948 8.61439 121.28 8.58197C120.61 8.61447 119.939 8.58079 119.276 8.48142C120.607 8.34734 121.948 8.34734 123.279 8.48142Z" fill="#263238"/>
<path d="M140.326 8.48141C140.326 8.53556 136.752 8.58197 132.347 8.58197C127.943 8.58197 124.368 8.53556 124.368 8.48141C124.368 8.42727 127.939 8.38086 132.347 8.38086C136.756 8.38086 140.326 8.4234 140.326 8.48141Z" fill="#FEC830"/>
<path d="M122.808 18.6028C121.476 18.7368 120.134 18.7368 118.801 18.6028C120.134 18.4687 121.476 18.4687 122.808 18.6028Z" fill="#263238"/>
<path d="M139.852 18.6028C139.852 18.6569 136.281 18.7033 131.876 18.7033C127.472 18.7033 123.916 18.6569 123.916 18.6028C123.916 18.5486 127.487 18.5022 131.895 18.5022C136.304 18.5022 139.852 18.5641 139.852 18.6028Z" fill="#FEC830"/>
<path d="M134.416 23.2669C134.416 23.321 130.845 23.3674 126.441 23.3674C122.036 23.3674 118.458 23.321 118.458 23.2669C118.458 23.2127 122.032 23.1663 126.441 23.1663C130.849 23.1663 134.416 23.205 134.416 23.2669Z" fill="#FEC830"/>
<path d="M125.047 11.3396C124.111 11.4391 123.17 11.4727 122.229 11.4401C121.289 11.4727 120.347 11.4391 119.411 11.3396C120.347 11.2378 121.289 11.2042 122.229 11.239C123.17 11.2042 124.112 11.2378 125.047 11.3396Z" fill="#FEC830"/>
<path d="M124.904 15.528C123.969 15.6275 123.027 15.6611 122.086 15.6286C121.146 15.6613 120.204 15.6277 119.268 15.528C120.204 15.4261 121.146 15.3925 122.086 15.4275C123.027 15.3926 123.969 15.4262 124.904 15.528Z" fill="#FEC830"/>
<path d="M129.668 21.5149C128.732 21.6144 127.791 21.648 126.85 21.6155C125.91 21.648 124.968 21.6144 124.032 21.5149C124.968 21.4131 125.91 21.3795 126.85 21.4144C127.791 21.3795 128.732 21.4131 129.668 21.5149Z" fill="#FEC830"/>
<path d="M145.534 11.3396C145.534 11.3937 142.311 11.4401 138.334 11.4401C134.358 11.4401 131.135 11.3937 131.135 11.3396C131.135 11.2854 134.358 11.239 138.334 11.239C142.311 11.239 145.534 11.2816 145.534 11.3396Z" fill="#263238"/>
<path d="M141.106 15.7717C141.106 15.8258 137.883 15.8723 133.907 15.8723C129.931 15.8723 126.707 15.8258 126.707 15.7717C126.707 15.7176 129.931 15.6711 133.907 15.6711C137.883 15.6711 141.106 15.7137 141.106 15.7717Z" fill="#263238"/>
<path d="M146.063 21.5149C146.063 21.5691 142.839 21.6155 138.863 21.6155C134.887 21.6155 131.664 21.5691 131.664 21.5149C131.664 21.4608 134.887 21.4144 138.863 21.4144C142.839 21.4144 146.063 21.4569 146.063 21.5149Z" fill="#263238"/>
<path d="M132.915 26.6471C132.915 26.7013 129.691 26.7477 125.715 26.7477C121.739 26.7477 118.512 26.6858 118.512 26.6471C118.512 26.6085 121.735 26.5466 125.711 26.5466C129.687 26.5466 132.915 26.5891 132.915 26.6471Z" fill="#263238"/>
<path d="M148.838 26.6471C148.838 26.7013 145.615 26.7477 141.639 26.7477C137.663 26.7477 134.439 26.7013 134.439 26.6471C134.439 26.593 137.663 26.5466 141.639 26.5466C145.615 26.5466 148.838 26.5891 148.838 26.6471Z" fill="#263238"/>
<path d="M132.915 28.314C132.915 28.372 129.691 28.4146 125.715 28.4146C121.739 28.4146 118.512 28.372 118.512 28.314C118.512 28.256 121.735 28.2134 125.711 28.2134C129.687 28.2134 132.915 28.2599 132.915 28.314Z" fill="#263238"/>
<path d="M133.613 12.5423C133.613 12.5965 130.39 12.6429 126.414 12.6429C122.438 12.6429 119.214 12.5965 119.214 12.5423C119.214 12.4882 122.438 12.4418 126.414 12.4418C130.39 12.4418 133.613 12.4843 133.613 12.5423Z" fill="#263238"/>
<path d="M129.776 11.3551C129.162 11.4542 128.54 11.4879 127.919 11.4556C127.3 11.488 126.679 11.4543 126.066 11.3551C127.299 11.221 128.543 11.221 129.776 11.3551Z" fill="#455A64"/>
<path d="M122.337 19.9757C121.104 20.1098 119.86 20.1098 118.628 19.9757C119.86 19.8416 121.104 19.8416 122.337 19.9757Z" fill="#455A64"/>
<path d="M122.249 21.5149C121.017 21.649 119.774 21.649 118.543 21.5149C119.774 21.3809 121.017 21.3809 122.249 21.5149Z" fill="#455A64"/>
<path d="M154.382 5.95602C154.382 6.01404 145.407 6.05658 134.339 6.05658C123.272 6.05658 114.296 6.01404 114.296 5.95602C114.296 5.89801 123.268 5.85547 134.339 5.85547C145.41 5.85547 154.382 5.90188 154.382 5.95602Z" fill="#263238"/>
<path d="M116.999 5.07421C117.261 5.07421 117.473 4.86123 117.473 4.59851C117.473 4.33578 117.261 4.1228 116.999 4.1228C116.736 4.1228 116.524 4.33578 116.524 4.59851C116.524 4.86123 116.736 5.07421 116.999 5.07421Z" fill="white"/>
<path d="M119.041 5.07421C119.303 5.07421 119.515 4.86123 119.515 4.59851C119.515 4.33578 119.303 4.1228 119.041 4.1228C118.778 4.1228 118.566 4.33578 118.566 4.59851C118.566 4.86123 118.778 5.07421 119.041 5.07421Z" fill="white"/>
<path d="M121.079 5.07421C121.341 5.07421 121.554 4.86123 121.554 4.59851C121.554 4.33578 121.341 4.1228 121.079 4.1228C120.817 4.1228 120.604 4.33578 120.604 4.59851C120.604 4.86123 120.817 5.07421 121.079 5.07421Z" fill="white"/>
<path d="M82.4641 148.76H79.1133V153.339H82.4641V148.76Z" fill="#263238"/>
<path d="M100.422 95.326H130.151V93.8757H100.422V95.326Z" fill="#263238"/>
<path d="M134.76 95.3261L140.334 74.3913H117.122L112.073 95.3261H134.76Z" fill="#263238"/>
<path d="M113.462 93.7405H134.2L139.029 75.3582H118.184L113.462 93.7405Z" fill="#F5F5F5"/>
<path d="M118.701 78.9201L117.415 84.1258H131.166L132.629 78.9201H118.701Z" fill="#E0E0E0"/>
<path d="M129.73 78.2318C129.73 78.2898 127.317 78.3323 124.345 78.3323C121.372 78.3323 118.96 78.2898 118.96 78.2318C118.96 78.1738 121.368 78.1312 124.345 78.1312C127.321 78.1312 129.73 78.1776 129.73 78.2318Z" fill="#455A64"/>
<path d="M123.465 79.9141C122.02 80.0482 120.566 80.0482 119.122 79.9141C120.566 79.7801 122.02 79.7801 123.465 79.9141Z" fill="#263238"/>
<path d="M126.947 79.8328C126.009 79.9669 125.058 79.9669 124.121 79.8328C125.058 79.6988 126.009 79.6988 126.947 79.8328Z" fill="#263238"/>
<path d="M130.865 80.8578C130.865 80.9158 128.205 80.9622 124.928 80.9622C121.65 80.9622 118.987 80.9158 118.987 80.8578C118.987 80.7997 121.646 80.7572 124.928 80.7572C128.209 80.7572 130.865 80.8036 130.865 80.8578Z" fill="#455A64"/>
<path d="M122.604 81.7202C121.32 81.8551 120.027 81.8551 118.743 81.7202C120.027 81.5854 121.32 81.5854 122.604 81.7202Z" fill="#FEC830"/>
<path d="M129.811 82.9539C129.811 83.0081 127.344 83.0545 124.302 83.0545C121.26 83.0545 118.794 83.0081 118.794 82.9539C118.794 82.8998 121.26 82.8534 124.302 82.8534C127.344 82.8534 129.811 82.8959 129.811 82.9539Z" fill="#455A64"/>
<path d="M121.7 85.6187C120.288 85.752 118.866 85.752 117.454 85.6187C118.866 85.4853 120.288 85.4853 121.7 85.6187Z" fill="#455A64"/>
<path d="M125.348 85.638C124.869 85.7316 124.38 85.7615 123.893 85.7269C123.406 85.757 122.918 85.718 122.442 85.6109C122.919 85.5171 123.407 85.4872 123.893 85.5219C124.381 85.4923 124.871 85.5313 125.348 85.638Z" fill="#263238"/>
<path d="M127.391 85.5374C127.391 85.5955 127.116 85.638 126.777 85.638C126.437 85.638 126.163 85.5955 126.163 85.5374C126.163 85.4794 126.437 85.4369 126.777 85.4369C127.116 85.4369 127.391 85.4717 127.391 85.5374Z" fill="#263238"/>
<path d="M118.875 86.6861C118.875 86.7441 118.574 86.7867 118.199 86.7867C117.825 86.7867 117.524 86.7441 117.524 86.6861C117.524 86.6281 117.829 86.5856 118.199 86.5856C118.57 86.5856 118.875 86.632 118.875 86.6861Z" fill="#FEC830"/>
<path d="M122.932 86.6861C121.858 86.8202 120.771 86.8202 119.697 86.6861C120.771 86.5521 121.858 86.5521 122.932 86.6861Z" fill="#263238"/>
<path d="M132.598 86.5623C132.598 86.6203 130.668 86.6628 128.278 86.6628C125.889 86.6628 123.955 86.6203 123.955 86.5623C123.955 86.5043 125.885 86.4617 128.278 86.4617C130.672 86.4617 132.598 86.5081 132.598 86.5623Z" fill="#455A64"/>
<path d="M118.67 87.7922C118.67 87.8464 118.361 87.8928 117.975 87.8928C117.589 87.8928 117.28 87.8464 117.28 87.7922C117.28 87.7381 117.589 87.6917 117.975 87.6917C118.361 87.6917 118.67 87.7381 118.67 87.7922Z" fill="#263238"/>
<path d="M120.801 87.7535C120.249 87.8876 119.674 87.8876 119.122 87.7535C119.674 87.6195 120.249 87.6195 120.801 87.7535Z" fill="#263238"/>
<path d="M127.151 87.6723C126.246 87.7718 125.335 87.8054 124.426 87.7728C123.516 87.8054 122.605 87.7718 121.7 87.6723C122.605 87.5728 123.516 87.5392 124.426 87.5717C125.335 87.5392 126.246 87.5728 127.151 87.6723Z" fill="#455A64"/>
<path d="M123.793 89.6022C122.697 89.7017 121.596 89.7353 120.496 89.7028C119.395 89.7353 118.293 89.7018 117.195 89.6022C118.292 89.5004 119.395 89.4668 120.496 89.5017C121.596 89.4669 122.697 89.5004 123.793 89.6022Z" fill="#455A64"/>
<path d="M127.641 89.5171C126.649 89.6513 125.642 89.6513 124.65 89.5171C125.642 89.383 126.649 89.383 127.641 89.5171Z" fill="#FEC830"/>
<path d="M133.355 89.5172C131.705 89.6512 130.048 89.6512 128.398 89.5172C130.048 89.3831 131.705 89.3831 133.355 89.5172Z" fill="#263238"/>
<path d="M132.023 78.1505C132.023 78.2085 131.795 78.2511 131.513 78.2511C131.232 78.2511 131 78.2085 131 78.1505C131 78.0925 131.232 78.05 131.513 78.05C131.795 78.05 132.023 78.0964 132.023 78.1505Z" fill="#263238"/>
<path d="M121.6 77.4544C120.855 77.5885 120.091 77.5885 119.346 77.4544C120.091 77.3204 120.855 77.3204 121.6 77.4544Z" fill="#FEC830"/>
<path d="M138.682 76.6809H117.836L118.188 75.3582H139.033L138.682 76.6809Z" fill="#EBEBEB"/>
<path d="M119.064 76.2554C119.19 76.2554 119.292 76.1533 119.292 76.0273C119.292 75.9012 119.19 75.7991 119.064 75.7991C118.938 75.7991 118.836 75.9012 118.836 76.0273C118.836 76.1533 118.938 76.2554 119.064 76.2554Z" fill="#FAFAFA"/>
<path d="M119.847 76.2554C119.973 76.2554 120.075 76.1533 120.075 76.0273C120.075 75.9012 119.973 75.7991 119.847 75.7991C119.722 75.7991 119.62 75.9012 119.62 76.0273C119.62 76.1533 119.722 76.2554 119.847 76.2554Z" fill="#FAFAFA"/>
<path d="M120.631 76.2554C120.757 76.2554 120.859 76.1533 120.859 76.0273C120.859 75.9012 120.757 75.7991 120.631 75.7991C120.505 75.7991 120.403 75.9012 120.403 76.0273C120.403 76.1533 120.505 76.2554 120.631 76.2554Z" fill="#FAFAFA"/>
<path d="M164.087 97.2754H114.659V126.169H164.087V97.2754Z" fill="#263238"/>
<path d="M137.176 97.2754H114.659V126.169H137.176V97.2754Z" fill="#455A64"/>
<path d="M134.883 107.087C134.878 107.038 134.878 106.989 134.883 106.94V106.519C134.883 106.132 134.883 105.602 134.864 104.914C134.864 103.517 134.841 101.522 134.826 99.0621L134.899 99.1356L116.786 99.1627C116.694 99.2516 116.906 99.0389 116.883 99.0621V103.189C116.883 104.531 116.883 105.834 116.883 107.079L116.786 106.987L129.765 107.029L133.532 107.056H134.544H134.806H134.903H134.818H134.567L133.567 107.13L129.819 107.153L116.779 107.199H116.686V107.103C116.686 105.857 116.686 104.554 116.686 103.212C116.686 102.543 116.686 101.858 116.686 101.17V99.0853C116.667 99.1085 116.879 98.8958 116.79 98.9848L134.903 99.0118H134.972V99.0853C134.972 101.564 134.945 103.575 134.934 104.979C134.934 105.66 134.934 106.194 134.934 106.569V106.979C134.887 107.045 134.883 107.091 134.883 107.087Z" fill="#263238"/>
<path d="M126.595 103.077C126.545 102.857 126.423 102.661 126.248 102.52C126.154 102.454 126.045 102.412 125.932 102.398C125.818 102.384 125.703 102.398 125.595 102.438C125.466 102.488 125.355 102.575 125.277 102.689C125.198 102.803 125.156 102.938 125.155 103.077C125.157 103.215 125.199 103.349 125.278 103.463C125.356 103.577 125.467 103.665 125.595 103.715C125.699 103.754 125.811 103.769 125.922 103.757C126.032 103.746 126.139 103.709 126.232 103.649C126.406 103.506 126.528 103.311 126.58 103.092C126.58 103.092 126.611 103.162 126.58 103.289C126.548 103.475 126.449 103.643 126.302 103.761C126.192 103.852 126.06 103.913 125.919 103.938C125.778 103.963 125.634 103.951 125.499 103.904C125.33 103.846 125.183 103.737 125.08 103.591C124.976 103.445 124.92 103.271 124.92 103.092C124.92 102.913 124.976 102.739 125.08 102.593C125.183 102.447 125.33 102.338 125.499 102.28C125.634 102.232 125.778 102.22 125.919 102.245C126.059 102.269 126.191 102.329 126.302 102.419C126.46 102.527 126.573 102.689 126.618 102.875C126.618 103.007 126.618 103.077 126.595 103.077Z" fill="#263238"/>
<path d="M134.883 115.924C134.878 115.874 134.878 115.824 134.883 115.774V115.352C134.883 114.965 134.883 114.435 134.864 113.747C134.864 112.355 134.841 110.359 134.825 107.895L134.899 107.969L116.786 108C116.694 108.089 116.906 107.876 116.883 107.899V112.03C116.883 113.372 116.883 114.675 116.883 115.921L116.786 115.824L129.765 115.87L133.532 115.897H134.544H134.806H134.903H134.818H134.567H133.575L129.826 115.924L116.786 115.971H116.694V115.874C116.694 114.629 116.694 113.325 116.694 111.983C116.694 111.31 116.694 110.63 116.694 109.938V107.903L116.798 107.799L134.91 107.83H134.98V107.903C134.98 110.386 134.953 112.397 134.941 113.801C134.941 114.482 134.941 115.012 134.941 115.391V115.797C134.887 115.882 134.883 115.928 134.883 115.924Z" fill="#263238"/>
<path d="M126.595 111.91C126.543 111.691 126.421 111.496 126.248 111.353C126.154 111.287 126.045 111.245 125.932 111.231C125.818 111.217 125.703 111.231 125.595 111.272C125.467 111.322 125.356 111.41 125.278 111.523C125.199 111.637 125.157 111.772 125.155 111.91C125.156 112.048 125.198 112.184 125.277 112.297C125.355 112.411 125.466 112.499 125.595 112.548C125.703 112.589 125.818 112.603 125.932 112.589C126.045 112.574 126.154 112.533 126.248 112.467C126.422 112.325 126.544 112.129 126.595 111.91C126.595 111.91 126.626 111.98 126.595 112.107C126.563 112.293 126.464 112.461 126.317 112.579C126.207 112.67 126.075 112.731 125.935 112.756C125.794 112.781 125.649 112.769 125.514 112.722C125.345 112.664 125.199 112.555 125.095 112.409C124.991 112.263 124.935 112.089 124.935 111.91C124.935 111.731 124.991 111.556 125.095 111.411C125.199 111.265 125.345 111.156 125.514 111.098C125.649 111.051 125.794 111.039 125.935 111.064C126.075 111.089 126.207 111.15 126.317 111.241C126.464 111.359 126.563 111.527 126.595 111.713C126.618 111.84 126.618 111.91 126.595 111.91Z" fill="#263238"/>
<path d="M134.883 124.758C134.878 124.709 134.878 124.66 134.883 124.611V124.189C134.883 123.802 134.883 123.273 134.864 122.584C134.864 121.188 134.841 119.192 134.826 116.733L134.899 116.806L116.786 116.833C116.694 116.922 116.906 116.709 116.883 116.733V120.859C116.883 122.201 116.883 123.505 116.883 124.75L116.786 124.657L129.765 124.7L133.532 124.727H134.544H134.806H134.903H134.818H134.567H133.575L129.826 124.75L116.786 124.796H116.694V124.7C116.694 123.454 116.694 122.151 116.694 120.809C116.694 120.14 116.694 119.455 116.694 118.767V116.682C116.674 116.706 116.887 116.493 116.798 116.582L134.91 116.609H134.98V116.682C134.98 119.161 134.953 121.173 134.941 122.576C134.941 123.257 134.941 123.791 134.941 124.166V124.576C134.887 124.715 134.883 124.762 134.883 124.758Z" fill="#263238"/>
<path d="M126.595 120.747C126.545 120.528 126.423 120.332 126.248 120.19C126.154 120.124 126.045 120.083 125.932 120.069C125.818 120.054 125.703 120.068 125.595 120.109C125.466 120.158 125.355 120.246 125.277 120.36C125.198 120.474 125.156 120.609 125.155 120.747C125.157 120.885 125.199 121.02 125.278 121.134C125.356 121.248 125.467 121.335 125.595 121.385C125.703 121.426 125.818 121.44 125.932 121.426C126.045 121.412 126.154 121.37 126.248 121.304C126.421 121.162 126.543 120.966 126.595 120.747C126.595 120.747 126.626 120.817 126.595 120.944C126.563 121.13 126.464 121.298 126.317 121.416C126.207 121.507 126.075 121.568 125.935 121.593C125.794 121.618 125.649 121.606 125.514 121.559C125.345 121.501 125.199 121.392 125.095 121.246C124.991 121.101 124.935 120.926 124.935 120.747C124.935 120.568 124.991 120.394 125.095 120.248C125.199 120.103 125.345 119.993 125.514 119.935C125.649 119.887 125.793 119.875 125.934 119.9C126.075 119.924 126.207 119.984 126.317 120.074C126.464 120.192 126.563 120.36 126.595 120.546C126.618 120.666 126.618 120.747 126.595 120.747Z" fill="#263238"/>
<path d="M81.7423 149.688L48.7095 149.665V97.2754H81.7423V149.688Z" fill="#263238"/>
<path d="M165.882 95.2603H47.1152V98.0062H165.882V95.2603Z" fill="#263238"/>
<path d="M52.3922 98.0063H48.7095V153.582H52.3922V98.0063Z" fill="#263238"/>
<path d="M164.087 98.0063H160.404V153.598H164.087V98.0063Z" fill="#263238"/>
<path d="M140.859 98.0063H137.176V153.598H140.859V98.0063Z" fill="#263238"/>
<path d="M63.8149 95.2604C63.8149 95.3145 60.275 95.3609 55.909 95.3609C51.543 95.3609 48.0031 95.3145 48.0031 95.2604C48.0031 95.2062 51.543 95.1598 55.909 95.1598C60.275 95.1598 63.8149 95.2023 63.8149 95.2604Z" fill="#455A64"/>
<path d="M98.5385 150.875L98.635 146.903L91.2039 146.679L91.0031 152.48L91.4625 152.523C93.5123 152.701 101.885 153.273 103.267 152.909C104.811 152.492 98.5385 150.875 98.5385 150.875Z" fill="#FEC830"/>
<g opacity="0.4">
<path opacity="0.4" d="M101.6 151.776C101.6 151.776 103.792 152.48 103.507 152.84C103.221 153.199 94.7361 152.932 91.0031 152.492V152.325L100.893 152.712C100.893 152.712 101.167 151.78 101.6 151.776Z" fill="white"/>
</g>
<path d="M90.9066 152.318C90.949 152.322 90.9917 152.322 91.034 152.318L91.3969 152.352L92.748 152.453C93.9061 152.53 95.4503 152.612 97.2028 152.67C98.9554 152.728 100.523 152.739 101.665 152.735H103.017H103.383H103.514H103.383H103.017H101.665C100.507 152.735 98.9632 152.697 97.2067 152.642C95.4503 152.588 93.8907 152.515 92.7519 152.453L91.4008 152.383H91.0147L90.9066 152.318Z" fill="#263238"/>
<path d="M100.909 152.828C100.974 152.606 101.065 152.392 101.179 152.19C101.319 152.005 101.48 151.837 101.658 151.687C101.429 151.78 101.235 151.942 101.101 152.149C100.967 152.357 100.9 152.6 100.909 152.847V152.828Z" fill="#263238"/>
<path d="M98.7508 151.649C98.7701 151.649 98.8782 151.536 98.994 151.37C99.1098 151.204 99.1832 151.053 99.16 151.041C99.1369 151.03 99.0326 151.15 98.9207 151.32C98.8087 151.49 98.7315 151.633 98.7508 151.649Z" fill="#263238"/>
<path d="M98.1601 151.312C98.1601 151.312 98.2953 151.254 98.4265 151.142C98.5578 151.03 98.6504 150.925 98.635 150.906C98.6195 150.887 98.4999 150.964 98.3686 151.076C98.2374 151.188 98.1408 151.293 98.1601 151.312Z" fill="#263238"/>
<path d="M97.8012 150.597C97.924 150.644 98.0556 150.666 98.1872 150.658C98.3166 150.678 98.4486 150.667 98.5732 150.628C98.4501 150.581 98.3188 150.56 98.1872 150.566C97.9749 150.558 97.8012 150.57 97.8012 150.597Z" fill="#263238"/>
<path d="M97.6854 150.098C97.8112 150.186 97.9604 150.234 98.1139 150.237C98.2644 150.266 98.4203 150.25 98.5617 150.19C98.4169 150.161 98.2694 150.146 98.1216 150.148C97.9785 150.115 97.8322 150.098 97.6854 150.098Z" fill="#263238"/>
<path d="M99.021 151.006C99.1795 151.033 99.3413 151.033 99.4997 151.006C99.6733 150.989 99.8451 150.957 100.013 150.91C100.114 150.882 100.213 150.845 100.307 150.798C100.363 150.765 100.406 150.715 100.43 150.655C100.438 150.619 100.436 150.582 100.424 150.548C100.411 150.513 100.389 150.483 100.361 150.461C100.182 150.366 99.9754 150.336 99.7769 150.377C99.5785 150.417 99.4 150.525 99.2719 150.682C99.1959 150.775 99.1395 150.883 99.106 150.999C99.0828 151.08 99.0828 151.126 99.106 151.126C99.1606 150.986 99.2375 150.855 99.3337 150.74C99.4462 150.618 99.5908 150.531 99.7506 150.488C99.9395 150.43 100.144 150.45 100.318 150.542C100.391 150.6 100.361 150.689 100.276 150.74C100.188 150.783 100.096 150.818 100.002 150.844C99.8399 150.895 99.6748 150.934 99.5074 150.96C99.2102 150.995 99.021 150.991 99.021 151.006Z" fill="#263238"/>
<path d="M99.1445 151.034C99.2062 150.936 99.2296 150.819 99.2102 150.705C99.2001 150.578 99.159 150.456 99.0905 150.349C99.0529 150.277 98.9978 150.216 98.9303 150.172C98.8628 150.127 98.7851 150.1 98.7045 150.094C98.6555 150.102 98.6118 150.13 98.5829 150.17C98.554 150.211 98.5422 150.261 98.5501 150.31C98.5603 150.387 98.5852 150.46 98.6234 150.527C98.6841 150.634 98.758 150.733 98.8434 150.821C98.9144 150.91 99.0058 150.98 99.1098 151.026C99.1098 151.026 99.0172 150.937 98.8898 150.778C98.8166 150.688 98.752 150.591 98.6968 150.488C98.635 150.384 98.5964 150.202 98.7161 150.183C98.8357 150.163 98.9554 150.299 99.0249 150.395C99.0904 150.49 99.1339 150.599 99.1523 150.713C99.1608 150.82 99.1582 150.927 99.1445 151.034Z" fill="#263238"/>
<path d="M91.1035 150.283C91.1035 150.303 91.3158 150.283 91.6517 150.322C92.0887 150.382 92.4996 150.565 92.836 150.851C93.1725 151.137 93.4205 151.513 93.551 151.935C93.6011 152.112 93.6423 152.291 93.6745 152.472C93.6858 152.423 93.6858 152.371 93.6745 152.321C93.666 152.184 93.644 152.048 93.6089 151.915C93.4878 151.474 93.2366 151.079 92.8881 150.783C92.5396 150.487 92.11 150.304 91.6555 150.256C91.5195 150.242 91.3824 150.242 91.2463 150.256C91.1978 150.259 91.1498 150.268 91.1035 150.283Z" fill="#263238"/>
<path d="M91.9825 147.209C91.918 147.715 91.8809 148.225 91.8715 148.736C91.8339 149.251 91.8275 149.768 91.8523 150.283C91.9177 149.77 91.9548 149.254 91.9633 148.736C92.0001 148.228 92.0065 147.718 91.9825 147.209Z" fill="#263238"/>
<path d="M94.6589 151.815C95.0113 151.91 95.3748 151.958 95.7398 151.958C96.1035 151.986 96.4692 151.968 96.8284 151.904C96.8284 151.877 96.342 151.904 95.7436 151.869C95.1453 151.834 94.6628 151.792 94.6589 151.815Z" fill="#263238"/>
<path d="M93.1997 151.768C93.1997 151.788 93.238 151.873 93.2839 151.985C93.3298 152.097 93.3528 152.202 93.3796 152.198C93.4064 152.194 93.4217 152.082 93.3796 151.954C93.3375 151.826 93.2188 151.753 93.1997 151.768Z" fill="#263238"/>
<path d="M92.6747 151.068C92.6747 151.068 92.7017 151.165 92.775 151.246C92.8484 151.327 92.9256 151.378 92.9449 151.358C92.9642 151.339 92.914 151.266 92.8407 151.184C92.7673 151.103 92.6901 151.053 92.6747 151.068Z" fill="#263238"/>
<path d="M91.8988 150.732C91.8988 150.759 91.9991 150.759 92.1072 150.802C92.2153 150.844 92.2925 150.902 92.3157 150.887C92.3388 150.871 92.2732 150.767 92.142 150.716C92.0107 150.666 91.8756 150.709 91.8988 150.732Z" fill="#263238"/>
<path d="M91.3429 150.566C91.3429 150.589 91.3737 150.628 91.4355 150.655C91.4973 150.682 91.5552 150.682 91.5629 150.655C91.5706 150.628 91.532 150.589 91.4703 150.566C91.4085 150.542 91.3544 150.542 91.3429 150.566Z" fill="#263238"/>
<g opacity="0.3">
<path opacity="0.3" d="M91.1344 150.086L98.5617 150.19L98.5771 149.293L91.0919 149.614L91.1344 150.086Z" fill="black"/>
</g>
<path d="M110.262 151.494V147.518L102.827 147.491L102.781 153.292L103.244 153.323C105.294 153.443 113.667 153.795 115.053 153.385C116.582 152.94 110.262 151.494 110.262 151.494Z" fill="#FEC830"/>
<g opacity="0.4">
<path opacity="0.4" d="M113.343 152.31C113.343 152.31 115.555 152.96 115.273 153.323C114.991 153.687 106.51 153.652 102.766 153.323V153.157L112.663 153.284C112.663 153.284 112.91 152.329 113.343 152.31Z" fill="white"/>
</g>
<path d="M102.684 153.153H102.812L103.198 153.176L104.549 153.242C105.707 153.288 107.251 153.331 109.012 153.339C110.772 153.346 112.331 153.339 113.474 153.288L114.825 153.238L115.192 153.215H115.319H114.821L113.47 153.234C112.331 153.254 110.768 153.269 109.012 153.261C107.255 153.254 105.695 153.219 104.553 153.192L103.202 153.153H102.684Z" fill="#263238"/>
<path d="M112.679 153.385C112.739 153.161 112.824 152.944 112.934 152.739C113.069 152.55 113.224 152.376 113.397 152.221C113.167 152.307 112.976 152.475 112.86 152.693C112.719 152.894 112.654 153.14 112.679 153.385Z" fill="#263238"/>
<path d="M110.49 152.26C110.513 152.26 110.617 152.144 110.726 151.973C110.834 151.803 110.907 151.656 110.888 151.641C110.868 151.625 110.76 151.757 110.652 151.927C110.544 152.097 110.471 152.244 110.49 152.26Z" fill="#263238"/>
<path d="M109.892 151.939C109.892 151.958 110.027 151.877 110.154 151.765C110.282 151.652 110.374 151.54 110.355 151.521C110.336 151.502 110.224 151.583 110.092 151.695C109.961 151.807 109.876 151.919 109.892 151.939Z" fill="#263238"/>
<path d="M109.513 151.219C109.637 151.263 109.769 151.28 109.899 151.27C110.029 151.285 110.161 151.272 110.285 151.231C110.163 151.182 110.03 151.165 109.899 151.181C109.687 151.192 109.513 151.219 109.513 151.219Z" fill="#263238"/>
<path d="M109.386 150.736C109.52 150.808 109.667 150.851 109.819 150.863C109.97 150.875 110.123 150.856 110.266 150.805C110.121 150.783 109.973 150.773 109.826 150.774C109.681 150.749 109.534 150.736 109.386 150.736Z" fill="#263238"/>
<path d="M110.745 151.606C110.903 151.635 111.065 151.635 111.223 151.606C111.397 151.586 111.568 151.549 111.733 151.494C111.835 151.467 111.933 151.428 112.026 151.378C112.082 151.344 112.124 151.29 112.142 151.227C112.151 151.192 112.149 151.155 112.137 151.121C112.125 151.088 112.102 151.058 112.073 151.037C111.891 150.947 111.683 150.922 111.485 150.968C111.288 151.014 111.112 151.127 110.988 151.289C110.914 151.383 110.861 151.491 110.83 151.606C110.81 151.691 110.81 151.737 110.83 151.737C110.877 151.589 110.952 151.452 111.05 151.331C111.157 151.204 111.299 151.111 111.459 151.064C111.646 151.003 111.85 151.018 112.026 151.107C112.104 151.165 112.073 151.254 111.988 151.304C111.902 151.352 111.812 151.389 111.718 151.416C111.557 151.471 111.394 151.513 111.227 151.544C110.93 151.606 110.745 151.606 110.745 151.606Z" fill="#263238"/>
<path d="M110.868 151.633C110.93 151.535 110.951 151.417 110.926 151.304C110.912 151.179 110.868 151.058 110.799 150.952C110.759 150.883 110.703 150.825 110.636 150.782C110.569 150.74 110.492 150.715 110.413 150.709C110.389 150.713 110.366 150.723 110.345 150.736C110.325 150.75 110.307 150.768 110.293 150.788C110.28 150.809 110.27 150.832 110.266 150.856C110.261 150.88 110.261 150.905 110.266 150.929C110.276 151.005 110.302 151.077 110.343 151.142C110.406 151.247 110.482 151.344 110.567 151.432C110.718 151.579 110.837 151.637 110.841 151.625C110.845 151.614 110.745 151.54 110.617 151.389C110.54 151.3 110.473 151.203 110.417 151.099C110.351 150.999 110.309 150.817 110.417 150.798C110.525 150.778 110.656 150.906 110.729 150.999C110.795 151.093 110.841 151.199 110.864 151.312C110.876 151.419 110.878 151.526 110.868 151.633Z" fill="#263238"/>
<path d="M102.827 151.099C102.827 151.099 103.04 151.08 103.375 151.123C103.813 151.173 104.228 151.346 104.572 151.621C104.913 151.901 105.171 152.269 105.317 152.685C105.429 153.002 105.437 153.219 105.456 153.215C105.464 153.165 105.464 153.114 105.456 153.064C105.442 152.933 105.415 152.803 105.375 152.677C105.243 152.24 104.984 151.852 104.63 151.563C104.272 151.279 103.838 151.107 103.383 151.068C103.247 151.056 103.11 151.056 102.974 151.068C102.877 151.08 102.827 151.092 102.827 151.099Z" fill="#263238"/>
<path d="M103.61 148.001C103.554 148.515 103.531 149.032 103.541 149.548C103.513 150.064 103.513 150.58 103.541 151.095C103.597 150.582 103.622 150.065 103.614 149.548C103.643 149.033 103.641 148.517 103.61 148.001Z" fill="#263238"/>
<path d="M106.406 152.538C107.121 152.679 107.856 152.688 108.575 152.565C108.575 152.542 108.089 152.565 107.491 152.565C106.892 152.565 106.406 152.511 106.406 152.538Z" fill="#263238"/>
<path d="M104.947 152.526C104.947 152.546 104.985 152.631 105.035 152.743C105.084 152.855 105.111 152.956 105.134 152.952C105.157 152.948 105.172 152.836 105.115 152.708C105.058 152.581 104.962 152.511 104.947 152.526Z" fill="#263238"/>
<path d="M104.402 151.842C104.383 151.842 104.433 151.935 104.507 152.016C104.58 152.097 104.661 152.144 104.68 152.124C104.7 152.105 104.649 152.031 104.572 151.95C104.495 151.869 104.418 151.823 104.402 151.842Z" fill="#263238"/>
<path d="M103.619 151.525C103.619 151.552 103.723 151.552 103.831 151.59C103.939 151.629 104.016 151.687 104.036 151.668C104.055 151.649 103.993 151.552 103.858 151.505C103.723 151.459 103.611 151.502 103.619 151.525Z" fill="#263238"/>
<path d="M103.07 151.374C103.07 151.397 103.105 151.436 103.167 151.463C103.229 151.49 103.283 151.486 103.294 151.463C103.306 151.44 103.26 151.401 103.198 151.378C103.136 151.355 103.07 151.351 103.07 151.374Z" fill="#263238"/>
<g opacity="0.3">
<path opacity="0.3" d="M102.839 150.898L110.262 150.809L110.258 149.912L102.781 150.426L102.839 150.898Z" fill="black"/>
</g>
<path d="M93.8482 83.4374L96.8245 92.4332C97.6275 94.8581 99.7429 95.2758 102.295 95.2758H118.851V91.5514L103.723 89.3895L100.117 80.1617L93.8482 83.4374Z" fill="#FFBE9D"/>
<path d="M120.674 90.7624L121.986 90.1398C121.986 90.1398 123.399 87.3977 123.727 87.5099C124.055 87.622 124.148 88.4265 123.577 89.6834L125.325 89.1845C125.325 89.1845 129.108 90.9365 128.939 91.1724C128.889 91.2929 128.813 91.4007 128.716 91.488C128.62 91.5753 128.505 91.6399 128.38 91.677C128.255 91.714 128.124 91.7227 127.996 91.7023C127.867 91.6819 127.745 91.633 127.638 91.5592C126.815 91.1337 125.734 90.6387 125.734 90.6387L123.696 91.2227L126.325 91.5592L128.796 93.81C128.578 93.9775 128.309 94.0653 128.035 94.059C127.76 94.0526 127.496 93.9525 127.286 93.7752L120.863 95.1405L118.852 95.2565V91.5321L120.674 90.7624Z" fill="#FFBE9D"/>
<path d="M127.286 93.7636C127.259 93.7636 127.14 93.5896 126.9 93.3382C126.764 93.1941 126.606 93.0715 126.433 92.9747C126.215 92.8711 125.979 92.8094 125.738 92.7929C125.086 92.7484 124.439 92.6382 123.808 92.4641C124.461 92.4418 125.114 92.4858 125.758 92.5956C126.028 92.6122 126.291 92.6874 126.53 92.8161C126.713 92.9292 126.873 93.0747 127.004 93.2454C127.141 93.3909 127.238 93.5695 127.286 93.7636Z" fill="#EB996E"/>
<path d="M126.279 94.0189C126.256 94.0189 126.236 93.8874 126.055 93.8487C125.873 93.81 125.58 93.7791 125.283 93.7482C124.905 93.7424 124.528 93.7049 124.156 93.636C124.527 93.5055 124.927 93.4749 125.314 93.547C125.589 93.571 125.861 93.6268 126.124 93.7134C126.17 93.7303 126.211 93.7576 126.245 93.7932C126.278 93.8287 126.303 93.8716 126.317 93.9183C126.317 93.9802 126.294 94.0228 126.279 94.0189Z" fill="#EB996E"/>
<path d="M79.87 46.5144L78.9706 64.7613L86.7684 65.4961L87.1969 61.0678C87.1969 61.0678 89.9493 61.7485 90.7831 59.1998C91.3158 57.5716 91.7907 44.8166 91.7907 44.8166L79.87 46.5144Z" fill="#FFBE9D"/>
<path d="M92.4662 46.9475C92.6824 48.657 90.2967 49.6548 90.2967 49.6548L89.8837 53.6963C89.5097 53.6696 89.1343 53.6696 88.7603 53.6963C88.961 51.8012 86.5252 52.1725 86.2781 53.4643C86.0311 54.756 87.4362 55.5372 87.4362 55.5372C86.4634 57.034 86.0658 57.8268 84.6838 59.2307C83.186 60.7506 82.3676 60.8744 80.8235 60.828L79.1365 60.7197C79.1365 60.7197 78.5305 59.2616 78.0865 55.8157C77.8742 54.1604 76.581 51.9869 76.9284 49.2951C77.9746 41.6413 85.2937 42.4496 85.2937 42.4496C89.1193 42.5618 91.9644 42.9872 92.4662 46.9475Z" fill="#263238"/>
<path d="M86.8572 42.6778C88.5132 42.7203 90.2272 42.8518 91.6787 43.6447C93.1302 44.4375 94.2497 46.0735 93.9524 47.7017L93.1263 47.8525L92.7827 47.2415V48.2161L91.3274 48.6028C91.1122 47.361 90.6768 46.1677 90.0419 45.0795" fill="#263238"/>
<path d="M80.1788 51.0741C80.1195 50.9872 80.0763 50.8903 80.0514 50.788C79.9579 50.5174 79.8881 50.2392 79.843 49.9564C79.6841 49.0189 79.747 48.057 80.0266 47.1482C80.3061 46.2394 80.7946 45.409 81.4527 44.7237C81.6475 44.5153 81.8607 44.325 82.0897 44.1552C82.1689 44.0856 82.2588 44.0295 82.356 43.9889C82.3792 44.016 82.0202 44.2828 81.557 44.8165C80.9501 45.5118 80.494 46.3256 80.2174 47.2066C79.9519 48.0908 79.8704 49.0201 79.9781 49.9371C80.0669 50.641 80.2136 51.0509 80.1788 51.0741Z" fill="#455A64"/>
<path d="M81.7152 50.436C81.5651 50.1417 81.461 49.826 81.4064 49.5001C81.0662 47.9321 81.2089 46.2976 81.8156 44.8126C81.9244 44.4996 82.082 44.2059 82.2827 43.9424C81.8649 44.9665 81.5871 46.0423 81.4566 47.1409C81.3971 48.2459 81.4841 49.3539 81.7152 50.436Z" fill="#455A64"/>
<path d="M91.671 47.605C91.6324 47.605 91.5668 47.1332 91.2503 46.4448C90.8453 45.5349 90.1943 44.7568 89.3709 44.1984C88.5474 43.6399 87.5844 43.3236 86.5908 43.285C85.8188 43.2502 85.3594 43.3662 85.3517 43.3314C85.4531 43.2791 85.5628 43.2451 85.676 43.2309C85.9784 43.1708 86.2863 43.1423 86.5947 43.1458C87.6248 43.1459 88.6313 43.455 89.4844 44.0333C90.3376 44.6117 90.9983 45.4327 91.3815 46.3906C91.4981 46.6761 91.5848 46.9729 91.6401 47.2763C91.6692 47.3833 91.6796 47.4945 91.671 47.605Z" fill="#455A64"/>
<path d="M80.422 41.2004C80.8576 41.2939 81.2508 41.5275 81.5415 41.8656C81.8782 42.158 82.109 42.5537 82.1978 42.9911C82.1399 43.0143 81.8889 42.496 81.3987 42.0049C80.9084 41.5137 80.395 41.2585 80.422 41.2004Z" fill="#263238"/>
<path d="M82.2441 41.2082C82.302 41.2082 82.1823 41.6375 82.2054 42.1441C82.2286 42.6508 82.3676 43.0452 82.3135 43.0723C82.0964 42.8166 81.9859 42.487 82.0047 42.1519C81.9586 41.8181 82.0445 41.4794 82.2441 41.2082Z" fill="#455A64"/>
<path d="M92.4431 81.4804L93.717 85.8004L101.8 82.1379C101.507 81.2329 100.171 77.203 97.612 70.8061C96.9138 69.0524 95.7761 67.5086 94.3088 66.3237C92.8414 65.1388 91.094 64.3529 89.2351 64.0419C86.6866 63.5759 84.1047 63.3172 81.5145 63.2684C76.9825 63.3186 70.3196 66.1574 69.4124 70.6166C68.7291 74.0123 69.3892 80.0108 69.3892 87.2971L69.9799 101.22L93.2035 101.994L92.4431 81.4804Z" fill="#FEC830"/>
<g opacity="0.3">
<path opacity="0.3" d="M69.3969 84.0794C72.2227 84.6596 75.1256 84.0794 78.0054 83.9054C79.7503 83.801 81.6882 83.6115 83.0702 84.6789C84.1626 85.5297 84.6143 86.9646 84.9193 88.3182C86.1237 93.4736 86.3437 96.9311 86.6139 102.218L72.6357 103.069L69.3969 84.0794Z" fill="#FEC830"/>
</g>
<path d="M96.9326 69.4719C96.9326 69.5299 90.8372 69.5725 83.3173 69.5725C75.7974 69.5725 69.6981 69.5299 69.6981 69.4719C69.6981 69.4139 75.7935 69.3713 83.3173 69.3713C90.841 69.3713 96.9326 69.4178 96.9326 69.4719Z" fill="#FAFAFA"/>
<path d="M98.6273 73.3819C98.6273 73.436 91.9991 73.4824 83.8268 73.4824C75.6545 73.4824 69.0186 73.436 69.0186 73.3819C69.0186 73.3277 75.6468 73.2813 83.8268 73.2813C92.0068 73.2813 98.6273 73.3277 98.6273 73.3819Z" fill="#FAFAFA"/>
<path d="M100.754 78.2859C100.754 78.3439 93.6822 78.3865 84.9579 78.3865C76.2336 78.3865 69.1615 78.3439 69.1615 78.2859C69.1615 78.2279 76.2336 78.1854 84.9579 78.1854C93.6822 78.1854 100.754 78.2318 100.754 78.2859Z" fill="#FAFAFA"/>
<path d="M92.2616 83.5766C92.2616 83.6308 90.0535 83.6772 87.3281 83.6772C84.6027 83.6772 82.3946 83.6308 82.3946 83.5766C82.3946 83.5225 84.6027 83.4761 87.3281 83.4761C90.0535 83.4761 92.2616 83.538 92.2616 83.5766Z" fill="#FAFAFA"/>
<path d="M92.7287 89.3082C92.7287 89.3624 90.4126 89.3895 87.5636 89.3663C84.7147 89.3431 82.3985 89.2812 82.3985 89.2232C82.3985 89.1651 84.7147 89.1419 87.5636 89.1651C90.4126 89.1883 92.7287 89.2541 92.7287 89.3082Z" fill="#FAFAFA"/>
<path d="M92.9526 93.9802C92.8177 94.0048 92.6801 94.0113 92.5434 93.9995L91.4394 93.9763C90.5052 93.957 89.2158 93.9299 87.7914 93.9299C86.3669 93.9299 85.0892 93.9531 84.1395 93.9724L83.0355 93.9956C82.8997 94.0138 82.7621 94.0138 82.6263 93.9956C82.758 93.957 82.8944 93.9362 83.0316 93.9338C83.2903 93.9067 83.6686 93.8796 84.1357 93.8525C85.0699 93.7945 86.3631 93.7481 87.7914 93.7481C89.2197 93.7481 90.4936 93.7984 91.4433 93.8564C91.9104 93.8835 92.2887 93.9144 92.5473 93.9415C92.6835 93.9379 92.8196 93.9509 92.9526 93.9802Z" fill="#FAFAFA"/>
<path d="M92.8793 97.7549C92.8793 97.809 90.6017 97.8555 87.7914 97.8555C84.9811 97.8555 82.7035 97.809 82.7035 97.7549C82.7035 97.7008 84.9811 97.6544 87.7914 97.6544C90.6017 97.6544 92.8793 97.6969 92.8793 97.7549Z" fill="#FAFAFA"/>
<path d="M93.5664 65.6392C93.5664 65.6972 89.0962 65.7397 83.5836 65.7397C78.0711 65.7397 73.6009 65.6972 73.6009 65.6392C73.6009 65.5812 78.0711 65.5386 83.5836 65.5386C89.0962 65.5386 93.5664 65.585 93.5664 65.6392Z" fill="#FAFAFA"/>
<path d="M93.0337 66.3663C93.0337 66.3895 92.7982 66.4011 92.4161 66.5519C91.879 66.7851 91.4159 67.1609 91.0765 67.6387C90.5825 68.353 90.305 69.195 90.2775 70.0636C90.2466 71.1315 90.3282 72.1996 90.5207 73.2504C90.8484 75.1746 91.2827 77.0791 91.8216 78.955C92.0107 79.655 92.169 80.2313 92.2887 80.6683C92.3537 80.8759 92.404 81.0879 92.4392 81.3026C92.3466 81.1059 92.2717 80.9014 92.2153 80.6915C92.0841 80.3048 91.8988 79.713 91.6826 78.9937C91.1064 77.1217 90.655 75.2134 90.3315 73.2814C90.136 72.2154 90.0584 71.1311 90.0999 70.0481C90.1382 69.1485 90.4418 68.2805 90.9723 67.5536C91.3334 67.0664 91.8264 66.6933 92.3929 66.4784C92.5484 66.4262 92.7088 66.3899 92.8716 66.3701C92.9252 66.3613 92.9797 66.36 93.0337 66.3663Z" fill="#263238"/>
<path d="M101.546 81.0319C101.186 81.2836 100.805 81.5036 100.407 81.6893C99.6889 82.0761 98.6852 82.5595 97.558 83.07C96.4308 83.5805 95.3962 84.006 94.6396 84.296C94.2373 84.4702 93.8216 84.6111 93.3965 84.7176C93.7787 84.5041 94.1761 84.3193 94.5855 84.1645C95.3267 83.8397 96.3497 83.391 97.4769 82.8883C98.6041 82.3855 99.6117 81.902 100.345 81.5617C100.733 81.3593 101.134 81.1823 101.546 81.0319Z" fill="#263238"/>
<path d="M77.1446 101.448L104.893 102.431C107.058 102.507 109.107 103.432 110.6 105.005C112.092 106.579 112.909 108.676 112.876 110.846L111.718 150.55L100.998 150.194L101.793 113.02L77.1369 112.37L77.1446 101.448Z" fill="#263238"/>
<path d="M65.6833 101.448L93.4197 102.431C95.5847 102.508 97.6331 103.433 99.1256 105.006C100.618 106.58 101.436 108.676 101.403 110.846L100.245 150.55L89.4011 149.672L90.3314 113.02L65.6756 112.37L65.6833 101.448Z" fill="#263238"/>
<path d="M86.4518 115.87H83.7226V148.632H86.4518V115.87Z" fill="#455A64"/>
<path d="M60.8193 84.0717V108.189C60.8193 109.709 61.4217 111.165 62.4938 112.24C63.566 113.314 65.0202 113.917 66.5365 113.917H82.5645V84.0717C82.565 83.7364 82.4995 83.4042 82.3716 83.0943C82.2438 82.7844 82.0561 82.5028 81.8194 82.2657C81.5827 82.0285 81.3017 81.8405 80.9923 81.7124C80.683 81.5843 80.3514 81.5187 80.0167 81.5192H63.3671C62.6914 81.5192 62.0434 81.7881 61.5656 82.2668C61.0878 82.7455 60.8193 83.3947 60.8193 84.0717Z" fill="#455A64"/>
<path d="M104.14 115.87H65.1043C65.1043 114.742 65.5517 113.66 66.348 112.862C67.1444 112.064 68.2245 111.616 69.3507 111.616H99.9051C101.031 111.616 102.111 112.064 102.908 112.862C103.704 113.66 104.151 114.742 104.151 115.87H104.14Z" fill="#455A64"/>
<path d="M82.5645 111.063C82.5743 111.124 82.5743 111.187 82.5645 111.249C82.5651 111.426 82.5444 111.602 82.5027 111.775C82.374 112.321 82.0893 112.817 81.6835 113.204C81.2777 113.591 80.7682 113.851 80.2174 113.952C79.7047 114.007 79.1887 114.026 78.6733 114.01H75.1681C72.6782 114.01 70.4238 114.01 68.7947 113.987L66.8646 113.96L66.3396 113.94C66.2786 113.94 66.2179 113.933 66.1581 113.921C66.217 113.904 66.2782 113.896 66.3396 113.898H66.8646L68.7947 113.863C70.4238 113.844 72.6782 113.832 75.1681 113.828H78.6733C79.1779 113.849 79.6834 113.837 80.1865 113.793C80.6154 113.721 81.0214 113.549 81.3716 113.291C81.8866 112.908 82.2579 112.363 82.4255 111.744C82.4839 111.519 82.5303 111.292 82.5645 111.063Z" fill="#263238"/>
<path d="M87.4787 115.955C86.6852 116.057 85.8845 116.091 85.0853 116.056C84.2861 116.091 83.4854 116.057 82.6919 115.955C83.4856 115.856 84.2861 115.822 85.0853 115.855C85.8845 115.822 86.685 115.856 87.4787 115.955Z" fill="#263238"/>
<path d="M99.3569 114.126C99.2419 113.747 99.1605 113.359 99.1137 112.966C98.9863 112.223 98.8126 111.144 98.6041 109.814C98.3957 108.483 98.2528 106.871 97.5194 105.273C97.1336 104.442 96.6461 103.663 96.0679 102.953C95.4393 102.199 94.7076 101.537 93.8945 100.988C93.0842 100.432 92.1937 100.003 91.2541 99.7157C90.379 99.4362 89.4698 99.2787 88.5519 99.2477C86.7838 99.209 85.1741 99.2168 83.8307 99.1897C82.4873 99.1626 81.3948 99.151 80.642 99.1278C80.2543 99.1364 79.8667 99.1092 79.4839 99.0466C79.867 98.9869 80.2545 98.961 80.642 98.9693C81.3948 98.9461 82.4834 98.9229 83.8307 98.9074C85.1779 98.8919 86.7722 98.8571 88.5634 98.8803C90.543 98.9269 92.4673 99.5432 94.1069 100.656C94.9526 101.225 95.7119 101.914 96.3613 102.701C96.9568 103.442 97.4561 104.256 97.8475 105.122C97.9363 105.327 98.0096 105.54 98.0907 105.745L98.2065 106.055C98.2335 106.159 98.2644 106.263 98.2914 106.368C98.3494 106.573 98.4073 106.778 98.4613 106.979C98.5153 107.18 98.5346 107.385 98.5694 107.582C98.7084 108.375 98.7817 109.102 98.8744 109.775C99.0442 111.109 99.1755 112.196 99.2604 112.943C99.3281 113.333 99.3604 113.729 99.3569 114.126Z" fill="#455A64"/>
<path d="M97.0252 151.606H96.6392C96.6673 150.06 96.3877 148.524 95.8167 147.088C95.2457 145.651 94.3947 144.344 93.3135 143.24C92.2323 142.137 90.9425 141.261 89.5194 140.663C88.0964 140.065 86.5687 139.757 85.0254 139.757C83.4822 139.757 81.9545 140.065 80.5314 140.663C79.1084 141.261 77.8186 142.137 76.7374 143.24C75.6561 144.344 74.8052 145.651 74.2342 147.088C73.6632 148.524 73.3835 150.06 73.4117 151.606H73.0256C72.9971 150.009 73.2863 148.422 73.8765 146.939C74.4667 145.455 75.3461 144.104 76.4632 142.965C77.5803 141.825 78.9128 140.92 80.3829 140.302C81.853 139.684 83.4312 139.366 85.0254 139.366C86.6196 139.366 88.1979 139.684 89.668 140.302C91.1381 140.92 92.4706 141.825 93.5877 142.965C94.7048 144.104 95.5842 145.455 96.1744 146.939C96.7646 148.422 97.0538 150.009 97.0252 151.606Z" fill="#455A64"/>
<path d="M75.0176 152.198C75.0176 152.554 74.9121 152.903 74.7144 153.199C74.5167 153.495 74.2358 153.726 73.9071 153.863C73.5784 153.999 73.2167 154.035 72.8677 153.965C72.5187 153.896 72.1982 153.724 71.9466 153.472C71.695 153.22 71.5237 152.899 71.4543 152.549C71.3849 152.2 71.4205 151.837 71.5567 151.508C71.6928 151.179 71.9234 150.897 72.2192 150.699C72.5151 150.501 72.8629 150.395 73.2186 150.395C73.6957 150.395 74.1533 150.585 74.4907 150.923C74.828 151.261 75.0176 151.72 75.0176 152.198Z" fill="#263238"/>
<path d="M98.7199 151.95C98.7199 152.307 98.6144 152.655 98.4168 152.952C98.2191 153.248 97.9382 153.479 97.6094 153.615C97.2807 153.752 96.919 153.787 96.5701 153.718C96.2211 153.648 95.9006 153.477 95.649 153.225C95.3974 152.973 95.2261 152.651 95.1567 152.302C95.0873 151.952 95.1229 151.59 95.2591 151.261C95.3952 150.931 95.6258 150.65 95.9216 150.452C96.2174 150.254 96.5652 150.148 96.921 150.148C97.3981 150.148 97.8557 150.338 98.1931 150.676C98.5304 151.014 98.7199 151.472 98.7199 151.95Z" fill="#263238"/>
<path d="M96.894 148.632C96.894 148.69 91.671 148.732 85.232 148.732C78.793 148.732 73.57 148.69 73.57 148.632C73.57 148.574 78.7892 148.531 85.232 148.531C91.6749 148.531 96.894 148.578 96.894 148.632Z" fill="#455A64"/>
<path d="M57.0671 73.3742C57.3528 73.5538 57.5995 73.7891 57.7925 74.0662C57.9854 74.3432 58.1208 74.6564 58.1905 74.987C58.3225 75.652 58.3014 76.3385 58.1287 76.9942C57.8315 78.2627 56.9513 79.4771 56.0441 80.4131C55.0713 79.3418 55.0173 77.6633 55.0404 76.8086C55.079 75.4588 55.9708 73.0416 57.0671 73.3742Z" fill="#FEC830"/>
<path d="M57.0555 82.6872C57.0255 82.312 57.095 81.9355 57.2571 81.5959C57.4191 81.2563 57.6679 80.9656 57.9782 80.7534C58.2928 80.5452 58.6456 80.4018 59.016 80.3314C59.3865 80.261 59.7672 80.2651 60.1361 80.3435C60.309 80.3622 60.4759 80.4182 60.6251 80.5076C60.7744 80.5971 60.9026 80.7179 61.0008 80.8617C61.069 81.0101 61.0963 81.174 61.08 81.3365C61.0637 81.499 61.0044 81.6542 60.9082 81.786C60.7081 82.0487 60.4415 82.253 60.1361 82.3778C59.1285 82.8573 58.0669 83.1513 57.0478 82.6949" fill="#FEC830"/>
<path d="M55.4265 85.5181C55.4796 85.2348 55.5611 84.9575 55.6697 84.6905C55.7808 84.3956 55.9245 84.1141 56.0982 83.8513C56.3028 83.5261 56.5284 83.2147 56.7737 82.9192C57.2251 82.3766 57.8033 81.9542 58.4568 81.6893C58.6557 81.6162 58.8613 81.5631 59.0706 81.5308C59.1473 81.5181 59.2256 81.5181 59.3022 81.5308C59.3022 81.5578 58.978 81.5926 58.4954 81.7976C57.8734 82.0812 57.3232 82.5016 56.8857 83.0275C56.6436 83.3174 56.418 83.6209 56.2101 83.9363C56.0345 84.1882 55.8857 84.4578 55.7662 84.7408C55.6696 85.0069 55.5561 85.2665 55.4265 85.5181Z" fill="#263238"/>
<path d="M56.5537 75.2731C56.5681 75.4185 56.5681 75.5648 56.5537 75.7102C56.5537 75.9886 56.5151 76.3947 56.4765 76.8936C56.4031 77.8953 56.2873 79.276 56.1213 80.7998C55.9553 82.3236 55.7585 83.6927 55.5886 84.6982C55.5114 85.1933 55.4419 85.5916 55.3917 85.8585C55.3694 86.0024 55.3372 86.1445 55.2952 86.2839C55.2939 86.1373 55.3069 85.991 55.3338 85.8469C55.3724 85.5452 55.4265 85.1469 55.4882 84.6866C55.6195 83.6927 55.7932 82.3197 55.9592 80.7959C56.1252 79.2721 56.2526 77.9224 56.3452 76.9013C56.3954 76.4218 56.434 76.0234 56.4688 75.7179C56.4827 75.5672 56.5111 75.4183 56.5537 75.2731Z" fill="#263238"/>
<path d="M55.3647 82.9927C55.2154 82.2096 54.8824 81.4733 54.393 80.8445C53.9037 80.2158 53.2722 79.7126 52.5505 79.3766C52.1838 79.2103 51.7051 79.1059 51.4117 79.3766C51.1184 79.6473 51.1956 80.1501 51.35 80.5369C51.6875 81.3125 52.2467 81.9706 52.9571 82.4283C53.6674 82.886 54.4971 83.1227 55.3415 83.1087" fill="#FEC830"/>
<path d="M52.8362 80.5291C52.9092 80.5517 52.9783 80.5856 53.0408 80.6297C53.2213 80.7329 53.3965 80.8453 53.5658 80.9661C54.1399 81.353 54.6384 81.8419 55.0366 82.4087C55.2476 82.7292 55.4053 83.0819 55.5036 83.453C55.5799 83.7563 55.6149 84.0685 55.6079 84.3812C55.6005 84.5904 55.576 84.7986 55.5345 85.0038C55.5268 85.082 55.5045 85.1581 55.4689 85.2281C55.4419 85.2281 55.5075 84.8994 55.5036 84.3812C55.4965 84.0791 55.4525 83.7791 55.3724 83.4878C55.2704 83.1338 55.1155 82.7974 54.913 82.4899C54.5221 81.9378 54.0465 81.4509 53.504 81.0474C53.271 80.8886 53.0479 80.7155 52.8362 80.5291Z" fill="#263238"/>
<path d="M55.2374 95.2604C53.9572 95.2593 52.7299 94.7491 51.8251 93.8419C50.9202 92.9347 50.412 91.7046 50.412 90.4221V85.5878H60.0627V90.4221C60.0627 91.7046 59.5545 92.9347 58.6497 93.8419C57.7448 94.7491 56.5175 95.2593 55.2374 95.2604Z" fill="#263238"/>
<path d="M60.0666 87.9663C60.0268 88.0164 59.9815 88.0618 59.9315 88.1017L59.5455 88.4614L58.0785 89.726L58.0438 89.7531L58.0013 89.7299L55.2026 88.0359H55.2798L52.678 89.726L52.6394 89.7531L52.6008 89.7222L50.9987 88.4652L50.5587 88.1094C50.5041 88.0693 50.4549 88.0225 50.412 87.9702C50.412 87.9702 50.4737 88.0011 50.5818 88.0746L51.045 88.4033L52.6818 89.6177H52.6046L55.1949 87.9083L55.2373 87.8812L55.2798 87.9044L58.067 89.6139H57.9898L59.4798 88.4033L59.9045 88.0707C60.0048 87.9973 60.0627 87.9586 60.0666 87.9663Z" fill="#E0E0E0"/>
<path d="M60.0666 87.0188C60.0268 87.0689 59.9815 87.1143 59.9315 87.1542L59.5455 87.5138L58.0901 88.7708L58.0554 88.7978L58.0129 88.7746L55.2026 87.0691H55.2798L52.678 88.7592L52.6394 88.7862L52.6008 88.7553L50.9987 87.4984L50.5587 87.1426C50.5041 87.1025 50.4549 87.0557 50.412 87.0033C50.412 87.0033 50.4737 87.0343 50.5818 87.1077L51.045 87.4365L52.6818 88.6509H52.6046L55.1949 86.9414L55.2373 86.9144L55.2798 86.9376L58.067 88.647H57.9898L59.4798 87.4365L59.9045 87.1039C60.0048 87.0188 60.0627 86.9917 60.0666 87.0188Z" fill="#E0E0E0"/>
<path d="M60.0666 88.9525C60.0666 88.9525 60.0241 89.0066 59.9315 89.0917L59.5454 89.4475L58.0901 90.7044L58.0554 90.7354L58.0129 90.7083L55.2026 89.0221H55.2798L52.6779 90.7122L52.6393 90.7393L52.6007 90.7122C51.956 90.2017 51.4079 89.7762 50.9987 89.4552L50.5586 89.0956C50.4582 89.0105 50.4081 88.9641 50.4119 88.9563C50.4722 88.9847 50.5292 89.0197 50.5818 89.0607L51.045 89.3934L52.6818 90.6039H52.6046L55.1949 88.8944L55.2373 88.8674L55.2798 88.8944L58.0669 90.6H57.9897L59.4798 89.3856L59.9044 89.0569C59.953 89.0142 60.0076 88.979 60.0666 88.9525Z" fill="#E0E0E0"/>
<path d="M185.141 106.615C183.141 106.94 182.246 109.4 182.419 111.423C182.593 113.445 183.427 115.426 183.191 117.441C182.91 120.005 180.976 122.17 180.752 124.738C180.485 127.767 182.624 130.455 183.261 133.425C183.574 134.871 183.527 136.403 184.068 137.78C184.524 138.955 185.374 139.935 186.471 140.552C187.569 141.169 188.846 141.385 190.085 141.163C191.324 140.941 192.448 140.295 193.264 139.335C194.08 138.375 194.538 137.161 194.56 135.9C194.606 133.58 193.174 131.387 193.348 129.066C193.475 127.353 194.479 125.729 194.263 124.038C194.008 122.008 192.132 120.558 191.468 118.624C190.804 116.69 191.445 114.555 191.213 112.521C190.804 108.874 188.785 106.333 185.133 106.623" fill="#FEC830"/>
<path d="M174.923 124.278C174.583 127.659 176.081 131.627 177.81 134.554C179.566 137.495 182.213 139.798 185.365 141.129C185.716 141.276 186.156 141.4 186.453 141.16C186.559 141.044 186.639 140.907 186.686 140.757C186.733 140.607 186.747 140.449 186.727 140.294C186.751 136.706 185.613 133.207 183.485 130.321C181.357 127.435 178.353 125.318 174.923 124.286" fill="#FEC830"/>
<g opacity="0.2">
<path opacity="0.2" d="M174.923 124.278C174.583 127.659 176.081 131.627 177.81 134.554C179.566 137.495 182.213 139.798 185.365 141.129C185.716 141.276 186.156 141.4 186.453 141.16C186.559 141.044 186.639 140.907 186.686 140.757C186.733 140.607 186.747 140.449 186.727 140.294C186.751 136.706 185.613 133.207 183.485 130.321C181.357 127.435 178.353 125.318 174.923 124.286" fill="black"/>
</g>
<path d="M189.619 148.187C189.581 148.129 189.55 148.067 189.526 148.002C189.461 147.855 189.38 147.673 189.283 147.445C189.082 146.965 188.777 146.284 188.391 145.414C187.386 143.194 186.269 141.027 185.044 138.921C183.815 136.817 182.482 134.776 181.049 132.806C180.497 132.052 180.041 131.445 179.721 131.031C179.571 130.838 179.451 130.675 179.354 130.548C179.309 130.494 179.27 130.436 179.239 130.373C179.239 130.373 179.296 130.42 179.385 130.524L179.771 130.985C180.107 131.371 180.582 131.978 181.149 132.725C184.098 136.628 186.572 140.87 188.519 145.36C188.905 146.222 189.175 146.907 189.356 147.418L189.565 147.986C189.593 148.05 189.611 148.118 189.619 148.187Z" fill="#263238"/>
<path d="M187.449 115.967C187.471 116.074 187.482 116.183 187.484 116.292C187.503 116.52 187.523 116.829 187.554 117.224C187.604 118.048 187.681 119.216 187.774 120.647C187.955 123.54 188.21 127.535 188.519 131.944C188.827 136.353 189.136 140.348 189.36 143.237C189.468 144.668 189.557 145.832 189.623 146.66C189.646 147.046 189.669 147.36 189.684 147.588C189.694 147.697 189.694 147.807 189.684 147.916C189.662 147.809 189.646 147.701 189.638 147.592C189.615 147.363 189.58 147.054 189.538 146.663C189.46 145.84 189.352 144.676 189.217 143.248C188.959 140.359 188.631 136.372 188.322 131.959C188.013 127.546 187.777 123.551 187.631 120.654C187.561 119.22 187.507 118.055 187.469 117.228C187.469 116.841 187.445 116.524 187.438 116.292C187.432 116.183 187.436 116.075 187.449 115.967Z" fill="#263238"/>
<path d="M184.346 143.368H192.796V149.583C192.795 150.661 192.367 151.694 191.606 152.455C190.845 153.217 189.814 153.644 188.739 153.644C187.701 153.645 186.702 153.246 185.949 152.531C185.195 151.816 184.745 150.838 184.689 149.8L184.346 143.368Z" fill="#263238"/>
<path d="M141.55 61.4314L161.701 72.6123L160.941 74.0356L140.971 62.6458L141.55 61.4314Z" fill="#FEC830"/>
<path d="M140.558 60.3755L141.485 58.9562L142.025 59.2888L141.195 60.7197L140.558 60.3755Z" fill="#FEC830"/>
<path d="M159.412 70.8449L160.446 71.4405L157.073 93.0134L155.474 93.0328L159.412 70.8449Z" fill="#FEC830"/>
<path d="M150.83 95.2604C150.83 95.2604 153.289 92.7697 156.578 92.9399C157.518 92.9743 158.442 93.1947 159.297 93.5883C160.152 93.9819 160.92 94.541 161.558 95.2333L150.83 95.2604Z" fill="#FEC830"/>
<path d="M140.577 70.1564L132.598 65.5387L134.914 61.5435C135.217 61.0185 135.619 60.5583 136.099 60.1892C136.579 59.8201 137.127 59.5494 137.711 59.3924C138.295 59.2355 138.905 59.1954 139.505 59.2745C140.104 59.3536 140.683 59.5503 141.207 59.8534C141.73 60.1566 142.189 60.5602 142.557 61.0411C142.925 61.522 143.195 62.0708 143.352 62.6562C143.508 63.2416 143.547 63.8521 143.468 64.4528C143.389 65.0536 143.192 65.6328 142.89 66.1575L140.577 70.1564Z" fill="#FEC830"/>
</g>
<defs>
<clipPath id="clip0">
<rect width="239" height="154" fill="white"/>
</clipPath>
</defs>
</svg>
