<svg width="162" height="154" fill="none" xmlns="http://www.w3.org/2000/svg"><g clip-path="url(#clip0)"><path d="M132.043 12.519c0-1.336.702-2.134 1.675-2.134.973 0 1.679.798 1.679 2.134 0 1.336-.706 2.133-1.679 2.133-.973 0-1.675-.797-1.675-2.133zm2.912 0c0-1.113-.505-1.74-1.237-1.74-.731 0-1.236.62-1.236 1.74s.505 1.74 1.236 1.74c.732 0 1.237-.62 1.237-1.74zM136.013 12.519c0-1.336.702-2.134 1.675-2.134.973 0 1.682.798 1.682 2.134 0 1.336-.709 2.133-1.682 2.133s-1.675-.797-1.675-2.133zm2.911 0c0-1.113-.505-1.74-1.236-1.74-.732 0-1.237.62-1.237 1.74s.505 1.74 1.237 1.74c.731 0 1.236-.62 1.236-1.74zM141.138 10.419v4.2h-.435v-3.814h-.988v-.371l1.423-.015zM142.137 12.519c0-1.336.701-2.134 1.674-2.134s1.683.798 1.683 2.134c0 1.336-.71 2.133-1.683 2.133-.973 0-1.674-.797-1.674-2.133zm2.911 0c0-1.113-.505-1.74-1.237-1.74-.731 0-1.236.62-1.236 1.74s.505 1.74 1.236 1.74c.732 0 1.237-.62 1.237-1.74zM147.261 10.419v4.2h-.431v-3.814h-.991v-.371l1.422-.015zM127.91 18.474c0-1.34.702-2.137 1.675-2.137.973 0 1.679.797 1.679 2.137 0 1.34-.706 2.134-1.679 2.134-.973 0-1.675-.798-1.675-2.134zm2.912 0c0-1.113-.505-1.74-1.237-1.74-.731 0-1.236.616-1.236 1.74s.508 1.736 1.251 1.736c.743 0 1.222-.616 1.222-1.736zM131.88 18.474c0-1.34.702-2.137 1.675-2.137.973 0 1.678.797 1.678 2.137 0 1.34-.705 2.134-1.678 2.134s-1.675-.798-1.675-2.134zm2.911 0c0-1.113-.505-1.74-1.236-1.74-.732 0-1.237.616-1.237 1.74s.505 1.736 1.237 1.736c.731 0 1.244-.616 1.244-1.736h-.008zM137.005 16.374v4.196h-.435v-3.814h-.988v-.371l1.423-.011zM138.004 18.474c0-1.34.701-2.137 1.674-2.137s1.683.797 1.683 2.137c0 1.34-.71 2.134-1.683 2.134-.973 0-1.674-.798-1.674-2.134zm2.911 0c0-1.113-.505-1.74-1.237-1.74-.731 0-1.236.616-1.236 1.74s.505 1.736 1.236 1.736c.732 0 1.237-.616 1.237-1.736zM143.128 16.374v4.196h-.434v-3.814h-.988v-.371l1.422-.011zM145.293 16.374v4.196h-.431v-3.814h-.991v-.371l1.422-.011zM146.311 18.474c0-1.34.701-2.137 1.674-2.137s1.668.797 1.668 2.137c0 1.34-.71 2.134-1.682 2.134-.973 0-1.66-.798-1.66-2.134zm2.911 0c0-1.113-.505-1.74-1.237-1.74-.731 0-1.236.616-1.236 1.74s.505 1.736 1.236 1.736c.732 0 1.218-.616 1.218-1.736h.019zM151.417 16.374v4.196h-.431v-3.814h-.992v-.371l1.423-.011zM132.043 24.229c0-1.336.702-2.134 1.675-2.134.973 0 1.682.798 1.682 2.134 0 1.336-.709 2.137-1.682 2.137s-1.675-.798-1.675-2.137zm2.912 0c0-1.113-.505-1.737-1.237-1.737-.731 0-1.236.616-1.236 1.737 0 1.12.505 1.744 1.236 1.744.732 0 1.237-.624 1.237-1.744zM137.168 22.132v4.212h-.434v-3.83h-.988v-.37l1.422-.012zM139.333 22.132v4.212h-.431v-3.83h-.991v-.37l1.422-.012zM141.483 22.132v4.212h-.431v-3.83h-.991v-.37l1.422-.012zM142.501 24.229c0-1.336.701-2.134 1.671-2.134.969 0 1.682.798 1.682 2.134 0 1.336-.709 2.137-1.682 2.137s-1.671-.798-1.671-2.137zm2.907 0c0-1.113-.501-1.737-1.236-1.737-.736 0-1.237.616-1.237 1.737 0 1.12.505 1.744 1.237 1.744.731 0 1.236-.624 1.236-1.744zM147.621 22.132v4.212h-.43v-3.83h-.992v-.37l1.422-.012zM37.387 56.95c0 .034-4.783.06-10.68.06-5.897 0-10.687-.026-10.687-.06 0-.033 4.783-.062 10.687-.062 5.905 0 10.68.03 10.68.063zM37.387 58.843c0 .033-4.783.06-10.68.06-5.897 0-10.687-.026-10.687-.06 0-.033 4.783-.063 10.687-.063 5.905 0 10.68.03 10.68.063zM29.778 60.735h-.542l-1.485.019H18.025l-1.485-.019h-.542a.53.53 0 01.14 0h.402l1.485-.018H27.75l1.486.018h.401a.53.53 0 01.141 0zM39.363 65.674c0-.048.152-.09.341-.09.19 0 .346.042.346.09 0 .048-.156.089-.346.089-.189 0-.341-.048-.341-.09zM37.996 65.674c0-.048.156-.09.346-.09.189 0 .341.042.341.09 0 .048-.152.089-.341.089-.19 0-.346-.048-.346-.09zM36.626 65.674c0-.048.152-.09.342-.09.189 0 .345.042.345.09 0 .048-.156.089-.345.089-.19 0-.342-.048-.342-.09zM35.252 65.674c0-.048.156-.09.345-.09.19 0 .342.042.342.09 0 .048-.152.089-.342.089-.19 0-.345-.048-.345-.09zM33.882 65.674c0-.048.152-.09.341-.09.19 0 .342.042.342.09 0 .048-.152.089-.342.089-.19 0-.341-.048-.341-.09zM32.508 65.674c0-.048.152-.09.341-.09.19 0 .346.042.346.09 0 .048-.153.089-.346.089-.193 0-.341-.048-.341-.09zM31.134 65.674c0-.048.156-.09.345-.09.19 0 .342.042.342.09 0 .048-.153.089-.342.089-.19 0-.345-.048-.345-.09zM29.763 65.674c0-.048.153-.09.342-.09.19 0 .345.042.345.09 0 .048-.155.089-.345.089-.19 0-.342-.048-.342-.09zM28.39 65.674c0-.048.155-.09.345-.09.19 0 .341.042.341.09 0 .048-.152.089-.341.089-.19 0-.345-.048-.345-.09zM27.02 65.674c0-.048.151-.09.34-.09.19 0 .346.042.346.09 0 .048-.156.089-.345.089-.19 0-.342-.048-.342-.09zM25.645 65.674c0-.048.156-.09.346-.09.189 0 .341.042.341.09 0 .048-.152.089-.341.089-.19 0-.346-.048-.346-.09zM24.275 65.674c0-.048.152-.09.342-.09.189 0 .341.042.341.09 0 .048-.152.089-.341.089-.19 0-.342-.048-.342-.09zM22.9 65.674c0-.048.153-.09.343-.09.189 0 .345.042.345.09 0 .048-.156.089-.345.089-.19 0-.342-.048-.342-.09zM21.538 65.674c0-.048.156-.09.346-.09.189 0 .341.042.341.09 0 .048-.152.089-.341.089-.19 0-.346-.048-.346-.09zM20.157 65.674c0-.048.152-.09.341-.09.19 0 .346.042.346.09 0 .048-.156.089-.346.089-.19 0-.341-.048-.341-.09zM18.783 65.674c0-.048.156-.09.345-.09.19 0 .342.042.342.09 0 .048-.152.089-.342.089-.19 0-.345-.048-.345-.09zM17.412 65.674c0-.048.153-.09.342-.09.19 0 .342.042.342.09 0 .048-.152.089-.342.089-.19 0-.342-.048-.342-.09zM16.038 65.674c0-.048.153-.09.342-.09.19 0 .346.042.346.09 0 .048-.156.089-.346.089-.19 0-.341-.048-.341-.09zM14.665 65.674c0-.048.155-.09.345-.09.19 0 .341.042.341.09 0 .048-.152.089-.341.089-.19 0-.345-.048-.345-.09zM13.294 65.674c0-.048.152-.09.342-.09.19 0 .345.042.345.09 0 .048-.156.089-.345.089-.19 0-.342-.048-.342-.09zM11.92 65.674c0-.048.156-.09.346-.09.189 0 .341.042.341.09 0 .048-.152.089-.341.089-.19 0-.346-.048-.346-.09zM10.55 65.674c0-.048.152-.09.342-.09.189 0 .345.042.345.09 0 .048-.156.089-.345.089-.19 0-.342-.048-.342-.09zM9.176 65.674c0-.048.152-.09.345-.09.193 0 .342.042.342.09 0 .048-.152.089-.342.089-.189 0-.345-.048-.345-.09zM7.798 65.674c0-.048.153-.09.342-.09.19 0 .342.042.342.09 0 .048-.153.089-.342.089-.19 0-.342-.048-.342-.09zM6.432 65.674c0-.048.152-.09.341-.09.19 0 .346.042.346.09 0 .048-.156.089-.346.089-.189 0-.341-.048-.341-.09zM5.058 65.674c0-.048.156-.09.345-.09.19 0 .342.042.342.09 0 .048-.153.089-.342.089-.19 0-.345-.048-.345-.09zM3.687 65.674c0-.048.153-.09.342-.09.19 0 .345.042.345.09 0 .048-.155.089-.345.089-.19 0-.342-.048-.342-.09zM2.313 65.674c0-.048.156-.09.346-.09.19 0 .341.042.341.09 0 .048-.152.089-.341.089-.19 0-.346-.048-.346-.09zM1.567 65.043c.048 0 .09.152.09.341a.909.909 0 01-.038.282l-.052-.051c.037 0 .06.033.06.052 0 .018-.023.037-.06.051h-.026l-.026-.044a.908.908 0 01-.037-.282c.007-.197.04-.349.09-.349zM1.567 63.67c.048 0 .09.152.09.342 0 .189-.042.345-.09.345-.048 0-.082-.167-.082-.345 0-.178.034-.342.082-.342zM1.567 62.297c.048 0 .09.156.09.346 0 .189-.042.34-.09.34-.048 0-.089-.151-.089-.34 0-.19.04-.346.09-.346zM1.567 60.928c.048 0 .09.153.09.342 0 .189-.042.345-.09.345-.048 0-.089-.156-.089-.345 0-.19.04-.342.09-.342zM1.567 59.556c.048 0 .09.155.09.345 0 .189-.042.34-.09.34-.048 0-.082-.133-.082-.34 0-.208.034-.346.082-.346zM1.567 58.186c.048 0 .09.153.09.342 0 .189-.042.341-.09.341-.048 0-.089-.152-.089-.341 0-.19.04-.342.09-.342zM1.567 56.813c.048 0 .09.153.09.342 0 .19-.042.345-.09.345-.048 0-.082-.152-.082-.36s.034-.327.082-.327zM1.567 55.444c.048 0 .09.152.09.342 0 .189-.042.341-.09.341-.048 0-.089-.152-.089-.341 0-.19.04-.342.09-.342zM1.567 54.072c.048 0 .09.152.09.34 0 .19-.042.346-.09.346-.048 0-.089-.156-.089-.345 0-.19.04-.341.09-.341zM1.567 52.688c.048 0 .09.155.09.345 0 .189-.042.341-.09.341-.048 0-.082-.141-.082-.315 0-.175.034-.371.082-.371zM1.567 51.33c.048 0 .09.152.09.34 0 .19-.042.346-.09.346-.048 0-.089-.156-.089-.345 0-.19.04-.341.09-.341zM1.857 50.257c0 .045-.134.082-.301.09l.09-.09v.045c0 .189-.042.341-.09.341-.048 0-.09-.152-.09-.341v-.138h.086c.182.008.305.045.305.093zM3.238 50.257c0 .049-.152.09-.341.09-.19 0-.346-.041-.346-.09 0-.048.156-.089.346-.089.189 0 .341.037.341.09zM4.612 50.257c0 .049-.156.09-.345.09-.19 0-.342-.041-.342-.09 0-.048.152-.089.342-.089.19 0 .345.037.345.09zM5.982 50.257c0 .049-.152.09-.341.09-.19 0-.346-.041-.346-.09 0-.048.156-.089.346-.089.19 0 .341.037.341.09zM7.356 50.257c0 .049-.156.09-.345.09-.19 0-.342-.041-.342-.09 0-.048.153-.089.342-.089.19 0 .345.037.345.09zM8.727 50.257c0 .049-.153.09-.342.09-.19 0-.342-.041-.342-.09 0-.048.153-.089.342-.089.19 0 .342.037.342.09zM10.1 50.257c0 .049-.152.09-.341.09-.19 0-.345-.041-.345-.09 0-.048.156-.089.345-.089.19 0 .342.037.342.09zM11.475 50.257c0 .049-.156.09-.346.09-.19 0-.341-.041-.341-.09 0-.048.152-.089.341-.089.19 0 .346.037.346.09zM12.845 50.257c0 .049-.152.09-.342.09-.19 0-.345-.041-.345-.09 0-.048.156-.089.345-.089.19 0 .342.037.342.09zM14.219 50.257c0 .049-.156.09-.345.09-.19 0-.342-.041-.342-.09 0-.048.152-.089.341-.089.19 0 .346.037.346.09zM15.597 50.257c0 .049-.153.09-.342.09-.19 0-.342-.041-.342-.09 0-.048.152-.089.342-.089.19 0 .342.037.342.09zM16.963 50.257c0 .049-.152.09-.341.09-.19 0-.346-.041-.346-.09 0-.048.156-.089.346-.089.189 0 .341.037.341.09zM18.337 50.257c0 .049-.156.09-.345.09-.19 0-.342-.041-.342-.09 0-.048.152-.089.342-.089.19 0 .345.037.345.09zM19.707 50.257c0 .049-.152.09-.341.09-.19 0-.346-.041-.346-.09 0-.048.156-.089.346-.089.19 0 .341.037.341.09zM21.081 50.257c0 .049-.156.09-.345.09-.19 0-.342-.041-.342-.09 0-.048.153-.089.342-.089.19 0 .345.037.345.09zM22.452 50.257c0 .049-.153.09-.342.09-.19 0-.345-.041-.345-.09 0-.048.156-.089.345-.089.19 0 .342.037.342.09zM23.826 50.257c0 .049-.156.09-.346.09-.19 0-.341-.041-.341-.09 0-.048.152-.089.341-.089.19 0 .346.037.346.09zM25.196 50.257c0 .049-.152.09-.342.09-.19 0-.341-.041-.341-.09 0-.048.152-.089.341-.089.19 0 .342.037.342.09zM26.57 50.257c0 .049-.152.09-.342.09-.19 0-.345-.041-.345-.09 0-.048.156-.089.345-.089.19 0 .342.037.342.09zM27.944 50.257c0 .049-.156.09-.345.09-.19 0-.342-.041-.342-.09 0-.048.152-.089.341-.089.19 0 .346.037.346.09zM29.314 50.257c0 .049-.152.09-.341.09-.19 0-.346-.041-.346-.09 0-.048.156-.089.346-.089.189 0 .341.037.341.09zM30.688 50.257c0 .049-.156.09-.345.09-.19 0-.342-.041-.342-.09 0-.048.152-.089.342-.089.19 0 .345.037.345.09zM32.058 50.257c0 .049-.152.09-.341.09-.19 0-.342-.041-.342-.09 0-.048.152-.089.342-.089.19 0 .341.037.341.09zM33.421 50.257c0 .049-.152.09-.341.09-.19 0-.346-.041-.346-.09 0-.048.156-.089.346-.089.189 0 .341.037.341.09zM34.806 50.257c0 .049-.156.09-.345.09-.19 0-.342-.041-.342-.09 0-.048.153-.089.342-.089.19 0 .345.037.345.09zM36.177 50.257c0 .049-.153.09-.342.09-.19 0-.345-.041-.345-.09 0-.048.156-.089.345-.089.19 0 .342.037.342.09zM37.55 50.257c0 .049-.155.09-.345.09-.19 0-.341-.041-.341-.09 0-.048.152-.089.341-.089.19 0 .346.037.346.09zM38.92 50.257c0 .049-.151.09-.34.09-.19 0-.346-.041-.346-.09 0-.048.156-.089.345-.089.19 0 .342.037.342.09zM40.057 50.495c-.04 0-.074-.1-.085-.238l.085.086h-.108c-.189 0-.341-.041-.341-.09 0-.048.152-.089.342-.089h.197v.078c-.016.153-.042.253-.09.253zM40.057 51.864c-.048 0-.089-.152-.089-.341 0-.19.04-.342.09-.342.047 0 .088.152.088.342 0 .189-.04.34-.089.34zM40.057 53.237c-.048 0-.089-.152-.089-.342 0-.189.04-.345.09-.345.047 0 .088.152.088.345 0 .193-.04.342-.089.342zM40.057 54.61c-.048 0-.089-.156-.089-.346 0-.189.04-.34.09-.34.047 0 .088.151.088.34 0 .19-.04.346-.089.346zM40.057 55.979c-.048 0-.089-.152-.089-.342 0-.189.04-.345.09-.345.047 0 .088.156.088.345 0 .19-.04.342-.089.342zM40.057 57.352c-.048 0-.089-.156-.089-.345 0-.19.04-.342.09-.342.047 0 .088.152.088.342 0 .189-.04.345-.089.345zM40.057 58.72c-.048 0-.089-.151-.089-.34 0-.19.04-.346.09-.346.047 0 .088.156.088.345 0 .19-.04.342-.089.342zM40.057 60.108c-.048 0-.089-.155-.089-.345 0-.189.04-.341.09-.341.047 0 .088.152.088.341 0 .19-.04.345-.089.345zM40.057 61.463c-.048 0-.089-.153-.089-.342 0-.189.04-.341.09-.341.047 0 .088.152.088.341 0 .19-.04.342-.089.342zM40.057 62.836c-.048 0-.089-.153-.089-.342 0-.19.04-.345.09-.345.047 0 .088.156.088.345 0 .19-.04.342-.089.342zM40.057 64.208c-.048 0-.089-.156-.089-.345 0-.189.04-.341.09-.341.047 0 .088.152.088.341 0 .19-.04.345-.089.345zM40.057 65.578c-.048 0-.089-.153-.089-.342 0-.19.04-.345.09-.345.047 0 .088.156.088.345 0 .19-.04.341-.089.341zM14.29 62.958c0-.052.152-.09.341-.09l-.09.09v-.122a.899.899 0 010-.112c.02-.06.042-.1.064-.1s.048.04.063.1c.01.037.018.074.023.112v.122l-.09.089c-.16 0-.312-.04-.312-.089zM12.997 62.958c0-.052.141-.09.32-.09.178 0 .319.038.319.09s-.141.089-.32.089c-.178 0-.319-.04-.319-.09zM11.727 62.958c0-.052.141-.09.32-.09.178 0 .319.038.319.09s-.141.089-.32.089c-.178 0-.319-.04-.319-.09zM10.446 62.958c0-.052.141-.09.32-.09.178 0 .319.038.319.09s-.141.089-.32.089c-.178 0-.319-.04-.319-.09zM9.165 62.958c0-.052.141-.09.32-.09.177 0 .319.038.319.09s-.145.089-.32.089c-.174 0-.32-.04-.32-.09zM7.88 62.958c0-.052.145-.09.323-.09.178 0 .32.038.32.09s-.145.089-.32.089c-.174 0-.323-.04-.323-.09zM6.599 62.958c0-.052.145-.09.323-.09.178 0 .32.038.32.09s-.146.089-.32.089c-.175 0-.323-.04-.323-.09zM5.318 62.958c0-.052.145-.09.323-.09.178 0 .32.038.32.09s-.146.089-.32.089c-.175 0-.323-.04-.323-.09zM4.334 62.613c.052 0 .089.156.089.345-.179-.178-.049-.052-.09-.09h.123a.845.845 0 01.112.023c.059 0 .1.037.1.063 0 .026-.041.045-.1.063l-.112.019h-.134l-.089-.09c.011-.177.052-.333.1-.333zM4.334 61.221c.052 0 .089.156.089.346 0 .189-.037.345-.09.345-.051 0-.088-.153-.088-.346 0-.192.04-.345.089-.345zM4.334 59.852c.052 0 .089.156.089.345 0 .19-.037.345-.09.345-.051 0-.088-.152-.088-.345 0-.193.04-.345.089-.345zM4.334 58.472c.052 0 .089.156.089.345 0 .19-.037.345-.09.345-.051 0-.088-.152-.088-.345 0-.193.04-.345.089-.345zM4.334 57.092c.052 0 .089.156.089.345 0 .19-.037.345-.09.345-.051 0-.088-.152-.088-.345 0-.193.04-.345.089-.345zM4.334 55.712c.052 0 .089.155.089.345 0 .189-.037.345-.09.345-.051 0-.088-.152-.088-.345 0-.193.04-.346.089-.346zM4.334 54.331c.052 0 .089.156.089.345 0 .19-.037.345-.09.345-.051 0-.088-.152-.088-.345 0-.193.04-.345.089-.345zM4.679 53.3c0 .048-.156.089-.345.089l.089-.09v.127a.715.715 0 01-.019.108c0 .063-.037.1-.063.1-.026 0-.045-.037-.063-.1a.715.715 0 01-.019-.108V53.3l.09-.09c.174 0 .33.042.33.09zM5.96 53.3c0 .048-.145.089-.32.089-.174 0-.322-.041-.322-.09 0-.047.145-.088.323-.088.178 0 .32.04.32.089zM7.241 53.3c0 .048-.145.089-.32.089-.174 0-.322-.041-.322-.09 0-.047.145-.088.323-.088.178 0 .32.04.32.089zM8.541 53.3c0 .048-.145.089-.32.089-.174 0-.322-.041-.322-.09 0-.047.144-.088.323-.088.178 0 .319.04.319.089zM9.804 53.3c0 .048-.145.089-.32.089-.174 0-.32-.041-.32-.09 0-.047.142-.088.32-.088.178 0 .32.04.32.089zM11.085 53.3c0 .048-.141.089-.32.089-.178 0-.319-.041-.319-.09 0-.047.141-.088.32-.088.178 0 .319.04.319.089zM12.366 53.3c0 .048-.141.089-.32.089-.178 0-.319-.041-.319-.09 0-.047.141-.088.32-.088.178 0 .319.04.319.089zM13.647 53.3c0 .048-.141.089-.32.089-.178 0-.319-.041-.319-.09 0-.047.141-.088.32-.088.178 0 .319.04.319.089zM14.631 53.641c-.048 0-.09-.152-.09-.341l.09.089h-.134l-.107-.019c-.063 0-.1-.037-.1-.063 0-.026.037-.048.1-.063h.241l.09.09c0 .155-.038.307-.09.307zM14.631 55.021c-.048 0-.09-.152-.09-.345 0-.193.042-.345.09-.345.048 0 .09.156.09.345 0 .19-.038.345-.09.345zM14.631 56.398c-.048 0-.09-.152-.09-.345 0-.193.042-.345.09-.345.048 0 .09.156.09.345 0 .19-.038.345-.09.345zM14.631 57.782c-.048 0-.09-.152-.09-.345 0-.193.042-.345.09-.345.048 0 .09.156.09.345 0 .19-.038.345-.09.345zM14.631 59.162c-.048 0-.09-.152-.09-.345 0-.193.042-.345.09-.345.048 0 .09.156.09.345 0 .19-.038.345-.09.345zM14.631 60.542c-.048 0-.09-.152-.09-.345 0-.193.042-.345.09-.345.048 0 .09.156.09.345 0 .19-.038.345-.09.345zM14.631 61.923c-.048 0-.09-.152-.09-.345 0-.193.042-.345.09-.345.048 0 .09.155.09.345 0 .189-.038.345-.09.345z" fill="#E0E0E0"/><path d="M4.579 62.713h-.49v.49h.49v-.49zM4.579 53.055h-.49v.49h.49v-.49zM14.876 53.055h-.49v.49h.49v-.49zM14.876 62.465h-.49v.49h.49v-.49zM9.484 62.713h-.49v.49h.49v-.49zM9.73 53.055h-.49v.49h.49v-.49zM4.579 58.127h-.49v.49h.49v-.49zM14.631 57.882h-.49v.49h.49v-.49zM66.516 18.975v-.371-1.013c0-.887 0-2.182-.019-3.833 0-3.298-.022-8.01-.033-13.695l.067.067H43.325l.078-.082v18.893l-.07-.074 16.755.037 4.75.019h1.7-6.417l-16.803.037h-.075v-.07V-.004 0h23.354v.082c0 5.699-.026 10.43-.037 13.728v4.816c0 .234-.044.349-.044.349z" fill="#E0E0E0"/><path d="M66.698 2.883c0 .044-5.24.082-11.701.082-6.462 0-11.698-.038-11.698-.082 0-.045 5.236-.082 11.697-.082 6.462 0 11.702.037 11.702.082zM45.204 1.506a.315.315 0 11-.631 0 .315.315 0 01.631 0zM46.34 1.506a.312.312 0 11-.623 0 .312.312 0 01.623 0zM47.48 1.506a.311.311 0 11-.622-.007.311.311 0 01.622.007z" fill="#E0E0E0"/><path d="M103.788 87.15H80.185v18.923h23.603V87.15z" fill="#EBEBEB"/><path d="M103.996 89.959c0 .063-3.031.114-10.428.114s-13.394-.051-13.394-.114c0-.064 5.993-.12 13.394-.12s10.428.053 10.428.12z" fill="#FAFAFA"/><path d="M82.354 88.575a.371.371 0 11-.372-.312.338.338 0 01.372.311zM83.657 88.575a.371.371 0 11-.371-.312.338.338 0 01.371.311zM84.96 88.575a.34.34 0 01-.236.301c-.044.014-.09.018-.135.014a.315.315 0 110-.627.34.34 0 01.371.311zM95.354 100.652a1.58 1.58 0 01.234-.267l.684-.683c.579-.575 1.388-1.358 2.287-2.226l.022-.019v.126a176 176 0 01-2.306-2.17l-.683-.668a1.643 1.643 0 01-.238-.264c.102.062.195.136.279.22l.72.63c.602.542 1.43 1.295 2.336 2.137l.06.056-.06.06-.022.018c-.899.857-1.72 1.629-2.317 2.182l-.717.645a1.45 1.45 0 01-.279.223zM88.355 94.481a1.411 1.411 0 01-.234.268l-.68.682c-.58.575-1.389 1.358-2.291 2.227l-.019.018v-.115c.906.842 1.72 1.61 2.303 2.17l.687.669c.088.078.166.166.234.263a1.735 1.735 0 01-.279-.215l-.717-.638c-.605-.542-1.43-1.295-2.335-2.138l-.064-.055.064-.06v-.018c.898-.857 1.719-1.629 2.32-2.178.283-.256.52-.475.717-.65.09-.086.188-.163.293-.23zM90.152 102.106c-.041-.018.694-2.081 1.641-4.608.947-2.527 1.75-4.568 1.79-4.553.04.015-.694 2.078-1.641 4.609-.947 2.53-1.75 4.567-1.79 4.552z" fill="#fff"/><path d="M28.965 128.105a7.266 7.266 0 014.512-.549c.817.137 1.671.371 2.228.994.557.624.665 1.696.022 2.227-.409.285-.906.417-1.403.371-1.192 0-2.518-.223-3.469.493-.546.412-.906 1.091-1.556 1.291a1.535 1.535 0 01-1.69-.742 2.63 2.63 0 01-.193-1.937 2.97 2.97 0 011.549-2.148zM25.83 122.039c.84 1.198 2.474.801 3.228.07.754-.731 1.077-1.788 1.366-2.798.665-2.311 1.337-4.73.843-7.083a3.96 3.96 0 00-.906-1.925 2.064 2.064 0 00-1.95-.646c-.82.215-1.332 1.02-1.704 1.788a16.86 16.86 0 00-1.667 7.243c0 1.165.134 2.39.79 3.339M23.529 123.76a4.366 4.366 0 00.68-4.011 7.754 7.754 0 00-2.381-3.447 12.804 12.804 0 00-4.256-2.508 4.582 4.582 0 00-1.912-.326 2.017 2.017 0 00-1.608.972c-.45.853-.019 1.888.445 2.734a32.621 32.621 0 002.797 4.252c.839 1.08 1.797 2.145 3.074 2.635 1.278.489 2.6.43 3.283-.457" fill="#EBEBEB"/><path d="M25.775 140.104c.044-.177.068-.359.074-.541.041-.397.09-.894.145-1.484.056-.59.164-1.37.334-2.178.192-.878.453-1.739.78-2.575a9.379 9.379 0 011.315-2.327 4.95 4.95 0 011.66-1.38 4.712 4.712 0 011.4-.434 2.61 2.61 0 00.542-.078c-.184-.02-.37-.02-.553 0-.505.035-1 .16-1.46.371-.683.324-1.283.8-1.753 1.391a9.237 9.237 0 00-1.359 2.375c-.339.841-.602 1.71-.787 2.597a17.81 17.81 0 00-.29 2.204 27.415 27.415 0 00-.074 1.484c-.012.192-.003.385.026.575z" fill="#E0E0E0"/><path d="M25.88 138.962a1.202 1.202 0 000-.253v-.719c0-.627 0-1.537.033-2.657.055-2.226.248-4.649.62-8.048.371-3.195.828-6.912 1.325-9.332a40.54 40.54 0 01.32-1.484c.104-.441.178-.809.256-1.113.078-.304.126-.519.17-.705a.994.994 0 00.045-.248 1.268 1.268 0 00-.089.237c-.055.182-.122.412-.208.694-.085.282-.19.671-.297 1.113-.107.442-.234.928-.371 1.484a81.725 81.725 0 00-1.393 8.657c-.371 3.406-.542 6.508-.557 8.752 0 1.114 0 2.03.037 2.657.02.294.035.542.045.742.013.076.034.151.063.223z" fill="#E0E0E0"/><path d="M25.894 132.984a5.133 5.133 0 000-.742 20.085 20.085 0 00-.23-2.041 27.505 27.505 0 00-.665-2.968 24.065 24.065 0 00-1.248-3.521 18.742 18.742 0 00-3.665-5.721 8.51 8.51 0 00-.861-.798c-.134-.112-.25-.223-.372-.312l-.334-.23a5.322 5.322 0 00-.635-.408 23.04 23.04 0 012.083 1.855 19.774 19.774 0 013.569 5.673 27.673 27.673 0 011.251 3.488c.286.971.523 1.955.71 2.95.156.85.245 1.543.3 2.022.01.253.043.505.097.753zM20.108 143.529l.598 8.211h10.558l.598-8.211H20.108z" fill="#E0E0E0"/><path d="M33.12 140.294H19.087v3.235H33.12v-3.235z" fill="#E0E0E0"/><path d="M19.087 151.425v.898H32.89v-.898H19.087z" fill="#EBEBEB"/><path d="M20.394 153.903l-.646-1.58h12.64l-.753 1.58h-11.24z" fill="#E0E0E0"/><path d="M31.665 146.216s0 .025-.049.074l-.155.208-.617.805-.026.037-.026-.037-1.511-2.089h.085l-1.485 2.104-.049.066-.052-.063-1.763-2.096h.104a1.32 1.32 0 00-.1.122l-1.575 1.956-.052.066-.052-.07-1.486-2.104h.086c-.743.835-1.356 1.54-1.83 2.085l-.034.038-.026-.041-.572-.965a7.37 7.37 0 01-.149-.256c-.037-.067-.048-.089-.044-.093a.476.476 0 01.06.082l.162.248.602.943h-.056l1.805-2.111.045-.052.04.055 1.486 2.097h-.1l1.574-1.978.097-.122.048-.063.052.059c.616.742 1.214 1.447 1.76 2.104h-.085l1.485-2.097.074-.052.041.06 1.486 2.111h-.052l.638-.768.171-.197.045-.066zM32.01 143.477c0 .037-2.644.067-5.908.067-3.264 0-5.904-.03-5.904-.067 0-.037 2.643-.067 5.904-.067 3.26 0 5.908.03 5.908.067zM32.541 152.412c0 .037-2.874.067-6.417.067-3.542 0-6.42-.03-6.42-.067 0-.037 2.874-.067 6.42-.067 3.547 0 6.417.03 6.417.067z" fill="#F5F5F5"/><path d="M124.973 120.981a11.757 11.757 0 00-5.028-1.733c-.821-.081-1.719-.059-2.377.438-.141.108-.278.264-.245.434.039.124.12.229.231.297a7.192 7.192 0 007.426.564M124.843 120.836a24.747 24.747 0 01-3.249-2.853 8.226 8.226 0 01-2.02-3.766 1.505 1.505 0 01.159-1.258c2.6 2.019 4.627 4.635 5.125 7.877" fill="#FEC830"/><path d="M124.947 120.959c-.24-1.412-.22-2.855.059-4.26a5.777 5.777 0 012.273-3.517c.449 1.043.256 2.248-.059 3.339a16.207 16.207 0 01-2.254 4.742M127.487 125.508c-1.541.185-2.885.998-4.036 2.037a7.624 7.624 0 00-2.307 3.959c1.512-.093 2.793-1.158 3.714-2.353.921-1.194 1.574-2.504 2.599-3.621M128.037 126.235a9.931 9.931 0 011.151-9.406c.876 3.121.553 6.646-1.151 9.406zM131.394 130.235a7.2 7.2 0 00-6.881 3.959c-.086.171-.16.371-.049.538a.521.521 0 00.457.133c1.355-.085 2.559-.901 3.55-1.829.992-.927 1.857-2 2.971-2.805M131.286 130.009a12.774 12.774 0 01-.13-7.154c.252-.92.676-1.889 1.53-2.319a.29.29 0 01.234-.041.31.31 0 01.145.171c.292.642.419 1.348.371 2.052a12.756 12.756 0 01-.319 2.074c-.271 1.272-.413 2.634-1.114 3.729a7.99 7.99 0 00-.442.82c-.13.278-.134.371-.253.597M140.165 131.348c-.657-2.501.041-5.532 1.619-7.58.115-.152.267-.316.46-.297.29.026.372.412.353.705a13.722 13.722 0 01-2.432 7.172zM140.967 131.875c1.554.363 3.169.386 4.732.066a11.056 11.056 0 004.325-1.921 7.352 7.352 0 00-4.905-.601c-1.638.371-3.135 1.113-4.152 2.441M141.643 130.213c1.701-2.776 4.965-4.586 8.218-4.75-.372 1.321-1.46 2.349-2.689 2.969a15.059 15.059 0 01-3.944 1.154c-.527.1-1.247.215-1.585.627zM140.336 122.131a23.889 23.889 0 001.051-4.823 8.021 8.021 0 00-.959-4.761c-1.593 3.076-1.752 6.679-.141 9.737M145.69 119.426c1.857-3.376 5.656-6.073 9.496-6.452-1.486 3.685-5.522 6.534-9.496 6.452zM144.521 120.091c2.774.423 5.135 2.193 7.727 3.265a3.484 3.484 0 001.749.334 1.52 1.52 0 001.315-1.061 1.532 1.532 0 00-.457-1.358 3.747 3.747 0 00-1.27-.768c-2.826-1.177-5.852-1.203-8.827-.49" fill="#FEC830"/><path d="M142.913 122.035c.631.178.843.505 1.34.928a14.497 14.497 0 005.864 3.009c.223.055.516.078.627-.126.112-.205-.026-.39-.152-.546a8.032 8.032 0 00-3.539-2.401c-1.351-.504-2.525-1.113-4.14-.983M141.112 110.292a11.1 11.1 0 008.504 2.89.562.562 0 00.371-.137c.215-.234-.041-.594-.293-.787-2.5-1.948-5.53-2.757-8.597-1.966" fill="#FEC830"/><path d="M143.251 109.505a11.86 11.86 0 0110.613-1.748 8.441 8.441 0 01-5.058 2.227c-1.87.17-3.755.01-5.57-.472M142.397 104.11c-.245-2.493-.086-4.453-.26-6.968 0-.2-.056-.438-.245-.512-.26-.1-.476.219-.561.486a7.983 7.983 0 001.062 6.942" fill="#FEC830"/><path d="M142.226 104.388a14.724 14.724 0 004.133-4.014c.817-1.114 1.504-2.457 1.318-3.826a3.963 3.963 0 00-2.971 1.484 8.277 8.277 0 00-1.518 3.054c-.331 1.113-.565 2.226-.951 3.306M146.281 103.26a33.35 33.35 0 0010.171-5.996c-1.214-.49-2.599-.196-3.821.293a12.062 12.062 0 00-6.406 5.674M143.358 105.746c1.874.27 3.776.28 5.652.03 1.831-.308 3.562-1.032 5.273-1.751a.627.627 0 00.372-.271.408.408 0 00-.126-.453 1.097 1.097 0 00-.45-.211c-1.857-.52-3.869-.275-5.7.341a26.613 26.613 0 00-5.021 2.315zM132.634 110.377c-1.281-2.597-1.2-5.599-.089-8.263.776 1.187.872 2.697.742 4.107-.13 1.41-.575 2.865-.601 4.286M127.517 107.798a11.546 11.546 0 00-8.575 3.647 7.996 7.996 0 004.694-.875 23.807 23.807 0 004.022-2.69M124.074 106.648c-1.567-.126-3.071-.319-4.575.141a5.49 5.49 0 00-3.49 2.968 8.25 8.25 0 004.307-.824 25.01 25.01 0 003.773-2.285M129.169 106.7c-1.407-.92-2.852-1.855-4.493-2.226-1.641-.371-3.539-.101-4.683 1.135 1.326.775 2.938.868 4.475.868 1.537 0 3.428-.018 4.876.494" fill="#FEC830"/><path d="M129.177 106.774c-2.407-2.36-3.32-6.604-2.351-9.832a14.949 14.949 0 012.351 9.832zM135.798 100.084c.453-1.057.772-2.163 1.181-3.235a9.26 9.26 0 011.682-2.969 4.422 4.422 0 012.971-1.543 12.01 12.01 0 01-5.786 7.792M134.598 101.476c-.742-1.032-1.619-2.434-2.636-3.206-1.018-.772-2.347-1.24-3.591-.943a8.351 8.351 0 006.227 4.149zM134.84 100.181a17.85 17.85 0 01-1.189-3.844 5.992 5.992 0 01.602-3.907c1.322 2.497 1.749 5.176.654 7.791M135.809 92.418c.743-2.474 3.015-4.296 5.462-5.13.304-.124.632-.174.959-.146a.83.83 0 01.705.59c.089.423-.256.798-.583 1.08a18.643 18.643 0 01-6.543 3.606zM135.835 90.396c.096-1.595.197-3.213.717-4.727.52-1.513 1.518-2.927 2.97-3.588.249 1.61-.464 3.214-1.322 4.601-.857 1.388-1.89 2.694-2.406 4.241M135.798 91.495c-.62-1.804-.684-4.082-1.764-5.666-.743-1.113-1.965-1.855-2.6-3.01a4.564 4.564 0 00.153 3.418 9.876 9.876 0 001.998 2.86c.798.854 1.485 1.485 2.228 2.398" fill="#FEC830"/><path d="M135.809 144.594c-.048 0-.089-12.029-.093-26.863-.004-14.834.033-26.867.082-26.867.048 0 .089 12.025.093 26.867.003 14.841-.034 26.863-.082 26.863z" fill="#263238"/><path d="M146.329 108.562a2.81 2.81 0 01-.453.171l-1.244.419c-1.051.371-2.495.876-4.059 1.518-1.563.642-3.015 1.202-3.847 1.922a2.828 2.828 0 00-.772 1.024c-.119.282-.141.453-.156.453-.015 0 0-.045 0-.126.02-.12.049-.238.089-.353.154-.418.409-.792.743-1.087a6.758 6.758 0 011.667-1.035 50.24 50.24 0 012.195-.961 56.969 56.969 0 014.084-1.484c.531-.164.966-.286 1.267-.371a2.6 2.6 0 01.486-.09z" fill="#263238"/><path d="M149.775 100.099s-.037.052-.126.137l-.371.371-1.441 1.31-4.802 4.271c-1.856 1.666-3.49 3.258-4.612 4.452a47.905 47.905 0 00-1.307 1.444l-.349.397a.841.841 0 01-.13.13.725.725 0 01.104-.153c.071-.096.178-.241.323-.419.286-.371.717-.868 1.266-1.484a61.15 61.15 0 014.59-4.504 883.469 883.469 0 014.828-4.234l1.485-1.265.409-.338a.858.858 0 01.133-.115z" fill="#263238"/><path d="M141 107.872c-.048-.022.342-.927.743-2.066.401-1.139.579-2.108.628-2.1a6.877 6.877 0 01-.465 2.155c-.166.492-.36.974-.583 1.444a2.342 2.342 0 01-.323.567zM135.82 115.152a2.175 2.175 0 01-.29-.338l-.742-.946c-.62-.801-1.486-1.911-2.444-3.12-.958-1.21-1.856-2.301-2.488-3.087l-.742-.935a2.498 2.498 0 01-.26-.371c.114.093.219.197.312.311.193.208.467.516.798.902.668.764 1.567 1.855 2.532 3.054a81.986 81.986 0 012.407 3.157c.297.412.535.742.694.984.089.121.164.251.223.389z" fill="#263238"/><path d="M133.514 112.191a4.148 4.148 0 01-.966-1.807 5.174 5.174 0 01-.219-1.822h.075c-.034.138-.06.212-.071.208-.011-.003 0-.078 0-.222h.074c.04.6.145 1.195.312 1.773.216.643.481 1.269.795 1.87zM130.536 108.451a2.984 2.984 0 00-.676-.393 4.518 4.518 0 00-1.857-.149c-.636.049-1.267.151-1.886.305a5.308 5.308 0 01-.776.185 2.7 2.7 0 01.742-.304 8.644 8.644 0 011.905-.371 4.12 4.12 0 011.935.208c.258.097.475.28.613.519zM129.83 107.542c0 .026-.393-.156-1.032-.371a10.682 10.682 0 00-2.581-.531 10.528 10.528 0 00-2.629.134c-.669.119-1.07.245-1.081.215.086-.051.179-.091.275-.118.255-.089.516-.162.78-.219a9.19 9.19 0 015.295.4c.255.095.503.206.743.334.084.041.161.094.23.156zM135.798 103.706a20.674 20.674 0 01-.743-2.616 21.753 21.753 0 01-.587-2.657c.305.848.553 1.716.743 2.597.252.879.448 1.772.587 2.676z" fill="#263238"/><path d="M135.846 103.706a13.196 13.196 0 00-.835-1.566 7.038 7.038 0 00-1.23-1.269c.174.045.335.129.472.245.356.252.666.563.917.92.366.489.599 1.064.676 1.67zM135.809 138.179c-.019 0-.056-.29-.189-.798a11.23 11.23 0 00-.806-2.081 28.813 28.813 0 00-4.267-6.011c-.954-1.087-1.879-2.112-2.663-3.095a21.881 21.881 0 01-1.905-2.745 13.057 13.057 0 01-.958-2.034 7.371 7.371 0 01-.189-.582.827.827 0 01-.048-.208s.1.275.3.764c.284.691.619 1.36 1.003 2a22.892 22.892 0 001.924 2.705c.787.972 1.712 1.993 2.666 3.08 1.927 2.163 3.439 4.345 4.248 6.07.33.676.586 1.387.761 2.119.047.199.081.401.104.604.016.07.022.141.019.212zM145.315 127.452a5.625 5.625 0 01-.497.278c-.45.255-.882.54-1.292.854-.606.47-1.173.988-1.698 1.547a35.127 35.127 0 00-1.838 2.141c-1.251 1.569-2.421 2.968-3.123 4.081-.371.549-.612 1.013-.783 1.336-.08.173-.172.341-.275.501a.768.768 0 01.044-.141c.038-.089.09-.223.171-.371.218-.473.466-.932.743-1.373a44.15 44.15 0 013.093-4.111 31.501 31.501 0 011.857-2.145 13.6 13.6 0 011.738-1.532 9.271 9.271 0 011.333-.816c.167-.082.301-.134.39-.171a.533.533 0 01.137-.078z" fill="#263238"/><path d="M145.501 130.932a6.95 6.95 0 01-1.055.153c-.845.088-1.68.253-2.495.493a7.356 7.356 0 00-2.228 1.173c-.516.397-.743.742-.784.708a.83.83 0 01.156-.245c.164-.204.348-.392.55-.56a6.735 6.735 0 012.261-1.243c.831-.24 1.685-.385 2.548-.434a5.726 5.726 0 011.047-.045z" fill="#263238"/><path d="M139.255 133.073c-.056-.029.42-.742.787-1.729.368-.987.427-1.855.487-1.833.032.187.032.378 0 .564a6.123 6.123 0 01-.308 1.329 6.844 6.844 0 01-.609 1.22c-.22.294-.357.464-.357.449zM148.394 118.109a.725.725 0 01-.167.089l-.498.223a9.76 9.76 0 00-.776.371c-.297.16-.642.312-1.014.527l-.572.326c-.2.115-.397.249-.609.371-.423.26-.846.576-1.299.898a22.324 22.324 0 00-5.01 5.195c-.304.464-.609.898-.85 1.328-.123.215-.253.416-.372.62-.118.204-.207.397-.308.582-.204.371-.349.72-.494 1.024-.144.305-.252.568-.338.787-.085.219-.156.371-.208.501a.876.876 0 01-.085.174.796.796 0 01.052-.185c.045-.134.104-.304.178-.512.09-.274.195-.542.312-.805.138-.308.275-.664.476-1.039l.297-.594c.104-.204.234-.408.371-.627.238-.438.535-.876.843-1.347a23.301 23.301 0 012.299-2.823 23.794 23.794 0 012.748-2.394c.456-.322.887-.634 1.318-.886.211-.13.412-.264.613-.371l.583-.316c.371-.211.72-.371 1.024-.508.258-.127.522-.241.791-.342l.509-.196a.737.737 0 01.186-.071z" fill="#263238"/><path d="M140.87 123.144c.071-.243.215-.458.413-.616a2.633 2.633 0 011.667-.638 4.634 4.634 0 011.756.342c.235.075.458.184.661.322a3.905 3.905 0 01-.701-.204 5.215 5.215 0 00-1.698-.278 2.705 2.705 0 00-1.593.557 4.912 4.912 0 00-.505.515zM139.745 124.298a6.292 6.292 0 00.476-1.54 6.182 6.182 0 00-.108-1.606c.101.131.168.285.197.449a3.192 3.192 0 01-.271 2.304c-.145.275-.275.412-.294.393z" fill="#263238"/><path d="M127.494 139.904c.26 4.597 1.646 9.276 3.777 14h9.284c2.031-4.683 3.323-9.351 3.55-14h-16.611z" fill="#455A64"/><path d="M142.597 147.344c0 .048-3.052.085-6.818.085-3.765 0-6.821-.037-6.821-.085 0-.049 3.052-.09 6.821-.09 3.769 0 6.818.049 6.818.09zM142.389 149.006c0 .048-2.863.089-6.391.089-3.527 0-6.394-.041-6.394-.089 0-.048 2.863-.086 6.394-.086 3.532 0 6.391.038 6.391.086z" fill="#FAFAFA"/><path d="M79.516 33.297c0-.894.472-1.428 1.114-1.428.643 0 1.115.534 1.115 1.428 0 .894-.472 1.432-1.115 1.432-.642 0-1.114-.534-1.114-1.432zm1.95 0c0-.742-.338-1.165-.828-1.165-.49 0-.828.416-.828 1.165 0 .75.338 1.169.828 1.169.49 0 .828-.416.828-1.169zM82.179 33.297c0-.894.472-1.428 1.114-1.428.642 0 1.114.534 1.114 1.428 0 .894-.475 1.432-1.114 1.432-.639 0-1.114-.534-1.114-1.432zm1.953 0c0-.742-.338-1.165-.832-1.165-.493 0-.828.416-.828 1.165 0 .75.338 1.169.829 1.169.49 0 .831-.416.831-1.169zM85.614 31.91v2.816h-.29V32.15h-.657v-.242h.947zM86.286 33.297c0-.894.472-1.428 1.114-1.428.643 0 1.114.534 1.114 1.428 0 .894-.475 1.432-1.114 1.432-.639 0-1.114-.534-1.114-1.432zm1.953 0c0-.742-.338-1.165-.828-1.165-.49 0-.832.416-.832 1.165 0 .75.342 1.169.832 1.169.49 0 .828-.416.828-1.169zM89.725 31.91v2.816h-.29V32.15h-.665v-.242h.955zM76.743 37.293c0-.898.471-1.432 1.114-1.432.642 0 1.114.534 1.114 1.432 0 .898-.476 1.432-1.114 1.432-.64 0-1.114-.538-1.114-1.432zm1.95 0c0-.742-.339-1.165-.829-1.165-.49 0-.828.412-.828 1.165 0 .753.338 1.165.828 1.165.49 0 .828-.415.828-1.165zM79.405 37.293c0-.898.472-1.432 1.114-1.432.642 0 1.114.534 1.114 1.432 0 .898-.475 1.432-1.114 1.432-.639 0-1.114-.538-1.114-1.432zm1.953 0c0-.742-.338-1.165-.828-1.165-.49 0-.832.412-.832 1.165 0 .753.338 1.165.832 1.165.494 0 .828-.415.828-1.165zM82.844 35.887v2.812h-.29v-2.556h-.665v-.256h.955zM83.516 37.293c0-.898.468-1.432 1.114-1.432.646 0 1.114.534 1.114 1.432 0 .898-.475 1.432-1.114 1.432-.639 0-1.114-.538-1.114-1.432zm1.95 0c0-.742-.338-1.165-.829-1.165-.49 0-.828.412-.828 1.165 0 .753.338 1.165.828 1.165.49 0 .828-.415.828-1.165zM86.95 35.887v2.812h-.289v-2.556h-.665v-.256h.955zM88.403 35.887v2.812h-.29v-2.556h-.665v-.256h.955zM89.075 37.293c0-.898.471-1.432 1.114-1.432.642 0 1.114.534 1.114 1.432 0 .898-.475 1.432-1.114 1.432-.639 0-1.114-.538-1.114-1.432zm1.95 0c0-.742-.338-1.165-.829-1.165-.49 0-.828.412-.828 1.165 0 .753.338 1.165.828 1.165.49 0 .829-.415.829-1.165zM92.51 35.887v2.812h-.29v-2.556h-.66v-.256h.95zM79.516 41.156c0-.898.472-1.433 1.114-1.433.643 0 1.115.535 1.115 1.433s-.476 1.432-1.115 1.432c-.638 0-1.114-.538-1.114-1.432zm1.95 0c0-.742-.338-1.165-.828-1.165-.49 0-.828.412-.828 1.165 0 .753.338 1.165.828 1.165.49 0 .828-.416.828-1.165zM82.951 39.75v2.812h-.29v-2.557h-.66v-.256h.95zM84.403 39.75v2.812h-.29v-2.557h-.66v-.256h.95zM85.855 39.75v2.812h-.29v-2.557h-.66v-.256h.95zM86.524 41.156c0-.898.468-1.433 1.114-1.433.646 0 1.114.535 1.114 1.433s-.475 1.432-1.114 1.432c-.639 0-1.114-.538-1.114-1.432zm1.95 0c0-.742-.339-1.165-.829-1.165-.49 0-.828.412-.828 1.165 0 .753.338 1.165.828 1.165.49 0 .836-.416.836-1.165h-.008zM89.966 39.75v2.812h-.29v-2.557h-.664v-.256h.954z" fill="#FEC830"/><path d="M90.326 3.84h.186l.553.019h.409l.486.07.569.082.638.16c.497.126.985.288 1.46.482l.794.37c.275.138.539.316.825.483a11.07 11.07 0 013.186 3.095 11.196 11.196 0 011.819 5.053c.043.494.054.99.034 1.484-.019.253-.019.509-.048.742-.03.234-.075.509-.116.768a10.639 10.639 0 01-1.021 3.028 11.362 11.362 0 01-1.964 2.727 11.626 11.626 0 01-2.834 2.063c-.274.123-.538.271-.817.371l-.854.312c-.293.085-.59.156-.887.234-.3.068-.604.122-.91.16-.152.018-.305.055-.46.062l-.465.023c-.312 0-.624.037-.935.026a10.993 10.993 0 01-4.894-1.336h.085l-3.658 1.736-.167.082.033-.182.765-4.037.022.078a10.94 10.94 0 01-2.599-9.44c.275-1.41.83-2.753 1.634-3.947a11.376 11.376 0 013.843-3.462c.216-.118.442-.215.65-.319.202-.102.41-.191.624-.267a9.361 9.361 0 011.155-.371c.325-.093.657-.164.992-.212.3-.04.564-.085.794-.107l.587-.022h.494-.123l-.371.026-.583.037c-.227.026-.49.074-.791.122a7.384 7.384 0 00-.98.223c-.389.097-.77.22-1.14.37a4.458 4.458 0 00-.617.272c-.208.104-.427.2-.642.319-.456.259-.892.549-1.308.868a10.99 10.99 0 00-2.454 2.66 10.627 10.627 0 00-1.597 3.9 10.8 10.8 0 002.57 9.276l.03.037v.045l-.743 4.033-.137-.104 3.657-1.74.045-.023.044.023c1.484.81 3.138 1.26 4.828 1.313.308 0 .613 0 .917-.026l.457-.022c.152 0 .304-.04.453-.06.3-.036.6-.088.895-.155.29-.078.583-.149.869-.23l.839-.305c.279-.107.535-.252.802-.37a11.325 11.325 0 002.793-2.023 11.27 11.27 0 001.934-2.679c.486-.933.828-1.933 1.014-2.968.041-.252.078-.505.119-.742.041-.238.03-.5.045-.742.023-.488.014-.976-.026-1.462a10.784 10.784 0 00-4.954-8.1c-.282-.163-.539-.345-.81-.482l-.787-.371c-.47-.198-.952-.364-1.444-.497l-.62-.19-.565-.089-.483-.078c-.148 0-.286-.018-.405-.03l-.553-.036c-.062 0-.124-.002-.186-.008z" fill="#455A64"/><path d="M93.186 17.494c.056-.08.12-.153.193-.218l.557-.56c.475-.468 1.136-1.114 1.857-1.811h.018v.092a118.991 118.991 0 01-1.883-1.773l-.56-.55a1.46 1.46 0 01-.197-.21c.084.047.161.105.23.173l.587.52c.494.441 1.17 1.057 1.912 1.748l.049.044-.049.048h-.018c-.743.702-1.408 1.329-1.898 1.781l-.583.53a1.386 1.386 0 01-.215.186z" fill="#FEC830"/><path d="M93.182 17.59a.09.09 0 01-.063-.032c-.07-.075-.022-.123.193-.35l.557-.56c.472-.46 1.096-1.064 1.771-1.71-.672-.623-1.292-1.21-1.764-1.662l-.56-.55c-.22-.222-.268-.267-.197-.345.07-.077.122-.026.371.171l.59.52c.513.46 1.193 1.08 1.913 1.747l.048.048a.094.094 0 01.03.067.086.086 0 01-.026.067l-.052.048c-.72.69-1.396 1.321-1.916 1.8l-.587.53c-.178.145-.252.212-.308.212zM87.463 12.448c-.056.079-.121.15-.193.216l-.557.56c-.475.467-1.136 1.113-1.857 1.81v-.092c.743.686 1.408 1.317 1.887 1.773l.523.564c.074.063.14.135.194.215a1.584 1.584 0 01-.227-.178l-.59-.52a143.916 143.916 0 01-1.91-1.747l-.051-.044.052-.048c.743-.702 1.407-1.332 1.898-1.785l.605-.557c.068-.065.144-.121.226-.167z" fill="#FEC830"/><path d="M87.467 17.591c-.052 0-.126-.063-.29-.204l-.59-.52c-.52-.463-1.2-1.087-1.913-1.747l-.052-.048a.092.092 0 01-.022-.104.086.086 0 01.023-.03l.048-.048c.742-.698 1.407-1.332 1.916-1.8l.587-.53c.237-.208.286-.253.371-.178.085.074.026.122-.193.348l-.557.56c-.468.464-1.096 1.07-1.768 1.711.669.623 1.289 1.21 1.76 1.662l.561.55c.223.222.267.267.197.345a.089.089 0 01-.078.033zM88.934 18.682c-.034 0 .564-1.7 1.34-3.77.776-2.07 1.43-3.736 1.463-3.71.034.026-.568 1.699-1.34 3.766-.773 2.066-1.43 3.725-1.463 3.714z" fill="#FEC830"/><path d="M88.945 18.778a.102.102 0 01-.045 0c-.107-.04-.148-.055 1.289-3.888 1.393-3.71 1.485-3.759 1.508-3.774.024-.009.05-.009.074 0 .108.041.145.056-1.289 3.889-.371 1.001-.742 1.94-1.01 2.645-.39.976-.453 1.128-.527 1.128z" fill="#FEC830"/><path d="M146.047 51.882h-32.181v13.061h32.181v-13.06z" fill="#fff"/><path d="M146.047 64.932v-.234-.679-2.597c0-2.256 0-5.514-.019-9.55l.038.036h-32.181l.052-.052v13.061l-.049-.048 23.072.022h6.684-6.684l-23.105.022h-.048V51.82h32.266v.037c0 4.045 0 7.314-.019 9.573v3.269c0 .152-.007.234-.007.234z" fill="#FEC830"/><path d="M124.371 54.873h-7.772v7.766h7.772v-7.766zM143.819 57.849c0 .026-4 .048-8.931.048-4.932 0-8.935-.022-8.935-.048 0-.026 4-.052 8.935-.052 4.935 0 8.931.022 8.931.052zM143.819 59.43c0 .029-4 .051-8.931.051-4.932 0-8.935-.022-8.935-.052s4.018-.063 8.935-.063c4.917 0 8.931.037 8.931.063z" fill="#FEC830"/><path d="M137.12 25.527h-33.952v22.385h33.952V25.528z" fill="#FAFAFA"/><path d="M137.116 47.912v-.408-1.183c0-1.04 0-2.56-.022-4.505 0-3.888-.022-9.473-.041-16.289l.078.078h-33.949l.097-.096v22.385l-.085-.09 24.442.045 6.992.023h2.34H134.639l-6.977.022-24.509.044h-.089v-.089-22.481h34.123v.078c-.019 6.834-.03 12.437-.041 16.326v5.655c-.023.355-.03.485-.03.485z" fill="#263238"/><path d="M137.272 27.828c0 .056-7.583.1-16.933.1-9.351 0-16.938-.044-16.938-.1 0-.056 7.58-.097 16.938-.097 9.358 0 16.933.026 16.933.097z" fill="#263238"/><path d="M116.937 31.034H106.12v14.248h10.817V31.034zM134.164 31.698c0 .055-3.398.096-7.583.096-4.185 0-7.583-.04-7.583-.096s3.394-.097 7.583-.097 7.583.045 7.583.097zM134.164 33.483c0 .052-3.398.096-7.583.096-4.185 0-7.583-.044-7.583-.096 0-.052 3.394-.097 7.583-.097s7.583.045 7.583.097zM134.164 35.249c0 .055-3.398.1-7.583.1-4.185 0-7.583-.045-7.583-.1 0-.056 3.394-.097 7.583-.097s7.583.06 7.583.097zM134.164 37.048c0 .052-3.398.097-7.583.097-4.185 0-7.583-.045-7.583-.097 0-.052 3.394-.096 7.583-.096s7.583.044 7.583.096zM133.696 38.525h-6.098v6.757h6.098v-6.757zM126.596 38.833a36.044 36.044 0 01-3.714.096c-1.238.032-2.478 0-3.713-.096a34.906 34.906 0 013.713-.096 34.813 34.813 0 013.714.096zM126.596 40.614c-1.235.098-2.475.13-3.714.096a34.88 34.88 0 01-3.713-.096 36.11 36.11 0 013.713-.096c1.239-.032 2.478 0 3.714.096zM126.596 42.67c-1.235.098-2.475.13-3.714.096a34.906 34.906 0 01-3.713-.096 36.138 36.138 0 013.713-.097c1.239-.032 2.478 0 3.714.096zM126.406 44.788c-1.235.098-2.474.13-3.713.097a34.793 34.793 0 01-3.714-.097 36.072 36.072 0 013.714-.096c1.239-.032 2.478 0 3.713.096zM48.72 37.141v-.145-.408-1.543c0-1.329-.022-3.214-.036-5.48l.07.07h-9.462c-.022 0 .16-.16.082-.082v7.588l-.078-.074 6.822.037 1.942.022H48.76a.848.848 0 01-.167 0h-.5l-1.928.022-6.87.037h-.074v-.077V29.57l.089-.088h9.536v.07c-.019 2.286-.03 4.186-.037 5.525 0 .65 0 1.161-.019 1.525V37a.45.45 0 01-.07.141z" fill="#FEC830"/><path d="M47.532 34.377a4.083 4.083 0 01-.594-.512c-.371-.338-.876-.82-1.485-1.403h.111L44.08 34.18l-.063.067-.052.063-.067-.052-.928-.772h.11a97.877 97.877 0 01-2.049 1.8l-.605.512c-.07.066-.147.123-.23.17 0 0 .059-.081.193-.211l.572-.55a200.96 200.96 0 012.008-1.854l.052-.049.056.045.903.787h-.12l.06-.067 1.515-1.703.056-.06.056.056c.594.59 1.091 1.09 1.437 1.447.197.175.38.365.55.568zM42.553 31.776s-.056-.056-.149-.141a.862.862 0 00-.483-.212.772.772 0 00-.742 1.147.772.772 0 001.37-.074.841.841 0 00.06-.52c-.03-.126-.064-.193-.049-.2.015-.008.06.048.111.182a.822.822 0 010 .582.89.89 0 01-1.213.486.913.913 0 01-.316-1.414.884.884 0 01.816-.3c.198.03.379.13.51.282.07.1.092.178.085.182zM38.156 35.078s-.052-.056-.149-.141a.836.836 0 00-.479-.212.785.785 0 00-.68.282.76.76 0 00.714 1.236.787.787 0 00.586-.445.837.837 0 00.056-.52 1.366 1.366 0 01-.048-.2s.063.052.111.182a.82.82 0 010 .582.891.891 0 01-.668.557.914.914 0 01-.865-1.484.895.895 0 01.817-.3c.199.028.38.129.512.281.082.1.1.178.093.182z" fill="#FEC830"/><path d="M43.99 37.475a.697.697 0 010 .163v.468c0 .43 0 1.024.022 1.762v.052h-.052c-1.957.022-5.035.033-8.485.033h-.494v-.085c0-2.69 0-5.128.026-6.968v-.063h.06l2.54.03h.69c.08-.006.161-.006.241 0a.929.929 0 01-.241 0h-.69l-2.54.026.062-.063c0 1.855 0 4.278.023 6.968l-.086-.086h.438c3.45 0 6.529 0 8.486.034l-.052.052c0-.742.018-1.332.022-1.763v-.467a.716.716 0 01.03-.093z" fill="#FEC830"/><path d="M38.75 36.677c-.423.465-.88.898-1.367 1.295-.45.442-.93.853-1.437 1.228a8.41 8.41 0 011.322-1.354c.45-.443.947-.835 1.482-1.169zM40.663 38.588c-.03.037-.286-.126-.535-.404-.25-.279-.372-.553-.338-.58.033-.025.23.197.468.465.237.267.434.47.404.519z" fill="#FEC830"/><path d="M51.773 44.042v-.348-1.013-3.863c0-3.34-.018-8.163-.033-14.047l.063.063-32.363.026.085-.086v19.272l-.078-.078 23.258.037 6.684.023h2.229H49.4l-6.662.022-23.31.04h-.077v-.081-19.357H51.84v.067c0 5.914-.026 10.737-.033 14.1v4.849c0 .233-.034.374-.034.374z" fill="#FEC830"/><path d="M31.906 29.282h-9.852v.72h9.852v-.72zM31.509 32.837c0 .048-2.15.089-4.802.089-2.651 0-4.797-.04-4.797-.09 0-.047 2.146-.084 4.797-.084 2.652 0 4.802.04 4.802.085zM31.509 34.432c0 .049-2.15.086-4.802.086-2.651 0-4.797-.037-4.797-.086 0-.048 2.146-.085 4.797-.085 2.652 0 4.802.037 4.802.085zM31.509 36.028c0 .048-2.15.085-4.802.085-2.651 0-4.797-.037-4.797-.085 0-.048 2.146-.085 4.797-.085 2.652 0 4.802.048 4.802.085zM31.509 37.623c0 .045-2.15.086-4.802.086-2.651 0-4.797-.041-4.797-.086 0-.044 2.146-.085 4.797-.085 2.652 0 4.802.037 4.802.085zM26.228 39.185c-.717.086-1.44.115-2.161.086-.72.029-1.442 0-2.157-.086a13.548 13.548 0 012.157-.085c.721-.029 1.444 0 2.161.085zM121.185 74.349c0 .03-4.2.052-9.38.052-5.18 0-9.38-.022-9.38-.052s4.2-.056 9.38-.056c5.18 0 9.38.026 9.38.056zM121.185 76.007c0 .03-4.2.056-9.38.056-5.18 0-9.38-.026-9.38-.056 0-.03 4.2-.052 9.38-.052 5.18 0 9.38.023 9.38.052zM114.501 77.67H102.425a.508.508 0 01.122 0h.349l1.296-.019h8.541l1.293.019h.352a.516.516 0 01.123 0zM122.916 82c0-.045.133-.082.301-.082.167 0 .3.037.3.082 0 .044-.133.078-.3.078-.168 0-.301-.034-.301-.078zM121.72 82c0-.045.134-.082.301-.082.167 0 .301.037.301.082 0 .044-.134.078-.301.078-.167 0-.301-.034-.301-.078zM120.517 82c0-.045.134-.082.301-.082.167 0 .3.037.3.082 0 .044-.133.078-.3.078-.167 0-.301-.034-.301-.078zM119.31 82c0-.045.134-.082.301-.082.167 0 .301.037.301.082 0 .044-.134.078-.301.078-.167 0-.301-.034-.301-.078zM118.107 82c0-.045.133-.082.301-.082.167 0 .3.037.3.082 0 .044-.137.078-.3.078-.164 0-.301-.034-.301-.078zM116.9 82c0-.045.134-.082.301-.082.167 0 .301.037.301.082 0 .044-.134.078-.301.078-.167 0-.301-.034-.301-.078zM115.697 82c0-.045.133-.082.301-.082.167 0 .3.037.3.082 0 .044-.137.078-.3.078-.164 0-.301-.034-.301-.078zM114.49 82c0-.045.134-.082.301-.082.167 0 .3.037.3.082 0 .044-.133.078-.3.078-.167 0-.301-.034-.301-.078zM113.283 82c0-.045.137-.082.305-.082.167 0 .3.037.3.082 0 .044-.137.078-.3.078-.164 0-.305-.034-.305-.078zM112.08 82c0-.045.134-.082.301-.082.167 0 .3.037.3.082 0 .044-.133.078-.3.078-.167 0-.301-.034-.301-.078zM110.873 82c0-.045.137-.082.304-.082.168 0 .301.037.301.082 0 .044-.137.078-.301.078-.163 0-.304-.034-.304-.078zM109.67 82c0-.045.134-.082.301-.082.167 0 .3.037.3.082 0 .044-.133.078-.3.078-.167 0-.301-.034-.301-.078zM108.463 82c0-.045.137-.082.301-.082.163 0 .304.037.304.082 0 .044-.137.078-.304.078-.167 0-.301-.034-.301-.078zM107.26 82c0-.045.133-.082.301-.082.167 0 .3.037.3.082 0 .044-.133.078-.3.078-.168 0-.301-.034-.301-.078zM106.053 82c0-.045.137-.082.301-.082.163 0 .304.037.304.082 0 .044-.137.078-.304.078-.167 0-.301-.034-.301-.078zM104.85 82c0-.045.133-.082.301-.082.167 0 .3.037.3.082 0 .044-.133.078-.3.078-.168 0-.301-.034-.301-.078zM103.643 82c0-.045.137-.082.301-.082.163 0 .304.037.304.082 0 .044-.137.078-.304.078-.167 0-.301-.034-.301-.078zM102.44 82c0-.045.133-.082.3-.082.168 0 .301.037.301.082 0 .044-.133.078-.301.078-.167 0-.3-.034-.3-.078zM101.233 82c0-.045.137-.082.301-.082.163 0 .3.037.3.082 0 .044-.133.078-.3.078-.167 0-.301-.034-.301-.078zM100.03 82c0-.045.133-.082.3-.082.168 0 .301.037.301.082 0 .044-.133.078-.301.078-.167 0-.3-.034-.3-.078zM98.823 82c0-.045.137-.082.3-.082.164 0 .301.037.301.082 0 .044-.133.078-.3.078-.167 0-.301-.034-.301-.078zM97.62 82c0-.045.133-.082.3-.082.168 0 .301.037.301.082 0 .044-.133.078-.3.078-.168 0-.301-.034-.301-.078zM96.413 82c0-.045.133-.082.3-.082.168 0 .301.037.301.082 0 .044-.133.078-.3.078-.168 0-.301-.034-.301-.078zM95.21 82c0-.045.133-.082.3-.082.167 0 .301.037.301.082 0 .044-.134.078-.3.078-.168 0-.301-.034-.301-.078zM94.003 82c0-.045.133-.082.3-.082.168 0 .301.037.301.082 0 .044-.133.078-.3.078-.168 0-.301-.034-.301-.078zM92.8 82c0-.045.133-.082.3-.082.167 0 .301.037.301.082 0 .044-.134.078-.3.078-.168 0-.302-.034-.302-.078zM91.593 82c0-.045.133-.082.3-.082.168 0 .301.037.301.082 0 .044-.133.078-.3.078-.168 0-.301-.034-.301-.078zM90.39 82c0-.045.133-.082.3-.082.167 0 .301.037.301.082 0 .044-.137.078-.3.078-.164 0-.302-.034-.302-.078zM89.732 81.454c.045 0 .078.134.078.3a.853.853 0 01-.033.25l-.045-.045c.034 0 .052.026.052.044 0 .019-.018.03-.052.045h-.026v-.052a.74.74 0 01-.033-.249c-.019-.16.015-.293.06-.293zM89.732 80.85c.043 0 .078-.135.078-.301 0-.166-.035-.3-.078-.3s-.078.134-.078.3c0 .166.035.3.078.3zM89.732 79.647c.043 0 .078-.134.078-.3 0-.166-.035-.3-.078-.3s-.078.134-.078.3c0 .166.035.3.078.3zM89.732 78.441c.043 0 .078-.134.078-.3 0-.166-.035-.3-.078-.3s-.078.134-.078.3c0 .166.035.3.078.3zM89.732 77.24c.043 0 .078-.135.078-.301 0-.166-.035-.3-.078-.3s-.078.134-.078.3c0 .166.035.3.078.3zM89.732 76.033c.043 0 .078-.134.078-.3 0-.166-.035-.3-.078-.3s-.078.134-.078.3c0 .166.035.3.078.3zM89.732 74.831c.043 0 .078-.134.078-.3 0-.166-.035-.3-.078-.3s-.078.134-.078.3c0 .166.035.3.078.3zM89.732 73.024c.045 0 .078.134.078.3 0 .168-.033.301-.078.301-.044 0-.078-.133-.078-.3 0-.167.034-.3.078-.3zM89.732 72.423c.043 0 .078-.134.078-.3 0-.166-.035-.3-.078-.3s-.078.134-.078.3c0 .166.035.3.078.3zM89.732 71.217c.043 0 .078-.134.078-.3 0-.166-.035-.3-.078-.3s-.078.134-.078.3c0 .166.035.3.078.3zM89.732 70.015c.043 0 .078-.135.078-.3 0-.166-.035-.301-.078-.301s-.078.135-.078.3c0 .166.035.301.078.301zM89.996 68.472c0 .037-.115.07-.264.078l.078-.078v.037c0 .167-.033.3-.078.3-.044 0-.078-.133-.078-.3v-.119h.078c.134.007.264.04.264.082zM91.2 68.472c0 .04-.135.078-.302.078-.167 0-.3-.038-.3-.078 0-.041.133-.082.3-.082.167 0 .301.037.301.082zM92.406 68.472c0 .04-.138.078-.305.078-.167 0-.3-.038-.3-.078 0-.041.137-.082.3-.082.164 0 .305.037.305.082zM93.61 68.472c0 .04-.135.078-.302.078-.167 0-.3-.038-.3-.078 0-.041.133-.082.3-.082.167 0 .301.037.301.082zM94.816 68.472c0 .04-.138.078-.3.078-.164 0-.305-.038-.305-.078 0-.041.137-.082.304-.082.167 0 .3.037.3.082zM96.02 68.472c0 .04-.135.078-.302.078-.167 0-.3-.038-.3-.078 0-.041.133-.082.3-.082.167 0 .301.037.301.082zM97.226 68.472c0 .04-.137.078-.3.078-.164 0-.305-.038-.305-.078 0-.041.137-.082.304-.082.167 0 .301.037.301.082zM98.43 68.472c0 .04-.135.078-.302.078-.167 0-.3-.038-.3-.078 0-.041.133-.082.3-.082.168 0 .301.037.301.082zM99.636 68.472c0 .04-.137.078-.3.078-.164 0-.305-.038-.305-.078 0-.041.137-.082.304-.082.167 0 .301.037.301.082zM100.839 68.472c0 .04-.133.078-.301.078-.167 0-.3-.038-.3-.078 0-.041.133-.082.3-.082.168 0 .301.037.301.082zM102.046 68.472c0 .04-.137.078-.301.078-.163 0-.301-.038-.301-.078 0-.041.134-.082.301-.082.167 0 .301.037.301.082zM103.234 68.472c0 .04-.133.078-.3.078-.168 0-.301-.038-.301-.078 0-.041.133-.082.301-.082.167 0 .3.037.3.082zM104.456 68.472c0 .04-.137.078-.301.078-.163 0-.3-.038-.3-.078 0-.041.133-.082.3-.082.167 0 .301.037.301.082zM105.659 68.472c0 .04-.133.078-.301.078-.167 0-.3-.038-.3-.078 0-.041.133-.082.3-.082.168 0 .301.037.301.082zM106.866 68.472c0 .04-.134.078-.301.078-.167 0-.3-.038-.3-.078 0-.041.133-.082.3-.082.167 0 .301.037.301.082zM108.062 68.472c0 .04-.134.078-.301.078-.167 0-.301-.038-.301-.078 0-.041.134-.082.301-.082.167 0 .301.037.301.082zM109.276 68.472c0 .04-.133.078-.301.078-.167 0-.3-.038-.3-.078 0-.041.133-.082.3-.082.168 0 .301.037.301.082zM110.479 68.472c0 .04-.133.078-.3.078-.168 0-.301-.038-.301-.078 0-.041.133-.082.301-.082.167 0 .3.037.3.082zM111.686 68.472c0 .04-.133.078-.301.078-.167 0-.3-.038-.3-.078 0-.041.133-.082.3-.082.168 0 .301.037.301.082zM112.889 68.472c0 .04-.133.078-.3.078-.167 0-.301-.038-.301-.078 0-.041.137-.082.301-.082.163 0 .3.037.3.082zM114.096 68.472c0 .04-.133.078-.301.078-.167 0-.3-.038-.3-.078 0-.041.133-.082.3-.082.168 0 .301.037.301.082zM115.303 68.472c0 .04-.137.078-.304.078-.167 0-.301-.038-.301-.078 0-.041.137-.082.301-.082.163 0 .304.037.304.082zM116.506 68.472c0 .04-.133.078-.3.078-.168 0-.301-.038-.301-.078 0-.041.133-.082.301-.082.167 0 .3.037.3.082zM117.717 68.472c0 .04-.137.078-.305.078-.167 0-.3-.038-.3-.078 0-.041.137-.082.3-.082.164 0 .305.037.305.082zM118.916 68.472c0 .04-.133.078-.3.078-.168 0-.301-.038-.301-.078 0-.041.133-.082.301-.082.167 0 .3.037.3.082zM120.123 68.472c0 .04-.137.078-.304.078-.167 0-.301-.038-.301-.078 0-.041.137-.082.301-.082.163 0 .304.037.304.082zM121.326 68.472c0 .04-.133.078-.3.078-.168 0-.301-.038-.301-.078 0-.041.133-.082.301-.082.167 0 .3.037.3.082zM122.544 68.472c0 .04-.137.078-.3.078-.164 0-.305-.038-.305-.078 0-.041.138-.082.305-.082.167 0 .3.037.3.082zM123.528 68.68c-.033 0-.063-.09-.074-.208l.074.074h-.092c-.167 0-.301-.037-.301-.078s.134-.082.301-.082h.174v.07c-.018.134-.048.223-.082.223zM123.528 69.882c-.044 0-.077-.134-.077-.301 0-.167.033-.3.077-.3.045 0 .078.133.078.3 0 .167-.033.3-.078.3zM123.528 71.087c-.044 0-.077-.133-.077-.3 0-.167.033-.3.077-.3.045 0 .078.133.078.3 0 .167-.033.3-.078.3zM123.528 72.29c-.044 0-.077-.134-.077-.301 0-.167.033-.3.077-.3.045 0 .078.133.078.3 0 .167-.033.3-.078.3zM123.528 73.495c-.044 0-.077-.133-.077-.3 0-.167.033-.3.077-.3.045 0 .078.133.078.3 0 .167-.033.3-.078.3zM123.528 74.698c-.044 0-.077-.134-.077-.3 0-.168.033-.301.077-.301.045 0 .078.137.078.3 0 .163-.033.3-.078.3zM123.528 75.903c-.044 0-.077-.133-.077-.3 0-.167.033-.3.077-.3.045 0 .078.133.078.3 0 .167-.033.3-.078.3zM123.528 77.11c-.044 0-.077-.138-.077-.305 0-.167.033-.3.077-.3.045 0 .078.137.078.3 0 .163-.033.304-.078.304zM123.528 78.311c-.044 0-.077-.133-.077-.3 0-.167.033-.3.077-.3.045 0 .078.133.078.3 0 .167-.033.3-.078.3zM123.528 79.517c-.044 0-.077-.137-.077-.304 0-.167.033-.3.077-.3.045 0 .078.137.078.3 0 .163-.033.304-.078.304zM123.528 80.72c-.044 0-.077-.134-.077-.3 0-.168.033-.302.077-.302.045 0 .078.134.078.301 0 .167-.033.3-.078.3zM123.528 81.925c-.044 0-.077-.137-.077-.304 0-.167.033-.3.077-.3.045 0 .078.137.078.3 0 .163-.033.305-.078.305zM100.902 79.621c0-.04.134-.078.301-.078-.156.156-.041.045-.078.078v-.107a.777.777 0 010-.097c0-.055.034-.089.056-.089s.041.034.056.09a.53.53 0 01.018.096v.107l-.078.078c-.141 0-.275-.033-.275-.078zM99.777 79.621c0-.04.126-.078.282-.078.156 0 .283.037.283.078s-.127.078-.283.078c-.156 0-.282-.033-.282-.078zM98.652 79.621c0-.04.126-.078.282-.078.156 0 .282.037.282.078s-.126.078-.282.078c-.156 0-.282-.033-.282-.078zM97.527 79.621c0-.04.126-.078.282-.078.156 0 .282.037.282.078s-.126.078-.282.078c-.156 0-.282-.033-.282-.078zM96.402 79.621c0-.04.126-.078.282-.078.156 0 .282.037.282.078s-.126.078-.282.078c-.156 0-.282-.033-.282-.078zM95.276 79.621c0-.04.127-.078.283-.078.156 0 .278.037.278.078s-.122.078-.278.078c-.156 0-.283-.033-.283-.078zM94.151 79.621c0-.04.127-.078.282-.078.156 0 .279.037.279.078s-.123.078-.279.078c-.156 0-.282-.033-.282-.078zM93.026 79.621c0-.04.126-.078.282-.078.156 0 .279.037.279.078s-.123.078-.279.078c-.156 0-.282-.033-.282-.078zM92.16 79.32c.045 0 .079.134.079.301l-.078-.078h.215c.052 0 .086.034.086.056s-.034.04-.086.056h-.216l-.077-.078c.011-.123.037-.256.078-.256zM92.16 78.108c.045 0 .079.137.079.304 0 .167-.034.304-.078.304-.045 0-.078-.137-.078-.304 0-.167.037-.305.078-.305zM92.16 76.898c.045 0 .079.133.079.3 0 .167-.034.305-.078.305-.045 0-.078-.134-.078-.305 0-.17.037-.3.078-.3zM92.16 75.692c.045 0 .079.137.079.304 0 .167-.034.305-.078.305-.045 0-.078-.138-.078-.305 0-.167.037-.304.078-.304zM92.16 74.475c.045 0 .079.134.079.3 0 .167-.034.305-.078.305-.045 0-.078-.138-.078-.304 0-.167.037-.301.078-.301zM92.16 73.262c.045 0 .079.137.079.304 0 .167-.034.3-.078.3-.045 0-.078-.133-.078-.3 0-.167.037-.304.078-.304zM92.16 72.048c.045 0 .079.138.079.305 0 .167-.034.304-.078.304-.045 0-.078-.137-.078-.304 0-.167.037-.305.078-.305zM92.465 71.143c0 .045-.133.078-.3.078l.078-.078v.108a.555.555 0 010 .096c0 .056-.034.09-.056.09s-.041-.034-.056-.09a.598.598 0 010-.096v-.108l.078-.078c.119 0 .256.034.256.078zM93.58 71.143c0 .045-.123.078-.28.078-.155 0-.281-.033-.281-.078 0-.044.126-.078.282-.078.156 0 .278.034.278.078zM94.712 71.143c0 .045-.123.078-.279.078-.156 0-.282-.033-.282-.078 0-.044.127-.078.282-.078.156 0 .279.034.279.078zM95.837 71.143c0 .045-.122.078-.278.078-.156 0-.283-.033-.283-.078 0-.044.127-.078.283-.078.156 0 .278.034.278.078zM96.966 71.143c0 .045-.126.078-.282.078-.156 0-.282-.033-.282-.078 0-.044.126-.078.282-.078.156 0 .282.034.282.078zM98.091 71.143c0 .045-.126.078-.282.078-.156 0-.282-.033-.282-.078 0-.044.126-.078.282-.078.156 0 .282.034.282.078zM99.216 71.143c0 .045-.126.078-.282.078-.156 0-.282-.033-.282-.078 0-.044.126-.078.282-.078.156 0 .282.034.282.078zM100.342 71.143c0 .045-.127.078-.283.078-.156 0-.282-.033-.282-.078 0-.044.126-.078.282-.078.156 0 .283.034.283.078zM101.203 71.444c-.041 0-.078-.134-.078-.301l.078.078h-.212c-.055 0-.089-.033-.089-.056 0-.022.034-.04.089-.055l.097-.019h.115c.037.034-.078-.078.078.078 0 .141-.033.275-.078.275zM101.203 72.657c-.041 0-.078-.137-.078-.304 0-.167.037-.305.078-.305s.078.138.078.305c0 .167-.033.304-.078.304zM101.203 73.867c-.041 0-.078-.134-.078-.301 0-.167.037-.304.078-.304s.078.133.078.304c0 .17-.033.3-.078.3zM101.203 75.08c-.041 0-.078-.138-.078-.304 0-.167.037-.301.078-.301s.078.134.078.3c0 .167-.033.305-.078.305zM101.203 76.293c-.041 0-.078-.137-.078-.304 0-.167.037-.304.078-.304s.078.137.078.304c0 .167-.033.304-.078.304zM101.203 77.503c-.041 0-.078-.134-.078-.305 0-.17.037-.3.078-.3s.078.133.078.3c0 .167-.033.305-.078.305zM101.203 78.716c-.041 0-.078-.137-.078-.304 0-.167.037-.305.078-.305s.078.138.078.305c0 .167-.033.304-.078.304z" fill="#FEC830"/><path d="M92.376 79.406h-.43v.43h.43v-.43zM92.376 70.928h-.43v.43h.43v-.43zM101.418 70.928h-.43v.43h.43v-.43zM101.418 79.19h-.43v.431h.43v-.43zM96.684 79.406h-.43v.43h.43v-.43zM96.9 70.928h-.431v.43h.43v-.43zM92.376 75.384h-.43v.43h.43v-.43zM101.203 75.165h-.431v.43h.431v-.43z" fill="#FEC830"/><path d="M82.368 62.48h20.937a.824.824 0 00.613-.268l7.857-8.62a.816.816 0 00.219-.556V37.301a.82.82 0 00-.242-.586.826.826 0 00-.586-.242H91.114a.828.828 0 00-.829.828v15.056a.834.834 0 01-.245.59l-8.262 8.119a.824.824 0 00.59 1.413z" fill="#263238"/><path d="M111.263 37.46H91.058v14.367h20.205V37.46z" fill="#F5F5F5"/><path d="M111.72 52.832c0 .052-4.702.097-10.502.097-5.8 0-10.502-.045-10.502-.097 0-.052 4.702-.096 10.502-.096 5.8 0 10.502.04 10.502.096z" fill="#455A64"/><path d="M109.707 50.766c.213-.038.43-.05.646-.038h.097l-.037.038c-.01-.184.003-.369.037-.55.036.181.05.365.041.55v.037h-.138a2.605 2.605 0 01-.646-.037zM108.222 50.766c.245-.05.497-.05.742 0a1.707 1.707 0 01-.742 0zM106.736 50.766c.245-.05.498-.05.743 0a1.712 1.712 0 01-.743 0zM105.251 50.766c.245-.05.497-.05.742 0a1.707 1.707 0 01-.742 0zM103.765 50.766c.245-.05.498-.05.743 0a1.712 1.712 0 01-.743 0zM102.28 50.766c.245-.05.498-.05.743 0a1.712 1.712 0 01-.743 0zM100.795 50.766c.245-.05.497-.05.742 0a1.707 1.707 0 01-.742 0zM99.31 50.766c.244-.05.497-.05.742 0a1.71 1.71 0 01-.743 0zM97.824 50.766c.245-.05.498-.05.743 0a1.71 1.71 0 01-.743 0zM96.338 50.766c.246-.05.498-.05.743 0a1.71 1.71 0 01-.743 0zM94.853 50.766c.245-.05.498-.05.743 0a1.71 1.71 0 01-.743 0zM93.368 50.766c.245-.05.497-.05.742 0a1.71 1.71 0 01-.742 0zM91.882 50.766c.245-.05.498-.05.743 0a1.71 1.71 0 01-.743 0zM91.871 49.293c.055.244.055.497 0 .742a1.873 1.873 0 010-.742zM91.871 47.808c.055.245.055.498 0 .742a1.873 1.873 0 010-.742zM91.871 46.324c.055.245.055.498 0 .742a1.873 1.873 0 010-.742zM91.871 44.84c.055.244.055.498 0 .742a1.873 1.873 0 010-.742zM91.871 43.356c.055.244.055.498 0 .742a1.872 1.872 0 010-.742zM91.871 41.872c.055.244.055.498 0 .742a1.872 1.872 0 010-.742zM93.082 41.597a.872.872 0 01-.372.041.887.887 0 01-.37-.04.926.926 0 01.37-.038.91.91 0 01.372.037zM94.567 41.597a.872.872 0 01-.371.041.887.887 0 01-.371-.04.926.926 0 01.37-.038.91.91 0 01.372.037zM96.052 41.597a.87.87 0 01-.37.041.887.887 0 01-.372-.04.926.926 0 01.371-.038.91.91 0 01.371.037zM97.538 41.597a.871.871 0 01-.371.041.888.888 0 01-.372-.04.926.926 0 01.372-.038.91.91 0 01.37.037zM99.023 41.597a.871.871 0 01-.371.041.888.888 0 01-.371-.04.926.926 0 01.371-.038.91.91 0 01.371.037zM100.509 41.597a.874.874 0 01-.372.041.886.886 0 01-.371-.04.924.924 0 01.371-.038.914.914 0 01.372.037zM101.994 41.597a.87.87 0 01-.371.041.89.89 0 01-.372-.04.93.93 0 01.372-.038.909.909 0 01.371.037zM103.479 41.597a.87.87 0 01-.371.041.885.885 0 01-.371-.04.924.924 0 01.371-.038.907.907 0 01.371.037zM104.965 41.597a.871.871 0 01-.371.041.89.89 0 01-.372-.04.928.928 0 01.372-.038.909.909 0 01.371.037zM106.45 41.597a.87.87 0 01-.371.041.885.885 0 01-.371-.04.924.924 0 01.371-.038.909.909 0 01.371.037zM107.936 41.597a.874.874 0 01-.372.041.885.885 0 01-.371-.04.924.924 0 01.371-.038.914.914 0 01.372.037zM109.421 41.597a.87.87 0 01-.371.041.89.89 0 01-.372-.04.93.93 0 01.372-.038.909.909 0 01.371.037zM110.45 42.054a.897.897 0 01-.037-.372v-.085l.037.037a.65.65 0 01-.286-.037.65.65 0 01.286-.037h.037v.122a.88.88 0 01-.037.372zM110.45 43.538a.896.896 0 01-.037-.371.914.914 0 01.037-.371c.039.119.053.245.04.37a.864.864 0 01-.04.372zM110.45 45.022a.897.897 0 01-.037-.371.914.914 0 01.037-.371c.039.12.053.246.04.37a.865.865 0 01-.04.372zM110.45 46.506a.897.897 0 01-.037-.371.914.914 0 01.037-.371c.039.12.053.246.04.371a.865.865 0 01-.04.371zM110.45 47.99a.896.896 0 01-.037-.37.914.914 0 01.037-.372c.039.12.053.246.04.371a.864.864 0 01-.04.371zM110.45 49.474a.897.897 0 01-.037-.37.914.914 0 01.037-.372c.039.12.053.246.04.371a.865.865 0 01-.04.371zM110.45 38.217H91.871v2.675h18.579v-2.675z" fill="#263238"/><path d="M105.756 58.238l4.382-4.779h-18.88l-4.834 4.635 19.332.144z" fill="#455A64"/><path d="M44.8 145.151l-2.17 8.018 7.052.645 1.486-7.636-6.369-1.027z" fill="#FEC830"/><path d="M49.89 153.158a4.663 4.663 0 01-1.036-.034 58.399 58.399 0 01-2.473-.271l-2.465-.33a5.486 5.486 0 01-1.018-.178 4.95 4.95 0 011.032.041 59.15 59.15 0 012.477.271l2.462.33a6.09 6.09 0 011.021.171z" fill="#263238"/><path opacity=".6" d="M42.63 153.169l7.052.645.116-.589-6.967-.884-.193.75" fill="#fff"/><path d="M46.132 152.813c.17-1.036.394-2.061.672-3.073a30.48 30.48 0 01.832-3.035 29.837 29.837 0 01-.672 3.076 29.043 29.043 0 01-.832 3.032z" fill="#263238"/><path d="M49.5 153.106a3.424 3.424 0 000-1.484 2.97 2.97 0 00-.772-1.396 2.904 2.904 0 00-1.756-.808 3.022 3.022 0 00-1.89.43c-.464.289-.847.69-1.114 1.165a4.107 4.107 0 00-.446 1.432v-.107a2.586 2.586 0 010-.305 3.304 3.304 0 011.452-2.315 3.132 3.132 0 011.99-.464 2.917 2.917 0 012.625 2.342c.077.367.077.746 0 1.113-.019.1-.047.198-.085.293.015.074 0 .107-.003.104z" fill="#263238"/><path d="M73.928 142.999l-.472 7.124s7.096 2.352 7.141 3.68l-13.87.1.282-11.131 6.919.227z" fill="#FEC830"/><path opacity=".6" d="M69.19 149.392a.569.569 0 00-.413.634.546.546 0 00.628.412.597.597 0 00.43-.672.569.569 0 00-.698-.371M66.727 153.903l.03-1.113 13.394.371a.967.967 0 01.517.742h-13.94z" fill="#fff"/><path d="M73.683 150.059c0 .067-.342.09-.684.297-.341.208-.523.486-.586.457-.063-.03.052-.416.468-.661.415-.245.82-.156.802-.093zM75.12 150.705c0 .063-.282.171-.524.449-.241.278-.312.579-.371.575-.06-.004-.1-.389.204-.742.305-.352.69-.345.69-.282zM75.892 152.468c-.063 0-.145-.331.041-.694.186-.364.505-.501.531-.446.026.056-.174.249-.323.553-.149.305-.182.583-.249.587zM73.612 148.416c-.03.063-.338-.041-.72-.026-.383.015-.687.126-.72.067-.034-.06.26-.294.712-.305.453-.011.761.219.728.264z" fill="#263238"/><path opacity=".3" d="M73.835 144.409l-.082 1.269-6.81-.268.026-1.146 6.866.145z" fill="#000"/><path d="M73.679 146.984a1.27 1.27 0 01-.695-.023 3.245 3.245 0 01-1.11-.471.79.79 0 01-.204-.167.289.289 0 01-.019-.371.37.37 0 01.301-.148.829.829 0 01.256.044c.148.039.291.094.427.163.232.111.444.259.628.438.316.308.416.564.394.575-.023.012-.182-.196-.502-.449a2.686 2.686 0 00-1.002-.508c-.149-.041-.271-.048-.312.019-.041.066 0 .033 0 .078a.59.59 0 00.148.122c.119.081.243.155.372.219.211.115.434.209.664.278.223.05.441.117.654.201z" fill="#263238"/><path d="M73.59 147.08a1.11 1.11 0 01-.164-.675 2.261 2.261 0 01.309-1.158.577.577 0 01.453-.338.323.323 0 01.282.201.82.82 0 01.063.26c.024.153.024.31 0 .463a1.612 1.612 0 01-.32.709c-.282.353-.567.423-.571.401-.004-.022.219-.16.434-.497.127-.195.21-.416.242-.646a1.448 1.448 0 000-.401c0-.148-.07-.267-.127-.256a.48.48 0 00-.249.223 2.37 2.37 0 00-.338 1.057c-.044.39.023.646-.014.657z" fill="#263238"/><path d="M73.931 81.098l-21.13-.156-10.211 67.003 8.771 1.109 11.237-55.092 3.364 55.289.008.163 9.484-.163-1.523-68.153z" fill="#263238"/><path d="M64.321 86.53c.144-.019.29-.028.434-.03l1.274-.044 4.564-.13h.09v4.508l-.034.026-.795.742-2.343 2.148-.063.056-.063-.055-3.127-2.783-.026-.023v-.04c.018-1.332.033-2.423.04-3.21v-.868a1.602 1.602 0 01.02-.29c.005.107.005.213 0 .32 0 .226 0 .519.018.883 0 .775.022 1.855.04 3.165l-.025-.056c.91.798 1.979 1.729 3.149 2.757h-.123l2.34-2.152.794-.742-.03.07v-4.374l.086.085-4.512.04h-1.638l-.07-.003zM54.376 86.24c.124-.007.248-.007.372 0l1.136.093 4.11.371h.083v.09c-.157 1.294-.331 2.767-.52 4.344v.037l-.034.026-.91.743-2.246 1.784-.075.06-.059-.075-2.455-3.101-.022-.026v-.034c.175-1.313.323-2.397.427-3.176.052-.371.093-.642.127-.86a1.99 1.99 0 01.051-.286s0 .115-.022.319c-.022.204-.052.52-.089.883-.085.772-.2 1.855-.345 3.139v-.056l2.484 3.083h-.134l2.228-1.792.914-.742-.037.063c.197-1.573.371-3.046.546-4.34l.074.092-4.033-.427-1.151-.14a4.193 4.193 0 01-.42-.071zM67.303 96.41a6.76 6.76 0 01-.958-.467c-.583-.304-1.385-.723-2.28-1.168-.895-.446-1.716-.835-2.306-1.114a6.131 6.131 0 01-.947-.486c.345.093.68.217 1.002.371.61.253 1.438.624 2.336 1.069.899.445 1.697.89 2.262 1.225.315.16.613.352.89.57z" fill="#455A64"/><path d="M67.032 98.036a2.098 2.098 0 01-.72-.27 6.187 6.187 0 01-2.622-2.58 2.282 2.282 0 01-.283-.716c.427.747.94 1.441 1.53 2.067.637.58 1.34 1.083 2.095 1.499zM72.996 117.397a1.2 1.2 0 01-.097.349c-.115.31-.263.608-.442.886a5.354 5.354 0 01-5.693 2.401 4.8 4.8 0 01-.943-.3 1.103 1.103 0 01-.315-.179c.421.139.85.254 1.284.345a5.486 5.486 0 003.136-.337 5.49 5.49 0 002.435-2.004c.445-.679.601-1.176.635-1.161zM71.607 116.825c-.247.169-.52.294-.81.371-.68.21-1.386.326-2.098.346-.71.027-1.422-.014-2.124-.123a3.087 3.087 0 01-.858-.2c0-.063 1.333.193 2.971.13a9.853 9.853 0 002.072-.282 7.77 7.77 0 01.847-.242zM55.899 117.222a3.315 3.315 0 01-.743.668 8.602 8.602 0 01-4.456 1.655c-.33.042-.664.033-.992-.026 0-.029.372-.037.98-.111a10.031 10.031 0 004.379-1.629c.52-.338.81-.579.832-.557zM54.046 117.145a4.704 4.704 0 01-1.939.155 4.626 4.626 0 01-1.886-.463c0-.056.847.193 1.901.27 1.055.078 1.916-.022 1.924.038zM62.472 94.426a4.191 4.191 0 01-.951.43 13.28 13.28 0 01-4.95.79 4.092 4.092 0 01-1.036-.11 7.84 7.84 0 011.036-.023 17.2 17.2 0 004.91-.787c.323-.12.654-.22.99-.3zM61.896 92.263c.052 0 .1.167.1.37 0 .205-.037.372-.089.372s-.1-.163-.104-.371c-.003-.208.041-.371.093-.371zM61.896 90.778c.056 0 .097.167.097.371 0 .205-.045.372-.1.372-.056 0-.097-.167-.093-.371.003-.205.044-.372.096-.372zM61.93 89.294c.051 0 .092.171.085.371-.008.2-.052.371-.104.371s-.093-.167-.09-.37c.005-.205.053-.372.108-.372zM61.989 87.81c.052 0 .089.17.078.371-.011.2-.06.371-.111.371-.053 0-.09-.17-.082-.37.007-.201.06-.372.115-.372zM62.074 86.33c.056 0 .086.17.075.37-.011.201-.067.372-.12.372-.051 0-.088-.175-.074-.371.015-.197.06-.375.12-.371zM62.193 84.85c.052 0 .082.174.063.37-.018.197-.074.371-.126.371-.052 0-.082-.174-.063-.37.019-.197.074-.375.126-.372zM62.308 83.64c.056 0 .086.115.075.245-.012.13-.067.23-.123.226-.056-.004-.085-.115-.07-.245.014-.13.066-.234.118-.226zM50.366 147.585c.052 0 .063.181.022.371-.04.189-.115.371-.167.345-.052-.026-.063-.182-.022-.371.04-.189.115-.356.167-.345zM50.655 146.13c.052 0 .063.182.023.371-.041.189-.115.371-.167.345-.052-.026-.064-.182-.023-.371s.115-.356.167-.345zM50.949 144.676c.052 0 .063.182.022.371-.04.189-.115.371-.167.345-.052-.026-.063-.182-.022-.371.04-.189.115-.356.167-.345zM51.246 143.221c.052 0 .063.182.022.371-.04.19-.115.371-.167.345-.052-.026-.063-.181-.022-.371.04-.189.107-.345.167-.345zM51.532 141.763c.052 0 .06.182.022.371-.037.189-.115.371-.17.345-.056-.026-.06-.182-.02-.371.042-.189.116-.371.168-.345zM51.821 140.309c.052 0 .064.181.023.371-.041.189-.115.371-.167.345-.052-.026-.063-.182-.023-.371.041-.19.115-.357.167-.345zM52.115 138.854c.052 0 .06.182.022.371-.037.189-.115.371-.17.345-.056-.026-.06-.182-.02-.371.041-.189.116-.356.168-.345zM52.404 137.4c.052 0 .064.181.023.371-.041.189-.115.371-.167.345-.052-.026-.063-.182-.023-.371.041-.19.123-.357.167-.345zM52.698 135.941c.052 0 .06.182.022.371-.037.19-.119.353-.17.342-.053-.011-.06-.182-.023-.371s.115-.349.17-.342zM52.987 134.487c.052 0 .064.182.023.371s-.115.371-.167.345c-.052-.026-.064-.182-.023-.371s.115-.356.167-.345zM53.28 133.033c.053 0 .06.181.02.371-.041.189-.116.371-.168.345-.052-.026-.06-.182-.022-.371.037-.19.115-.357.17-.345zM53.57 131.578c.053 0 .064.182.023.371s-.115.371-.167.345c-.052-.026-.064-.182-.023-.371s.116-.356.168-.345zM53.845 130.12c.056 0 .063.182.023.371-.041.189-.116.352-.168.345-.052-.007-.063-.182-.022-.371s.13-.353.167-.345zM54.154 128.665c.051 0 .063.182.022.371-.041.19-.115.371-.167.345-.052-.026-.063-.181-.023-.371.041-.189.116-.356.168-.345zM54.443 127.211c.052 0 .063.182.022.371-.04.189-.115.371-.167.345-.052-.026-.063-.182-.022-.371.04-.189.115-.356.167-.345zM54.736 125.756c.053 0 .064.182.023.371-.041.19-.115.371-.167.346-.052-.026-.063-.182-.023-.372.041-.189.115-.356.167-.345zM55.026 124.298c.052 0 .063.182.022.371-.04.189-.115.353-.167.345-.052-.007-.063-.181-.022-.371.04-.189.1-.345.167-.345zM55.33 122.844c.053 0 .064.182.023.371-.04.189-.115.371-.167.345-.052-.026-.063-.182-.023-.371.041-.189.105-.356.168-.345zM55.61 121.389c.051 0 .062.182.021.371-.04.19-.115.371-.167.345-.052-.026-.063-.181-.022-.371.04-.189.115-.356.167-.345zM55.903 119.935c.052 0 .059.182.022.371s-.115.371-.171.345c-.056-.026-.06-.182 0-.371s.096-.356.149-.345zM56.192 118.48c.052 0 .063.182.023.371-.041.19-.116.371-.168.345-.052-.026-.063-.181-.022-.371.04-.189.115-.356.167-.345zM56.486 117.022c.052 0 .059.182.022.371s-.119.353-.171.345c-.052-.007-.06-.182-.022-.371.037-.189.13-.352.17-.345zM56.775 115.568c.052 0 .063.181.023.371-.041.189-.116.371-.168.345-.052-.026-.063-.182-.022-.371.04-.19.115-.357.167-.345zM57.069 114.113c.051 0 .059.182 0 .371-.06.189-.116.371-.168.345-.052-.026-.059-.182-.022-.371s.134-.356.19-.345zM57.358 112.659c.052 0 .063.182.023.371-.041.189-.116.371-.168.345-.052-.026-.063-.182-.022-.371s.115-.356.167-.345zM57.648 111.2c.056 0 .063.182.022.372-.04.189-.115.352-.167.345-.052-.008-.063-.182-.022-.371.04-.19.115-.353.167-.346zM57.93 109.746c.052 0 .063.182.022.371-.04.189-.115.371-.167.345-.052-.026-.063-.182-.022-.371.04-.189.126-.356.167-.345zM58.23 108.292c.053 0 .064.181.023.371-.04.189-.115.371-.167.345-.052-.026-.063-.182-.022-.371.04-.19.115-.357.167-.345zM58.524 106.837c.052 0 .063.182.023.371-.041.189-.116.371-.168.345-.052-.026-.063-.182-.022-.371s.115-.356.167-.345zM58.814 105.375c.052 0 .063.182.022.371-.04.189-.115.371-.167.345-.052-.026-.063-.182-.022-.371.04-.189.115-.345.167-.345zM59.107 103.924c.052 0 .063.182.023.371-.041.19-.116.372-.168.346-.052-.026-.063-.182-.022-.371.041-.19.104-.353.167-.346zM59.416 102.47c.052 0 .063.182.022.371s-.115.371-.167.345c-.052-.026-.063-.182-.023-.371.041-.189.097-.356.168-.345zM59.69 101.015c.052 0 .06.182.023.372-.038.189-.116.371-.171.345-.056-.026-.06-.182-.019-.371.041-.19.115-.357.167-.346zM59.98 99.561c.052 0 .063.182.022.371-.04.189-.115.371-.167.345-.052-.026-.063-.182-.022-.371.04-.19.115-.356.167-.345zM60.273 98.103c.052 0 .06.182.023.37-.038.19-.116.353-.171.346-.056-.008-.06-.182 0-.371.06-.19.096-.353.148-.345zM60.563 96.648c.052 0 .063.182.022.371-.04.19-.115.371-.167.345-.052-.026-.063-.181-.022-.37.04-.19.133-.357.167-.346zM60.856 95.194c.052 0 .06.182.019.37-.041.19-.115.372-.167.346-.052-.026-.06-.182-.023-.371.038-.19.116-.356.171-.345z" fill="#455A64"/><path d="M89.981 50.313s2.47-3.71 2.536-3.736c0 0 2.228-3.755 2.971-3.755.743 0 .472.742-.293 2.107a5.308 5.308 0 00-.743 1.915l1.835 1.113s1.221-.475 1.273.668a7.839 7.839 0 01-.212 1.547c-.074.404-.256.839-.642.686a.479.479 0 01-.327-.46c-.022-.671.104-.92 0-.92s-1.318 3.54-1.318 3.54l-5.08-2.705z" fill="#FFBE9D"/><path d="M94.972 47.404c.185-.132.382-.25.587-.349.208-.096.44-.132.668-.104a.61.61 0 01.371.197.617.617 0 01.071.564 1.856 1.856 0 01-.3.505" fill="#FFBE9D"/><path d="M94.136 46.658c.175-.128.361-.239.557-.33.197-.093.416-.127.632-.097a.506.506 0 01.42.717 4.832 4.832 0 01-.573.742M90.843 48.235l-3.577 7.621 3.937 4.022 2.053-5.688s1.114.22 1.549-.512c.501-.812 1.155-3.165 1.155-3.165l-5.117-2.278z" fill="#FFBE9D"/><path d="M93.394 48.013a1.94 1.94 0 01.423-1.058c.163-.223.372-.408.613-.542.182-.1.308-.133.32-.111.01.022-.428.286-.777.768-.35.482-.52.968-.58.943zM97.356 48.042c0 .026-.137-.04-.345-.074a1.196 1.196 0 00-.78.119 1.855 1.855 0 00-.58.575c-.13.178-.215.29-.237.278-.023-.011.018-.148.119-.349.13-.28.341-.514.605-.675a1.144 1.144 0 01.906-.082c.227.078.327.193.312.208zM96.026 46.966a5.179 5.179 0 00-.839.494c-.4.37-.594.768-.65.742a1.344 1.344 0 01.524-.887 1.55 1.55 0 01.657-.345c.186-.041.305-.026.308-.004zM96.921 48.606c.052-.022.145.275-.04.572-.186.296-.494.34-.498.289-.004-.052.193-.16.334-.393.141-.234.134-.45.204-.468z" fill="#EB996E"/><path d="M89.988 50.164s-.126-2.278.427-2.794c.554-.515 2.128 0 2.128 0" fill="#FFBE9D"/><path d="M92.766 46.306c-.216.465-.49.902-.817 1.298-.273.434-.6.832-.973 1.184.218-.465.493-.9.817-1.299.275-.433.601-.83.973-1.183z" fill="#EB996E"/><path d="M54.276 48.38c.056-.305.13-.66.238-1.076.091-.357.243-.696.449-1.002a5.01 5.01 0 01.876-1.05.423.423 0 00-.189-.78c-.371 0-1.33.669-1.983 1.856-.654 1.187-1.04-.913-1.192-1.674-.152-.76-.743-3.098-1.01-3.239-.401-.2-.69.19-.52.947.17.756.524 3.064.119 3.127-.405.064-1.114-3.829-1.114-3.829s-.019-.857-.49-.801c-.854.1.226 4.178.338 4.564.078.267-.372.348-.431.059-.06-.29-.635-3.9-1.486-3.807-.668.074.858 3.365.561 4.178-.297.813-.902-2.597-1.537-2.52-.234.034-.405.093.223 2.012.308.931 1.485 5.287 1.485 5.287l-.71 3.573 5.43 1.373.943-7.198zM61.142 29.034l-.056 17.776 7.632.371.222-4.322s2.711.538 3.41-1.978c.449-1.61.337-14.029.337-14.029l-11.545 2.182z" fill="#FFBE9D"/><path d="M73.69 28.099c-1.203.341-1.463 2.304-1.463 2.304l-1.886 4.163c-.962-.742-2.25-.709-2.496.98-.174 1.217 1.34 1.484 1.34 1.484-.883 1.484-1.485 2.716-2.766 4.14-1.392 1.548-2.172 1.703-3.68 1.73h-1.664s-.813-2.642-2.324-9.25c-1.671-7.328 7.003-6.386 8.611-8.256 2.618-3.065 10.12 1.618 6.328 2.705z" fill="#263238"/><path d="M58.91 34.321c-1.403-.942-1.533-3.584-.712-5.165a5.096 5.096 0 014.33-2.694c.239.016.479-.01.709-.077.314-.167.577-.416.76-.72 1.256-1.633 2.489-3.236 4.828-3.236a2.675 2.675 0 011.486.371c.414.284.724.694.884 1.17.43-.231.891-.396 1.37-.49a1.686 1.686 0 011.374.333 1.035 1.035 0 01.215 1.317 1.665 1.665 0 011.664 1.38c.122.784-.995 1.333-1.114 1.392 0 0 .616 1.284-.85 2.056-.591.311-1.356-.063-1.445-.108" fill="#263238"/><path d="M64.484 36.032a2.64 2.64 0 01-.044 1.35 2.67 2.67 0 01-.539 1.24c-.052-.026.193-.572.35-1.284.155-.713.178-1.306.233-1.306zM65.405 35.16a3.22 3.22 0 01-.07 1.298 3.248 3.248 0 01-.401 1.24c.032-.43.103-.856.211-1.273a7.59 7.59 0 01.26-1.265zM68.05 32.225c.018.026-.197.185-.472.504-.35.42-.627.896-.821 1.407-.19.521-.342 1.056-.457 1.599a2.816 2.816 0 01-.19.675c-.016-.234.003-.47.057-.697a7.782 7.782 0 01.408-1.644 4.164 4.164 0 01.902-1.418c.153-.187.35-.333.572-.426zM69.119 30.229c.022 0 .1.17.148.482.058.405.035.817-.066 1.213a3.177 3.177 0 01-.502 1.098c-.19.249-.341.372-.371.353.291-.463.522-.962.687-1.484.104-.548.14-1.106.104-1.662zM60.01 34.67c-.026.044-.26-.037-.524-.182s-.442-.304-.442-.352c0-.049.26.033.524.178.263.144.468.308.442.356zM63.697 32.77c.052 0 .019.371-.219.772-.238.4-.553.594-.583.553-.03-.041.204-.293.42-.653.215-.36.326-.683.382-.672zM64.833 32.162c-.01.337-.13.66-.341.924-.305.463-.69.712-.72.671-.03-.04.274-.341.56-.78.15-.281.318-.554.501-.815zM70.467 24.715s-.141-.108-.416-.264a2.842 2.842 0 00-1.281-.33 3.407 3.407 0 00-1.876.505 4.612 4.612 0 00-1.596 1.777 8.034 8.034 0 00-.65 1.666l-.034.13-.104-.052a3.82 3.82 0 00-1.704-.434c-.47-.013-.94.058-1.385.208-.39.15-.763.339-1.114.564a1.56 1.56 0 01.256-.223c.258-.188.54-.34.84-.453a4.015 4.015 0 011.425-.256 3.884 3.884 0 011.786.412l-.13.06c.152-.595.373-1.17.658-1.715.38-.758.959-1.4 1.674-1.855a3.482 3.482 0 011.976-.49 2.7 2.7 0 011.31.405c.105.067.204.144.294.23.049.078.078.111.07.115z" fill="#455A64"/><path d="M74.481 25.683s.212-.055.438.2c.13.155.195.355.178.557a.863.863 0 01-.456.646c-.281.162-.614.209-.929.13a2.741 2.741 0 01-.928-.479 9.908 9.908 0 00-.936-.642 3.922 3.922 0 00-1.114-.397 4.793 4.793 0 00-2.302.16 6.272 6.272 0 00-1.73.857c-.469.36-.917.746-1.345 1.154.084-.136.185-.261.3-.371a7.12 7.12 0 01.978-.883 6.09 6.09 0 011.722-.924 4.883 4.883 0 012.396-.178c.413.077.811.218 1.18.419.332.2.65.422.951.664a2.6 2.6 0 00.888.453c.276.076.572.043.824-.093a.764.764 0 00.405-.527.705.705 0 00-.13-.497.68.68 0 00-.39-.249z" fill="#455A64"/><path d="M53.385 47.678l-9.332 16.664a4.733 4.733 0 00.72 4.43l-.193-.278a3.981 3.981 0 003.097 1.484h.178a3.983 3.983 0 003.65-2.39l2.192-3.32-.312-16.59z" fill="#FEC830"/><path d="M73.586 46.487c-1.83-.934-3.64-1.146-5.611-1.202-2.295-.066-5.53-.37-8.006-.126 0 0-7.539-.23-7.572 5.607l.999 22.41-1.615 9.607 22.589.7-.164-11.33c.282-5.9-.315-14.249-.315-14.249.349-3.168 2.083-4.593 2.332-6.656.215-1.84-1.003-3.926-2.637-4.76z" fill="#FEC830"/><path d="M67.214 73.503c-.099.118-.21.224-.334.315a6.956 6.956 0 01-1.03.705 8.246 8.246 0 01-7.931.141 7.171 7.171 0 01-1.055-.671 1.816 1.816 0 01-.345-.3c.022-.034.524.392 1.46.849a8.546 8.546 0 007.798-.138c.932-.49 1.437-.938 1.437-.901zM52.397 50.766a.986.986 0 01.026.222c0 .163.022.371.037.631.03.579.067 1.37.112 2.334.081 1.989.196 4.697.319 7.688.123 2.99.26 5.699.349 7.691.048.965.09 1.752.119 2.33 0 .256.022.468.026.631.007.074.007.149 0 .223a.74.74 0 01-.037-.219c0-.163-.038-.371-.063-.63a116.3 116.3 0 01-.182-2.327 335.769 335.769 0 01-.405-7.692c-.13-3.005-.216-5.721-.264-7.692 0-.964-.037-1.758-.048-2.333v-.635a.87.87 0 01.011-.222z" fill="#263238"/><path d="M47.662 52.688s-.858 2.508-1.006 2.845c0 0-2.11 6.093-2.8 10.208l6.747-12.17c.056.022-2.852-.843-2.94-.883z" fill="#FEC830"/><path d="M50.982 51.968a.685.685 0 01-.078.174l-.256.49c-.227.42-.565 1.024-.999 1.762-.858 1.485-2.15 3.462-3.453 5.718a38.035 38.035 0 00-1.679 3.258 5.98 5.98 0 00-.657 2.86c.031.67.21 1.323.523 1.915.223.42.409.616.372.627a.744.744 0 01-.138-.137 3.246 3.246 0 01-.319-.453 4.415 4.415 0 01-.594-1.94 6.026 6.026 0 01.631-2.943 39.367 39.367 0 011.675-3.283c1.31-2.264 2.6-4.234 3.502-5.692l1.054-1.73.286-.47a.691.691 0 01.13-.156z" fill="#263238"/><path d="M92.536 58.19l-5.229-3.417-3.297 5.706s-4.575-6.352-6.655-10.073c-1.912-3.425-4.385-4.349-5.57-4.597a.535.535 0 00-.635.578l1.805 12.352c.226.642 4 6.108 6.108 8.86 3.517 4.59 8.705 1.652 10.127-1.561 1.121-2.546 2.882-6.42 3.346-7.848z" fill="#FEC830"/><path d="M85.51 65.637a3.764 3.764 0 01-.1-.813 14.745 14.745 0 00-.253-1.948 6.431 6.431 0 00-.664-1.822c-.25-.434-.457-.667-.431-.69.224.165.41.377.546.62.36.567.611 1.196.742 1.855.132.651.2 1.314.2 1.978.023.274.01.55-.04.82z" fill="#FEC830"/><path d="M87.04 63.077c-.03 0-.056-.264-.186-.668a3.643 3.643 0 00-.835-1.399 2.184 2.184 0 00-1.39-.742c-.226 0-.45.039-.664.115-.018 0 .2-.238.665-.252a2.16 2.16 0 011.53.764c.401.414.687.926.828 1.484.073.225.09.464.052.698zM71.436 47.34a.817.817 0 01-.126.146l-.16.163-.2.241a5.107 5.107 0 00-.907 1.755 6.885 6.885 0 00-.196 2.916c.074.575.225 1.136.449 1.67.252.573.533 1.133.843 1.677 1.281 2.226 2.6 4.19 3.55 5.592.475.675.862 1.235 1.147 1.647.15.195.289.398.416.609a.937.937 0 01-.13-.138c-.081-.096-.2-.237-.345-.426a44.95 44.95 0 01-1.2-1.614c-.983-1.384-2.317-3.317-3.605-5.566a17.256 17.256 0 01-.85-1.7 6.493 6.493 0 01-.454-1.72 6.881 6.881 0 01.245-2.97c.2-.649.534-1.25.98-1.762l.216-.233.175-.153c.096-.1.148-.14.152-.133z" fill="#FEC830"/><path opacity=".3" d="M65.602 74.508c1.667-.76 2.97-2.5 3.034-4.263a1.77 1.77 0 00-.412-1.32c-.49-.487-1.326-.394-1.939-.075-1.01.53-1.67 1.525-2.38 2.42-.71.893-1.608 1.769-2.744 1.877a7.153 7.153 0 01-1.46-.112 2.528 2.528 0 00-1.437.175 1.088 1.088 0 00-.59 1.213s1.994 1.24 4.085 1.095a11.78 11.78 0 003.843-1.01z" fill="#000"/><path d="M71.45 80.144a.545.545 0 01-.159.071l-.471.163c-.205.07-.453.152-.743.23-.29.078-.632.182-1.01.264-.88.21-1.77.373-2.666.49-1.1.137-2.208.21-3.317.218a28.71 28.71 0 01-3.32-.2c-.897-.11-1.789-.269-2.67-.475-.37-.078-.712-.178-1.01-.256-.297-.078-.545-.16-.742-.226l-.472-.16c-.107-.04-.163-.063-.16-.07a.671.671 0 01.171.033l.48.123c.207.059.46.126.76.192.301.067.632.16 1.01.23a28.04 28.04 0 002.663.43 27.98 27.98 0 009.25-.444c.372-.07.713-.164 1.01-.234.298-.07.554-.141.743-.2l.48-.127a.924.924 0 01.174-.052zM162 153.903c0 .052-36.269.097-80.998.097C36.273 154 0 153.955 0 153.903c0-.051 36.258-.096 81.002-.096 44.743 0 80.998.041 80.998.096z" fill="#263238"/></g><defs><clipPath id="clip0"><path fill="#fff" d="M0 0h162v154H0z"/></clipPath></defs></svg>