<svg width="90" height="90" fill="none" xmlns="http://www.w3.org/2000/svg"><g clip-path="url(#clip0)"><path d="M3.103 90a3.103 3.103 0 100-6.207 3.103 3.103 0 000 6.207zM14.741 83.793a3.88 3.88 0 100-7.758 3.88 3.88 0 000 7.758zM24.828 72.931a4.655 4.655 0 100-9.31 4.655 4.655 0 000 9.31z" fill="#FEC830"/><path d="M82.024 45.202a20.172 20.172 0 01-34.138 17.224 15.518 15.518 0 01-20.855-9.916C16.712 58.298 4.314 49.283 6.424 38.033a13.826 13.826 0 014.795-8.38 14.725 14.725 0 01-.17-5.586c1.3-8.402 9.118-14.193 17.534-12.988a20.172 20.172 0 0134.262-2.762A13.965 13.965 0 0180.472 19.35a13.965 13.965 0 011.77 25.774l-.218.078z" fill="#fff"/><path d="M82.024 40.547c.244 1.513.296 3.05.155 4.577l-.14.078v.636A20.172 20.172 0 0147.903 57.77a15.517 15.517 0 01-20.855-9.916 13.966 13.966 0 01-20.638-9.822 13.826 13.826 0 014.794-8.38 14.727 14.727 0 01-.17-5.586c1.3-8.402 9.118-14.193 17.534-12.988a20.173 20.173 0 0134.278-2.762A13.965 13.965 0 0180.472 19.35a13.965 13.965 0 019.31 10.862 13.965 13.965 0 01-7.758 10.335z" fill="#FEC830"/><path d="M38.793 31.035a1.552 1.552 0 01-1.552-1.552V27.93a1.552 1.552 0 113.104 0v1.552c0 .857-.695 1.552-1.552 1.552zM60.517 31.035a1.552 1.552 0 01-1.552-1.552V27.93a1.552 1.552 0 113.104 0v1.552c0 .857-.695 1.552-1.552 1.552zM49.655 43.448a7.759 7.759 0 01-7.758-7.758 1.552 1.552 0 013.103 0 4.655 4.655 0 109.31 0 1.552 1.552 0 013.104 0 7.759 7.759 0 01-7.759 7.758z" fill="#fff"/></g><defs><clipPath id="clip0"><path fill="#fff" d="M0 0h90v90H0z"/></clipPath></defs></svg>