<svg width="90" height="90" viewBox="0 0 90 90" fill="none" xmlns="http://www.w3.org/2000/svg">
<g clip-path="url(#clip0)">
<path d="M3.10345 90C4.81744 90 6.2069 88.6105 6.2069 86.8965C6.2069 85.1826 4.81744 83.7931 3.10345 83.7931C1.38946 83.7931 0 85.1826 0 86.8965C0 88.6105 1.38946 90 3.10345 90Z" fill="#FEC830"/>
<path d="M14.7414 83.7931C16.8839 83.7931 18.6207 82.0563 18.6207 79.9138C18.6207 77.7713 16.8839 76.0345 14.7414 76.0345C12.5989 76.0345 10.8621 77.7713 10.8621 79.9138C10.8621 82.0563 12.5989 83.7931 14.7414 83.7931Z" fill="#FEC830"/>
<path d="M24.8276 72.931C27.3986 72.931 29.4828 70.8469 29.4828 68.2759C29.4828 65.7049 27.3986 63.6207 24.8276 63.6207C22.2566 63.6207 20.1724 65.7049 20.1724 68.2759C20.1724 70.8469 22.2566 72.931 24.8276 72.931Z" fill="#FEC830"/>
<path d="M82.0241 45.2017C83.2551 53.7749 78.8759 62.1771 71.1433 66.0785C63.4107 69.98 54.0505 68.5099 47.8862 62.4259C43.8207 64.1225 39.2257 64.0111 35.2471 62.1196C31.2685 60.228 28.2815 56.7345 27.031 52.5103C16.7121 58.2983 4.31379 49.2828 6.42414 38.0328C6.96364 34.7542 8.66576 31.7797 11.219 29.6534C10.806 27.8193 10.7481 25.9231 11.0483 24.0672C12.3482 15.6655 20.1669 9.87411 28.5828 11.0793C31.761 4.83166 37.9546 0.681759 44.9415 0.118502C51.9284 -0.444754 58.7068 2.65939 62.8448 8.31724C66.6577 7.21836 70.758 7.79332 74.1215 9.89851C77.4851 12.0037 79.7943 15.4403 80.4724 19.35C85.8453 21.1387 89.6062 25.9948 89.9939 31.6443C90.3817 37.2938 87.3195 42.6182 82.2414 45.1241L82.0241 45.2017Z" fill="white"/>
<path d="M82.0241 40.5465C82.2679 42.0598 82.32 43.5978 82.1793 45.1241L82.0396 45.2017V45.8379C81.098 53.4522 75.9185 59.8731 68.676 62.4047C61.4334 64.9363 53.3818 63.1402 47.9017 57.7707C43.8362 59.4673 39.2412 59.356 35.2626 57.4644C31.284 55.5728 28.297 52.0793 27.0465 47.8552C23.0857 50.0928 18.2832 50.261 14.1755 48.306C10.0679 46.351 7.16982 42.5178 6.4086 38.0328C6.94811 34.7542 8.65022 31.7797 11.2034 29.6534C10.7905 27.8193 10.7325 25.9231 11.0327 24.0672C12.3327 15.6655 20.1513 9.87411 28.5672 11.0793C31.7435 4.82476 37.9409 0.66935 44.9331 0.105924C51.9252 -0.457502 58.7081 2.65196 62.8448 8.31724C66.6577 7.21836 70.758 7.79332 74.1215 9.89851C77.4851 12.0037 79.7943 15.4403 80.4724 19.35C85.3355 20.9855 88.9102 25.156 89.7827 30.2121C89.0418 34.7182 86.1444 38.5774 82.0241 40.5465Z" fill="#FEC830"/>
<path d="M38.7931 31.0345C37.9361 31.0345 37.2414 30.3397 37.2414 29.4828V27.931C37.2414 27.074 37.9361 26.3793 38.7931 26.3793C39.6501 26.3793 40.3448 27.074 40.3448 27.931V29.4828C40.3448 30.3397 39.6501 31.0345 38.7931 31.0345Z" fill="white"/>
<path d="M60.5172 31.0345C59.6602 31.0345 58.9655 30.3397 58.9655 29.4828V27.931C58.9655 27.074 59.6602 26.3793 60.5172 26.3793C61.3742 26.3793 62.069 27.074 62.069 27.931V29.4828C62.069 30.3397 61.3742 31.0345 60.5172 31.0345Z" fill="white"/>
<path d="M49.6552 43.4483C45.3702 43.4483 41.8965 39.9746 41.8965 35.6896C41.8965 34.8327 42.5913 34.1379 43.4483 34.1379C44.3053 34.1379 45 34.8327 45 35.6896C45 38.2606 47.0842 40.3448 49.6552 40.3448C52.2261 40.3448 54.3103 38.2606 54.3103 35.6896C54.3103 34.8327 55.0051 34.1379 55.8621 34.1379C56.719 34.1379 57.4138 34.8327 57.4138 35.6896C57.4138 39.9746 53.9401 43.4483 49.6552 43.4483Z" fill="white"/>
</g>
<defs>
<clipPath id="clip0">
<rect width="90" height="90" fill="white"/>
</clipPath>
</defs>
</svg>
