<svg width="90" height="90" fill="none" xmlns="http://www.w3.org/2000/svg"><path d="M58.489 10.177C56.637 4.693 54.12.767 54.014.603A1.318 1.318 0 0052.73.012c-.194.026-4.813.665-10.184 2.824-7.227 2.904-12.32 7.204-14.73 12.434-4.016 8.722-8.211 26.298-9.35 39.179-.05.555.256 1.08.761 1.314l14.201 6.54a1.316 1.316 0 001.494-.276c9.047-9.238 19.676-23.851 23.693-32.574 2.409-5.23 2.365-11.895-.127-19.276z" fill="#EBEEF2"/><path d="M58.489 10.177C56.637 4.693 54.12.767 54.014.603A1.318 1.318 0 0052.73.012c-.047.006-.361.05-.886.143.635 1.303 2.024 4.399 3.022 8.41 1.754 7.052 1.414 13.546-.984 18.78-4 8.731-14.104 23.578-22.522 33.097-.236.266-.542.42-.845.44-.063.003-.126 0-.189-.008l3.102 1.428a1.316 1.316 0 001.493-.275c9.048-9.238 19.677-23.851 23.694-32.574 2.409-5.23 2.365-11.895-.127-19.276z" fill="#D1D6DE"/><path d="M52.73.012c-.194.026-4.813.665-10.184 2.824C38.122 4.613 34.5 6.915 31.801 9.63l28.54 12.707c.233-3.707-.384-7.81-1.853-12.16-1.85-5.485-4.368-9.41-4.474-9.575A1.318 1.318 0 0052.73.012z" fill="#FEC830"/><path d="M51.844.155c.635 1.303 2.024 4.399 3.022 8.41 1.034 4.157 1.34 8.121.925 11.747l4.55 2.026c.442-7-2.679-16.083-6.327-21.735A1.318 1.318 0 0052.73.012l-.03.004c-.1.014-.397.057-.856.139z" fill="#EDB413"/><path d="M41.725 30.689a5.093 5.093 0 100-10.187 5.093 5.093 0 000 10.187z" fill="#8088A0"/><path d="M33.766 49.79a4.06 4.06 0 00-2.124-2.297 4.06 4.06 0 00-3.125-.122 4.06 4.06 0 00-2.297 2.124 1.347 1.347 0 00-.066.177l-4.01 13.492a2.078 2.078 0 001.131 2.497 2.077 2.077 0 002.632-.764l7.647-11.818c.034-.052.064-.107.09-.164a4.06 4.06 0 00.122-3.126z" fill="#FEC830"/><path d="M69.395 20.624a8.02 8.02 0 00-6.16.474 8.02 8.02 0 00-4.02 4.691l-1.138 3.481c-1.383 4.231.934 8.798 5.165 10.181.83.271 1.673.4 2.502.4 3.398 0 6.567-2.164 7.678-5.565l1.138-3.481c1.383-4.231-.934-8.798-5.165-10.18z" fill="#FFBE9D"/><path d="M80.803 17.742a1.317 1.317 0 00-1.245-.416l-5.112 1.028a.39.39 0 01-.198-.011l-4.994-1.633a6.73 6.73 0 00-8.478 4.3l-1.954 5.98a1.318 1.318 0 00.844 1.663l3.985 1.303a1.32 1.32 0 001.663-.844l.07-.213a1.623 1.623 0 012.044-1.037l2.416.79c4.026 1.315 8.372-.89 9.688-4.915l1.539-4.71a1.32 1.32 0 00-.268-1.285z" fill="#343434"/><path d="M61.228 39.16a6.932 6.932 0 00-9.685 1.445L41.98 53.522a1.32 1.32 0 00.377 1.913l9.637 5.826a1.317 1.317 0 001.741-.344l8.94-12.072a6.879 6.879 0 001.359-4.115 6.956 6.956 0 00-2.805-5.57z" fill="#FEC830"/><path d="M61.228 39.16a6.911 6.911 0 00-.971-.6 6.957 6.957 0 011.36 4.12 6.88 6.88 0 01-1.36 4.114L51.32 58.867a1.317 1.317 0 01-1.741.344l-7.847-4.744c.004.032.008.064.014.095.072.364.293.681.611.873l9.637 5.826a1.317 1.317 0 001.741-.344l8.94-12.072a6.878 6.878 0 001.359-4.115 6.956 6.956 0 00-2.805-5.57z" fill="#EDB413"/><path d="M59.388 42.194a4.031 4.031 0 00-2.73-1.46l-21.125-2.36-.019-.001a4.061 4.061 0 00-4.431 3.646 4.063 4.063 0 003.635 4.43l21.125 2.36.019.002a4.027 4.027 0 002.97-.905 4.031 4.031 0 001.461-2.741 4.031 4.031 0 00-.905-2.971z" fill="#FEC830"/><path d="M23.283 86.99h-13.1a1.318 1.318 0 010-2.636h13.1a1.318 1.318 0 110 2.637zM23.283 79.423h-9.206a1.318 1.318 0 010-2.637h9.206a1.318 1.318 0 010 2.637zM23.283 71.855h-3.895a1.318 1.318 0 010-2.637h3.895a1.318 1.318 0 010 2.637z" fill="#DCE0E5"/><path d="M39.026 39.165c-.219-.28-.54-.46-.894-.5l-2.6-.29-.018-.002a4.064 4.064 0 00-4.431 3.646 4.03 4.03 0 00.905 2.97 4.03 4.03 0 002.73 1.46l2.382.266a1.318 1.318 0 001.452-1.132l.74-5.43a1.318 1.318 0 00-.266-.988z" fill="#FFBE9D"/><path d="M51.237 63.652a1.319 1.319 0 00-.521-.875l-9.01-6.67a1.318 1.318 0 00-1.947.438l-14.1 25.283a1.318 1.318 0 00.465 1.767l6.043 3.688a1.317 1.317 0 001.734-.324L50.98 64.637a1.32 1.32 0 00.258-.985z" fill="#343434"/><path d="M62.59 64.586L43.72 53.18a1.318 1.318 0 00-1.741.343l-2.117 2.86a1.3 1.3 0 00-.113.18l-.409.734a6.374 6.374 0 002.222 8.543l12.15 7.502-3.629 12.997a1.318 1.318 0 00.9 1.62l6.796 1.989a1.319 1.319 0 001.64-.909l5.32-18.93a4.862 4.862 0 00-2.15-5.522z" fill="#464F5E"/></svg>