<svg aria-hidden="true" style="position: absolute; width: 0; height: 0; overflow: hidden;" version="1.1" xmlns="http://www.w3.org/2000/svg" xmlns:xlink="http://www.w3.org/1999/xlink">
	<defs>
		<symbol id="skill-1" viewBox="0 0 90 90">
			<title>
				skill-1
			</title>
			<g clip-path="url(#clip0)">
				<path d="M3.103 90a3.103 3.103 0 100-6.207 3.103 3.103 0 000 6.207zM14.741 83.793a3.88 3.88 0 100-7.758 3.88 3.88 0 000 7.758zM24.828 72.931a4.655 4.655 0 100-9.31 4.655 4.655 0 000 9.31z" fill="#FEC830" />
				<path d="M82.024 45.202a20.172 20.172 0 01-34.138 17.224 15.518 15.518 0 01-20.855-9.916C16.712 58.298 4.314 49.283 6.424 38.033a13.826 13.826 0 014.795-8.38 14.725 14.725 0 01-.17-5.586c1.3-8.402 9.118-14.193 17.534-12.988a20.172 20.172 0 0134.262-2.762A13.965 13.965 0 0180.472 19.35a13.965 13.965 0 011.77 25.774l-.218.078z" fill="#fff" />
				<path d="M82.024 40.547c.244 1.513.296 3.05.155 4.577l-.14.078v.636A20.172 20.172 0 0147.903 57.77a15.517 15.517 0 01-20.855-9.916 13.966 13.966 0 01-20.638-9.822 13.826 13.826 0 014.794-8.38 14.727 14.727 0 01-.17-5.586c1.3-8.402 9.118-14.193 17.534-12.988a20.173 20.173 0 0134.278-2.762A13.965 13.965 0 0180.472 19.35a13.965 13.965 0 019.31 10.862 13.965 13.965 0 01-7.758 10.335z" fill="#FEC830" />
				<path d="M38.793 31.035a1.552 1.552 0 01-1.552-1.552V27.93a1.552 1.552 0 113.104 0v1.552c0 .857-.695 1.552-1.552 1.552zM60.517 31.035a1.552 1.552 0 01-1.552-1.552V27.93a1.552 1.552 0 113.104 0v1.552c0 .857-.695 1.552-1.552 1.552zM49.655 43.448a7.759 7.759 0 01-7.758-7.758 1.552 1.552 0 013.103 0 4.655 4.655 0 109.31 0 1.552 1.552 0 013.104 0 7.759 7.759 0 01-7.759 7.758z" fill="#fff" />
			</g>
		</symbol>
		<symbol id="skill-2" viewBox="0 0 90 90">
			<title>
				skill-2
			</title>
			<path d="M49.655 80.69v4.655a4.655 4.655 0 11-9.31 0V80.69h9.31z" fill="#E5E5E5" />
			<path d="M49.655 77.586h-9.31a3.103 3.103 0 000 6.207h9.31a3.103 3.103 0 100-6.207z" fill="#E0E0E0" />
			<path d="M79.138 48.103H72.93a1.552 1.552 0 110-3.103h6.207a1.552 1.552 0 110 3.103zM17.069 48.103h-6.207a1.552 1.552 0 110-3.103h6.207a1.552 1.552 0 110 3.103zM11.714 55.732a1.552 1.552 0 01-.354-3.063l6.052-1.422a1.553 1.553 0 01.709 3.023l-6.052 1.421c-.116.027-.236.04-.355.04zM14.236 63.155a1.552 1.552 0 01-.691-2.948l5.594-2.775a1.552 1.552 0 011.38 2.78L14.922 63c-.214.104-.45.157-.688.155zM18.293 69.828a1.552 1.552 0 01-.987-2.752l4.856-3.986a1.553 1.553 0 011.97 2.4l-4.855 3.985a1.552 1.552 0 01-.984.353zM17.769 41.897a1.64 1.64 0 01-.355-.04l-6.052-1.422a1.552 1.552 0 11.709-3.023l6.052 1.421a1.552 1.552 0 01-.354 3.064zM78.157 55.732c-.12 0-.239-.014-.355-.04L71.75 54.27a1.552 1.552 0 11.71-3.023l6.051 1.422a1.552 1.552 0 01-.354 3.063zM75.636 63.155a1.534 1.534 0 01-.688-.155l-5.595-2.775a1.552 1.552 0 011.38-2.779l5.593 2.775a1.552 1.552 0 01-.69 2.948v-.014zM71.58 69.828c-.36 0-.707-.125-.984-.353l-4.857-3.984a1.553 1.553 0 111.97-2.401l4.857 3.986a1.552 1.552 0 01-.987 2.752zM72.102 41.897a1.552 1.552 0 01-.353-3.064l6.051-1.42a1.552 1.552 0 11.71 3.022l-6.052 1.421c-.117.027-.236.04-.356.04z" fill="#F8E8AB" />
			<path d="M68.276 25.914l6.455-2.297 4.301-1.536 9.931-3.553a1.552 1.552 0 000-2.918L45.543.093a1.63 1.63 0 00-1.086 0L1.037 15.61a1.552 1.552 0 000 2.918l20.687 7.386h46.552z" fill="#343434" />
			<path d="M68.276 20.172v13.966c0-2.576-10.428-4.655-23.276-4.655-3.15 0-6.16.124-8.907.357-8.426.698-14.369 2.358-14.369 4.298V20.172c0-2.575 10.428-4.655 23.276-4.655 12.848 0 23.276 2.08 23.276 4.655z" fill="#464F5E" />
			<path d="M77.586 23.276a1.552 1.552 0 01-1.552-1.552v-10.18a1.552 1.552 0 113.104 0v10.18c0 .857-.695 1.552-1.552 1.552z" fill="#FEC830" />
			<path d="M74.483 24.828v4.655c0 .857.694 1.552 1.551 1.552h3.104c.857 0 1.552-.695 1.552-1.552v-4.655a3.104 3.104 0 00-6.207 0z" fill="#F1D24B" />
			<path d="M68.276 34.138c0 1.148-2.08 2.203-5.524 3.01a21.65 21.65 0 00-8.86-7.308c8.44.698 14.384 2.358 14.384 4.298z" fill="#343434" />
			<path d="M66.724 49.655a21.691 21.691 0 01-8.891 17.52 12.555 12.555 0 00-4.857 7.99 3.05 3.05 0 01-3.026 2.421h-9.9a3.05 3.05 0 01-3.026-2.42 12.555 12.555 0 00-4.857-7.992 21.724 21.724 0 013.926-37.334c2.747-.233 5.757-.357 8.907-.357 3.15 0 6.145.124 8.891.357a21.65 21.65 0 018.86 7.308c.156.217.311.45.45.683.187.295.373.59.544.884a21.328 21.328 0 012.98 10.94z" fill="#FEC830" />
			<path d="M29.483 51.207a1.552 1.552 0 01-1.552-1.552A16.947 16.947 0 0134.768 36a1.552 1.552 0 011.862 2.483 13.86 13.86 0 00-5.596 11.172c0 .857-.694 1.552-1.551 1.552z" fill="#F8E8AB" />
			<path d="M36.093 29.84a21.707 21.707 0 00-8.845 7.308c-3.445-.807-5.524-1.862-5.524-3.01 0-1.94 5.943-3.6 14.37-4.298z" fill="#343434" />
		</symbol>
		<symbol id="skill-3" viewBox="0 0 90 90">
			<title>
				skill-3
			</title>
			<g clip-path="url(#clip0)">
				<path d="M83.792 23.276c-.233 0-.47-.053-.694-.163l-18.62-9.31a1.552 1.552 0 011.388-2.777l18.62 9.31a1.552 1.552 0 01-.694 2.94zM72.933 43.448a1.55 1.55 0 01-1.226-.599L60.845 28.884a1.552 1.552 0 012.448-1.906l10.862 13.966a1.552 1.552 0 01-1.222 2.504zM49.978 69.975a1.55 1.55 0 01-.933-2.792l8.668-6.5a1.552 1.552 0 011.862 2.481l-8.667 6.5c-.28.209-.606.311-.93.311zM20.172 76.034H9.31a1.551 1.551 0 110-3.103h10.862a1.551 1.551 0 110 3.103zM41.316 45.256c-.312 0-.628-.095-.901-.29L27.028 35.4a1.552 1.552 0 011.804-2.525l13.387 9.566a1.552 1.552 0 01-.903 2.815zM26.49 26.27a1.55 1.55 0 01-1.02-2.72l12.304-10.753a1.55 1.55 0 012.19.147 1.55 1.55 0 01-.148 2.19L27.51 25.887c-.295.258-.66.384-1.021.384zM15.517 21.724a1.551 1.551 0 01-1.551-1.552V9.31a1.551 1.551 0 113.103 0v10.862c0 .858-.695 1.552-1.552 1.552zM64.592 84.05c-.228 0-.46-.05-.678-.158l-16.49-8.014a1.552 1.552 0 011.358-2.791l16.49 8.014a1.55 1.55 0 01-.68 2.948z" fill="#E7ECED" />
				<path d="M31.035 35.69c0-8.57-6.948-15.518-15.518-15.518S0 27.12 0 35.69c0 5.74 3.125 10.74 7.759 13.424v-4.091c0-1.727 1.458-3.127 3.257-3.127h9.003c1.798 0 3.257 1.4 3.257 3.127v4.087c4.635-2.68 7.759-7.68 7.759-13.42z" fill="#FEC830" />
				<path d="M85.345 27.931a4.655 4.655 0 100-9.31 4.655 4.655 0 000 9.31zM4.655 79.138a4.655 4.655 0 100-9.31 4.655 4.655 0 000 9.31zM68.276 90a4.655 4.655 0 100-9.31 4.655 4.655 0 000 9.31zM45 51.207a4.655 4.655 0 100-9.31 4.655 4.655 0 000 9.31z" fill="#343434" />
				<path d="M15.517 35.69a4.655 4.655 0 100-9.31 4.655 4.655 0 000 9.31zM20.019 41.897h-9.003c-1.799 0-3.257 1.4-3.257 3.126v4.09a15.418 15.418 0 0015.517 0v-4.09c0-1.727-1.459-3.126-3.257-3.126z" fill="#fff" />
				<path d="M68.276 15.517C68.276 6.947 61.329 0 52.759 0S37.24 6.947 37.24 15.517c0 5.74 3.126 10.74 7.759 13.424v-4.09c0-1.727 1.459-3.127 3.257-3.127h9.003c1.799 0 3.257 1.4 3.257 3.127v4.087c4.635-2.68 7.759-7.68 7.759-13.42z" fill="#FEC830" />
				<path d="M52.759 15.517a4.655 4.655 0 100-9.31 4.655 4.655 0 000 9.31zM57.26 21.724h-9.003c-1.798 0-3.257 1.4-3.257 3.127v4.09a15.418 15.418 0 0015.517 0v-4.09c0-1.727-1.458-3.127-3.257-3.127z" fill="#fff" />
				<path d="M88.448 55.862c0-8.57-6.947-15.517-15.517-15.517s-15.517 6.947-15.517 15.517c0 5.74 3.125 10.74 7.758 13.424v-4.09c0-1.727 1.459-3.127 3.257-3.127h9.003c1.799 0 3.257 1.4 3.257 3.126v4.088c4.636-2.68 7.76-7.681 7.76-13.42z" fill="#FEC830" />
				<path d="M72.931 55.862a4.655 4.655 0 100-9.31 4.655 4.655 0 000 9.31zM77.433 62.069h-9.004c-1.798 0-3.257 1.4-3.257 3.127v4.09a15.419 15.419 0 0015.517 0v-4.09c0-1.727-1.458-3.127-3.256-3.127z" fill="#fff" />
				<path d="M51.207 74.483c0-8.57-6.947-15.518-15.517-15.518s-15.518 6.947-15.518 15.518c0 5.74 3.125 10.74 7.759 13.424v-4.09c0-1.728 1.459-3.128 3.257-3.128h9.003c1.798 0 3.257 1.4 3.257 3.127v4.087c4.635-2.68 7.759-7.68 7.759-13.42z" fill="#FEC830" />
				<path d="M35.69 74.483a4.655 4.655 0 100-9.31 4.655 4.655 0 000 9.31zM40.191 80.69h-9.003c-1.798 0-3.257 1.4-3.257 3.126v4.09a15.419 15.419 0 0015.517 0v-4.09c0-1.727-1.458-3.126-3.257-3.126z" fill="#fff" />
				<path d="M15.517 9.31a4.655 4.655 0 100-9.31 4.655 4.655 0 000 9.31z" fill="#343434" />
			</g>
		</symbol>
		<symbol id="skill-4" viewBox="0 0 90 90">
			<title>
				skill-4
			</title>
			<path d="M58.489 10.177C56.637 4.693 54.12.767 54.014.603A1.318 1.318 0 0052.73.012c-.194.026-4.813.665-10.184 2.824-7.227 2.904-12.32 7.204-14.73 12.434-4.016 8.722-8.211 26.298-9.35 39.179-.05.555.256 1.08.761 1.314l14.201 6.54a1.316 1.316 0 001.494-.276c9.047-9.238 19.676-23.851 23.693-32.574 2.409-5.23 2.365-11.895-.127-19.276z" fill="#EBEEF2" />
			<path d="M58.489 10.177C56.637 4.693 54.12.767 54.014.603A1.318 1.318 0 0052.73.012c-.047.006-.361.05-.886.143.635 1.303 2.024 4.399 3.022 8.41 1.754 7.052 1.414 13.546-.984 18.78-4 8.731-14.104 23.578-22.522 33.097-.236.266-.542.42-.845.44-.063.003-.126 0-.189-.008l3.102 1.428a1.316 1.316 0 001.493-.275c9.048-9.238 19.677-23.851 23.694-32.574 2.409-5.23 2.365-11.895-.127-19.276z" fill="#D1D6DE" />
			<path d="M52.73.012c-.194.026-4.813.665-10.184 2.824C38.122 4.613 34.5 6.915 31.801 9.63l28.54 12.707c.233-3.707-.384-7.81-1.853-12.16-1.85-5.485-4.368-9.41-4.474-9.575A1.318 1.318 0 0052.73.012z" fill="#FEC830" />
			<path d="M51.844.155c.635 1.303 2.024 4.399 3.022 8.41 1.034 4.157 1.34 8.121.925 11.747l4.55 2.026c.442-7-2.679-16.083-6.327-21.735A1.318 1.318 0 0052.73.012l-.03.004c-.1.014-.397.057-.856.139z" fill="#EDB413" />
			<path d="M41.725 30.689a5.093 5.093 0 100-10.187 5.093 5.093 0 000 10.187z" fill="#8088A0" />
			<path d="M33.766 49.79a4.06 4.06 0 00-2.124-2.297 4.06 4.06 0 00-3.125-.122 4.06 4.06 0 00-2.297 2.124 1.347 1.347 0 00-.066.177l-4.01 13.492a2.078 2.078 0 001.131 2.497 2.077 2.077 0 002.632-.764l7.647-11.818c.034-.052.064-.107.09-.164a4.06 4.06 0 00.122-3.126z" fill="#FEC830" />
			<path d="M69.395 20.624a8.02 8.02 0 00-6.16.474 8.02 8.02 0 00-4.02 4.691l-1.138 3.481c-1.383 4.231.934 8.798 5.165 10.181.83.271 1.673.4 2.502.4 3.398 0 6.567-2.164 7.678-5.565l1.138-3.481c1.383-4.231-.934-8.798-5.165-10.18z" fill="#FFBE9D" />
			<path d="M80.803 17.742a1.317 1.317 0 00-1.245-.416l-5.112 1.028a.39.39 0 01-.198-.011l-4.994-1.633a6.73 6.73 0 00-8.478 4.3l-1.954 5.98a1.318 1.318 0 00.844 1.663l3.985 1.303a1.32 1.32 0 001.663-.844l.07-.213a1.623 1.623 0 012.044-1.037l2.416.79c4.026 1.315 8.372-.89 9.688-4.915l1.539-4.71a1.32 1.32 0 00-.268-1.285z" fill="#343434" />
			<path d="M61.228 39.16a6.932 6.932 0 00-9.685 1.445L41.98 53.522a1.32 1.32 0 00.377 1.913l9.637 5.826a1.317 1.317 0 001.741-.344l8.94-12.072a6.879 6.879 0 001.359-4.115 6.956 6.956 0 00-2.805-5.57z" fill="#FEC830" />
			<path d="M61.228 39.16a6.911 6.911 0 00-.971-.6 6.957 6.957 0 011.36 4.12 6.88 6.88 0 01-1.36 4.114L51.32 58.867a1.317 1.317 0 01-1.741.344l-7.847-4.744c.004.032.008.064.014.095.072.364.293.681.611.873l9.637 5.826a1.317 1.317 0 001.741-.344l8.94-12.072a6.878 6.878 0 001.359-4.115 6.956 6.956 0 00-2.805-5.57z" fill="#EDB413" />
			<path d="M59.388 42.194a4.031 4.031 0 00-2.73-1.46l-21.125-2.36-.019-.001a4.061 4.061 0 00-4.431 3.646 4.063 4.063 0 003.635 4.43l21.125 2.36.019.002a4.027 4.027 0 002.97-.905 4.031 4.031 0 001.461-2.741 4.031 4.031 0 00-.905-2.971z" fill="#FEC830" />
			<path d="M23.283 86.99h-13.1a1.318 1.318 0 010-2.636h13.1a1.318 1.318 0 110 2.637zM23.283 79.423h-9.206a1.318 1.318 0 010-2.637h9.206a1.318 1.318 0 010 2.637zM23.283 71.855h-3.895a1.318 1.318 0 010-2.637h3.895a1.318 1.318 0 010 2.637z" fill="#DCE0E5" />
			<path d="M39.026 39.165c-.219-.28-.54-.46-.894-.5l-2.6-.29-.018-.002a4.064 4.064 0 00-4.431 3.646 4.03 4.03 0 00.905 2.97 4.03 4.03 0 002.73 1.46l2.382.266a1.318 1.318 0 001.452-1.132l.74-5.43a1.318 1.318 0 00-.266-.988z" fill="#FFBE9D" />
			<path d="M51.237 63.652a1.319 1.319 0 00-.521-.875l-9.01-6.67a1.318 1.318 0 00-1.947.438l-14.1 25.283a1.318 1.318 0 00.465 1.767l6.043 3.688a1.317 1.317 0 001.734-.324L50.98 64.637a1.32 1.32 0 00.258-.985z" fill="#343434" />
			<path d="M62.59 64.586L43.72 53.18a1.318 1.318 0 00-1.741.343l-2.117 2.86a1.3 1.3 0 00-.113.18l-.409.734a6.374 6.374 0 002.222 8.543l12.15 7.502-3.629 12.997a1.318 1.318 0 00.9 1.62l6.796 1.989a1.319 1.319 0 001.64-.909l5.32-18.93a4.862 4.862 0 00-2.15-5.522z" fill="#464F5E" />
		</symbol>
	</defs>
</svg>
