<svg width="60" height="60" fill="none" xmlns="http://www.w3.org/2000/svg"><g clip-path="url(#clip0)"><path d="M54.407 27.458a6.102 6.102 0 00-6.102-6.102h-13.22V6.102H56.44a3.051 3.051 0 013.05 3.05v17.289a12.35 12.35 0 01-.89 4.188 6.127 6.127 0 01-5.73 3.947h-1.515l2.005-3.34a7.342 7.342 0 001.046-3.778zM12.712 34.576c0-.165-4.068-2.034-4.045-4.567.026-2.653 2.621-4.585 5.28-4.585h18.087a3.05 3.05 0 003.05-3.051V3.05A3.051 3.051 0 0032.035 0H3.559A3.051 3.051 0 00.51 3.05v22.374c-.002.646.04 1.291.124 1.932a7.802 7.802 0 006.9 6.64l5.179.58z" fill="#FEC830"/><path d="M28.983 60v-4.068a4.068 4.068 0 00-4.068-4.068 4.068 4.068 0 01-4.067-4.068v-.531a9.153 9.153 0 10-6.102 0v.531a4.068 4.068 0 01-4.068 4.068 4.068 4.068 0 00-4.068 4.068V60h22.373zM56.44 60v-4.068c0-2.246-1.82-5.085-4.067-5.085-2.246 0-4.068-.804-4.068-3.05v-.532a9.153 9.153 0 10-6.102 0v.531c0 2.247-1.821 3.051-4.067 3.051-2.247 0-4.068 2.839-4.068 5.085V60H56.44z" fill="#FFF5E0"/><path d="M17.797 29.492a9.152 9.152 0 00-9.153 9.152h4.068l3.05-2.034 3.052 2.034h8.135a9.152 9.152 0 00-9.152-9.152zM46.271 29.492H34.068c0 2.267.948 4.43 2.617 5.965a8.101 8.101 0 005.518 2.17h12.182a8.116 8.116 0 00-8.114-8.135z" fill="#343434"/><path d="M35.085 6.102h1.017v15.254h-1.017V6.102z" fill="#EDB413"/><path d="M5.593 4.068h19.322a1.017 1.017 0 010 2.034H5.593a1.017 1.017 0 010-2.034zM5.593 8.136h4.068a1.017 1.017 0 010 2.034H5.593a1.017 1.017 0 010-2.034zM13.729 8.136h13.22a1.017 1.017 0 010 2.034H13.73a1.017 1.017 0 010-2.034zM5.593 12.204a1.017 1.017 0 110 2.034 1.017 1.017 0 010-2.034zM9.661 12.204h6.102a1.017 1.017 0 010 2.034H9.66a1.017 1.017 0 010-2.034zM19.83 12.204h7.12a1.017 1.017 0 010 2.034h-7.12a1.017 1.017 0 010-2.034zM43.22 11.187h12.204a1.017 1.017 0 010 2.033H43.22a1.017 1.017 0 010-2.034zM39.153 15.254h5.084a1.017 1.017 0 010 2.034h-5.084a1.017 1.017 0 010-2.034zM48.305 15.254h7.119a1.017 1.017 0 010 2.034h-7.119a1.017 1.017 0 010-2.034zM39.153 11.187a1.017 1.017 0 110 2.034 1.017 1.017 0 010-2.034z" fill="#fff"/><path d="M24.915 51.864c-.822.001-1.625-.25-2.302-.717l-4.816 2.751-4.817-2.752a4.042 4.042 0 01-2.302.718 4.068 4.068 0 00-4.068 4.068V60h22.373v-4.068a4.068 4.068 0 00-4.068-4.068zM52.373 50.847a7.28 7.28 0 01-1.518-.15l-5.6 3.201-5.602-3.201c-.499.103-1.008.153-1.517.15-2.247 0-4.068 2.839-4.068 5.085V60H56.44v-4.068c0-2.246-1.822-5.085-4.068-5.085z" fill="#FEC830"/></g><defs><clipPath id="clip0"><path fill="#fff" d="M0 0h60v60H0z"/></clipPath></defs></svg>