<svg aria-hidden="true" style="position: absolute; width: 0; height: 0; overflow: hidden;" version="1.1" xmlns="http://www.w3.org/2000/svg" xmlns:xlink="http://www.w3.org/1999/xlink">
	<defs>
		<symbol id="todo-1" viewBox="0 0 60 60">
			<title>
				todo-1
			</title>
			<g clip-path="url(#clip0)">
				<path d="M52.063 1.618l1.692 3.427c.117.236.342.4.603.438l3.783.549a.8.8 0 01.444 1.366l-2.736 2.668a.801.801 0 00-.23.71l.647 3.766a.801.801 0 01-1.162.845l-3.384-1.778a.801.801 0 00-.745 0l-3.383 1.78a.801.801 0 01-1.162-.844l.645-3.767a.801.801 0 00-.23-.71l-2.738-2.666a.801.801 0 01.443-1.367l3.783-.55a.801.801 0 00.603-.439l1.69-3.427a.8.8 0 011.437 0zM30.717 1.618l1.692 3.427c.117.236.343.4.604.438l3.782.549c.657.095.92.902.444 1.366l-2.736 2.668a.801.801 0 00-.23.71l.647 3.766a.801.801 0 01-1.162.845l-3.384-1.778a.801.801 0 00-.745 0l-3.383 1.78a.801.801 0 01-1.162-.844l.645-3.767a.8.8 0 00-.23-.71L22.76 7.403a.801.801 0 01.444-1.367l3.782-.55a.8.8 0 00.603-.439l1.69-3.427a.801.801 0 011.437 0zM9.371 1.618l1.693 3.427c.116.236.342.4.603.438l3.782.549c.657.095.92.902.444 1.366l-2.736 2.668a.801.801 0 00-.23.71l.647 3.766a.801.801 0 01-1.162.845L9.03 13.609a.801.801 0 00-.746 0l-3.382 1.78a.801.801 0 01-1.163-.844l.645-3.767a.8.8 0 00-.23-.71L1.415 7.403a.801.801 0 01.444-1.367l3.782-.55a.801.801 0 00.603-.439l1.69-3.427a.801.801 0 011.437 0z" fill="#FEC830" />
				<path d="M44.012 58.828l1.653-5.272a27.107 27.107 0 001.242-8.11v-9.888a2.818 2.818 0 10-5.636 0v3.439-5.516a2.818 2.818 0 10-5.635 0v5.516-7.3a2.818 2.818 0 10-5.636 0v7.3-16.536a2.818 2.818 0 00-5.635 0v20.424l-3.31-6.127a2.971 2.971 0 00-5.503 2.108l2.146 8.893a14.961 14.961 0 002.464 5.318l4.202 5.75h19.648z" fill="#FFF5E0" />
				<path d="M24.365 32.766c-.648 0-1.172.525-1.172 1.172v4.311l-1.107-2.048a4.122 4.122 0 00-5.511-1.73 4.127 4.127 0 00-2.162 4.67l2.146 8.893a16.052 16.052 0 002.657 5.734l4.203 5.752a1.17 1.17 0 001.637.254 1.172 1.172 0 00.255-1.638l-4.203-5.75a13.716 13.716 0 01-2.27-4.902l-2.146-8.892c-.197-.817.189-1.65.939-2.029a1.79 1.79 0 012.393.752l3.31 6.127a1.172 1.172 0 002.203-.557v-8.947c0-.647-.525-1.172-1.172-1.172zM44.089 31.568c-.692 0-1.343.177-1.91.488a3.996 3.996 0 00-3.726-2.564c-.732 0-1.418.199-2.009.545a3.994 3.994 0 00-3.626-2.33c-.587 0-1.144.128-1.646.357V22.46c0-2.2-1.79-3.99-3.99-3.99s-3.99 1.79-3.99 3.99v2.031a1.172 1.172 0 002.344 0v-2.031c0-.907.739-1.646 1.646-1.646.908 0 1.646.739 1.646 1.646v16.536a1.172 1.172 0 002.344 0v-7.3c0-.908.738-1.646 1.646-1.646.907 0 1.646.738 1.646 1.646v7.3a1.172 1.172 0 002.343 0v-5.516c0-.907.739-1.646 1.646-1.646.908 0 1.646.739 1.646 1.646v5.516a1.172 1.172 0 002.344 0v-3.44c0-.907.738-1.645 1.646-1.645.907 0 1.646.738 1.646 1.646v9.888c0 2.635-.4 5.246-1.188 7.76l-1.653 5.271a1.172 1.172 0 002.236.702l1.653-5.272a28.246 28.246 0 001.296-8.461v-9.888c0-2.2-1.79-3.99-3.99-3.99z" fill="#343434" />
				<path d="M59.902 6.214a1.96 1.96 0 00-1.593-1.342l-3.59-.52-1.606-3.253A1.96 1.96 0 0051.344 0c-.756 0-1.434.422-1.769 1.1l-1.604 3.253-3.59.523a1.96 1.96 0 00-1.592 1.343 1.96 1.96 0 00.5 2.022l2.598 2.531-.612 3.575a1.96 1.96 0 00.785 1.93 1.965 1.965 0 002.078.15l3.21-1.69 3.21 1.688a1.96 1.96 0 002.078-.151 1.96 1.96 0 00.785-1.93l-.614-3.575 2.596-2.532a1.961 1.961 0 00.499-2.023zM55.03 9.227a1.972 1.972 0 00-.567 1.747l.52 3.026-2.718-1.428a1.972 1.972 0 00-1.837 0l-2.717 1.43.518-3.027a1.973 1.973 0 00-.568-1.746l-2.2-2.142 3.04-.443a1.972 1.972 0 001.484-1.08l1.359-2.753 1.36 2.753c.287.582.842.986 1.485 1.079l3.039.44-2.198 2.144zM24.541 10.772l-.612 3.575a1.96 1.96 0 00.786 1.93 1.965 1.965 0 002.077.15l3.21-1.69 3.211 1.687a1.96 1.96 0 002.078-.15 1.96 1.96 0 00.784-1.93l-.614-3.575 2.596-2.532a1.96 1.96 0 00.5-2.023 1.96 1.96 0 00-1.594-1.342l-3.59-.52-1.605-3.253A1.96 1.96 0 0029.998 0c-.756 0-1.434.422-1.769 1.1l-1.604 3.253-3.59.523a1.96 1.96 0 00-1.591 1.343 1.96 1.96 0 00.5 2.022l2.597 2.531zm2.615-4.128a1.973 1.973 0 001.485-1.08l1.358-2.753 1.36 2.753c.287.582.842.986 1.485 1.079l3.039.44-2.198 2.144a1.972 1.972 0 00-.567 1.747l.52 3.026-2.718-1.428a1.972 1.972 0 00-1.837 0l-2.717 1.43.518-3.027a1.973 1.973 0 00-.568-1.746l-2.199-2.142 3.039-.443zM14.729 14.344l-.614-3.575 2.596-2.532a1.96 1.96 0 00.499-2.023 1.96 1.96 0 00-1.593-1.342l-3.59-.52-1.605-3.253A1.96 1.96 0 008.652 0a1.96 1.96 0 00-1.769 1.1L5.28 4.353l-3.59.523A1.96 1.96 0 00.099 6.219a1.96 1.96 0 00.5 2.022l2.597 2.531-.612 3.575a1.961 1.961 0 00.785 1.93 1.965 1.965 0 002.078.15l3.21-1.69 3.211 1.688c.67.351 1.466.294 2.078-.151a1.962 1.962 0 00.784-1.93zm-2.39-5.117a1.971 1.971 0 00-.567 1.747l.52 3.026-2.718-1.428a1.972 1.972 0 00-1.837 0l-2.717 1.43.518-3.026a1.972 1.972 0 00-.568-1.747L2.771 7.087l3.039-.443a1.973 1.973 0 001.485-1.08l1.358-2.753 1.36 2.753c.287.582.842.986 1.485 1.079l3.039.44-2.198 2.144z" fill="#FEC830" />
				<path d="M24.365 28.148c-.309 0-.611.126-.829.344a1.18 1.18 0 00-.343.828c0 .308.125.61.343.829.218.218.52.343.829.343.308 0 .61-.125.828-.343a1.18 1.18 0 00.343-.829c0-.308-.125-.61-.343-.828a1.18 1.18 0 00-.828-.344z" fill="#343434" />
			</g>
		</symbol>
		<symbol id="todo-2" viewBox="0 0 60 60">
			<title>
				todo-2
			</title>
			<g clip-path="url(#clip0)">
				<path d="M54.407 27.458a6.102 6.102 0 00-6.102-6.102h-13.22V6.102H56.44a3.051 3.051 0 013.05 3.05v17.289a12.35 12.35 0 01-.89 4.188 6.127 6.127 0 01-5.73 3.947h-1.515l2.005-3.34a7.342 7.342 0 001.046-3.778zM12.712 34.576c0-.165-4.068-2.034-4.045-4.567.026-2.653 2.621-4.585 5.28-4.585h18.087a3.05 3.05 0 003.05-3.051V3.05A3.051 3.051 0 0032.035 0H3.559A3.051 3.051 0 00.51 3.05v22.374c-.002.646.04 1.291.124 1.932a7.802 7.802 0 006.9 6.64l5.179.58z" fill="#FEC830" />
				<path d="M28.983 60v-4.068a4.068 4.068 0 00-4.068-4.068 4.068 4.068 0 01-4.067-4.068v-.531a9.153 9.153 0 10-6.102 0v.531a4.068 4.068 0 01-4.068 4.068 4.068 4.068 0 00-4.068 4.068V60h22.373zM56.44 60v-4.068c0-2.246-1.82-5.085-4.067-5.085-2.246 0-4.068-.804-4.068-3.05v-.532a9.153 9.153 0 10-6.102 0v.531c0 2.247-1.821 3.051-4.067 3.051-2.247 0-4.068 2.839-4.068 5.085V60H56.44z" fill="#FFF5E0" />
				<path d="M17.797 29.492a9.152 9.152 0 00-9.153 9.152h4.068l3.05-2.034 3.052 2.034h8.135a9.152 9.152 0 00-9.152-9.152zM46.271 29.492H34.068c0 2.267.948 4.43 2.617 5.965a8.101 8.101 0 005.518 2.17h12.182a8.116 8.116 0 00-8.114-8.135z" fill="#343434" />
				<path d="M35.085 6.102h1.017v15.254h-1.017V6.102z" fill="#EDB413" />
				<path d="M5.593 4.068h19.322a1.017 1.017 0 010 2.034H5.593a1.017 1.017 0 010-2.034zM5.593 8.136h4.068a1.017 1.017 0 010 2.034H5.593a1.017 1.017 0 010-2.034zM13.729 8.136h13.22a1.017 1.017 0 010 2.034H13.73a1.017 1.017 0 010-2.034zM5.593 12.204a1.017 1.017 0 110 2.034 1.017 1.017 0 010-2.034zM9.661 12.204h6.102a1.017 1.017 0 010 2.034H9.66a1.017 1.017 0 010-2.034zM19.83 12.204h7.12a1.017 1.017 0 010 2.034h-7.12a1.017 1.017 0 010-2.034zM43.22 11.187h12.204a1.017 1.017 0 010 2.033H43.22a1.017 1.017 0 010-2.034zM39.153 15.254h5.084a1.017 1.017 0 010 2.034h-5.084a1.017 1.017 0 010-2.034zM48.305 15.254h7.119a1.017 1.017 0 010 2.034h-7.119a1.017 1.017 0 010-2.034zM39.153 11.187a1.017 1.017 0 110 2.034 1.017 1.017 0 010-2.034z" fill="#fff" />
				<path d="M24.915 51.864c-.822.001-1.625-.25-2.302-.717l-4.816 2.751-4.817-2.752a4.042 4.042 0 01-2.302.718 4.068 4.068 0 00-4.068 4.068V60h22.373v-4.068a4.068 4.068 0 00-4.068-4.068zM52.373 50.847a7.28 7.28 0 01-1.518-.15l-5.6 3.201-5.602-3.201c-.499.103-1.008.153-1.517.15-2.247 0-4.068 2.839-4.068 5.085V60H56.44v-4.068c0-2.246-1.822-5.085-4.068-5.085z" fill="#FEC830" />
			</g>
		</symbol>
		<symbol id="todo-3" viewBox="0 0 60 60">
			<title>
				todo-3
			</title>
			<path d="M36.68 58.827H16.991a4.695 4.695 0 014.695-4.695h10.298a4.695 4.695 0 014.694 4.695z" fill="#FEC830" />
			<path d="M31.409 46.516h-9.146v7.616h9.146v-7.616z" fill="#D1D6DE" />
			<path d="M45.155 7.499h5.258c1.153 0 2.087.931 2.087 2.08v34.745c0 1.15-.934 2.081-2.087 2.081H3.258a2.084 2.084 0 01-2.086-2.08V9.578c0-1.149.934-2.08 2.086-2.08h41.897z" fill="#EBEEF2" />
			<path d="M52.5 38.905H1.172v7.5H52.5v-7.5z" fill="#E0E0E0" />
			<path d="M22.426 27.267h-7.352A7.574 7.574 0 007.5 34.84v4.064H30v-4.064a7.574 7.574 0 00-7.574-7.574z" fill="#FEC830" />
			<path d="M22.947 27.267l-4.197 4.196-4.197-4.196h8.394z" fill="#fff" />
			<path d="M17.569 14.073H23.7v3.043a2.858 2.858 0 01-2.858 2.857H13.8v-2.132a3.768 3.768 0 013.768-3.768z" fill="#FEC830" />
			<path d="M23.7 19.973v2.344a4.95 4.95 0 01-9.9 0v-2.344h9.9z" fill="#FFF5E0" />
			<path d="M54.14 1.173H37.267a4.688 4.688 0 00-4.688 4.688V18.4a4.688 4.688 0 004.688 4.687h.507v4.18l4.18-4.18h12.188a4.688 4.688 0 004.687-4.687V5.86a4.688 4.688 0 00-4.687-4.687z" fill="#FEC830" />
			<path d="M26.836 41.482a1.176 1.176 0 00-1.172 1.172c0 .308.125.61.343.829.218.218.52.343.829.343.308 0 .61-.126.828-.343a1.18 1.18 0 00.344-.829 1.175 1.175 0 00-1.172-1.172z" fill="#343434" />
			<path d="M52.5 31.407c-.647 0-1.172.525-1.172 1.172v5.154H31.172v-2.892c0-4.457-3.351-8.143-7.665-8.677a6.091 6.091 0 001.365-3.847v-8.245c0-.647-.525-1.171-1.172-1.171H17.57a4.946 4.946 0 00-4.94 4.94v4.476c0 1.456.511 2.795 1.364 3.847-4.314.535-7.665 4.22-7.665 8.677v2.892H2.344V9.58c0-.5.41-.908.914-.908h24.36a1.172 1.172 0 000-2.344H3.257A3.26 3.26 0 000 9.579v34.745a3.26 3.26 0 003.258 3.253h17.833v5.413a5.875 5.875 0 00-5.27 5.837c0 .647.524 1.172 1.171 1.172H36.68c.647 0 1.172-.525 1.172-1.172a5.875 5.875 0 00-5.271-5.837v-5.413h17.833a3.26 3.26 0 003.258-3.252V32.578c0-.647-.525-1.172-1.172-1.172zm-29.972-9.09a3.782 3.782 0 01-3.778 3.778 3.782 3.782 0 01-3.778-3.778v-1.172h5.87c.602 0 1.173-.133 1.686-.371v1.543zm-2.41 6.122l-1.368 1.367-1.367-1.367h2.735zM14.971 17.84a2.6 2.6 0 012.597-2.597h4.96v1.872c0 .93-.757 1.685-1.687 1.685h-5.87v-.96zm-6.3 17c0-3.212 2.378-5.878 5.465-6.333l3.784 3.784a1.168 1.168 0 001.657 0l3.785-3.784c3.087.455 5.465 3.12 5.465 6.333v2.892H8.672v-2.892zm26.635 22.814H18.364a3.529 3.529 0 013.323-2.351H31.985c1.532 0 2.838.983 3.322 2.351zm-5.07-4.695h-6.802v-5.383h6.802v5.383zm20.177-7.727H3.258a.913.913 0 01-.914-.908v-4.248h48.984v4.248c0 .5-.41.908-.915.908zM52.5 26.993c-.308 0-.61.125-.828.343-.218.22-.344.52-.344.829a1.176 1.176 0 001.172 1.172 1.175 1.175 0 001.172-1.172c0-.308-.125-.61-.344-.829a1.18 1.18 0 00-.828-.343z" fill="#343434" />
			<path d="M52.5 5.509h-8.79a1.172 1.172 0 000 2.344h8.79a1.172 1.172 0 000-2.344zM38.906 7.853c.309 0 .61-.126.829-.344a1.18 1.18 0 00.343-.828c0-.308-.125-.61-.343-.829a1.18 1.18 0 00-.829-.343c-.308 0-.61.125-.828.343-.218.218-.344.52-.344.829 0 .308.126.61.344.828.218.218.52.344.828.344zM52.5 10.665H38.906a1.172 1.172 0 000 2.344H52.5a1.172 1.172 0 000-2.344zM52.5 15.822H38.906a1.172 1.172 0 000 2.343H52.5a1.172 1.172 0 000-2.343z" fill="#fff" />
			<path d="M54.14.001H37.267a5.866 5.866 0 00-5.86 5.86V18.4a5.868 5.868 0 005.196 5.822v3.045a1.172 1.172 0 002 .829l3.836-3.837h11.703c3.23 0 5.859-2.628 5.859-5.86V5.862C60 2.63 57.371 0 54.14 0zM57.657 18.4a3.52 3.52 0 01-3.515 3.515H41.953c-.31 0-.609.124-.829.344l-2.179 2.179v-1.35c0-.648-.525-1.173-1.172-1.173h-.507A3.52 3.52 0 0133.75 18.4V5.86a3.52 3.52 0 013.516-3.515H54.14a3.52 3.52 0 013.515 3.516V18.4z" fill="#FEC830" />
		</symbol>
	</defs>
</svg>
