<svg width="239" height="154" fill="none" xmlns="http://www.w3.org/2000/svg"><g clip-path="url(#clip0)"><path d="M70.45 79.732H7.536l4.652-44.901h63.448l-5.184 44.901z" fill="#F5F5F5"/><path d="M14.45 72.198c-.055 0 .598-6.76 1.455-15.083.857-8.323 1.594-15.083 1.652-15.064.058.02-.595 6.757-1.456 15.084-.86 8.326-1.594 15.067-1.652 15.063zM25.907 43.56c-1.05.1-2.105.133-3.158.1-1.054.033-2.108 0-3.158-.1a24.334 24.334 0 013.158-.1 24.335 24.335 0 013.158.1zm26.871 0c0 .054-5.632.1-12.577.1-6.944 0-12.58-.046-12.58-.1 0-.055 5.628-.1 12.58-.1 6.953 0 12.577.042 12.577.1zM25.162 59.513a24.13 24.13 0 01-3.158.1 24.334 24.334 0 01-3.158-.1c1.05-.1 2.104-.133 3.158-.1a25.18 25.18 0 013.158.1zm26.871 0c0 .058-5.632.1-12.577.1-6.944 0-12.58-.042-12.58-.1s5.632-.1 12.58-.1c6.949 0 12.577.046 12.577.1zm-8.57 7.356c0 .058-5.632.1-12.577.1-6.944 0-12.58-.042-12.58-.1s5.628-.1 12.576-.1c6.95 0 12.581.046 12.581.1zM28.69 48.065c0 .054-1.988.1-4.443.1-2.456 0-4.444-.046-4.444-.1 0-.054 1.988-.104 4.444-.104 2.455 0 4.443.046 4.443.104zm-.228 6.602c0 .058-1.988.1-4.443.1-2.455 0-4.443-.042-4.443-.1s1.992-.1 4.443-.1c2.451 0 4.443.046 4.443.1zm7.512 9.441c0 .054-1.988.1-4.44.1-2.45 0-4.442-.046-4.442-.1 0-.055 1.988-.1 4.443-.1 2.455 0 4.44.042 4.44.1zm25.042-16.043c0 .054-5.084.1-11.35.1-6.264 0-11.352-.046-11.352-.1 0-.054 5.084-.104 11.353-.104s11.35.046 11.35.104zM54.01 55.05c0 .058-5.08.1-11.35.1-6.269 0-11.353-.042-11.353-.1s5.084-.1 11.353-.1c6.27 0 11.35.046 11.35.1zm7.813 9.058c0 .054-5.084.1-11.35.1-6.265 0-11.352-.046-11.352-.1 0-.055 5.08-.1 11.353-.1s11.349.042 11.349.1zm-20.73 8.09c0 .055-5.08.101-11.35.101-6.268 0-11.349-.046-11.349-.1 0-.055 5.08-.101 11.35-.101 6.269 0 11.35.043 11.35.1zm25.107 0c0 .055-5.084.101-11.353.101s-11.349-.046-11.349-.1c0-.055 5.08-.101 11.35-.101 6.269 0 11.353.043 11.353.1zm-25.107 2.631c0 .058-5.084.1-11.35.1-6.264 0-11.352-.043-11.352-.1 0-.059 5.08-.101 11.353-.101s11.35.046 11.35.1zm1.104-24.869c0 .054-5.084.1-11.35.1-6.265 0-11.352-.046-11.352-.1 0-.054 5.084-.1 11.353-.1s11.35.03 11.35.1zm-6.053-1.871c-.972.1-1.95.133-2.926.1a21.569 21.569 0 01-2.922-.1 20.86 20.86 0 012.922-.101 20.887 20.887 0 012.926.1zM24.42 61.683c-.972.1-1.95.133-2.926.1a21.57 21.57 0 01-2.922-.1c.97-.1 1.947-.133 2.922-.1.977-.033 1.954 0 2.926.1zm-.139 2.425c-.972.1-1.95.133-2.926.1a21.586 21.586 0 01-2.922-.1 20.66 20.66 0 012.922-.1 20.9 20.9 0 012.926.1zM74.94 39.58c0 .058-14.148.1-31.596.1-17.449 0-31.605-.042-31.605-.1s14.148-.1 31.605-.1c17.456 0 31.596.046 31.596.1z" fill="#E0E0E0"/><path d="M16.005 38.192a.75.75 0 10-.002-1.5.75.75 0 00.002 1.5zm3.215 0a.75.75 0 10-.001-1.5.75.75 0 00.002 1.5zm3.216 0a.75.75 0 10-.001-1.5.75.75 0 00.001 1.5z" fill="#fff"/><path d="M233.816 57.282H170.9l4.652-44.898H239l-5.184 44.898z" fill="#F5F5F5"/><path d="M177.818 49.748c-.058 0 .594-6.76 1.451-15.084.857-8.322 1.599-15.083 1.653-15.06.054.024-.595 6.757-1.452 15.084-.857 8.326-1.598 15.064-1.652 15.06zm11.453-28.639a25.15 25.15 0 01-3.157.1 25.16 25.16 0 01-3.158-.1 49.614 49.614 0 016.315 0zm26.872 0c0 .054-5.632.1-12.577.1s-12.581-.046-12.581-.1c0-.054 5.633-.1 12.581-.1 6.949 0 12.577.046 12.577.1zm-27.617 15.957a49.614 49.614 0 01-6.315 0 49.651 49.651 0 016.315 0zm26.88 0c0 .054-5.636.1-12.581.1-6.945 0-12.581-.046-12.581-.1 0-.054 5.632-.1 12.581-.1s12.581.042 12.581.1zm-8.574 7.356c0 .054-5.636.1-12.581.1-6.945 0-12.581-.046-12.581-.1 0-.054 5.633-.1 12.581-.1 6.949 0 12.581.042 12.581.1zm-14.777-18.808c0 .055-1.988.101-4.444.101-2.455 0-4.443-.046-4.443-.1 0-.055 1.992-.09 4.443-.09 2.452 0 4.444.032 4.444.09zm-.224 6.602c0 .058-1.992.1-4.443.1-2.452 0-4.444-.042-4.444-.1s1.988-.1 4.444-.1c2.455 0 4.443.046 4.443.1zm7.512 9.441c0 .054-1.992.1-4.443.1-2.452 0-4.443-.046-4.443-.1 0-.054 1.988-.1 4.443-.1 2.455 0 4.443.046 4.443.1zm25.038-16.043c0 .055-5.08.101-11.349.101-6.27 0-11.35-.046-11.35-.1 0-.055 5.08-.101 11.35-.101 6.269 0 11.349.043 11.349.1zm-7.007 6.986c0 .057-5.08.1-11.349.1s-11.349-.043-11.349-.1c0-.059 5.08-.113 11.349-.113s11.349.058 11.349.112zm7.814 9.057c0 .054-5.08.1-11.35.1-6.269 0-11.353-.046-11.353-.1 0-.054 5.084-.1 11.353-.1 6.27 0 11.35.046 11.35.1zm-20.726 8.091c0 .054-5.084.1-11.353.1-6.27 0-11.35-.046-11.35-.1 0-.054 5.08-.1 11.35-.1 6.269 0 11.353.042 11.353.1zm25.103 0c0 .054-5.084.1-11.349.1-6.265 0-11.353-.046-11.353-.1 0-.054 5.08-.1 11.353-.1s11.349.042 11.349.1zm-25.107 2.63c0 .058-5.08.1-11.349.1-6.27 0-11.354-.042-11.354-.1s5.084-.101 11.354-.101c6.269 0 11.349.046 11.349.1zm1.104-24.868c0 .054-5.08.1-11.349.1-6.27 0-11.35-.046-11.35-.1 0-.055 5.08-.101 11.35-.101 6.269 0 11.349.05 11.349.1zm-6.053-1.872a42.555 42.555 0 01-5.848 0 42.555 42.555 0 015.848 0zm-11.724 13.594a42.586 42.586 0 01-5.848 0 42.555 42.555 0 015.848 0zm-.139 2.425a42.555 42.555 0 01-5.848 0 42.586 42.586 0 015.848 0zm50.659-24.527c0 .057-14.148.1-31.597.1-17.448 0-31.6-.043-31.6-.1 0-.059 14.144-.113 31.6-.113 17.457 0 31.597.058 31.597.112z" fill="#E0E0E0"/><path d="M179.37 15.74a.75.75 0 10-.002-1.5.75.75 0 00.002 1.5zm3.215 0a.75.75 0 100-1.498.75.75 0 000 1.499zm3.216 0a.75.75 0 100-1.498.75.75 0 000 1.499z" fill="#fff"/><path d="M101.858 27.966H62.672L65.567 0h39.519l-3.228 27.966z" fill="#EBEBEB"/><path d="M66.98 23.27c-.058 0 .332-4.21.865-9.393.533-5.183 1.011-9.383 1.07-9.38.057.005-.337 4.216-.87 9.399-.532 5.182-1.01 9.383-1.065 9.375zm7.138-17.836a9.502 9.502 0 01-1.969.1 9.478 9.478 0 01-1.965-.1 9.81 9.81 0 011.965-.1 9.838 9.838 0 011.97.1zm16.731 0c0 .058-3.505.1-7.833.1-4.327 0-7.836-.042-7.836-.1s3.509-.1 7.836-.1c4.328 0 7.833.046 7.833.1zm-17.198 9.939a9.84 9.84 0 01-1.969.1 9.817 9.817 0 01-1.965-.1 9.81 9.81 0 011.965-.1 9.833 9.833 0 011.969.1zm16.734 0c0 .055-3.505.1-7.832.1-4.328 0-7.837-.046-7.837-.1 0-.054 3.51-.1 7.837-.1s7.832.046 7.832.1zm-5.335 4.579c0 .058-3.508.101-7.836.101-4.327 0-7.836-.043-7.836-.1 0-.059 3.509-.101 7.836-.101 4.328 0 7.837.046 7.837.1zm-9.203-11.71c-.919.1-1.843.133-2.767.1a19.373 19.373 0 01-2.768-.1 18.72 18.72 0 012.768-.1 18.72 18.72 0 012.767.1zm-.142 4.111a18.64 18.64 0 01-2.764.1c-.924.035-1.85.002-2.768-.1.919-.1 1.844-.133 2.768-.1.922-.033 1.846 0 2.764.1zm4.682 5.878c-.919.102-1.844.136-2.768.1-.923.036-1.849.002-2.767-.1a19.23 19.23 0 012.767-.1 19.37 19.37 0 012.768.1zm15.596-9.989c0 .054-3.166.1-7.072.1-3.907 0-7.072-.046-7.072-.1 0-.054 3.165-.1 7.068-.1 3.903 0 7.076.042 7.076.1zm-4.366 4.351c0 .054-3.166.1-7.068.1-3.903 0-7.069-.046-7.069-.1 0-.054 3.162-.1 7.069-.1 3.906 0 7.068.046 7.068.1zm4.868 5.638c0 .058-3.166.101-7.072.101-3.907 0-7.069-.043-7.069-.1 0-.059 3.166-.101 7.069-.101 3.902 0 7.072.046 7.072.1zM83.572 23.27c0 .059-3.166.101-7.068.101-3.903 0-7.069-.042-7.069-.1s3.162-.1 7.069-.1c3.906 0 7.068.034 7.068.1zm15.638 0c0 .059-3.165.101-7.068.101-3.903 0-7.072-.042-7.072-.1s3.165-.1 7.072-.1 7.068.034 7.068.1zm-15.638 1.64c0 .059-3.165.101-7.068.101-3.903 0-7.072-.042-7.072-.1 0-.059 3.165-.101 7.072-.101 3.906 0 7.068.046 7.068.1zm.688-15.489c0 .058-3.166.1-7.07.1-3.902 0-7.067-.042-7.067-.1s3.161-.1 7.068-.1c3.907 0 7.068.046 7.068.1zm-3.768-1.164a8.477 8.477 0 01-1.823.1 8.439 8.439 0 01-1.822-.1 8.154 8.154 0 011.822-.1 8.185 8.185 0 011.823.1zm-7.304 8.466c-.602.1-1.213.133-1.822.1a8.473 8.473 0 01-1.822-.1 8.48 8.48 0 011.822-.1 8.44 8.44 0 011.822.1zm-.085 1.508a8.174 8.174 0 01-1.822.1c-.61.036-1.22.002-1.822-.1a8.44 8.44 0 011.822-.1 8.485 8.485 0 011.822.1zm31.55-15.272c0 .054-8.813.1-19.687.1-10.875 0-19.688-.046-19.688-.1 0-.055 8.813-.101 19.688-.101 10.874 0 19.687.043 19.687.1z" fill="#E0E0E0"/><path d="M68.412 1.624a.468.468 0 11-.936.008.468.468 0 01.936-.008zm2.004 0a.469.469 0 01-.556.464.467.467 0 11.556-.464zm2.004 0a.469.469 0 01-.556.464.467.467 0 01-.172-.849.467.467 0 01.728.385z" fill="#fff"/><path d="M208.353 76.77h-19.734v63.992h19.734V76.77z" fill="#EBEBEB"/><path d="M225.107 76.781h-16.754v63.969h16.754V76.781zm-19.113 2.58h-15.831v13.784h15.831V79.36zm0 15.346h-15.831v13.784h15.831V94.707zm0 15.347h-15.831v13.783h15.831v-13.783zm0 15.346h-15.831v13.784h15.831V125.4z" fill="#E0E0E0"/><path d="M198.077 81.906a.544.544 0 01-.339.507.545.545 0 01-.597-.119.546.546 0 01-.119-.598.553.553 0 01.507-.34.547.547 0 01.548.55zm0 15.524a.544.544 0 01-.339.507.545.545 0 01-.597-.119.546.546 0 01-.119-.598.554.554 0 01.507-.34.547.547 0 01.548.55zm0 15.528a.556.556 0 01-.341.505.546.546 0 01-.596-.122.547.547 0 01-.117-.598.544.544 0 01.716-.296.558.558 0 01.297.3.547.547 0 01.041.211zm0 15.524a.548.548 0 11-.853-.456.542.542 0 01.692.068.55.55 0 01.161.388z" fill="#FAFAFA"/><path d="M190.9 140.762h-2.281v12.836h2.281v-12.836zm17.376 0h-2.282v12.836h2.282v-12.836zm16.588 0h-2.282v12.836h2.282v-12.836z" fill="#E0E0E0"/><path d="M22.845 149.974c-.586-.499-1.891-2.085-.884-3.929.386-.673 1.159-1.01 1.861-1.308a7.61 7.61 0 002.042-1.052c1.108-.939 1.413-2.502 2.146-3.755.846-1.435 2.42-2.514 4.08-2.436 1.908.085 3.494 1.635 4.216 3.403.722 1.767.753 3.748.753 5.643 0 1.055-.038 2.247-.818 2.962-.718.658-1.795.665-2.768.634l-10.423-.317" fill="#F5F5F5"/><path d="M42.753 121.44H15.38l4.93 29.319a3.283 3.283 0 002.338 2.611l.097.027c.08.024.161.045.243.062.183.037.37.059.556.065v.016l.135-.02h12.222c.226-.001.45-.024.672-.069a3.285 3.285 0 002.768-2.866l2.35-20.196.108-.805.942-8.001.012-.143zm-5.165 18.695h-2.806l.281-8.508h3.255l-.73 8.508zm1.004-8.508h2.702l-1 8.508h-2.432l.73-8.508zm-8.026 17.941l-.17-7.391h4.042l-.243 7.391h-3.629zm-4.374-7.391h3.918l.17 7.391h-3.513l-.575-7.391zm.305 7.391h-3.296c-.313-1.996-.722-4.591-1.159-7.391h3.86l.595 7.391zm-.463-9.433l-.664-8.508h4.509l.197 8.508h-4.042zm4.312 0l-.197-8.508h4.633l-.282 8.508h-4.154zm-.236-10.551l-.18-7.881h5.199l-.263 7.881H30.11zm-.27 0h-4.632l-.614-7.881h5.057l.19 7.881zm-4.895 0H20.05c-.173-1.086-.34-2.119-.486-3.043-.51-3.187-.703-4.386-.81-4.838h5.566l.625 7.881zm.159 2.043l.664 8.508h-4.05c-.139-.862-.274-1.736-.413-2.611l-.93-5.897h4.729zm-3.656 8.508H18.8l-1.432-8.508h2.729c.417 2.629.88 5.557 1.343 8.508h.008zm.324 2.042c.386 2.556.8 5.078 1.158 7.391h-2.544l-1.243-7.391h2.63zm12.7 7.391l.248-7.391h2.702l-.633 7.391h-2.316zm.657-19.984l.262-7.881h3.772l-.676 7.881H35.13zm-16.638-7.881c.108.572.61 3.674 1.278 7.881h-2.741l-1.328-7.881h2.79zm20.672 27.865h-2.104l.637-7.391h2.35l-.883 7.391zm2.355-19.984H38.76l.676-7.881h3.027l-.946 7.881z" fill="#E0E0E0"/><path d="M223.157 153.594c0 .058-49.96.1-111.563.1s-111.563-.042-111.563-.1 49.948-.101 111.582-.101c61.634 0 111.544.047 111.544.101zm-98.384-83.658h-42.81l3.16-30.553h43.178l-3.528 30.553z" fill="#263238"/><path d="M122.592 69.936h-42.81l3.165-30.553h43.173l-3.528 30.553z" fill="#455A64"/><path d="M121.006 68.552H81.279l2.938-28.353h40.062l-3.273 28.353z" fill="#F5F5F5"/><path d="M85.583 63.814c-.054 0 .34-4.274.88-9.526s1.027-9.514 1.081-9.506c.054.008-.336 4.254-.88 9.526-.544 5.27-1.023 9.506-1.08 9.506zm7.234-18.073c-.658.1-1.326.133-1.991.1a10.096 10.096 0 01-1.996-.1c.66-.1 1.329-.133 1.996-.1a10.08 10.08 0 011.992.1z" fill="#263238"/><path d="M109.787 45.741c0 .054-3.559.1-7.944.1s-7.945-.046-7.945-.1c0-.054 3.56-.1 7.945-.1s7.944.046 7.944.1z" fill="#FEC830"/><path d="M92.347 55.816a9.742 9.742 0 01-1.992.1 9.765 9.765 0 01-1.996-.1c.66-.1 1.329-.133 1.996-.1a10.08 10.08 0 011.992.1z" fill="#263238"/><path d="M109.316 55.816c0 .058-3.555.1-7.944.1-4.39 0-7.94-.042-7.94-.1s3.555-.1 7.94-.1 7.944.046 7.944.1zm-5.412 4.644c0 .055-3.555.101-7.94.101-4.386 0-7.945-.046-7.945-.1 0-.054 3.555-.1 7.945-.1 4.389 0 7.94.046 7.94.1zm-9.326-11.876c-.932.104-1.87.139-2.807.104-.936.035-1.874 0-2.806-.104.932-.1 1.87-.134 2.806-.101.937-.032 1.875.001 2.807.1zm-.143 4.173c-.932.1-1.87.133-2.806.1a19.898 19.898 0 01-2.807-.1 19.06 19.06 0 012.806-.1 19.273 19.273 0 012.807.1zm4.74 5.96c-.93.099-1.867.133-2.802.1-.937.033-1.875 0-2.807-.1.932-.102 1.87-.136 2.807-.101a19.177 19.177 0 012.802.1z" fill="#FEC830"/><path d="M114.987 48.584c0 .058-3.208.104-7.164.104-3.957 0-7.169-.046-7.169-.104 0-.058 3.208-.101 7.169-.101 3.96 0 7.164.046 7.164.1zm-4.424 4.401c0 .058-3.208.1-7.164.1-3.957 0-7.169-.042-7.169-.1s3.208-.1 7.169-.1c3.96 0 7.164.057 7.164.1zm4.934 5.731c0 .055-3.208.101-7.169.101-3.96 0-7.165-.046-7.165-.1 0-.055 3.208-.101 7.165-.101s7.169.042 7.169.1zm-13.087 5.098c0 .054-3.211.1-7.168.1-3.957 0-7.169-.046-7.169-.1 0-.054 3.208-.1 7.169-.1 3.96 0 7.168.053 7.168.1zm15.851 0c0 .054-3.208.1-7.169.1-3.96 0-7.165-.046-7.165-.1 0-.054 3.208-.1 7.165-.1s7.169.053 7.169.1zm-15.854 1.67c0 .059-3.208.101-7.165.101s-7.169-.042-7.169-.1 3.208-.101 7.169-.101c3.96 0 7.165.046 7.165.1zm.698-15.702c0 .055-3.208.101-7.168.101-3.961 0-7.165-.046-7.165-.1 0-.055 3.208-.101 7.165-.101s7.168.046 7.168.1z" fill="#263238"/><path d="M99.284 48.6a16.54 16.54 0 01-3.695 0 17.013 17.013 0 013.695 0zm-7.408 8.585a8.372 8.372 0 01-1.846.1 8.388 8.388 0 01-1.849-.1 8.612 8.612 0 011.85-.1 8.663 8.663 0 011.845.1zm-.086 1.531c-.61.1-1.228.133-1.845.101a8.656 8.656 0 01-1.845-.1 8.371 8.371 0 011.845-.101 8.372 8.372 0 011.846.1z" fill="#455A64"/><path d="M123.781 43.23c0 .055-8.937.102-19.954.102-11.017 0-19.954-.047-19.954-.101 0-.054 8.933-.105 19.954-.105s19.954.047 19.954.105z" fill="#263238"/><path d="M87.039 41.877a.477.477 0 01-.568.467.475.475 0 11.568-.467zm2.031 0a.477.477 0 01-.568.467.475.475 0 11.567-.467zm2.033 0a.476.476 0 11-.951 0 .476.476 0 01.951 0z" fill="#fff"/><path d="M181.014 70.86H135.98l3.327-32.139h45.417l-3.71 32.14z" fill="#263238"/><path d="M178.721 70.86h-45.034l3.327-32.139h45.421l-3.714 32.14z" fill="#455A64"/><path d="M177.054 69.406h-41.792l3.088-29.822h42.147l-3.443 29.822z" fill="#EBEBEB"/><path d="M139.817 63.984c-.058 0 .359-4.494.93-10.02.572-5.527 1.077-10.006 1.131-9.998.054.007-.363 4.49-.93 10.02-.568 5.53-1.077 10.002-1.131 9.998zm7.609-19.02a21.943 21.943 0 01-4.197 0c1.396-.14 2.801-.14 4.197 0z" fill="#263238"/><path d="M165.276 44.964c0 .054-3.745.1-8.358.1s-8.354-.046-8.354-.1c0-.055 3.737-.105 8.354-.105 4.617 0 8.358.047 8.358.105z" fill="#FEC830"/><path d="M146.931 55.56c-1.395.135-2.8.135-4.196 0a21.932 21.932 0 014.196 0z" fill="#263238"/><path d="M164.778 55.56c0 .055-3.741.101-8.354.101-4.613 0-8.358-.046-8.358-.1 0-.055 3.741-.101 8.358-.101 4.617 0 8.354.046 8.354.1zm-5.69 4.885c0 .058-3.741.1-8.358.1-4.617 0-8.354-.042-8.354-.1s3.741-.1 8.354-.1c4.613 0 8.358.046 8.358.1zm-9.813-12.488c-.981.102-1.968.135-2.953.1a21.21 21.21 0 01-2.95-.1 43.358 43.358 0 015.903 0zm-.151 4.382c-.981.104-1.967.14-2.953.104-.984.035-1.97 0-2.949-.104a43.343 43.343 0 015.902 0zm4.988 6.273a43.358 43.358 0 01-5.903 0 43.39 43.39 0 015.903 0z" fill="#FEC830"/><path d="M170.746 47.957c0 .058-3.378.1-7.54.1-4.161 0-7.539-.042-7.539-.1s3.374-.1 7.539-.1c4.166 0 7.54.042 7.54.1zm-4.656 4.641c0 .058-3.374.1-7.535.1-4.162 0-7.543-.042-7.543-.1s3.378-.1 7.543-.1 7.535.042 7.535.1zm5.192 6.014c0 .054-3.377.1-7.539.1-4.161 0-7.539-.046-7.539-.1 0-.054 3.374-.1 7.539-.1 4.165 0 7.539.042 7.539.1zm-13.781 5.372c0 .054-3.374.1-7.539.1-4.166 0-7.539-.046-7.539-.1 0-.054 3.373-.1 7.539-.1 4.165 0 7.539.046 7.539.1zm16.688 0c0 .054-3.378.1-7.539.1s-7.539-.046-7.539-.1c0-.054 3.374-.1 7.539-.1 4.165 0 7.539.046 7.539.1zm-16.688 1.764c0 .054-3.378.1-7.539.1-4.162 0-7.516-.062-7.516-.1 0-.04 3.374-.101 7.539-.101 4.165 0 7.516.03 7.516.1zm.745-16.534c0 .054-3.378.1-7.539.1-4.162 0-7.539-.046-7.539-.1 0-.054 3.374-.1 7.539-.1 4.165 0 7.539.046 7.539.1z" fill="#263238"/><path d="M154.224 47.957a18.8 18.8 0 01-3.884 0 18.813 18.813 0 013.884 0zM146.437 57a18.804 18.804 0 01-3.883 0 18.79 18.79 0 013.883 0zm-.092 1.612a18.813 18.813 0 01-3.884 0 18.8 18.8 0 013.884 0z" fill="#455A64"/><path d="M179.995 42.318c0 .058-9.4.1-20.988.1-11.589 0-20.993-.042-20.993-.1s9.396-.1 20.993-.1c11.596 0 20.988.046 20.988.1z" fill="#263238"/><path d="M141.346 40.899a.505.505 0 01-.308.46.499.499 0 11.308-.46zm2.134 0a.497.497 0 11-.498-.5.49.49 0 01.461.308.486.486 0 01.037.192zm2.135 0a.498.498 0 11-.304-.461.497.497 0 01.304.46z" fill="#fff"/><path d="M155.32 32.816h-43.008l3.181-30.693h43.367l-3.54 30.693z" fill="#263238"/><path d="M153.127 32.816h-43.004L113.3 2.123h43.371l-3.544 30.693z" fill="#455A64"/><path d="M151.533 31.423h-39.904l2.949-28.476h40.244l-3.289 28.476z" fill="#FAFAFA"/><path d="M116.014 26.647c-.054 0 .344-4.293.884-9.568.541-5.275 1.031-9.557 1.085-9.549.054.008-.34 4.29-.884 9.568-.544 5.28-1.027 9.553-1.085 9.55zm7.265-18.166c-.661.1-1.331.133-1.999.101-.67.032-1.341-.001-2.004-.1a19.969 19.969 0 014.003 0z" fill="#263238"/><path d="M140.326 8.481c0 .055-3.574.101-7.979.101-4.404 0-7.979-.046-7.979-.1 0-.055 3.571-.101 7.979-.101 4.409 0 7.979.042 7.979.1z" fill="#FEC830"/><path d="M122.808 18.603a20.02 20.02 0 01-4.007 0 20.006 20.006 0 014.007 0z" fill="#263238"/><path d="M139.852 18.603c0 .054-3.571.1-7.976.1-4.404 0-7.96-.046-7.96-.1 0-.054 3.571-.1 7.979-.1 4.409 0 7.957.061 7.957.1zm-5.436 4.664c0 .054-3.571.1-7.975.1-4.405 0-7.983-.046-7.983-.1 0-.054 3.574-.1 7.983-.1 4.408 0 7.975.038 7.975.1zm-9.369-11.927c-.936.1-1.877.133-2.818.1a20.08 20.08 0 01-2.818-.1 19.42 19.42 0 012.818-.101 19.41 19.41 0 012.818.1zm-.143 4.188c-.935.1-1.877.133-2.818.1-.94.033-1.882 0-2.818-.1a19.378 19.378 0 012.818-.1 19.396 19.396 0 012.818.1zm4.764 5.987c-.936.1-1.877.133-2.818.1-.94.033-1.882 0-2.818-.1a19.406 19.406 0 012.818-.1 19.401 19.401 0 012.818.1z" fill="#FEC830"/><path d="M145.534 11.34c0 .054-3.223.1-7.2.1-3.976 0-7.199-.046-7.199-.1 0-.055 3.223-.101 7.199-.101 3.977 0 7.2.043 7.2.1zm-4.428 4.432c0 .054-3.223.1-7.199.1s-7.2-.046-7.2-.1c0-.054 3.224-.1 7.2-.1s7.199.042 7.199.1zm4.957 5.743c0 .054-3.224.1-7.2.1s-7.199-.046-7.199-.1c0-.054 3.223-.1 7.199-.1s7.2.042 7.2.1zm-13.148 5.132c0 .054-3.224.1-7.2.1s-7.203-.061-7.203-.1c0-.038 3.223-.1 7.199-.1s7.204.042 7.204.1zm15.923 0c0 .054-3.223.1-7.199.1s-7.2-.046-7.2-.1c0-.054 3.224-.1 7.2-.1s7.199.042 7.199.1zm-15.923 1.667c0 .058-3.224.1-7.2.1s-7.203-.042-7.203-.1 3.223-.1 7.199-.1 7.204.046 7.204.1zm.698-15.772c0 .055-3.223.1-7.199.1s-7.2-.045-7.2-.1c0-.054 3.224-.1 7.2-.1s7.199.042 7.199.1z" fill="#263238"/><path d="M129.776 11.355c-.614.1-1.236.133-1.857.1a8.739 8.739 0 01-1.853-.1 17.157 17.157 0 013.71 0zm-7.439 8.621a17.148 17.148 0 01-3.709 0 17.148 17.148 0 013.709 0zm-.088 1.539a17.12 17.12 0 01-3.706 0 17.133 17.133 0 013.706 0z" fill="#455A64"/><path d="M154.382 5.956c0 .058-8.975.1-20.043.1-11.067 0-20.043-.042-20.043-.1s8.972-.1 20.043-.1 20.043.046 20.043.1z" fill="#263238"/><path d="M116.999 5.074a.475.475 0 10-.001-.95.475.475 0 00.001.95zm2.042 0a.475.475 0 10-.001-.95.475.475 0 00.001.95zm2.038 0a.476.476 0 10-.001-.95.476.476 0 00.001.95z" fill="#fff"/><path d="M82.464 148.76h-3.35v4.579h3.35v-4.579zm17.958-53.434h29.729v-1.45h-29.729v1.45z" fill="#263238"/><path d="M134.76 95.326l5.574-20.935h-23.212l-5.049 20.935h22.687z" fill="#263238"/><path d="M113.462 93.74H134.2l4.829-18.382h-20.845l-4.722 18.382z" fill="#F5F5F5"/><path d="M118.701 78.92l-1.286 5.206h13.751l1.463-5.206h-13.928z" fill="#E0E0E0"/><path d="M129.73 78.232c0 .058-2.413.1-5.385.1-2.973 0-5.385-.042-5.385-.1s2.408-.1 5.385-.1c2.976 0 5.385.046 5.385.1z" fill="#455A64"/><path d="M123.465 79.914a23.493 23.493 0 01-4.343 0 23.51 23.51 0 014.343 0zm3.482-.081a9.976 9.976 0 01-2.826 0 9.983 9.983 0 012.826 0z" fill="#263238"/><path d="M130.865 80.858c0 .058-2.66.104-5.937.104-3.278 0-5.941-.046-5.941-.104 0-.058 2.659-.1 5.941-.1 3.281 0 5.937.046 5.937.1z" fill="#455A64"/><path d="M122.604 81.72a18.468 18.468 0 01-3.861 0 18.482 18.482 0 013.861 0z" fill="#FEC830"/><path d="M129.811 82.954c0 .054-2.467.1-5.509.1-3.042 0-5.508-.046-5.508-.1 0-.054 2.466-.1 5.508-.1s5.509.042 5.509.1zm-8.111 2.665a22.591 22.591 0 01-4.246 0 22.574 22.574 0 014.246 0z" fill="#455A64"/><path d="M125.348 85.638a5.538 5.538 0 01-1.455.089 5.157 5.157 0 01-1.451-.116 5.493 5.493 0 011.451-.09 5.23 5.23 0 011.455.117zm2.043-.101c0 .058-.275.101-.614.101-.34 0-.614-.043-.614-.1 0-.059.274-.101.614-.101.339 0 .614.035.614.1z" fill="#263238"/><path d="M118.875 86.686c0 .058-.301.1-.676.1-.374 0-.675-.042-.675-.1s.305-.1.675-.1c.371 0 .676.046.676.1z" fill="#FEC830"/><path d="M122.932 86.686a13.057 13.057 0 01-3.235 0 13.067 13.067 0 013.235 0z" fill="#263238"/><path d="M132.598 86.562c0 .058-1.93.1-4.32.1-2.389 0-4.323-.042-4.323-.1s1.93-.1 4.323-.1c2.394 0 4.32.046 4.32.1z" fill="#455A64"/><path d="M118.67 87.792c0 .054-.309.1-.695.1-.386 0-.695-.046-.695-.1 0-.054.309-.1.695-.1.386 0 .695.046.695.1zm2.131-.038a3.554 3.554 0 01-1.679 0 3.557 3.557 0 011.679 0z" fill="#263238"/><path d="M127.151 87.672c-.905.1-1.816.133-2.725.1-.91.033-1.821 0-2.726-.1.905-.1 1.816-.133 2.726-.1.909-.033 1.82 0 2.725.1zm-3.358 1.93c-1.096.1-2.197.133-3.297.1a27.54 27.54 0 01-3.301-.1 26.61 26.61 0 013.301-.1c1.1-.035 2.201-.002 3.297.1z" fill="#455A64"/><path d="M127.641 89.517a11.16 11.16 0 01-2.991 0 11.169 11.169 0 012.991 0z" fill="#FEC830"/><path d="M133.355 89.517c-1.65.134-3.307.134-4.957 0a30.59 30.59 0 014.957 0zm-1.332-11.367c0 .058-.228.101-.51.101-.281 0-.513-.043-.513-.1 0-.058.232-.101.513-.101.282 0 .51.046.51.1z" fill="#263238"/><path d="M121.6 77.454a6.365 6.365 0 01-2.254 0 6.37 6.37 0 012.254 0z" fill="#FEC830"/><path d="M138.682 76.68h-20.846l.352-1.322h20.845l-.351 1.323z" fill="#EBEBEB"/><path d="M119.064 76.255a.228.228 0 100-.456.228.228 0 000 .456zm.783 0a.228.228 0 100-.456.228.228 0 000 .456zm.784 0a.228.228 0 100-.456.228.228 0 000 .456z" fill="#FAFAFA"/><path d="M164.087 97.275h-49.428v28.894h49.428V97.275z" fill="#263238"/><path d="M137.176 97.275h-22.517v28.894h22.517V97.275z" fill="#455A64"/><path d="M134.883 107.087a.722.722 0 010-.147v-.421c0-.387 0-.917-.019-1.605 0-1.397-.023-3.392-.038-5.852l.073.074-18.113.027c-.092.089.12-.124.097-.1v8.016l-.097-.092 12.979.042 3.767.027h1.371-.336l-1 .074-3.748.023-13.04.046h-.093v-8.114c-.019.024.193-.19.104-.1l18.113.027h.069v.073c0 2.479-.027 4.49-.038 5.894v2c-.047.066-.051.112-.051.108z" fill="#263238"/><path d="M126.595 103.077a.999.999 0 00-.347-.557.701.701 0 00-.653-.082.684.684 0 00.327 1.319.702.702 0 00.31-.108c.174-.143.296-.338.348-.557 0 0 .031.07 0 .197a.774.774 0 01-.278.472.827.827 0 01-.803.143.86.86 0 01.42-1.659c.14.024.272.084.383.174.158.108.271.27.316.456 0 .132 0 .202-.023.202zm8.288 12.847a.752.752 0 010-.15v-.422c0-.387 0-.917-.019-1.605 0-1.392-.023-3.388-.039-5.852l.074.074-18.113.031c-.092.089.12-.124.097-.101v8.022l-.097-.097 12.979.046 3.767.027h1.371-1.328l-3.749.027-13.04.047h-.092v-8.068l.104-.104 18.112.031h.07v.073c0 2.483-.027 4.494-.039 5.898v1.996c-.054.085-.058.131-.058.127z" fill="#263238"/><path d="M126.595 111.91a1.031 1.031 0 00-.347-.557.701.701 0 00-.653-.081.693.693 0 00-.44.638.685.685 0 00.44.638.705.705 0 00.653-.081c.174-.142.296-.338.347-.557 0 0 .031.07 0 .197a.774.774 0 01-.278.472.829.829 0 01-.803.143.854.854 0 01-.579-.812.857.857 0 011-.846c.14.025.272.086.382.177a.774.774 0 01.278.472c.023.127.023.197 0 .197zm8.288 12.848a.722.722 0 010-.147v-.422c0-.387 0-.916-.019-1.605 0-1.396-.023-3.392-.038-5.851l.073.073-18.113.027c-.092.089.12-.124.097-.1v8.017l-.097-.093 12.979.043 3.767.027h1.371-1.328l-3.749.023-13.04.046h-.092v-8.114c-.02.024.193-.189.104-.1l18.112.027h.07v.073c0 2.479-.027 4.491-.039 5.894v2c-.054.139-.058.186-.058.182z" fill="#263238"/><path d="M126.595 120.747a1.005 1.005 0 00-.347-.557.7.7 0 00-.971.17.688.688 0 00-.122.387.697.697 0 00.44.638.705.705 0 00.653-.081c.173-.142.295-.338.347-.557 0 0 .031.07 0 .197a.774.774 0 01-.278.472.829.829 0 01-.803.143.854.854 0 01-.579-.812.86.86 0 01.999-.847.823.823 0 01.383.174.774.774 0 01.278.472c.023.12.023.201 0 .201zm-44.853 28.941l-33.033-.023v-52.39h33.033v52.413z" fill="#263238"/><path d="M165.882 95.26H47.115v2.746h118.767V95.26zm-113.49 2.746H48.71v55.576h3.683V98.006zm111.695 0h-3.683v55.592h3.683V98.006zm-23.228 0h-3.683v55.592h3.683V98.006z" fill="#263238"/><path d="M63.815 95.26c0 .054-3.54.1-7.906.1s-7.906-.046-7.906-.1c0-.054 3.54-.1 7.906-.1s7.906.042 7.906.1z" fill="#455A64"/><path d="M98.538 150.875l.097-3.972-7.431-.224-.2 5.801.459.043c2.05.178 10.422.75 11.804.386 1.544-.417-4.728-2.034-4.728-2.034z" fill="#FEC830"/><path opacity=".4" d="M101.6 151.776s2.192.704 1.907 1.064c-.286.359-8.77.092-12.504-.348v-.167l9.89.387s.274-.932.707-.936z" fill="#fff"/><path d="M90.907 152.318a.678.678 0 00.127 0l.363.034 1.351.101a137 137 0 004.455.217c1.752.058 3.32.069 4.462.065h1.849-1.849c-1.158 0-2.702-.038-4.458-.093a191.852 191.852 0 01-4.455-.189l-1.351-.07h-.386l-.108-.065z" fill="#263238"/><path d="M100.909 152.828c.065-.222.156-.436.27-.638.14-.185.301-.353.479-.503a1.204 1.204 0 00-.749 1.16v-.019zm-2.159-1.179c.02 0 .128-.113.244-.279.116-.166.19-.317.166-.329-.023-.011-.127.109-.24.279-.111.17-.189.313-.17.329zm-.59-.337s.135-.058.267-.17c.13-.112.223-.217.208-.236-.016-.019-.135.058-.266.17-.132.112-.228.217-.209.236zm-.359-.715a.924.924 0 00.386.061c.13.02.262.009.386-.03a.96.96 0 00-.386-.062c-.212-.008-.386.004-.386.031zm-.116-.499a.773.773 0 00.429.139c.15.029.306.013.448-.047a2.098 2.098 0 00-.44-.042 1.941 1.941 0 00-.437-.05z" fill="#263238"/><path d="M99.021 151.006c.159.027.32.027.479 0 .173-.017.345-.049.513-.096.101-.028.2-.065.294-.112a.291.291 0 00.123-.143.194.194 0 00-.006-.107.198.198 0 00-.063-.087.876.876 0 00-1.255.538c-.023.081-.023.127 0 .127.055-.14.132-.271.228-.386a.876.876 0 01.417-.252.747.747 0 01.567.054c.073.058.043.147-.042.198-.088.043-.18.078-.274.104-.162.051-.327.09-.495.116-.297.035-.486.031-.486.046z" fill="#263238"/><path d="M99.144 151.034a.47.47 0 00.066-.329.773.773 0 00-.12-.356.472.472 0 00-.386-.255.188.188 0 00-.154.216c.01.077.035.15.073.217.061.107.135.206.22.294a.705.705 0 00.267.205s-.093-.089-.22-.248a1.827 1.827 0 01-.193-.29c-.062-.104-.1-.286.02-.305.119-.02.238.116.308.212a.78.78 0 01.127.318c.009.107.006.214-.008.321zm-8.041-.751c0 .02.213 0 .549.039a2.313 2.313 0 011.899 1.613c.05.177.091.356.123.537a.34.34 0 000-.151 2.101 2.101 0 00-.065-.406 2.277 2.277 0 00-1.953-1.659 1.999 1.999 0 00-.41 0 .58.58 0 00-.142.027z" fill="#263238"/><path d="M91.983 147.209a14.135 14.135 0 00-.112 1.527 12.799 12.799 0 00-.019 1.547 14.05 14.05 0 00.111-1.547c.037-.508.044-1.018.02-1.527zm2.676 4.606a4.15 4.15 0 001.08.143c.364.028.73.01 1.09-.054 0-.027-.487 0-1.085-.035-.599-.035-1.081-.077-1.085-.054zm-1.459-.047c0 .02.038.105.084.217.046.112.069.217.096.213.026-.004.042-.116 0-.244s-.161-.201-.18-.186zm-.525-.7s.027.097.1.178c.073.081.15.132.17.112.02-.019-.031-.092-.104-.174-.074-.081-.15-.131-.166-.116zm-.776-.336c0 .027.1.027.208.07.108.042.186.1.209.085.023-.016-.043-.12-.174-.171-.131-.05-.266-.007-.243.016zm-.556-.166c0 .023.03.062.093.089.061.027.12.027.127 0 .008-.027-.031-.066-.093-.089-.061-.024-.116-.024-.127 0z" fill="#263238"/><path opacity=".3" d="M91.134 150.086l7.428.104.015-.897-7.485.321.042.472z" fill="#000"/><path d="M110.262 151.494v-3.976l-7.435-.027-.046 5.801.463.031c2.05.12 10.423.472 11.809.062 1.529-.445-4.791-1.891-4.791-1.891z" fill="#FEC830"/><path opacity=".4" d="M113.343 152.31s2.212.65 1.93 1.013c-.282.364-8.763.329-12.507 0v-.166l9.897.127s.247-.955.68-.974z" fill="#fff"/><path d="M102.684 153.153h.128l.386.023 1.351.066c1.158.046 2.702.089 4.463.097 1.76.007 3.319 0 4.462-.051l1.351-.05.367-.023h.127-.498l-1.351.019a206.504 206.504 0 01-8.917-.042l-1.351-.039h-.518z" fill="#263238"/><path d="M112.679 153.385c.06-.224.145-.441.255-.646.135-.189.29-.363.463-.518a1.01 1.01 0 00-.537.472 1.025 1.025 0 00-.181.692zm-2.189-1.125c.023 0 .127-.116.236-.287.108-.17.181-.317.162-.332-.02-.016-.128.116-.236.286-.108.17-.181.317-.162.333zm-.598-.321c0 .019.135-.062.262-.174.128-.113.22-.225.201-.244-.019-.019-.131.062-.263.174-.131.112-.216.224-.2.244zm-.379-.72a.94.94 0 00.386.051c.13.015.262.002.386-.039a.782.782 0 00-.386-.05 4.25 4.25 0 00-.386.038zm-.127-.483a1.095 1.095 0 00.88.069 2.814 2.814 0 00-.44-.031 2.588 2.588 0 00-.44-.038z" fill="#263238"/><path d="M110.745 151.606c.158.029.32.029.478 0 .174-.02.345-.057.51-.112.102-.027.2-.066.293-.116a.262.262 0 00.116-.151.182.182 0 00-.005-.106.183.183 0 00-.064-.084.879.879 0 00-1.243.569c-.02.085-.02.131 0 .131.047-.148.122-.285.22-.406a.847.847 0 01.409-.267.745.745 0 01.567.043c.078.058.047.147-.038.197a1.272 1.272 0 01-.27.112 3.474 3.474 0 01-.491.128c-.297.062-.482.062-.482.062z" fill="#263238"/><path d="M110.868 151.633a.438.438 0 00.058-.329.813.813 0 00-.127-.352.49.49 0 00-.386-.243.19.19 0 00-.068.027.214.214 0 00-.052.052.19.19 0 00-.027.141c.01.076.036.148.077.213.063.105.139.202.224.29.151.147.27.205.274.193.004-.011-.096-.085-.224-.236a1.608 1.608 0 01-.2-.29c-.066-.1-.108-.282 0-.301.108-.02.239.108.312.201.066.094.112.2.135.313.012.107.014.214.004.321zm-8.041-.534s.213-.019.548.024c.438.05.853.223 1.197.498.341.28.599.648.745 1.064.112.317.12.534.139.53a.478.478 0 000-.151 2.294 2.294 0 00-.826-1.501 2.326 2.326 0 00-1.656-.495c-.097.012-.147.024-.147.031z" fill="#263238"/><path d="M103.61 148.001a12.119 12.119 0 00-.069 1.547 14.256 14.256 0 000 1.547c.056-.513.081-1.03.073-1.547.029-.515.027-1.031-.004-1.547zm2.796 4.537a5.99 5.99 0 002.169.027c0-.023-.486 0-1.084 0-.599 0-1.085-.054-1.085-.027zm-1.459-.012c0 .02.038.105.088.217.049.112.076.213.099.209.023-.004.038-.116-.019-.244-.057-.127-.153-.197-.168-.182zm-.545-.684c-.019 0 .031.093.105.174.073.081.154.128.173.108.02-.019-.031-.093-.108-.174-.077-.081-.154-.127-.17-.108zm-.783-.317c0 .027.104.027.212.065.108.039.185.097.205.078.019-.019-.043-.116-.178-.163-.135-.046-.247-.003-.239.02zm-.549-.151c0 .023.035.062.097.089.062.027.116.023.127 0 .012-.023-.034-.062-.096-.085-.062-.023-.128-.027-.128-.004z" fill="#263238"/><path opacity=".3" d="M102.839 150.898l7.423-.089-.004-.897-7.477.514.058.472z" fill="#000"/><path d="M93.848 83.437l2.977 8.996c.802 2.425 2.918 2.843 5.47 2.843h16.556V91.55l-15.128-2.162-3.606-9.227-6.269 3.275zm26.826 7.325l1.312-.622s1.413-2.742 1.741-2.63c.328.112.421.916-.15 2.173l1.748-.499s3.783 1.752 3.614 1.988a.876.876 0 01-1.301.387c-.823-.425-1.904-.92-1.904-.92l-2.038.584 2.629.336 2.471 2.251a1.205 1.205 0 01-1.51-.035l-6.423 1.365-2.011.117v-3.725l1.822-.77z" fill="#FFBE9D"/><path d="M127.286 93.764c-.027 0-.146-.174-.386-.426a1.955 1.955 0 00-.467-.363 1.926 1.926 0 00-.695-.182 9.757 9.757 0 01-1.93-.329 9.641 9.641 0 011.95.132c.27.016.533.091.772.22.183.113.343.259.474.43.137.145.234.324.282.518zm-1.007.255c-.023 0-.043-.132-.224-.17a8.845 8.845 0 00-.772-.1 6.758 6.758 0 01-1.127-.113 2.25 2.25 0 011.158-.089c.275.024.547.08.81.166a.32.32 0 01.193.205c0 .062-.023.105-.038.1z" fill="#EB996E"/><path d="M79.87 46.514l-.9 18.247 7.798.735.429-4.428s2.752.68 3.586-1.868c.533-1.628 1.008-14.383 1.008-14.383L79.87 46.514z" fill="#FFBE9D"/><path d="M92.466 46.947c.216 1.71-2.17 2.708-2.17 2.708l-.412 4.041a7.888 7.888 0 00-1.124 0c.201-1.895-2.235-1.523-2.482-.232-.247 1.292 1.158 2.073 1.158 2.073-.973 1.497-1.37 2.29-2.752 3.694-1.498 1.52-2.316 1.643-3.86 1.597l-1.688-.108s-.605-1.458-1.05-4.904c-.212-1.656-1.505-3.83-1.158-6.52 1.047-7.655 8.366-6.846 8.366-6.846 3.825.112 6.67.537 7.172 4.497z" fill="#263238"/><path d="M86.857 42.678c1.656.042 3.37.174 4.822.967 1.451.792 2.57 2.428 2.273 4.057l-.826.15-.343-.61v.974l-1.456.387a10.575 10.575 0 00-1.285-3.523" fill="#263238"/><path d="M80.179 51.074a.875.875 0 01-.128-.286 4.918 4.918 0 01-.208-.832 6.09 6.09 0 011.61-5.232 4.65 4.65 0 01.637-.569.943.943 0 01.266-.166c.023.027-.336.294-.799.828a6.675 6.675 0 00-1.34 2.39 6.755 6.755 0 00-.239 2.73c.089.704.236 1.114.2 1.137z" fill="#455A64"/><path d="M81.715 50.436a3.237 3.237 0 01-.309-.936 7.942 7.942 0 01.41-4.687c.108-.313.266-.607.467-.87a12.312 12.312 0 00-.826 3.198c-.06 1.105.027 2.213.258 3.295zm9.956-2.831c-.039 0-.104-.472-.42-1.16a5.335 5.335 0 00-4.66-3.16c-.772-.035-1.232.081-1.24.046a.97.97 0 01.325-.1 5.15 5.15 0 015.706 3.16c.116.285.203.582.258.885.03.107.04.218.031.329z" fill="#455A64"/><path d="M80.422 41.2c.436.094.829.328 1.12.666.336.292.567.688.656 1.125-.058.023-.31-.495-.8-.986-.49-.491-1.003-.747-.976-.805z" fill="#263238"/><path d="M82.244 41.208c.058 0-.062.43-.039.936.024.507.163.901.109.928a1.309 1.309 0 01-.31-.92c-.045-.334.04-.673.24-.944z" fill="#455A64"/><path d="M92.443 81.48l1.274 4.32 8.083-3.662c-.293-.905-1.629-4.935-4.188-11.332a10.983 10.983 0 00-3.303-4.482 10.953 10.953 0 00-5.074-2.282 47.943 47.943 0 00-7.72-.774c-4.532.05-11.195 2.89-12.103 7.349-.683 3.395-.023 9.394-.023 16.68l.59 13.923 23.225.774-.76-20.514z" fill="#FEC830"/><path opacity=".3" d="M69.397 84.08c2.826.58 5.729 0 8.608-.175 1.745-.104 3.683-.293 5.065.774 1.093.85 1.544 2.286 1.85 3.64 1.204 5.155 1.424 8.612 1.694 13.899l-13.978.851-3.24-18.99z" fill="#FEC830"/><path d="M96.933 69.472c0 .058-6.096.1-13.616.1s-13.619-.042-13.619-.1 6.096-.1 13.62-.1c7.523 0 13.615.046 13.615.1zm1.694 3.91c0 .054-6.628.1-14.8.1s-14.808-.046-14.808-.1c0-.054 6.628-.1 14.808-.1s14.8.046 14.8.1zm2.127 4.904c0 .058-7.072.1-15.796.1s-15.796-.042-15.796-.1 7.072-.1 15.796-.1 15.796.046 15.796.1zm-8.492 5.291c0 .054-2.209.1-4.934.1s-4.933-.046-4.933-.1c0-.055 2.208-.1 4.933-.1 2.725 0 4.934.061 4.934.1zm.467 5.731c0 .054-2.316.081-5.165.058-2.85-.023-5.165-.085-5.165-.143 0-.058 2.316-.081 5.165-.058s5.165.09 5.165.143zm.224 4.672a1.542 1.542 0 01-.41.02l-1.104-.024c-.934-.019-2.223-.046-3.648-.046-1.424 0-2.702.023-3.651.042l-1.105.024a1.54 1.54 0 01-.409 0c.132-.039.268-.06.406-.062a26.17 26.17 0 011.104-.081 61.235 61.235 0 013.655-.105c1.429 0 2.703.05 3.652.108.467.028.846.058 1.104.086.136-.004.273.009.406.038zm-.073 3.775c0 .054-2.278.1-5.089.1-2.81 0-5.087-.046-5.087-.1 0-.054 2.277-.1 5.087-.1 2.81 0 5.088.042 5.088.1zm.686-32.115c0 .057-4.47.1-9.982.1-5.513 0-9.983-.043-9.983-.1 0-.059 4.47-.101 9.983-.101 5.512 0 9.982.046 9.982.1z" fill="#FAFAFA"/><path d="M93.034 66.366c0 .023-.236.035-.618.186-.537.233-1 .609-1.34 1.087a4.514 4.514 0 00-.798 2.425c-.031 1.068.05 2.136.243 3.186a52.713 52.713 0 001.3 5.705c.19.7.348 1.276.468 1.713.065.208.115.42.15.635a3.672 3.672 0 01-.224-.611 55.958 55.958 0 01-.532-1.698 44.27 44.27 0 01-1.352-5.713 14.786 14.786 0 01-.231-3.233 4.56 4.56 0 01.872-2.494 3.17 3.17 0 011.42-1.076 2.47 2.47 0 01.48-.108.583.583 0 01.162-.004zm8.512 14.666c-.36.252-.741.472-1.139.657a49.31 49.31 0 01-2.849 1.381c-1.127.51-2.162.936-2.918 1.226a8.053 8.053 0 01-1.243.422c.382-.214.78-.399 1.188-.553.742-.325 1.765-.774 2.892-1.277 1.127-.503 2.135-.986 2.868-1.326.388-.203.789-.38 1.201-.53zm-24.401 20.416l27.748.983a8.27 8.27 0 015.707 2.574 8.307 8.307 0 012.276 5.841l-1.158 39.704-10.72-.356.795-37.174-24.656-.65.008-10.922z" fill="#263238"/><path d="M65.683 101.448l27.737.983a8.272 8.272 0 015.706 2.575 8.304 8.304 0 012.277 5.84l-1.158 39.704-10.844-.878.93-36.652-24.655-.65.007-10.922z" fill="#263238"/><path d="M86.452 115.87h-2.73v32.762h2.73V115.87zM60.82 84.072v24.117c0 1.52.602 2.976 1.674 4.051a5.712 5.712 0 004.043 1.677h16.027V84.072a2.552 2.552 0 00-1.572-2.36 2.54 2.54 0 00-.975-.193h-16.65a2.555 2.555 0 00-2.548 2.553z" fill="#455A64"/><path d="M104.14 115.87H65.104a4.26 4.26 0 011.244-3.008 4.242 4.242 0 013.003-1.246h30.554c1.126 0 2.206.448 3.003 1.246a4.26 4.26 0 011.243 3.008h-.011z" fill="#455A64"/><path d="M82.564 111.063a.58.58 0 010 .186c.001.177-.02.353-.061.526a2.89 2.89 0 01-2.286 2.177c-.512.055-1.028.074-1.544.058h-3.505c-2.49 0-4.744 0-6.373-.023l-1.93-.027-.525-.02a.923.923 0 01-.182-.019.586.586 0 01.182-.023h.525l1.93-.035c1.629-.019 3.883-.031 6.373-.035h3.505c.505.021 1.01.009 1.513-.035a2.772 2.772 0 001.186-.502 2.86 2.86 0 001.053-1.547c.059-.225.105-.452.14-.681zm4.915 4.892c-.794.102-1.594.136-2.394.101-.799.035-1.6.001-2.393-.101a14.503 14.503 0 012.393-.1c.8-.033 1.6.001 2.394.1z" fill="#263238"/><path d="M99.357 114.126a6.739 6.739 0 01-.243-1.16c-.128-.743-.301-1.822-.51-3.152-.208-1.331-.351-2.943-1.085-4.541a11.026 11.026 0 00-1.451-2.32 10.428 10.428 0 00-2.174-1.965 9.659 9.659 0 00-2.64-1.272 9.99 9.99 0 00-2.702-.468c-1.768-.039-3.378-.031-4.721-.058-1.344-.027-2.436-.039-3.189-.062a6.308 6.308 0 01-1.158-.081c.383-.06.77-.086 1.158-.078.753-.023 1.841-.046 3.189-.062 1.347-.015 2.941-.05 4.732-.027 1.98.047 3.904.663 5.544 1.776a10.582 10.582 0 012.254 2.045 11.284 11.284 0 011.486 2.421c.09.205.163.418.244.623l.116.31c.027.104.057.208.084.313.058.205.116.41.17.611.054.201.074.406.108.603.14.793.213 1.52.305 2.193.17 1.334.302 2.421.386 3.168.068.39.1.786.097 1.183zm-2.332 37.48h-.386a11.655 11.655 0 00-3.325-8.366 11.612 11.612 0 00-8.289-3.483 11.6 11.6 0 00-8.288 3.483 11.642 11.642 0 00-3.325 8.366h-.386a12.042 12.042 0 013.437-8.641 11.997 11.997 0 018.562-3.599 11.98 11.98 0 018.563 3.599 12.04 12.04 0 013.438 8.641z" fill="#455A64"/><path d="M75.018 152.198a1.804 1.804 0 01-1.11 1.665 1.795 1.795 0 01-1.961-.391 1.802 1.802 0 01.272-2.773 1.797 1.797 0 012.799 1.499zm23.702-.248a1.798 1.798 0 01-3.563.352 1.804 1.804 0 011.764-2.154 1.798 1.798 0 011.799 1.802z" fill="#263238"/><path d="M96.894 148.632c0 .058-5.223.1-11.662.1-6.439 0-11.662-.042-11.662-.1s5.22-.101 11.662-.101c6.443 0 11.662.047 11.662.101z" fill="#455A64"/><path d="M57.067 73.374a2.515 2.515 0 011.123 1.613 4.461 4.461 0 01-.061 2.007c-.297 1.269-1.178 2.483-2.085 3.42-.973-1.072-1.027-2.75-1.004-3.605.039-1.35.93-3.767 2.027-3.435zm-.011 9.313a2.138 2.138 0 01.922-1.934 2.842 2.842 0 012.158-.41 1.203 1.203 0 01.865.519.918.918 0 01-.093.924 1.85 1.85 0 01-.772.592c-1.008.48-2.07.773-3.088.317" fill="#FEC830"/><path d="M55.426 85.518c.054-.283.135-.56.244-.828a4.22 4.22 0 01.428-.839c.205-.325.43-.636.676-.932a4.282 4.282 0 011.683-1.23 3.19 3.19 0 01.614-.158.709.709 0 01.231 0c0 .027-.324.062-.807.267a4.549 4.549 0 00-1.61 1.23c-.241.29-.467.593-.675.908a4.4 4.4 0 00-.444.805 6.53 6.53 0 01-.34.777z" fill="#263238"/><path d="M56.554 75.273c.014.145.014.292 0 .437 0 .279-.039.685-.078 1.184a112.091 112.091 0 01-.355 3.906 69.05 69.05 0 01-.532 3.898c-.078.495-.147.894-.197 1.16a3.143 3.143 0 01-.097.426 2.271 2.271 0 01.039-.437c.038-.302.092-.7.154-1.16.132-.994.305-2.367.471-3.891.166-1.524.294-2.874.386-3.895.05-.48.089-.878.124-1.183.014-.15.042-.3.085-.445z" fill="#263238"/><path d="M55.365 82.993a5.032 5.032 0 00-2.815-3.616c-.366-.167-.845-.271-1.138 0-.294.27-.216.773-.062 1.16a4.282 4.282 0 003.992 2.572" fill="#FEC830"/><path d="M52.836 80.53a.729.729 0 01.205.1c.18.103.356.215.525.336a5.67 5.67 0 011.47 1.443c.212.32.37.673.468 1.044.076.303.11.615.104.928-.008.21-.032.418-.073.623a.631.631 0 01-.066.224c-.027 0 .038-.329.035-.847a3.697 3.697 0 00-.132-.893 3.654 3.654 0 00-.459-.998 6.424 6.424 0 00-1.409-1.443 6.839 6.839 0 01-.668-.518zm2.401 14.73a4.825 4.825 0 01-3.412-1.418 4.843 4.843 0 01-1.413-3.42v-4.834h9.65v4.834a4.843 4.843 0 01-1.412 3.42 4.825 4.825 0 01-3.413 1.418z" fill="#263238"/><path d="M60.067 87.966a.848.848 0 01-.136.136l-.386.36-1.467 1.264-.034.027L58 89.73l-2.798-1.694h.077l-2.602 1.69-.039.027-.038-.03-1.602-1.258-.44-.356a.81.81 0 01-.147-.139s.062.031.17.105l.463.328 1.637 1.215h-.077l2.59-1.71.042-.027.043.023 2.787 1.71h-.077l1.49-1.21.425-.333c.1-.074.158-.112.162-.105z" fill="#E0E0E0"/><path d="M60.067 87.019a.848.848 0 01-.136.135l-.386.36-1.455 1.257-.035.027-.042-.023-2.81-1.706h.077l-2.602 1.69-.039.027-.038-.03-1.602-1.258-.44-.355a.807.807 0 01-.147-.14s.062.031.17.105l.463.328 1.637 1.215h-.077l2.59-1.71.042-.027.043.024 2.787 1.709h-.077l1.49-1.21.425-.333c.1-.085.158-.112.162-.085zm0 1.934s-.043.054-.136.139l-.386.356-1.455 1.256-.035.031-.042-.027-2.81-1.686h.077l-2.602 1.69-.039.027-.038-.027c-.645-.51-1.193-.936-1.602-1.257l-.44-.36c-.1-.085-.15-.13-.147-.139a.9.9 0 01.17.105l.463.332 1.637 1.21h-.077l2.59-1.709.042-.027.043.027 2.787 1.706h-.077l1.49-1.214.424-.33a.648.648 0 01.163-.103z" fill="#E0E0E0"/><path d="M185.141 106.615c-2 .325-2.895 2.785-2.722 4.808.174 2.022 1.008 4.003.772 6.018-.281 2.564-2.215 4.729-2.439 7.297-.267 3.029 1.872 5.717 2.509 8.687.313 1.446.266 2.978.807 4.355a5.423 5.423 0 009.196 1.555 5.45 5.45 0 001.296-3.435c.046-2.32-1.386-4.513-1.212-6.834.127-1.713 1.131-3.337.915-5.028-.255-2.03-2.131-3.48-2.795-5.414-.664-1.934-.023-4.069-.255-6.103-.409-3.647-2.428-6.188-6.08-5.898" fill="#FEC830"/><path d="M174.923 124.278c-.34 3.381 1.158 7.349 2.887 10.276a16.09 16.09 0 007.555 6.575c.351.147.791.271 1.088.031a1.074 1.074 0 00.274-.866 16.619 16.619 0 00-3.242-9.973 16.57 16.57 0 00-8.562-6.035" fill="#FEC830"/><path opacity=".2" d="M174.923 124.278c-.34 3.381 1.158 7.349 2.887 10.276a16.09 16.09 0 007.555 6.575c.351.147.791.271 1.088.031a1.074 1.074 0 00.274-.866 16.619 16.619 0 00-3.242-9.973 16.57 16.57 0 00-8.562-6.035" fill="#000"/><path d="M189.619 148.187a.916.916 0 01-.093-.185c-.065-.147-.146-.329-.243-.557-.201-.48-.506-1.161-.892-2.031a71.832 71.832 0 00-3.347-6.493 72.91 72.91 0 00-3.995-6.115 89.656 89.656 0 00-1.328-1.775c-.15-.193-.27-.356-.367-.483a.881.881 0 01-.115-.175s.057.047.146.151l.386.461c.336.386.811.993 1.378 1.74a61.633 61.633 0 017.37 12.635c.386.862.656 1.547.837 2.058l.209.568a.704.704 0 01.054.201zm-2.17-32.22c.022.107.033.216.035.325.019.228.039.537.07.932.05.824.127 1.992.22 3.423.181 2.893.436 6.888.745 11.297.308 4.409.617 8.404.841 11.293.108 1.431.197 2.595.263 3.423.023.386.046.7.061.928.01.109.01.219 0 .328a2.527 2.527 0 01-.046-.324c-.023-.229-.058-.538-.1-.929l-.321-3.415a607.904 607.904 0 01-.895-11.289 602.886 602.886 0 01-.691-11.305c-.07-1.434-.124-2.599-.162-3.426 0-.387-.024-.704-.031-.936a1.857 1.857 0 01.011-.325z" fill="#263238"/><path d="M184.346 143.368h8.45v6.215a4.067 4.067 0 01-1.19 2.872 4.05 4.05 0 01-5.657.076 4.065 4.065 0 01-1.26-2.731l-.343-6.432z" fill="#263238"/><path d="M141.55 61.431l20.151 11.181-.76 1.424-19.97-11.39.579-1.215zm-.992-1.055l.927-1.42.54.333-.83 1.43-.637-.343z" fill="#FEC830"/><path d="M159.412 70.845l1.034.596-3.373 21.572-1.599.02 3.938-22.188z" fill="#FEC830"/><path d="M150.83 95.26s2.459-2.49 5.748-2.32a7.125 7.125 0 014.98 2.293l-10.728.027zm-10.253-25.104l-7.979-4.617 2.316-3.995a4.62 4.62 0 012.797-2.152 4.6 4.6 0 015.641 3.264 4.632 4.632 0 01-.462 3.502l-2.313 3.998z" fill="#FEC830"/></g><defs><clipPath id="clip0"><path fill="#fff" d="M0 0h239v154H0z"/></clipPath></defs></svg>