<svg width="159" height="154" fill="none" xmlns="http://www.w3.org/2000/svg"><g clip-path="url(#clip0)"><path d="M61.277 29.172H17.403v29.242h43.874V29.172z" fill="#fff"/><path d="M61.277 58.414v-7.956c0-5.078-.021-12.382-.035-21.276l.063.063h-43.87l.08-.08v29.242l-.073-.07 31.607.035h12.267-3.203l-9.015.021-31.656.035h-.07V29.036h44.014v.063c0 8.922-.025 16.236-.032 21.328v7.397c0 .35-.077.59-.077.59z" fill="#E0E0E0"/><path d="M17.403 31.788c0-.045 9.81-.08 21.92-.08 12.109 0 21.919.035 21.919.08 0 .046-9.81.077-21.92.077-12.108 0-21.919-.038-21.919-.077z" fill="#E0E0E0"/><path opacity=".3" d="M19.134 30.466a.349.349 0 01-.35.35.351.351 0 01-.35-.35.349.349 0 01.35-.349.351.351 0 01.35.35zm.855.35a.35.35 0 10.001-.7.35.35 0 00-.001.7zm1.538-.35a.349.349 0 01-.419.343.352.352 0 01-.275-.274.348.348 0 01.344-.418.351.351 0 01.35.35z" fill="#E0E0E0"/><path d="M32.88 34.833H21.176v11.65h11.702v-11.65zm22.381 3.293c0 .041-4.555.076-10.192.076-5.638 0-10.196-.035-10.196-.076 0-.042 4.555-.077 10.196-.077 5.64 0 10.192.035 10.192.077zm0 2.165c0 .042-4.555.077-10.192.077-5.638 0-10.196-.035-10.196-.077 0-.041 4.555-.08 10.196-.08 5.64 0 10.192.035 10.192.08zm0 2.163c0 .045-4.555.08-10.192.08-5.638 0-10.196-.035-10.196-.08 0-.046 4.555-.077 10.196-.077 5.64 0 10.192.035 10.192.077zm-8.339 2.166a2.846 2.846 0 01-.473.031l-1.293.025c-1.09 0-2.596.024-4.257.024-1.66 0-3.153 0-4.26-.024l-1.293-.025a2.846 2.846 0 01-.473-.031c.156-.024.315-.034.473-.032l1.293-.024c1.09 0 2.596-.021 4.26-.021 1.664 0 3.154 0 4.257.02l1.293.025a2.87 2.87 0 01.473.032zM27.41 50.41h-5.501v5.476h5.5v-5.477zm9.975 0h-5.5v5.476h5.5v-5.477zm9.972 0h-5.501v5.476h5.5v-5.477zm9.975 0H51.83v5.476h5.5v-5.477zm83.89-13.837a1.733 1.733 0 01-.242.495c-.287.422-.711.73-1.201.876a2.267 2.267 0 01-1.052.063 2.255 2.255 0 01-1.783-1.632 2.255 2.255 0 01.971-2.512c.192-.126.404-.219.627-.275.212-.06.431-.087.651-.08a2.257 2.257 0 011.882 1.07c.266.436.373.95.301 1.455a1.73 1.73 0 01-.154.526c-.017 0 .067-.185.105-.533a2.204 2.204 0 00-1.03-2.093 2.244 2.244 0 00-1.1-.318 2.227 2.227 0 00-.617.08 2.018 2.018 0 00-.588.266 2.165 2.165 0 00-.922 2.382c.056.21.144.41.263.593a2.185 2.185 0 001.429.97c.332.063.674.047.999-.046a2.203 2.203 0 001.188-.816c.196-.29.252-.478.273-.47z" fill="#E0E0E0"/><path d="M143.303 38.676h.077l.235.032.932.122h-.024c.189-.495.438-1.144.735-1.929v.035l-1.051-.698h-.021v-.02a4.94 4.94 0 00-.038-1.336v-.025h.021l1.002-.746v.056c-.267-.597-.55-1.225-.845-1.887l.056.027-1.229.245h-.032l-.021-.025a4.975 4.975 0 00-.971-.917l-.024-.017v-.035l.179-1.235.035.063-1.934-.74.07-.024-.701 1.046-.021.028h-.035a5.076 5.076 0 00-1.3.045h-.039l-.021-.03-.76-1.016.077.021-1.895.837.035-.07.245 1.225v.038l-.032.024a5.02 5.02 0 00-.918.96l-.059.024h-.154l-.158-.024-.308-.046-.62-.09.07-.039-.747 1.925-.024-.073 1.051.698.031.02v.04a4.97 4.97 0 00.032 1.328v.035l-.032.024-1.005.743.021-.073.837 1.887-.063-.032 1.23-.24h.032l.024.028c.279.347.603.656.964.917l.028.021v.007l-.186 1.235-.032-.056 1.935.746h-.06l.701-1.046v-.021h.028c.446.05.898.039 1.342-.031h.024v.02l.747 1.002h-.046l1.909-.803v.032l-.234-1.225c.265-.209.511-.442.732-.697l.161-.192.053-.066a3.194 3.194 0 01-.196.272 5.081 5.081 0 01-.722.718c.066.332.15.733.249 1.221v.021h-.021l-1.889.844h-.028l-.018-.024c-.234-.307-.48-.635-.753-.998h.039a5.322 5.322 0 01-1.363.038l.045-.02-.7 1.046-.021.035h-.036l-1.937-.74h-.039v-.041c.056-.398.116-.81.179-1.232l.021.053a5.246 5.246 0 01-.991-.939l.056.021-1.23.241h-.046l-.021-.042-.841-1.887-.021-.042.039-.031 1.005-.747-.024.06a5.163 5.163 0 01-.035-1.36l.028.059-1.051-.698-.042-.028v-.049l.795-1.974v-.048h.049l.62.09.312.046.154.024h.154c-.119.052-.031 0-.059.024.28-.355.606-.672.97-.941l-.021.059c-.084-.419-.164-.837-.241-1.224v-.05l.045-.02 1.896-.837h.045l.032.038.746 1.001-.06-.024a5.187 5.187 0 011.37-.032l-.059.025.701-1.046.024-.042h.046l1.934.746h.042v.046l-.182 1.234-.021-.052a5.2 5.2 0 01.96.983h-.053l1.23-.24h.038l.018.038c.294.663.571 1.294.837 1.887v.035l-.028.02-.995.702.018-.042c.07.45.079.905.028 1.357v-.035l1.051.697h.021v.025c-.308.785-.561 1.43-.757 1.922l-.918-.147-.238-.038a.41.41 0 01-.151.01z" fill="#E0E0E0"/><path fill-rule="evenodd" clip-rule="evenodd" d="M154.34 32.806a4.242 4.242 0 01-.774.81l.199 1.014-1.569.698-.624-.83c-.371.06-.748.07-1.121.028l-.578.858-1.605-.614.151-1.025a4.132 4.132 0 01-.813-.768l-1.02.2-.7-1.567.833-.617a4.132 4.132 0 01-.028-1.116l-.865-.576.631-1.6 1.03.146c.22-.302.479-.573.771-.806l-.2-1.015 1.573-.698.62.83a4.461 4.461 0 011.121-.027l.578-.858 1.605.617-.157 1.015c.304.22.578.478.812.77l1.02-.202.701 1.567-.834.617c.06.369.069.744.028 1.116l.865.579-.62 1.597-1.026-.15-.004.007zm-1.752-1.744a1.827 1.827 0 00-.443-1.995 1.85 1.85 0 00-2.835.341 1.836 1.836 0 00.892 2.7 1.852 1.852 0 002.013-.44c.169-.175.3-.382.387-.609l-.014.003zm-5.024-7.795a6.756 6.756 0 01-1.212 1.266l.315 1.594-2.453 1.088-.974-1.3a6.735 6.735 0 01-1.752.045l-.907 1.346-2.533-.966.234-1.605a6.743 6.743 0 01-1.285-1.206l-1.598.314-1.093-2.442 1.307-.97a6.614 6.614 0 01-.046-1.744l-1.352-.903.97-2.508 1.612.237a6.634 6.634 0 011.212-1.27l-.315-1.59 2.452-1.091.974 1.304a6.591 6.591 0 011.752-.045l.908-1.346 2.515.966-.234 1.604c.477.343.906.75 1.275 1.207l1.598-.314 1.093 2.441-1.307.97c.092.577.107 1.163.046 1.744l1.352.903-.97 2.505-1.612-.234h.028zm-2.723-2.738a2.864 2.864 0 00-.706-3.123 2.9 2.9 0 00-3.169-.545 2.89 2.89 0 00-1.719 2.705 2.887 2.887 0 002.965 2.808 2.9 2.9 0 002.629-1.845z" fill="#E0E0E0"/><path d="M122.831 9.971c.052-.077.113-.147.182-.209l.533-.53c.452-.447 1.086-1.046 1.787-1.723l.017-.018v.091c-.701-.656-1.345-1.252-1.801-1.688l-.536-.523a1.104 1.104 0 01-.182-.202c.078.047.151.103.217.167l.561.495c.469.419 1.117 1.005 1.825 1.66l.049.046-.049.045c-.701.67-1.345 1.27-1.815 1.699l-.574.533c-.066.06-.138.113-.214.157zm-5.455-4.802a1.195 1.195 0 01-.186.205l-.529.534c-.456.446-1.086 1.046-1.791 1.723v-.087c.701.652 1.346 1.252 1.801 1.688l.536.52c.07.06.132.13.186.205a1.134 1.134 0 01-.217-.167l-.564-.495c-.47-.419-1.114-1.008-1.826-1.66l-.045-.046.045-.045.018-.018c.701-.666 1.345-1.266 1.811-1.695.221-.199.41-.366.561-.505.06-.06.127-.113.2-.157zm1.401 5.932c-.031 0 .543-1.618 1.282-3.585.74-1.967 1.367-3.558 1.402-3.544.035.014-.54 1.615-1.282 3.586-.743 1.97-1.381 3.557-1.402 3.543z" fill="#E0E0E0"/><path d="M129.043 14.537v-3.966c0-2.518 0-6.121-.028-10.463l.053.048h-17.785l.063-.059v14.426l-.056-.052 12.844.027h4.608-4.587l-12.879.028h-.053V.045v.003h17.873v.063c0 4.353-.021 7.966-.028 10.492v3.679a.923.923 0 01-.025.255z" fill="#E0E0E0"/><path d="M129.183 2.25c0 .035-4.015.063-8.966.063s-8.97-.028-8.97-.063 4.016-.06 8.97-.06c4.954 0 8.966.028 8.966.06zM112.709 1.2a.246.246 0 01-.041.134.246.246 0 01-.248.103.243.243 0 01-.177-.33.245.245 0 01.395-.078.243.243 0 01.071.171zm.63.238a.238.238 0 10.001-.475.238.238 0 00-.001.475zm1.114-.238a.24.24 0 01-.4.152.247.247 0 01-.08-.152.23.23 0 01.01-.1.234.234 0 01.05-.089.234.234 0 01.18-.081.234.234 0 01.181.081.234.234 0 01.059.19z" fill="#E0E0E0"/><path d="M94.657 7.07H53.53V23.7h41.127V7.07z" fill="#fff"/><path d="M94.657 23.7v-4.468c0-2.871 0-7.025-.024-12.163l.045.046-41.123.02.063-.066V23.7l-.063-.062 29.487.031h10.844-2.276l-8.539.018-29.54.08h-.063V7.007h.07l41.12.017h.046v.045c0 5.152-.018 9.313-.025 12.187v4.154c0 .195-.02.29-.02.29z" fill="#E0E0E0"/><path d="M53.572 9.313c0-.035 9.19-.067 20.529-.067 11.338 0 20.532.032 20.532.067s-9.19.067-20.532.067-20.529-.032-20.529-.067z" fill="#E0E0E0"/><path opacity=".3" d="M55.293 8.308a.297.297 0 01-.509.21.296.296 0 01.325-.484.299.299 0 01.184.274zm1.023 0a.296.296 0 01-.298.296.299.299 0 01-.298-.296.296.296 0 01.298-.297.299.299 0 01.298.297zm.707.296a.297.297 0 10.002-.594.297.297 0 00-.002.594z" fill="#EBEBEB"/><path d="M66.957 12.015h-9.933v9.888h9.933v-9.888zm24.841 2.652c0 .035-5.112.063-11.415.063-6.303 0-11.419-.028-11.419-.063 0-.036 5.112-.067 11.419-.067s11.415.028 11.415.067zm0 2.012c0 .039-5.112.067-11.415.067-6.303 0-11.419-.028-11.419-.067 0-.039 5.112-.063 11.419-.063s11.415.028 11.415.063zm-8.121 2.016h-.578l-1.574.02-5.196.022-5.203.003-1.573-.02h-.578c.05-.007.1-.007.15 0h.428l1.573-.022 5.2-.021 5.196.021 1.573.021h.43a.593.593 0 01.151-.024z" fill="#E0E0E0"/><path d="M159 143.808c0 .052-34.96.094-78.081.094-43.12 0-78.088-.042-78.088-.094 0-.053 34.953-.091 78.088-.091 43.135 0 78.081.031 78.081.091z" fill="#263238"/><path d="M145.794 35.795H96.696v39.818h49.098V35.795z" fill="#E0E0E0"/><path d="M142.301 38.328H93.203v39.817h49.098V38.328z" fill="#EBEBEB"/><path d="M138.801 41.1H88.393v40.882H138.8V41.1z" fill="#fff"/><path d="M138.801 81.978v-2.933c0-1.915 0-4.716-.018-8.284 0-7.136-.024-17.348-.042-29.646l.077.076-50.419.014.092-.09v40.877l-.085-.08 36.439.042 10.308.02h3.676-3.647l-10.291.022-36.478.042h-.08V40.986h50.577v.076c-.018 12.333-.032 22.56-.039 29.706 0 3.565-.018 6.359-.021 8.266v2.17c0 .495-.049.774-.049.774z" fill="#263238"/><path d="M94.538 47.009l-.543.195.543.196v.202l-.774-.293v-.21l.774-.292v.202zm1.276-.369v1.13h-.263v-.464h-.515v.464h-.267v-1.13h.267v.446h.515v-.447h.263zm.504.212h-.35v-.213h.991v.213h-.35v.918h-.263l-.028-.918zm1.805.918v-.677l-.35.558h-.12l-.333-.544v.663h-.249v-1.13h.218l.427.697.42-.698h.214v1.131h-.227zm.515-1.13h.262v.917h.571v.213h-.834v-1.13zm1.72.46v.209l-.775.293V47.4l.54-.196-.54-.195v-.202l.775.293z" fill="#FEC830"/><path d="M94.08 78.01l-.544.194.543.196v.202l-.774-.293v-.21l.774-.292v.202zm.58-.6h.225l-.536 1.524h-.228l.54-1.525zm1.343.23v1.134h-.263v-.464h-.519v.464h-.27v-1.135h.263v.447h.519v-.447h.27zm.494.212h-.35v-.213h.99v.213h-.35v.922h-.262l-.028-.922zm1.801.922v-.698l-.35.558h-.12l-.333-.544v.666h-.245v-1.134h.217l.424.698.42-.698h.218v1.134l-.231.018zm.508-1.134h.262v.917h.572v.217h-.834v-1.135zm1.727.46v.209l-.774.293V78.4l.543-.196-.543-.195v-.202l.774.293z" fill="#E8505B"/><path d="M98.105 50.106l-.578.224.578.22v.136l-.729-.286v-.126l.729-.287v.12zm1.261-.342v1.131h-.164v-.502h-.652v.502h-.165v-1.13h.165v.485h.652v-.486h.164zm1.164.992v.14h-.824v-1.132h.802v.14h-.651v.35h.571v.135h-.571v.35l.673.017zm.988-.133h-.61l-.123.283h-.168l.515-1.131h.161l.515 1.13h-.168l-.122-.282zm-.057-.13l-.245-.554-.245.555h.49zm.519-.729h.48a.566.566 0 110 1.131h-.48v-1.13zm.47.992a.428.428 0 00.427-.426.426.426 0 00-.427-.426h-.305v.852h.305zm1.538-.482v.14l-.729.286v-.136l.578-.22-.578-.224v-.133l.729.287zm-5.883 3.714l-.578.22.578.224v.133l-.729-.287v-.14l.729-.286v.136zm.508-.206h-.392v-.14h.935v.14h-.389v.992h-.161l.007-.992zm.725-.139h.168v1.13h-.164l-.004-1.13zm.729.139h-.389v-.14h.943v.14h-.393v.992h-.161v-.992zm.729-.139h.161v.991h.617v.14h-.778v-1.131zm1.79.991v.14h-.827v-1.131h.803v.14h-.638v.349h.568v.136h-.568v.366h.662zm.929-.495v.14l-.729.286v-.133l.578-.224-.578-.22v-.136l.729.287zm.714-.496h.162v.991h.616v.14h-.778v-1.131zm.852.704a.446.446 0 01.529-.45.451.451 0 01.358.349.449.449 0 01-.439.538.428.428 0 01-.448-.437zm.736 0a.284.284 0 00-.055-.158.29.29 0 10-.394.412.291.291 0 00.429-.14.274.274 0 00.016-.114h.004zm.837-.439v.15h-.035a.264.264 0 00-.205.08.263.263 0 00-.058.098.265.265 0 00-.01.111v.426h-.154v-.855h.147v.143a.35.35 0 01.315-.154zm.957.488h-.701a.287.287 0 00.312.251.331.331 0 00.248-.1l.088.097a.44.44 0 01-.35.14.436.436 0 01-.433-.262.42.42 0 01-.033-.175.409.409 0 01.028-.169.433.433 0 01.406-.27.412.412 0 01.424.443c.005.015.009.03.011.045zm-.701-.111h.553a.278.278 0 00-.458-.168.275.275 0 00-.095.168zm2.351-.004v.492h-.158V54.3c0-.168-.08-.252-.221-.252-.14 0-.259.098-.259.287v.44h-.154V54.3c0-.168-.084-.252-.224-.252s-.26.098-.26.287v.44h-.154v-.856h.147v.126a.35.35 0 01.298-.136.322.322 0 01.302.16.38.38 0 01.329-.16.354.354 0 01.259.11.348.348 0 01.095.263zm.694-.628a.1.1 0 01.013-.063.11.11 0 01.111-.054.11.11 0 01.058.028.11.11 0 01.032.056.101.101 0 01-.006.064.108.108 0 01-.103.067.1.1 0 01-.074-.026.091.091 0 01-.023-.033.088.088 0 01-.008-.039zm.028.265h.157v.855h-.157v-.855zm1.345.43a.41.41 0 01-.12.314.419.419 0 01-.314.122.354.354 0 01-.302-.14v.444h-.157v-1.17h.15v.136a.354.354 0 01.309-.146.413.413 0 01.408.269c.021.054.03.113.026.17zm-.158 0a.286.286 0 00-.17-.296.292.292 0 00-.396.175.307.307 0 00-.012.12.288.288 0 00.171.296.288.288 0 00.237.001.292.292 0 00.17-.296zm.249.334l.067-.122c.089.06.194.09.301.091.147 0 .207-.045.207-.119 0-.191-.547-.024-.547-.366 0-.153.14-.258.351-.258a.613.613 0 01.311.08l-.066.122a.43.43 0 00-.249-.07c-.137 0-.203.053-.203.12 0 .201.546.038.546.369 0 .157-.143.255-.371.255a.614.614 0 01-.347-.102zm1.752-.764v.855h-.147v-.129a.353.353 0 01-.294.14.354.354 0 01-.271-.103.335.335 0 01-.08-.125.363.363 0 01-.021-.146v-.492h.158v.475c0 .167.084.251.231.251a.252.252 0 00.202-.077.25.25 0 00.064-.206v-.443h.158zm1.717.363v.492h-.158V54.3c0-.168-.08-.252-.224-.252-.144 0-.256.098-.256.287v.44h-.157V54.3c0-.168-.081-.252-.221-.252s-.259.098-.259.287v.44h-.158v-.856h.15v.126a.359.359 0 01.298-.136.318.318 0 01.298.16.392.392 0 01.333-.16.354.354 0 01.259.11.347.347 0 01.095.263zm1.412-.293l-.578.22.578.224v.133l-.729-.287v-.14l.729-.286v.136zm.599-.575h.14l-.536 1.525h-.144l.54-1.525zm.526.369h-.4v-.14h.943v.14h-.393v.992h-.157l.007-.992zm.725-.139h.164v1.13h-.164v-1.13zm.729.139h-.389v-.14h.939v.14h-.389v.992h-.161v-.992zm.728-.139h.162v.991h.616v.14h-.778v-1.131zm1.791.991v.14h-.827v-1.131h.802v.14h-.641v.349h.571v.136h-.571v.366h.666zm.928-.495v.14l-.728.286v-.133l.578-.224-.578-.22v-.136l.728.287zm-24.221 3.728l-.578.22.578.21v.132l-.729-.286v-.14l.729-.286v.15zm.603-.576h.14l-.536 1.525h-.14l.536-1.525zm1.229.23v1.124h-.164v-.506h-.652v.506h-.165v-1.134h.165v.485h.652v-.485l.164.01zm1.164.992v.132h-.824v-1.134h.803v.14h-.642V58h.572v.136h-.572v.366l.663.01zm.988-.143h-.606l-.123.286h-.168l.515-1.135h.161l.515 1.135h-.168l-.126-.286zm-.056-.13l-.246-.555-.245.555h.491zm.518-.719h.48a.573.573 0 01.616.568.56.56 0 01-.183.417.58.58 0 01-.433.15h-.48V57.52zm.47.992a.428.428 0 00.427-.426.426.426 0 00-.427-.426h-.305v.852h.305zm1.538-.496v.14l-.729.286v-.147l.582-.223-.582-.22v-.136l.729.3zm-9.471 3.216l-.574.22.574.223v.133l-.729-.286v-.14l.73-.287v.137zm1.265.482c0 .195-.147.307-.434.307h-.543v-1.135h.507c.263 0 .41.112.41.293a.264.264 0 01-.154.252.277.277 0 01.214.282zm-.816-.699v.35h.35c.168 0 .263-.063.263-.182s-.095-.182-.263-.182l-.35.014zm.651.681c0-.13-.098-.189-.276-.189h-.375v.377h.375c.171.004.27-.052.27-.184l.006-.004zm.316-.245a.601.601 0 01.356-.574.61.61 0 01.842.423.6.6 0 01-.253.627.607.607 0 01-.34.103.58.58 0 01-.605-.579zm1.05 0a.438.438 0 00-.525-.435.443.443 0 00-.348.345.438.438 0 00.432.526.425.425 0 00.438-.436h.004zm.407-.565h.494a.574.574 0 01.568.34.567.567 0 01-.336.765.571.571 0 01-.232.03h-.48l-.014-1.135zm.47.992a.429.429 0 00.427-.426.425.425 0 00-.427-.426h-.309v.852h.309zm1.258-.252v.395h-.162v-.395l-.452-.74h.176l.35.597.35-.597h.162l-.424.74zm1.282-.244v.14l-.729.286v-.133l.578-.223-.578-.22v-.147l.729.297zm-5.883 3.728l-.574.224.574.22v.136l-.729-.29v-.13l.73-.29v.13zm1.265-.345V65.9h-.161v-.506h-.655v.506h-.162v-1.134h.162v.506h.655v-.489l.161-.017zm.592 0V65.9h-.161v-.977h-.256v-.143l.417-.014zm1.009.506v.136l-.728.29v-.136l.578-.22-.579-.224v-.136l.73.29zm.729-.506h.123v1.03h.637v.104h-.757l-.003-1.134zm.823.708a.431.431 0 01.269-.4.437.437 0 01.473.094.432.432 0 01-.307.738.42.42 0 01-.435-.432zm.754 0a.316.316 0 00-.207-.283.318.318 0 10-.112.614.315.315 0 00.24-.091.305.305 0 00.07-.11.301.301 0 00.019-.13h-.01zm.792-.433v.112h-.028a.276.276 0 00-.288.314v.432h-.115v-.85h.108v.167a.328.328 0 01.323-.175zm.942.468h-.701a.327.327 0 00.033.122.327.327 0 00.191.161.319.319 0 00.127.013.35.35 0 00.262-.112l.064.074a.427.427 0 01-.33.14.425.425 0 11-.031-.848.416.416 0 01.417.415s-.032.02-.032.035zm-.701-.084h.606a.302.302 0 00-.303-.271.304.304 0 00-.303.27zm2.348-.021v.495h-.116v-.481c0-.181-.091-.272-.245-.272a.275.275 0 00-.214.087.27.27 0 00-.07.22v.446h-.115v-.481c0-.181-.092-.272-.249-.272a.275.275 0 00-.274.19.275.275 0 00-.01.117v.446h-.116v-.85h.109v.153a.35.35 0 01.315-.16.303.303 0 01.302.18.375.375 0 01.35-.181.322.322 0 01.333.363zm.711-.624c0-.011.002-.022.007-.032a.073.073 0 01.018-.026.08.08 0 01.059-.022.079.079 0 01.058.02.087.087 0 01.019.026.08.08 0 01.007.03.082.082 0 01-.051.08.082.082 0 01-.092-.018.083.083 0 01-.025-.058zm.028.268h.112v.851h-.112v-.85zm1.304.426a.416.416 0 01-.428.433.382.382 0 01-.326-.168v.475h-.115v-1.166h.112v.168a.372.372 0 01.329-.175.42.42 0 01.309.123.415.415 0 01.119.31zm-.116 0a.317.317 0 00-.206-.283.32.32 0 00-.426.24.321.321 0 00.545.278.313.313 0 00.087-.235zm.245.328l.049-.091c.09.062.196.095.305.094.165 0 .231-.052.231-.136 0-.223-.557-.049-.557-.384 0-.14.123-.244.351-.244a.578.578 0 01.301.08l-.049.091a.444.444 0 00-.252-.073c-.155 0-.225.063-.225.143 0 .23.557.056.557.384 0 .146-.133.24-.35.24a.576.576 0 01-.361-.104zm1.668-.754v.851h-.112v-.157a.353.353 0 01-.423.194.348.348 0 01-.243-.396v-.492h.116v.482c0 .181.094.275.256.275a.28.28 0 00.218-.087.267.267 0 00.061-.104.256.256 0 00.011-.12v-.446h.116zm1.734.356v.495h-.115v-.481c0-.181-.091-.272-.246-.272a.27.27 0 00-.216.086.274.274 0 00-.071.22v.447h-.116v-.481c0-.181-.091-.272-.248-.272a.275.275 0 00-.274.19.274.274 0 00-.01.117v.446h-.116v-.85h.112v.153a.357.357 0 01.316-.16.31.31 0 01.305.18.345.345 0 01.35-.18.323.323 0 01.329.362zm1.503-.704v1.2h-.112v-.168a.364.364 0 01-.329.174.435.435 0 01-.435-.432.435.435 0 01.619-.39.38.38 0 01.142.125v-.51h.115zm-.115.774a.317.317 0 00-.391-.296.316.316 0 00-.101.576.318.318 0 00.176.051.31.31 0 00.33-.331h-.014zm.364 0a.437.437 0 01.268-.4.437.437 0 01.593.315.437.437 0 01-.185.445.434.434 0 01-.241.072.422.422 0 01-.435-.432zm.75 0a.317.317 0 00-.391-.296.318.318 0 00.076.627.311.311 0 00.315-.331zm.354-.774h.115v1.2h-.115v-1.2zm.35.774a.437.437 0 01.268-.4.437.437 0 01.593.315.428.428 0 01-.185.445.434.434 0 01-.241.072.422.422 0 01-.435-.432zm.754 0a.316.316 0 00-.207-.283.32.32 0 00-.426.24.314.314 0 00.021.181.314.314 0 00.293.193.311.311 0 00.315-.331h.004zm.781-.433v.112h-.028a.276.276 0 00-.288.314v.432h-.119v-.85h.109v.167a.325.325 0 01.326-.174zm.525.761l.053-.091a.527.527 0 00.305.094c.161 0 .228-.052.228-.136 0-.223-.554-.049-.554-.384 0-.14.119-.244.35-.244a.59.59 0 01.302.08l-.053.091a.425.425 0 00-.249-.073c-.157 0-.224.063-.224.143 0 .23.554.056.554.384 0 .146-.13.24-.351.24a.578.578 0 01-.361-.104zm.887-1.022a.09.09 0 01.03-.05.089.089 0 01.111 0c.016.012.026.03.03.05a.088.088 0 01-.025.061.09.09 0 01-.062.026.085.085 0 01-.079-.054.075.075 0 01-.005-.033zm.028.268h.115v.851h-.115v-.85zm.886.799a.272.272 0 01-.182.06.227.227 0 01-.184-.064.223.223 0 01-.054-.085c-.011-.032-.015-.066-.011-.099v-.513h-.154v-.098h.154v-.185h.123v.185h.259v.098h-.259v.506a.14.14 0 00.004.061.139.139 0 00.082.088c.02.007.04.01.061.008a.18.18 0 00.068-.01.18.18 0 00.058-.035l.035.083zm1.279-.474v.526h-.108v-.132a.328.328 0 01-.295.14c-.196 0-.315-.102-.315-.248 0-.147.088-.241.333-.241h.27v-.052c0-.143-.081-.224-.242-.224a.425.425 0 00-.284.102l-.053-.088a.546.546 0 01.351-.115.309.309 0 01.252.083.306.306 0 01.091.249zm-.115.272v-.14h-.267c-.168 0-.22.063-.22.15s.08.16.217.16a.273.273 0 00.27-.17zm1.839-.241v.495h-.116v-.481c0-.181-.091-.272-.245-.272a.277.277 0 00-.216.086.261.261 0 00-.06.102.264.264 0 00-.011.119v.446h-.116v-.481c0-.181-.091-.272-.245-.272a.277.277 0 00-.216.086.264.264 0 00-.071.22v.447h-.116v-.85h.112v.153a.353.353 0 01.312-.16.308.308 0 01.305.18.369.369 0 01.35-.18.322.322 0 01.333.362zm1.058.105h-.701a.311.311 0 00.034.122.31.31 0 00.19.161.319.319 0 00.127.013.35.35 0 00.263-.112l.063.074a.416.416 0 01-.33.14.425.425 0 11-.031-.848.415.415 0 01.417.415s-.032.02-.032.035zm-.701-.084h.607a.303.303 0 00-.303-.271.305.305 0 00-.304.27zm1.388.422a.264.264 0 01-.179.06.229.229 0 01-.24-.148.24.24 0 01-.012-.1v-.513h-.151v-.098h.151v-.185h.116v.185h.259v.098h-.259v.506a.127.127 0 00.004.061c.006.02.016.038.031.053a.135.135 0 00.112.043.189.189 0 00.129-.045l.039.083zm.326-.028a.238.238 0 01-.025.094l-.066.223h-.077l.052-.237a.076.076 0 01-.042-.03.075.075 0 01-.014-.05.096.096 0 01.004-.034.1.1 0 01.018-.029.081.081 0 01.029-.019.076.076 0 01.033-.005.083.083 0 01.063.024.084.084 0 01.025.063zm.574-.345a.406.406 0 01.03-.169.42.42 0 01.408-.264.377.377 0 01.351.168l-.088.062a.284.284 0 00-.249-.125.348.348 0 000 .663.285.285 0 00.142-.03.285.285 0 00.107-.096l.088.06a.385.385 0 01-.351.167.42.42 0 01-.438-.436zm.908 0a.428.428 0 01.267-.4.437.437 0 01.593.313.435.435 0 01-.182.445.434.434 0 01-.24.074.426.426 0 01-.438-.432zm.753 0a.317.317 0 00-.39-.296.32.32 0 00-.242.255.315.315 0 00.317.372.308.308 0 00.23-.097.296.296 0 00.067-.108.301.301 0 00.018-.126zm1.142-.07v.495h-.115v-.481a.237.237 0 00-.256-.272.284.284 0 00-.223.083.269.269 0 00-.064.103.26.26 0 00-.014.12v.447h-.116v-.85h.112v.156a.348.348 0 01.326-.164.326.326 0 01.35.363zm.19.398l.052-.091c.09.062.196.094.305.094.161 0 .228-.052.228-.136 0-.223-.554-.049-.554-.384 0-.14.119-.244.351-.244a.6.6 0 01.301.08l-.053.091a.424.424 0 00-.248-.073c-.158 0-.225.063-.225.143 0 .23.554.056.554.384 0 .146-.13.24-.351.24a.578.578 0 01-.36-.104zm1.657-.293h-.701a.312.312 0 00.224.284.316.316 0 00.126.012.35.35 0 00.263-.112l.063.074a.418.418 0 01-.329.14.422.422 0 01-.448-.433.416.416 0 01.833 0s-.031.02-.031.035zm-.701-.084h.606a.302.302 0 00-.303-.271.303.303 0 00-.303.27zm.852.049a.42.42 0 01.441-.433.368.368 0 01.35.168l-.084.059a.29.29 0 00-.248-.126.347.347 0 000 .663.29.29 0 00.248-.125l.084.059a.375.375 0 01-.35.167.426.426 0 01-.316-.12.419.419 0 01-.125-.312zm1.461.373a.276.276 0 01-.183.06.223.223 0 01-.248-.248v-.513h-.155v-.098h.155v-.185h.126v.185h.259v.098h-.259v.506a.127.127 0 00.004.061.139.139 0 00.082.088.14.14 0 00.061.008.183.183 0 00.126-.045l.032.083zm.921-.338h-.701a.327.327 0 00.033.122.327.327 0 00.191.161c.041.013.084.017.127.013a.35.35 0 00.262-.112l.064.074a.416.416 0 01-.33.14.425.425 0 11-.031-.848.415.415 0 01.417.415s-.032.02-.032.035zm-.701-.084h.606a.302.302 0 00-.303-.271.304.304 0 00-.303.27zm1.388.422a.264.264 0 01-.179.06.229.229 0 01-.24-.148.224.224 0 01-.012-.1v-.513h-.151v-.098h.151v-.185h.115v.185h.26v.098h-.26v.506a.14.14 0 00.035.114.142.142 0 00.113.043.172.172 0 00.126-.045l.042.083zm.981-.799v.851h-.112v-.157a.354.354 0 01-.309.164.348.348 0 01-.35-.349v-.491h.116v.481a.24.24 0 00.259.276.278.278 0 00.291-.31v-.447l.105-.018zm1.065.461h-.701a.312.312 0 00.223.284.32.32 0 00.128.012.35.35 0 00.262-.111l.063.073a.452.452 0 01-.753-.459.418.418 0 01.228-.236.409.409 0 01.165-.03.407.407 0 01.413.432l-.028.035zm-.701-.084h.596a.303.303 0 00-.303-.271.302.302 0 00-.303.271h.01zm1.367-.384v.112h-.028a.276.276 0 00-.288.314v.432h-.105v-.85h.112v.167a.322.322 0 01.309-.175zM95.06 67.312v.527h-.108v-.126a.322.322 0 01-.295.14c-.192 0-.312-.098-.312-.248s.085-.24.33-.24h.277v-.053c0-.143-.084-.223-.246-.223a.432.432 0 00-.284.1l-.052-.086a.549.549 0 01.35-.116.306.306 0 01.321.193.304.304 0 01.02.132zm-.115.272v-.14h-.27c-.165 0-.221.063-.221.15 0 .088.08.16.217.16a.274.274 0 00.28-.17h-.006zm1.208-.945v1.2h-.108v-.168a.367.367 0 01-.33.174.435.435 0 01-.434-.432.431.431 0 01.434-.433.373.373 0 01.323.168v-.51h.115zm-.112.774a.317.317 0 00-.398-.276.32.32 0 00-.234.256.316.316 0 00.14.317.32.32 0 00.173.052.313.313 0 00.32-.35zm.407-.694a.083.083 0 01.027-.058.085.085 0 01.06-.022.082.082 0 01.06.022.08.08 0 01.024.058.088.088 0 01-.172 0zm.028.268h.115v.852h-.115v-.852zm1.303.426a.41.41 0 01-.427.433.372.372 0 01-.326-.167v.474h-.112v-1.166h.108v.168a.375.375 0 01.33-.175.416.416 0 01.4.266c.021.053.03.11.027.167zm-.116 0a.316.316 0 00-.217-.27.32.32 0 00-.415.25.316.316 0 00.14.317.319.319 0 00.304.027.316.316 0 00.188-.324zm.323-.694a.081.081 0 01.025-.058.081.081 0 01.059-.022.083.083 0 01.06.022.08.08 0 01.024.058.084.084 0 01-.084.084.084.084 0 01-.084-.084zm.028.268h.115v.852h-.115v-.852zm.316.753l.052-.09a.534.534 0 00.304.098c.162 0 .228-.056.228-.14 0-.223-.553-.049-.553-.383 0-.14.122-.245.35-.245a.577.577 0 01.301.08l-.049.091a.442.442 0 00-.252-.073c-.154 0-.224.063-.224.143 0 .23.553.056.553.384 0 .146-.13.24-.35.24a.58.58 0 01-.36-.104zm.826-.327a.417.417 0 01.27-.406.423.423 0 01.171-.027.38.38 0 01.35.168l-.087.06a.291.291 0 00-.248-.126.35.35 0 00-.175.536.35.35 0 00.175.126.292.292 0 00.248-.125l.088.06a.378.378 0 01-.35.167.423.423 0 01-.412-.264.416.416 0 01-.03-.169zm.974-.694a.07.07 0 01.007-.032.073.073 0 01.018-.026.082.082 0 01.027-.017.082.082 0 01.032-.005.086.086 0 01.061.022.09.09 0 01.027.058.086.086 0 01-.031.05.086.086 0 01-.055.02.09.09 0 01-.056-.02.09.09 0 01-.03-.05zm.028.268h.116v.852h-.116v-.852zm1.223.356v.496h-.123v-.475a.235.235 0 00-.255-.272.28.28 0 00-.302.307v.447h-.115v-.852h.112v.157a.351.351 0 01.326-.164.326.326 0 01.357.356zm1.107-.356v.747a.376.376 0 01-.105.321.378.378 0 01-.322.105.606.606 0 01-.4-.129l.06-.087a.52.52 0 00.35.115c.217 0 .316-.098.316-.31v-.109a.389.389 0 01-.333.168.42.42 0 01-.42-.246.42.42 0 01.1-.475.42.42 0 01.32-.107.38.38 0 01.35.171v-.164h.084zm-.112.405a.323.323 0 00-.191-.31.326.326 0 00-.437.417.323.323 0 00.302.204.306.306 0 00.326-.31zm1.605.056h-.701a.311.311 0 00.223.285.314.314 0 00.127.011.353.353 0 00.26-.111l.066.073a.45.45 0 01-.486.11.453.453 0 01-.292-.403.406.406 0 01.114-.307.407.407 0 01.303-.126.407.407 0 01.414.433l-.028.035zm-.701-.084h.606a.302.302 0 00-.303-.27.306.306 0 00-.303.27zm.935-.725h.116v1.2h-.116v-1.2zm.41.08a.114.114 0 01.008-.032.078.078 0 01.02-.026.082.082 0 01.06-.022.084.084 0 01.093.118.085.085 0 01-.093.046.09.09 0 01-.061-.025.089.089 0 01-.027-.06zm.028.268h.109v.852h-.116l.007-.852zm.887.8a.264.264 0 01-.179.059.226.226 0 01-.185-.064.224.224 0 01-.067-.184v-.513h-.151v-.097h.154v-.185h.116v.184h.259v.098h-.259v.506a.14.14 0 00.004.062.138.138 0 00.143.095.178.178 0 00.126-.045l.039.084zm.326-.029a.239.239 0 01-.025.094l-.066.223h-.081l.056-.237a.078.078 0 01-.045-.029.072.072 0 01-.014-.05.078.078 0 01.024-.064.083.083 0 01.063-.024.088.088 0 01.088.087zm.55-.017l.052-.09a.523.523 0 00.305.097c.161 0 .228-.056.228-.14 0-.223-.554-.048-.554-.383 0-.14.119-.244.351-.244a.586.586 0 01.304.08l-.052.09a.437.437 0 00-.252-.073c-.154 0-.221.063-.221.143 0 .23.554.056.554.384 0 .146-.13.24-.351.24a.575.575 0 01-.364-.104zm1.657-.293h-.701a.327.327 0 00.033.123.327.327 0 00.191.16.32.32 0 00.127.014.35.35 0 00.262-.112l.064.073a.426.426 0 01-.33.14.425.425 0 11-.031-.848.416.416 0 01.417.415s-.032.021-.032.035zm-.701-.084h.606a.302.302 0 00-.303-.27.304.304 0 00-.303.27zm1.717-.725v1.2h-.123v-.168a.368.368 0 01-.35.174.435.435 0 01-.434-.432.435.435 0 01.619-.391c.057.03.106.072.141.126v-.51h.147zm-.112.774a.32.32 0 00-.217-.27.32.32 0 00-.415.25.314.314 0 00.14.317.316.316 0 00.301.024.311.311 0 00.18-.321h.011zm1.64-.774v1.2h-.112v-.168a.372.372 0 01-.33.174.436.436 0 01-.434-.432.433.433 0 01.619-.39.38.38 0 01.141.125v-.51h.116zm-.116.774a.314.314 0 00-.069-.167.32.32 0 00-.563.15.315.315 0 00.142.315.31.31 0 00.175.05.311.311 0 00.315-.348zm.41-.694a.07.07 0 01.007-.032.073.073 0 01.018-.026.082.082 0 01.027-.017.082.082 0 01.032-.005.083.083 0 01.078.052.082.082 0 01.004.049.081.081 0 01-.024.043.082.082 0 01-.044.022.081.081 0 01-.048-.006.076.076 0 01-.037-.033.08.08 0 01-.013-.047zm.025.268h.133v.852h-.116l-.017-.852zm1.082.325v.527h-.112v-.126a.312.312 0 01-.291.14c-.196 0-.315-.098-.315-.248s.088-.24.333-.24h.27v-.053c0-.143-.084-.223-.242-.223a.426.426 0 00-.284.1l-.052-.086a.536.536 0 01.35-.116.307.307 0 01.324.193.299.299 0 01.019.132zm-.115.272v-.14h-.267c-.168 0-.22.063-.22.15 0 .088.08.16.217.16a.271.271 0 00.27-.17zm1.839-.241v.496h-.116v-.475c0-.181-.091-.272-.245-.272a.278.278 0 00-.216.086.273.273 0 00-.071.221v.447h-.116v-.482c0-.181-.091-.272-.245-.272a.278.278 0 00-.216.086.264.264 0 00-.071.22v.448h-.116v-.852h.112v.154a.349.349 0 01.312-.16.307.307 0 01.305.18.376.376 0 01.35-.18.325.325 0 01.319.22.33.33 0 01.014.135zm.988-.293l-.578.224.578.22v.136l-.729-.286v-.14l.729-.286v.132zm.599-.575h.14L114.923 68h-.14l.546-1.525zm1.23.23v1.134h-.164v-.506h-.652v.506h-.161v-1.134h.161v.489h.652v-.49h.164zm.599 0v1.134h-.161v-.991h-.256v-.143h.417zm1.006.499v.14l-.725.286v-.136l.578-.22-.578-.224v-.132l.725.286zm-23.076 3.725l-.574.223.574.22v.137l-.729-.287v-.14l.73-.286v.133zm1.199.052c0 .245-.18.395-.474.395h-.283v.349h-.162V70.59h.446c.294-.007.473.144.473.391zm-.162 0c0-.164-.112-.254-.319-.254h-.276v.506h.276c.197 0 .32-.091.32-.252zm1.083.101v.14l-.729.287v-.137l.578-.22-.578-.223v-.133l.729.286zm1.38-.153l-.578.223.578.22v.137l-.728-.287v-.14l.728-.286v.133zm.277-.346h.165v1.135h-.165v-1.135zm1.559 1.135v-.824l-.413.698h-.074l-.41-.698v.82h-.157V70.58h.136l.477.8.466-.8h.133v1.135l-.158.003zm1.286-.573h.154v.444a.672.672 0 01-.431.143.583.583 0 01-.554-.54.58.58 0 01.757-.59.577.577 0 01.239.145l-.102.102a.446.446 0 00-.329-.133.44.44 0 00-.438.436.436.436 0 00.438.437.486.486 0 00.266-.074v-.37zm.796.444l.059-.126a.587.587 0 00.379.13c.196 0 .28-.074.28-.175 0-.276-.701-.102-.701-.524 0-.175.137-.321.438-.321a.702.702 0 01.35.098l-.052.132a.578.578 0 00-.312-.094c-.196 0-.277.08-.277.182 0 .275.701.1.701.52 0 .17-.14.32-.438.32a.7.7 0 01-.427-.142zm1.874.129l-.245-.35h-.351v.35h-.161v-1.135h.438c.298 0 .477.15.477.398a.348.348 0 01-.252.35l.269.38-.175.007zm0-.737c0-.164-.109-.254-.315-.254h-.277v.51h.273c.203 0 .312-.095.312-.256h.007zm.326.171a.603.603 0 01.39-.552.61.61 0 01.661.148l-.105.1a.441.441 0 00-.322-.132.438.438 0 00-.438.436.436.436 0 00.438.437.437.437 0 00.322-.136l.105.1a.605.605 0 01-1.051-.4zm1.205-.258h.729v.129h-.729v-.13zm0 .383h.729v.129h-.729v-.13zm1.374-.694h.136v.44h-.115l-.021-.44zm.294 0h.137v.44h-.116l-.021-.44zm.41 0h.165v.995h.613v.14h-.778v-1.135zm.851.705a.445.445 0 01.272-.417.451.451 0 01.616.32.441.441 0 01-.189.46.451.451 0 01-.25.077.432.432 0 01-.321-.122.424.424 0 01-.128-.318zm.74 0a.288.288 0 00-.189-.257.293.293 0 00-.312.071.284.284 0 00-.057.314.29.29 0 00.267.176.286.286 0 00.275-.188.287.287 0 00.016-.116zm.834-.436v.15h-.046a.257.257 0 00-.205.08.248.248 0 00-.057.098.25.25 0 00-.011.112v.425h-.154v-.865h.15v.147a.326.326 0 01.323-.147zm.96.488h-.701a.296.296 0 00.312.251.322.322 0 00.248-.104l.088.101a.474.474 0 01-.499.109.468.468 0 01-.282-.585.417.417 0 01.234-.255.433.433 0 01.582.255.436.436 0 01.021.176l-.003.052zm-.701-.111h.553a.279.279 0 00-.458-.169.275.275 0 00-.095.169zm2.347-.004v.492h-.154v-.474c0-.171-.084-.251-.224-.251a.247.247 0 00-.197.08.247.247 0 00-.062.202v.443h-.155v-.474c0-.171-.08-.251-.224-.251a.25.25 0 00-.259.282v.443h-.154v-.865h.15v.13a.352.352 0 01.298-.137.321.321 0 01.298.157.393.393 0 01.329-.157.334.334 0 01.271.104.322.322 0 01.083.276zm.698-.631a.09.09 0 01.008-.04.095.095 0 01.023-.033.09.09 0 01.034-.022.098.098 0 01.04-.006.1.1 0 01.074.026c.01.009.017.02.023.032a.103.103 0 01-.023.113.105.105 0 01-.179-.074v.004zm.024.265h.158v.858h-.158v-.858zm1.346.429a.422.422 0 01-.264.411.418.418 0 01-.171.03.377.377 0 01-.301-.14v.443h-.154v-1.18h.147v.136a.367.367 0 01.308-.143.42.42 0 01.41.272c.02.054.029.113.025.171zm-.158 0a.288.288 0 00-.189-.257.292.292 0 00-.388.22.293.293 0 00.126.293.293.293 0 00.274.025.287.287 0 00.155-.166.279.279 0 00.015-.115h.007zm.266.338l.063-.122c.09.058.195.088.302.088.147 0 .206-.042.206-.116 0-.191-.543-.024-.543-.348 0-.154.137-.259.351-.259a.64.64 0 01.315.077l-.067.122a.466.466 0 00-.248-.066c-.137 0-.204.049-.204.119 0 .202.543.035.543.37 0 .156-.14.254-.371.254a.62.62 0 01-.347-.119zm1.724-.774v.858h-.147v-.129a.353.353 0 01-.294.14.353.353 0 01-.348-.228.342.342 0 01-.02-.146v-.495h.154v.478c0 .167.084.251.231.251a.256.256 0 00.27-.286v-.443h.154zm1.727.373v.492h-.157v-.474c0-.171-.081-.251-.221-.251a.247.247 0 00-.197.08.247.247 0 00-.062.202v.443h-.158v-.474c0-.171-.081-.251-.221-.251a.25.25 0 00-.259.282v.443h-.154v-.865h.158v.13a.348.348 0 01.297-.137.327.327 0 01.302.157.382.382 0 01.329-.157.333.333 0 01.263.108.324.324 0 01.08.272zm.239-.642h.136v.44h-.115l-.021-.44zm.294 0h.137v.44h-.116l-.021-.44zm1.076.499v.14l-.729.287v-.137l.581-.22-.581-.223v-.133l.729.286zm.946-.153l-.579.223.579.22v.137l-.729-.287v-.14l.729-.286v.133zm.599-.572h.14l-.536 1.521h-.14l.536-1.521zm1.181.624c0 .245-.179.395-.477.395h-.28v.349h-.161V70.59h.441c.287-.007.477.144.477.391zm-.165 0c0-.164-.109-.254-.315-.254h-.277v.506h.277c.196 0 .304-.091.304-.252h.011zm1.072.101v.14l-.725.287v-.137l.578-.22-.578-.223v-.133l.725.286zm-28.801 3.725l-.574.224.574.22v.136l-.729-.286v-.14l.73-.286v.132zm.599-.572h.144l-.53 1.525h-.14l.526-1.525zm1.23 1.058c0 .192-.147.303-.434.303h-.543v-1.13h.511c.26 0 .407.108.407.29a.294.294 0 00.06.537zm-.816-.698v.349h.35c.168 0 .263-.063.263-.182s-.095-.181-.263-.181l-.35.014zm.651.698c0-.133-.094-.189-.276-.189H96.1v.377h.375c.182-.014.276-.073.276-.202v.014zm.323-.256a.601.601 0 01.356-.574.61.61 0 01.842.423.6.6 0 01-.253.627.607.607 0 01-.339.103.58.58 0 01-.606-.579zm1.05 0a.438.438 0 00-.525-.435.443.443 0 00-.348.345.438.438 0 00.433.526.428.428 0 00.437-.436h.004zm.407-.572h.48a.569.569 0 01.568.566.564.564 0 01-.568.565h-.48v-1.13zm.47.992a.429.429 0 00.427-.426.425.425 0 00-.427-.426h-.308v.852h.308zm1.258-.251v.39h-.161v-.394l-.453-.737h.176l.35.597.35-.597h.162l-.424.74zm1.282-.246v.14l-.729.287v-.136l.578-.22-.578-.224v-.118l.729.272z" fill="#000"/><path d="M138.801 44.501c0 .05-11.244.091-25.111.091-13.868 0-25.115-.042-25.115-.09 0-.05 11.24-.092 25.115-.092 13.874 0 25.111.042 25.111.091zm-48.723-1.785a.32.32 0 01-.2.296.324.324 0 01-.439-.234.32.32 0 01.137-.33.323.323 0 01.502.268zm.918.321a.322.322 0 100-.644.322.322 0 000 .644zm1.566-.321a.323.323 0 01-.2.302.327.327 0 01-.446-.236.323.323 0 01.324-.387.324.324 0 01.322.32z" fill="#263238"/><path d="M91.763 82.317c-.049 0-.09-8.486-.09-18.953 0-10.468.041-18.953.09-18.953.05 0 .091 8.485.091 18.953 0 10.467-.038 18.953-.09 18.953z" fill="#E0E0E0"/><path d="M42.185 7.676h-20.76V22.41h20.76V7.676z" fill="#FEC830"/><path d="M42.35 9.86c0 .053-4.688.091-10.466.091s-10.466-.038-10.466-.09c0-.053 4.685-.092 10.466-.092s10.466.046 10.466.091zM23.125 8.785a.282.282 0 01-.313.32.284.284 0 01-.234-.382.283.283 0 01.266-.182.264.264 0 01.28.244zm1.012 0a.256.256 0 01-.175.23.26.26 0 01-.101.013.25.25 0 01-.268-.14.247.247 0 01.268-.347.26.26 0 01.251.145c.015.03.024.064.025.099zm.74.245c.154 0 .28-.11.28-.245s-.126-.244-.28-.244c-.155 0-.28.11-.28.244 0 .135.125.245.28.245z" fill="#fff"/><path d="M153.075 64.012h-18.766V77.33h18.766V64.012z" fill="#FEC830"/><path d="M153.222 65.99c0 .031-4.236.06-9.46.06-5.224 0-9.46-.029-9.46-.06 0-.031 4.233-.06 9.46-.06 5.228 0 9.46.039 9.46.06zm-17.382-.974a.25.25 0 01-.132.259.257.257 0 01-.369-.162.25.25 0 01.103-.271.257.257 0 01.146-.045.237.237 0 01.252.22zm.922 0a.251.251 0 01-.026.15.257.257 0 01-.476-.053.257.257 0 01.249-.316.24.24 0 01.253.22zm.935 0a.25.25 0 01-.132.259.257.257 0 01-.369-.162.25.25 0 01.103-.271.257.257 0 01.146-.045.237.237 0 01.252.22z" fill="#fff"/><path d="M25.3 63.82H11.465v9.819h13.837V63.82z" fill="#FEC830"/><path d="M25.406 65.272c0 .024-3.122.041-6.973.041-3.85 0-6.976 0-6.976-.041 0-.043 3.122-.046 6.976-.046s6.973.046 6.973.046zm-12.814-.699a.187.187 0 01-.096.193.19.19 0 01-.215-.023.188.188 0 01-.053-.208.188.188 0 01.179-.122.174.174 0 01.186.16zm.68.001a.172.172 0 01-.058.12.175.175 0 01-.128.043.166.166 0 01-.173-.093.164.164 0 01.173-.23.176.176 0 01.186.16zm.68-.001a.187.187 0 01-.096.193.19.19 0 01-.215-.023.188.188 0 01.017-.297.19.19 0 01.108-.033.176.176 0 01.186.16z" fill="#fff"/><path d="M111.815 32.698v-4.046c0-2.577-.024-6.278-.038-10.812l.07.073-23.083.018.091-.091v14.844l-.084-.084 16.608.039 4.765.024h1.601a.698.698 0 01.112 0h-1.678l-4.744.025-16.664.042h-.126V17.71h.094l23.083.017h.074v.073c0 4.535-.028 8.253-.039 10.844 0 1.28 0 2.281-.017 2.968v.775c0 .181-.025.31-.025.31z" fill="#FEC830"/><path d="M111.815 20.055c0 .052-5.168.094-11.545.094s-11.562-.042-11.562-.094c0-.053 5.168-.091 11.562-.091 6.395 0 11.545.042 11.545.09zm-21.38-1.081a.282.282 0 01-.316.315.283.283 0 01-.23-.382.283.283 0 01.266-.181.266.266 0 01.28.248zm1.013 0a.282.282 0 01-.316.315.283.283 0 01-.23-.382.283.283 0 01.266-.181.266.266 0 01.28.248zm1.051 0a.282.282 0 01-.316.315.283.283 0 01-.23-.382.283.283 0 01.266-.181.266.266 0 01.28.248z" fill="#FEC830"/><path d="M45.135 83.408l9.173 30.77a3.216 3.216 0 001.165 1.663 3.24 3.24 0 001.932.639l37.14.101a3.441 3.441 0 002.496-1.062 3.404 3.404 0 00-.125-4.833 3.44 3.44 0 00-2.364-.937H80.334L68.96 78.201H49.053a4.1 4.1 0 00-3.266 1.629 4.057 4.057 0 00-.652 3.578z" fill="#455A64"/><path d="M76.557 112.274c0 .069-3.788.128-8.455.128s-8.458-.059-8.458-.128c0-.07 3.784-.133 8.458-.133s8.455.059 8.455.133zM47.868 79.177c.067-.02 2.596 7.325 5.648 16.446 3.052 9.121 5.47 16.508 5.4 16.532-.07.025-2.597-7.342-5.648-16.448-3.052-9.107-5.47-16.505-5.4-16.53z" fill="#263238"/><path d="M75.012 143.811l-2.264-.056V116.48h2.264v27.331z" fill="#455A64"/><path d="M63.348 143.686h21.068l-9.544-3.303h-2.264l-9.26 3.303z" fill="#455A64"/><path d="M58.019 71.148l3.486 17.339-.624 12.992L84.314 97.6l-.925-11.38-.017-9.418 5.746 11.085 4.47-8.601L85.4 64.514a13.804 13.804 0 00-5.357-3.456 11.14 11.14 0 00-3.36-.638c-2.64.83-5.472.83-8.111 0-.33.042-.785.083-1.363.153h-.105a10.38 10.38 0 00-6.29 3.217 10.293 10.293 0 00-2.753 6.483l-.042.875z" fill="#FEC830"/><path d="M67.212 60.584s-9.624.073-10.82 10.195l-.16 7.422 8.293-.073 2.687-17.544z" fill="#FEC830"/><path d="M90.215 73.604c0 .073-7.576.129-16.92.129-9.345 0-16.92-.056-16.92-.13 0-.072 7.575-.128 16.92-.128 9.344 0 16.92.059 16.92.129zm0 1.604c0 .073-7.576.132-16.92.132-9.345 0-16.92-.059-16.92-.132 0-.073 7.575-.129 16.92-.129 9.344 0 16.92.06 16.92.129zm-.54-2.933c0 .073-7.456.129-16.65.129-9.194 0-16.65-.056-16.65-.13 0-.072 7.453-.128 16.65-.128s16.65.056 16.65.129z" fill="#FAFAFA"/><path d="M83.253 87.89c-.074 0-.043-4.102.07-9.162.112-5.061.262-9.16.35-9.156.088.003.038 4.102-.074 9.162-.112 5.061-.273 9.16-.346 9.156z" fill="#263238"/><path d="M79.959 81.239s4.555.324 5.375 1.52c.82 1.197 2.07 4.618 1.597 4.643a1.308 1.308 0 01-.82-.258l-1.247-2.201s.2 2.127-.546 2.17c-.747.041-4.433.777-4.433.777l.074-6.651z" fill="#FFBE9D"/><path d="M56.235 76.223l-.017 11.688a4.42 4.42 0 001.749 3.293 4.466 4.466 0 003.653.805l18.364-3.763-.039-7.495-15.826 3.027-.21-7.935-7.674.38z" fill="#FEC830"/><path d="M66.711 91.082c.078-.031.16-.053.242-.067l.7-.16 2.699-.569 9.558-1.946-.091.115v-7.698l.154.126-3.24.61-12.614 2.393-.137.025v-.136l.29-8.427c.043-1.001.074-1.79.099-2.355 0-.258.028-.46.035-.62 0-.07.008-.141.024-.21.007.071.007.142 0 .213v.621c0 .565-.024 1.357-.038 2.354-.05 2.051-.116 4.95-.196 8.427l-.133-.112 12.613-2.441 3.245-.607.154-.028v7.952l-.095.018-9.576 1.852-2.712.506-.7.122c-.092.025-.186.04-.28.042zm10.533-30.498s.035.055.073.17c.063.168.11.341.144.517a4.236 4.236 0 01-.084 1.967 5.175 5.175 0 01-1.594 2.442 4.964 4.964 0 01-3.343 1.255 4.55 4.55 0 01-3.304-1.336 4.616 4.616 0 01-1.23-2.647c-.08-.66 0-1.33.231-1.953.063-.17.141-.332.235-.485.063-.105.102-.157.109-.15.007.007-.112.23-.249.666a4.412 4.412 0 00-.144 1.901c.134.94.56 1.815 1.22 2.5a4.346 4.346 0 003.132 1.246c1.17.01 2.303-.41 3.181-1.179a5.078 5.078 0 001.577-2.32c.192-.613.247-1.26.161-1.897-.06-.446-.14-.69-.115-.697z" fill="#263238"/><path d="M78.134 88.863a5.427 5.427 0 010-1.15c.028-.698.063-1.689.07-2.791a49.49 49.49 0 00-.039-2.77 5.97 5.97 0 010-1.154c.107.373.165.757.175 1.144a28.3 28.3 0 01.112 2.79 30.015 30.015 0 01-.143 2.79c-.009.387-.068.77-.175 1.141zm-.95.192a5.144 5.144 0 01-.035-1.144c0-.806.017-1.744.032-2.755.014-1.012 0-1.947 0-2.752a5.164 5.164 0 01.045-1.144c.093.372.14.754.14 1.137.046.697.084 1.681.077 2.762a39.674 39.674 0 01-.105 2.76 4.806 4.806 0 01-.154 1.136z" fill="#FAFAFA"/><path d="M95.572 135.493l3.468 9.514 4.927 6.739a1.034 1.034 0 01.175.807 1.05 1.05 0 01-.466.682 1.055 1.055 0 01-.95.081c-1.986-.82-9.274-3.875-9.488-4.587-.249-.82-4.958-11.053-4.958-11.053l7.292-2.183z" fill="#FEC830"/><path opacity=".6" d="M103.676 153.235l-10.687-5.141.155.401c.131.342.38.628.7.806.88.471 3.329 1.72 8.84 4.025a1.056 1.056 0 00.978-.091h.014zm-9.933-8.936a.629.629 0 01.459.699.603.603 0 01-.701.457.664.664 0 01-.484-.744.623.623 0 01.775-.398" fill="#fff"/><path d="M99.899 149.954c.066 0 .084-.572.546-1.047.463-.474 1.02-.569 1.01-.631-.011-.063-.151-.053-.386 0a1.589 1.589 0 00-.788.478 1.637 1.637 0 00-.414.823c-.031.23.007.377.032.377zm1.17 1c.06.021.245-.401.68-.732.434-.332.886-.412.879-.478-.007-.066-.525-.08-1.016.303-.49.384-.602.9-.543.907zm-3.059-2.134c.063.028.35-.628.974-1.2s1.3-.806 1.279-.869c-.021-.062-.76.084-1.43.698-.668.614-.879 1.361-.823 1.371zm-1.307-2.804c.046.046.484-.373 1.157-.663.672-.29 1.275-.349 1.272-.401-.004-.053-.645-.122-1.363.199-.719.321-1.104.834-1.066.865zm-1.079-2.766c.05.042.452-.478 1.184-.722.733-.244 1.367-.108 1.381-.175.014-.066-.144-.104-.41-.143a2.248 2.248 0 00-1.051.108 2.21 2.21 0 00-.883.562c-.175.199-.245.353-.22.37zm.964-1.245a.924.924 0 00-.126-.349 2.728 2.728 0 00-.652-.827 1.199 1.199 0 00-.68-.349.426.426 0 00-.406.255.695.695 0 000 .485 1.473 1.473 0 001.7.799 1.704 1.704 0 001.236-1.437.6.6 0 00-.15-.468.41.41 0 00-.48-.045 1.433 1.433 0 00-.498.565 2.97 2.97 0 00-.35.984.857.857 0 000 .383 4.55 4.55 0 01.51-1.283 1.36 1.36 0 01.45-.485.218.218 0 01.26.024.407.407 0 01.083.314 1.521 1.521 0 01-1.09 1.232c-.28.069-.576.042-.84-.077a1.28 1.28 0 01-.61-.579.48.48 0 01-.025-.349.228.228 0 01.22-.147c.218.032.42.13.579.279.35.306.644.669.869 1.075z" fill="#263238"/><path d="M110.221 133.006l-.298 7.732s7.792 2.899 7.876 4.336l-15.066-.042-.028-12.068 7.516.042z" fill="#FEC830"/><path opacity=".6" d="M105.26 140.076a.614.614 0 00-.428.698.596.596 0 00.701.429.651.651 0 00.448-.743.619.619 0 00-.77-.367m-2.492 4.939v-1.203l14.492.481s.669.293.592.764l-15.084-.042z" fill="#fff"/><path d="M110.168 140.662c0 .073-.371.104-.735.349-.365.244-.558.54-.624.513-.067-.028.042-.454.487-.73.445-.275.886-.185.872-.132zm1.581.645c0 .07-.305.195-.554.506-.249.311-.326.635-.4.632-.073-.004-.119-.419.2-.796.319-.377.75-.402.754-.342zm.889 1.897c-.066.018-.168-.349.025-.753.193-.405.533-.558.564-.495.032.062-.182.272-.35.603-.168.331-.165.638-.239.645zm-2.599-4.311c-.032.066-.368-.035-.785 0-.417.035-.743.157-.778.094-.035-.063.273-.324.764-.348.49-.025.834.195.799.254z" fill="#263238"/><path opacity=".3" d="M110.161 134.537l-.052 1.378-7.411-.088-.007-1.241 7.47-.049z" fill="#000"/><path d="M110.07 137.331a1.41 1.41 0 01-.757 0 3.616 3.616 0 01-.788-.244 4.346 4.346 0 01-.431-.231.873.873 0 01-.228-.178.316.316 0 01-.035-.39.407.407 0 01.323-.168c.096.001.191.014.283.039.435.108.835.322 1.167.621.351.324.466.596.442.61-.025.014-.204-.206-.561-.471a2.874 2.874 0 00-1.104-.516c-.161-.042-.294-.042-.35.028-.056.07-.017.038 0 .084.05.05.107.093.168.129a4.06 4.06 0 001.128.509c.252.043.5.102.743.178z" fill="#263238"/><path d="M109.976 137.436a1.185 1.185 0 01-.2-.726 2.494 2.494 0 01.105-.823c.051-.158.117-.311.196-.457a.62.62 0 01.48-.377.354.354 0 01.316.209c.038.088.064.181.077.276.026.168.026.338 0 .506a1.738 1.738 0 01-.326.778c-.294.387-.603.475-.61.45-.007-.024.235-.178.459-.551.131-.212.214-.45.242-.698a1.517 1.517 0 000-.436c-.021-.161-.081-.29-.14-.272a.562.562 0 00-.267.244 2.793 2.793 0 00-.189.408 2.711 2.711 0 00-.147.75c-.035.433.046.709.004.719z" fill="#263238"/><path d="M102.705 95.94c-8.91.918-20.717 2.117-20.717 2.117l1.611 14.437s17.354-4.566 17.228-4.186c-.126.38.806 30.714.806 30.714h10.448l.197-34.366a8.599 8.599 0 00-.71-3.55 8.645 8.645 0 00-2.109-2.948 8.69 8.69 0 00-6.754-2.218z" fill="#263238"/><path d="M60.667 101.765v4.475c0 3.048 3.487 6.278 6.545 6.278h2.369c1.864 0 4.786-1.35 6.307-2.442l.904-.659 10.882 33.557s12.449-2.222 12.449-2.612c0-.391-8.43-27.485-12.323-40.062-1.59-5.134-7.116-8.12-12.22-6.376a10.6 10.6 0 00-.523.192c-5.592 2.218-14.39 7.649-14.39 7.649z" fill="#263238"/><path d="M100.109 140.358a.6.6 0 01-.053-.122c-.038-.094-.084-.213-.14-.349-.115-.317-.287-.784-.49-1.395-.42-1.214-.992-2.978-1.686-5.165-1.401-4.374-3.251-10.429-5.276-17.129a7012.678 7012.678 0 00-2.842-9.449c-.43-1.451-.844-2.832-1.23-4.126-.192-.645-.381-1.27-.56-1.87a16.355 16.355 0 00-.568-1.695 6.975 6.975 0 00-1.752-2.48 14.64 14.64 0 00-1.843-1.426c-.532-.349-.956-.62-1.247-.795a9.469 9.469 0 01-.326-.203.55.55 0 01-.108-.076c.043.012.084.03.122.052l.35.181c.299.16.733.412 1.276.757a13.89 13.89 0 011.885 1.395 7.07 7.07 0 011.829 2.515c.228.559.424 1.129.589 1.709.185.6.374 1.224.574 1.866l1.255 4.119c.879 2.906 1.846 6.094 2.862 9.446 2.029 6.686 3.854 12.741 5.2 17.146l1.576 5.19.449 1.395c.045.146.08.268.112.366.032.098.049.14.042.143zm2.628-36.371c.063.045-.529.931-1.023 2.134-.494 1.204-.718 2.239-.796 2.226-.077-.014.035-1.092.554-2.327.519-1.235 1.212-2.089 1.265-2.033zm1.997 1.395c.028.073-.869.464-1.804 1.204-.936.739-1.539 1.507-1.602 1.461-.063-.045.463-.907 1.44-1.667.978-.761 1.949-1.075 1.966-.998zm-16.958 37.589c-.067.02-3.006-8.961-6.563-20.056-3.556-11.095-6.387-20.114-6.306-20.135.08-.021 3.006 8.957 6.566 20.055 3.56 11.098 6.373 20.111 6.303 20.136zm-13.353-52.35l35.616.342 6.643-18.688-25.907.174-6.012 16.805-10.34.153v1.214z" fill="#455A64"/><path d="M101.426 83.227a1.446 1.446 0 01-1.197-1.063 1.43 1.43 0 01.529-1.508 1.452 1.452 0 011.603-.09 1.44 1.44 0 01.695 1.44 1.447 1.447 0 01-.56.947 1.448 1.448 0 01-1.07.274z" fill="#fff"/><path d="M71.519 40.037c.35-1.242 1.275-1.856 2.498-2.27a4.05 4.05 0 013.679.595c.7.52 1.23 1.28 2.046 1.563 1.345.464 2.922-.537 4.204.063a1.824 1.824 0 01.319 3.128c-.342.254-.762.38-1.188.36.876.317 1.15 1.566.638 2.344-.511.777-1.566 1.07-2.488.9a5.18 5.18 0 01-2.414-1.347c-.7-.624-1.317-1.325-2.06-1.89a4.033 4.033 0 00-2.579-.945c-1.261.07-2.347 1.018-2.911 2.145-.564 1.126-.701 2.417-.764 3.676-.063 1.259-.091 2.535-.466 3.739-.046.143-.112.3-.252.349-.207.062-.382-.154-.484-.35a18.393 18.393 0 01-2.12-6.874c-.143-1.395-.105-2.713.662-3.885.768-1.172 2.716-2.037 3.672-1.298" fill="#263238"/><path d="M69.073 45.876l-.645 14.112c-.112 2.4.22 5.946 4.04 5.946 3.315-.247 4.292-3.33 4.394-5.58.045-1.064.087-1.95.101-2.058 0 0 3.623-.174 4.047-3.718.207-1.713.35-5.274.42-8.497a6.626 6.626 0 00-1.649-4.546 6.684 6.684 0 00-4.307-2.23l-.35-.035c-3.739-.157-5.977 2.888-6.051 6.606z" fill="#FFBE9D"/><path d="M76.974 58.258a8.355 8.355 0 01-4.506-1.807s.823 2.669 4.415 2.728l.09-.921z" fill="#EB996E"/><path d="M80.138 48.36a.502.502 0 01-.543.456.49.49 0 01-.45-.321.483.483 0 01-.027-.192.502.502 0 01.543-.457.489.489 0 01.477.513zm.34-.608c-.07.06-.424-.265-.971-.32-.547-.057-.981.17-1.034.097-.052-.073.053-.143.242-.251.254-.14.546-.197.834-.164.285.033.553.155.764.349.158.136.2.261.165.29zm-5.732.223a.505.505 0 01-.547.457.486.486 0 01-.473-.513.502.502 0 01.543-.457.49.49 0 01.477.513zm.336-.693c-.07.062-.424-.266-.97-.322-.547-.056-.982.175-1.052.102-.07-.074.053-.147.242-.255a1.396 1.396 0 011.598.188c.171.14.217.262.182.287zm1.556 4.254c.298-.058.603-.079.907-.063.144 0 .277 0 .312-.108a.733.733 0 00-.05-.422l-.3-1.102c-.414-1.573-.701-2.857-.631-2.874.07-.017.448 1.245.862 2.815l.283 1.109a.83.83 0 010 .555.349.349 0 01-.252.177.96.96 0 01-.242 0 3.507 3.507 0 01-.89-.087zm-1.658.209c.088 0 .028.597.49 1.068.463.47 1.104.478 1.1.562-.003.083-.153.097-.42.076a1.478 1.478 0 01-.921-.432 1.277 1.277 0 01-.375-.893c.01-.252.091-.391.126-.38zm.473-6.585c-.07.144-.61 0-1.261.025-.652.024-1.188.13-1.258 0-.031-.07.074-.199.298-.321.298-.147.627-.224.96-.223.333-.004.661.07.96.216.224.108.333.237.301.304zm4.993.992c-.108.115-.473-.053-.925-.108-.452-.056-.848 0-.921-.144-.032-.07.042-.185.22-.286.24-.119.51-.161.775-.122.261.035.506.15.7.328.162.143.2.269.151.332z" fill="#263238"/><path d="M69.083 48.53c-.06-.032-2.372-.98-2.554 1.454-.182 2.435 2.313 2.114 2.32 2.044.007-.07.234-3.498.234-3.498z" fill="#FFBE9D"/><path d="M68.172 51.056s-.045.024-.119.052a.412.412 0 01-.319 0 1.048 1.048 0 01-.416-.977c.007-.209.064-.413.164-.597a.485.485 0 01.35-.303.214.214 0 01.242.136c.028.07 0 .115.021.122.021.007.056-.038.046-.14a.276.276 0 00-.088-.16.309.309 0 00-.231-.077.594.594 0 00-.473.349 1.472 1.472 0 00-.196.67c-.021.492.196.97.543 1.096a.447.447 0 00.392-.035c.074-.08.091-.133.084-.136z" fill="#EB996E"/><path d="M82.264 45.433a5.198 5.198 0 01-4.463-1.506c-.789-.827-1.346-1.95-2.397-2.396a2.92 2.92 0 00-2.246.066 5.605 5.605 0 00-1.843 1.356c.494 1.877-.182 3.837-.851 5.665a.973.973 0 01-.35.53c-.312.188-.726-.028-.95-.317a3.004 3.004 0 01-.49-1.654 9.949 9.949 0 01.444-3.93 6.798 6.798 0 012.243-3.23 6.522 6.522 0 014.716-1.228 8.014 8.014 0 014.429 2.128 4.614 4.614 0 011.314 1.876" fill="#263238"/><path d="M13.756 120.435a6.657 6.657 0 014.113-.495c.746.122 1.52.349 2.029.9.508.551.602 1.538.02 2.016a1.937 1.937 0 01-1.278.324c-1.086 0-2.291-.202-3.153.447-.498.373-.827.987-1.402 1.172a1.407 1.407 0 01-1.542-.698 2.372 2.372 0 01-.171-1.744 2.688 2.688 0 011.384-1.922zm-2.863-5.496c.764 1.084 2.25.725 2.936.062.687-.662.981-1.625 1.244-2.539.606-2.093 1.216-4.29.767-6.421a3.578 3.578 0 00-.823-1.744 1.876 1.876 0 00-1.776-.589c-.747.198-1.213.927-1.549 1.622a15.286 15.286 0 00-1.531 6.567c0 1.047.123 2.166.722 3.042m-2.085 1.555a3.944 3.944 0 00.617-3.634 7.02 7.02 0 00-2.166-3.139 11.673 11.673 0 00-3.854-2.274 4.165 4.165 0 00-1.752-.297 1.826 1.826 0 00-1.461.883c-.406.774 0 1.712.407 2.479a29.697 29.697 0 002.533 3.869c.764.98 1.636 1.946 2.803 2.389 1.167.443 2.368.39 2.985-.412" fill="#FEC830"/><path d="M10.84 131.318c.042-.161.065-.326.07-.492.036-.349.081-.813.134-1.346.066-.665.168-1.325.305-1.978.171-.794.405-1.573.7-2.33.297-.756.7-1.467 1.199-2.11a4.45 4.45 0 011.51-1.252 4.297 4.297 0 011.293-.384c.165-.006.33-.029.49-.07a2.21 2.21 0 00-.5 0c-.46.036-.91.155-1.329.349a4.457 4.457 0 00-1.594 1.263 8.375 8.375 0 00-1.24 2.152 14.26 14.26 0 00-.701 2.368c-.13.661-.217 1.33-.263 2.002-.045.572-.06 1.046-.07 1.353a2.306 2.306 0 00-.003.475z" fill="#263238"/><path d="M10.935 130.282a1.088 1.088 0 000-.231v-.652c0-.568 0-1.395.032-2.406.049-2.03.224-4.217.564-7.297.322-2.898.753-6.278 1.209-8.462.098-.498.196-.948.287-1.342.091-.394.165-.733.235-1.008.07-.276.115-.468.154-.635a.9.9 0 00.042-.227.997.997 0 00-.08.216c-.05.164-.113.374-.193.628-.081.255-.172.607-.27 1.001-.098.394-.21.837-.319 1.336a74.852 74.852 0 00-1.268 7.851c-.35 3.087-.494 5.898-.508 7.935 0 1.019 0 1.842.038 2.41 0 .269.028.485.039.656a.895.895 0 00.038.227z" fill="#263238"/><path d="M10.95 124.858a4.607 4.607 0 000-.697 19.374 19.374 0 00-.214-1.853c-.15-.91-.35-1.811-.603-2.699a22.163 22.163 0 00-1.135-3.195 16.951 16.951 0 00-3.332-5.162 8.555 8.555 0 00-.782-.726c-.119-.101-.228-.202-.35-.282l-.301-.209a3.921 3.921 0 00-.582-.367 20.725 20.725 0 011.899 1.685 17.89 17.89 0 013.244 5.141c.456 1.036.84 2.101 1.153 3.188.298.991.494 1.904.645 2.672.15.767.224 1.395.273 1.834.01.226.037.45.084.67zm-5.267 9.567l.547 7.443h9.607l.547-7.443h-10.7zm11.843-2.933H4.755v2.933h12.77v-2.933z" fill="#263238"/><path d="M4.755 141.582v.817h12.56v-.817H4.755zm1.191 2.247l-.589-1.43H16.86l-.687 1.43H5.946z" fill="#455A64"/><path d="M16.205 136.856a.34.34 0 01-.046.07l-.143.188-.561.698-.024.031-.014-.024-1.374-1.89h.077l-1.352 1.907-.042.06-.05-.056c-.497-.593-1.05-1.235-1.604-1.901h.094l-.09.112-1.434 1.789-.049.063-.045-.063-1.353-1.908h.077l-1.678 1.887-.028.035-.024-.039c-.218-.348-.393-.659-.523-.872-.052-.097-.098-.17-.133-.233s-.042-.08-.038-.084a5.822 5.822 0 01.203.3l.547.855h-.053l1.643-1.915.042-.049.035.052 1.367 1.901H9.54l1.433-1.793.087-.111.046-.056.045.056c.565.666 1.104 1.311 1.602 1.904h-.088l1.367-1.897.038-.056.039.056c.543.767 1.002 1.423 1.345 1.911h-.039c.246-.293.438-.527.582-.698l.154-.181.053-.049z" fill="#E0E0E0"/><path d="M16.517 134.377c0 .031-2.407.059-5.379.059-2.97 0-5.374-.028-5.374-.059 0-.032 2.407-.06 5.374-.06 2.968 0 5.379.014 5.379.06z" fill="#455A64"/><path d="M17 142.479c0 .031-2.614.059-5.84.059-3.228 0-5.845-.028-5.845-.059 0-.032 2.617-.06 5.844-.06 3.227 0 5.841.025 5.841.06zm113.567-85.701l-6.675 27.785h1.868l6.573-27.785h-1.766z" fill="#263238"/><path d="M128.002 75.08c-.115.508 3.038 15.653 3.038 15.653h-1.513l-2.372-12.002.847-3.652z" fill="#263238"/><path d="M150.23 110.757h-31.264v32.991h31.264v-32.991z" fill="#FEC830"/><path d="M151.765 115.58h-1.535v1.529h1.535v-1.529zm0 4.852h-1.535v1.529h1.535v-1.529zm0 4.852h-1.535v1.528h1.535v-1.528zm0 4.851h-1.535v1.529h1.535v-1.529z" fill="#263238"/><path d="M151.821 125.73a1.99 1.99 0 01.469-.105 7.977 7.977 0 011.318-.122 3.568 3.568 0 011.899.496c.34.21.62.505.813.854.196.383.28.813.241 1.242-.032.425-.17.836-.399 1.196a3.096 3.096 0 01-.806.851c-.542.383-1.17.63-1.829.719-.437.064-.88.079-1.321.045a2.065 2.065 0 01-.494-.063c.161-.013.323-.013.484 0 .434.005.868-.029 1.296-.101a4.169 4.169 0 001.752-.729 2.687 2.687 0 001.125-1.925 2.136 2.136 0 00-.218-1.144 2.125 2.125 0 00-.746-.795 3.506 3.506 0 00-1.811-.513c-.436-.005-.871.017-1.304.066a3.06 3.06 0 01-.469.028z" fill="#263238"/><path d="M151.439 120.906a.527.527 0 01.144-.087c.146-.073.299-.135.455-.185a3.607 3.607 0 011.798-.097c.203.037.397.114.571.226a.994.994 0 01.403.541 1.556 1.556 0 01-.351 1.395 1.522 1.522 0 01-.645.471.998.998 0 01-.847-.045.857.857 0 01-.487-.733.877.877 0 01.144-.446.898.898 0 01.353-.311c.279-.129.594-.161.894-.09.286.058.554.185.781.369.434.345.714.846.778 1.395a1.94 1.94 0 01-.4 1.396 2.8 2.8 0 01-.96.809 4.693 4.693 0 01-1.752.453 5.61 5.61 0 01-.487.021.491.491 0 01-.171 0l.651-.084a4.933 4.933 0 001.689-.495 2.73 2.73 0 00.901-.785c.275-.364.4-.819.35-1.273a1.926 1.926 0 00-.722-1.266 1.7 1.7 0 00-.7-.349 1.183 1.183 0 00-.775.081.7.7 0 00-.399.593.7.7 0 00.389.575.831.831 0 00.7.042c.226-.088.425-.232.579-.419a1.42 1.42 0 00.35-1.245 1.052 1.052 0 00-.859-.697 3.666 3.666 0 00-1.751.041c-.41.105-.617.217-.624.199z" fill="#263238"/><path d="M151.453 116.17a.998.998 0 01.35-.063c.319-.015.637.03.939.133.454.152.858.423 1.171.784a2.647 2.647 0 01.098 3.244c-.29.378-.676.672-1.118.851a2.53 2.53 0 01-.929.189.834.834 0 01-.35-.042 3.471 3.471 0 001.219-.265 2.583 2.583 0 001.034-.834 2.525 2.525 0 00-.091-3.038 2.626 2.626 0 00-1.083-.767 3.506 3.506 0 00-1.24-.192z" fill="#263238"/><path d="M128.237 93.23c.111.194.199.4.263.614.197.613.343 1.24.438 1.876.13.824.238 1.835.35 3.014.112 1.179.207 2.522.4 3.994.045.369.105.746.182 1.123.071.388.189.766.35 1.126.208.35.466.668.768.942a6.076 6.076 0 003.535 1.629 4.992 4.992 0 002.761-.475 3.314 3.314 0 001.783-2.228 2.49 2.49 0 00-.105-1.483 2.613 2.613 0 00-.97-1.168 2.962 2.962 0 00-1.479-.492 2.36 2.36 0 00-1.496.44 1.607 1.607 0 00-.508.596 1.201 1.201 0 00-.098.76 1.835 1.835 0 00.97 1.228 4.564 4.564 0 001.598.44 15.11 15.11 0 001.661.115 26.002 26.002 0 003.265-.185c2.131-.237 4.205-.579 6.177-.6 1.973-.021 3.903.255 5.505 1.046a6.488 6.488 0 012.046 1.521c.52.599.882 1.319 1.051 2.093a5.617 5.617 0 01-.624 3.899 6.608 6.608 0 01-2.077 2.208 7.542 7.542 0 01-1.717.872 5.145 5.145 0 01-.641.195c.051-.022.104-.042.157-.059a8.308 8.308 0 002.162-1.064 6.669 6.669 0 002.029-2.201 5.56 5.56 0 00.571-3.836 4.564 4.564 0 00-1.051-2.027 6.314 6.314 0 00-2.008-1.479c-1.573-.76-3.472-1.046-5.434-1.004-1.962.042-4.016.373-6.149.614a26.69 26.69 0 01-3.283.188 15.334 15.334 0 01-1.686-.115 4.801 4.801 0 01-1.66-.46 2.04 2.04 0 01-1.051-1.354 1.411 1.411 0 01.112-.875c.131-.261.323-.487.56-.659a2.513 2.513 0 011.612-.475 3.093 3.093 0 011.573.523c.455.306.809.738 1.02 1.242.193.505.232 1.056.112 1.584a3.48 3.48 0 01-1.878 2.343c-.886.431-1.877.6-2.856.485a6.204 6.204 0 01-3.619-1.684 4.167 4.167 0 01-.792-.987 4.959 4.959 0 01-.35-1.158 17.248 17.248 0 01-.179-1.134c-.182-1.479-.27-2.825-.371-4a59.537 59.537 0 00-.316-3.014 12.5 12.5 0 00-.382-1.877 4.523 4.523 0 00-.164-.467l-.067-.15z" fill="#263238"/><path d="M148.45 142.371v-2.205c0-1.43 0-3.522-.021-6.18 0-5.309-.024-12.877-.042-21.932l.081.08H120.21l.091-.09v30.316l-.077-.077 20.48.039 5.739.021h1.534-1.503l-5.721.021-20.529.038h-.077v-30.484h28.37v.08l-.042 21.974c0 2.651 0 4.733-.021 6.163v2.033c0 .098-.004.203-.004.203z" fill="#263238"/><path d="M140.5 115.783a.128.128 0 01-.01.055.137.137 0 01-.031.048.146.146 0 01-.206 0 .145.145 0 01-.044-.103c0-.02.004-.038.012-.056a.142.142 0 01.136-.087c.038 0 .074.015.101.041a.145.145 0 01.042.102zm.789 0a.145.145 0 01-.041.103.186.186 0 01-.047.032.155.155 0 01-.056.011.144.144 0 01-.104-.043.144.144 0 01-.032-.159.136.136 0 01.032-.047.152.152 0 01.048-.031.153.153 0 01.056-.009c.038 0 .075.015.102.041a.149.149 0 01.042.102zm.798 0a.128.128 0 01-.009.055.152.152 0 01-.031.048.186.186 0 01-.047.032.155.155 0 01-.056.011.144.144 0 01-.104-.043.144.144 0 01-.032-.159.136.136 0 01.032-.047.152.152 0 01.048-.031.153.153 0 01.056-.009c.019 0 .037.003.055.011a.14.14 0 01.088.132zm.799 0a.128.128 0 01-.01.055.137.137 0 01-.031.048.146.146 0 01-.249-.103c0-.02.003-.038.011-.056a.136.136 0 01.032-.047.152.152 0 01.048-.031.15.15 0 01.056-.009c.038 0 .074.015.101.041a.145.145 0 01.042.102zm.799 0a.145.145 0 01-.034.117.136.136 0 01-.05.038.143.143 0 01-.173-.038.148.148 0 01-.034-.117.148.148 0 01.146-.124c.035 0 .069.012.095.035a.143.143 0 01.05.089zm.799 0a.146.146 0 01-.281.055.145.145 0 01-.01-.055c0-.038.015-.075.042-.102a.148.148 0 01.102-.041.153.153 0 01.056.009.152.152 0 01.048.031.17.17 0 01.032.047.151.151 0 01.011.056zm.799 0a.148.148 0 01-.147.146.155.155 0 01-.056-.011.156.156 0 01-.047-.032.145.145 0 01-.041-.103c0-.038.015-.075.042-.102a.148.148 0 01.102-.041.153.153 0 01.056.009.152.152 0 01.048.031.17.17 0 01.032.047.151.151 0 01.011.056zm-.515.676a.143.143 0 100-.286.143.143 0 100 .286zm-.817 0a.143.143 0 10.002-.286.143.143 0 00-.002.286zm-.672-.143a.154.154 0 01-.01.056.138.138 0 01-.078.079.138.138 0 01-.056.012.146.146 0 01-.104-.249.152.152 0 01.048-.031.154.154 0 01.111.001.138.138 0 01.078.078.14.14 0 01.011.054zm-.96.143a.143.143 0 100-.286.143.143 0 100 .286zm-.817 0a.143.143 0 10.002-.286.143.143 0 00-.002.286zm-.672-.143a.148.148 0 01-.148.147.13.13 0 01-.055-.012.138.138 0 01-.078-.079.135.135 0 01-.01-.056c0-.019.003-.037.011-.054a.144.144 0 01.132-.089.147.147 0 01.104.041.127.127 0 01.032.047.13.13 0 01.012.055zm-.33.607a.142.142 0 01-.143.143.147.147 0 01-.136-.087.143.143 0 01.032-.159.144.144 0 01.159-.032.127.127 0 01.047.032c.014.013.024.03.031.047a.135.135 0 01.01.056zm.789 0a.145.145 0 01-.144.143.154.154 0 01-.056-.01.137.137 0 01-.048-.031.132.132 0 01-.032-.046.155.155 0 01-.011-.056c0-.039.015-.076.043-.103a.144.144 0 01.104-.043.146.146 0 01.144.146zm.798 0a.149.149 0 01-.01.055.147.147 0 01-.133.088.154.154 0 01-.056-.01.137.137 0 01-.048-.031.136.136 0 01-.043-.102c0-.039.015-.076.043-.103a.144.144 0 01.104-.043.146.146 0 01.134.09c.007.018.01.037.009.056zm.799 0a.142.142 0 01-.143.143.15.15 0 01-.056-.01.137.137 0 01-.048-.031.136.136 0 01-.043-.102c0-.039.015-.076.043-.103a.144.144 0 01.159-.032.127.127 0 01.047.032c.014.013.024.03.031.047a.135.135 0 01.01.056zm.799 0a.143.143 0 01-.05.089.148.148 0 01-.241-.089.145.145 0 01.084-.155.143.143 0 01.123 0 .145.145 0 01.084.155zm.799 0a.155.155 0 01-.011.056.165.165 0 01-.032.046.137.137 0 01-.048.031.154.154 0 01-.056.01.145.145 0 110-.289.146.146 0 01.147.146zm.799 0a.155.155 0 01-.011.056.165.165 0 01-.032.046.137.137 0 01-.048.031.154.154 0 01-.056.01.145.145 0 110-.289.146.146 0 01.147.146zm-.368.534a.146.146 0 01-.043.102.152.152 0 01-.048.031.154.154 0 01-.056.01.145.145 0 01-.056-.278.138.138 0 01.056-.012.146.146 0 01.147.147zm-.816 0a.13.13 0 01-.012.055.148.148 0 01-.079.078.156.156 0 01-.057.01.142.142 0 01-.143-.143.135.135 0 01.01-.056.137.137 0 01.078-.079.13.13 0 01.055-.012c.039 0 .077.016.105.043a.15.15 0 01.043.104zm-.82 0a.142.142 0 01-.144.143.154.154 0 01-.056-.01.152.152 0 01-.048-.031.146.146 0 01.16-.237.138.138 0 01.078.079c.007.018.01.037.01.056zm-.817 0a.124.124 0 01-.011.054.144.144 0 01-.132.089.15.15 0 01-.056-.01.152.152 0 01-.048-.031.127.127 0 01-.032-.047.146.146 0 01.239-.159.15.15 0 01.04.104zm-.816 0a.141.141 0 01-.05.088.144.144 0 01-.191 0 .146.146 0 01-.046-.151.148.148 0 01.203-.093.148.148 0 01.084.156zm-.816 0a.13.13 0 01-.012.055.142.142 0 01-.136.088.142.142 0 01-.143-.143.135.135 0 01.01-.056.137.137 0 01.078-.079.13.13 0 01.055-.012.148.148 0 01.148.147zm-.33.603a.135.135 0 01-.01.056.125.125 0 01-.031.047.127.127 0 01-.047.032.13.13 0 01-.055.012.148.148 0 01-.148-.147.13.13 0 01.012-.055.142.142 0 01.136-.088.142.142 0 01.143.143zm.789 0a.138.138 0 01-.041.103.146.146 0 01-.25-.103.146.146 0 01.043-.102.152.152 0 01.048-.031.154.154 0 01.056-.01.145.145 0 01.144.143zm.798 0a.135.135 0 01-.04.103.146.146 0 01-.25-.103c0-.019.003-.038.011-.055a.127.127 0 01.032-.047.152.152 0 01.048-.031.154.154 0 01.111.001.147.147 0 01.078.077c.007.018.01.036.01.055zm.799 0a.135.135 0 01-.01.056.125.125 0 01-.031.047.127.127 0 01-.047.032.13.13 0 01-.055.012.146.146 0 01-.104-.249.152.152 0 01.048-.031.15.15 0 01.056-.01.142.142 0 01.143.143zm.799 0a.148.148 0 01-.207.156.148.148 0 01-.084-.156.151.151 0 01.05-.089.148.148 0 01.241.089zm.799 0a.146.146 0 01-.281.056.154.154 0 01-.01-.056.142.142 0 01.144-.143c.019 0 .038.003.056.01a.152.152 0 01.048.031.146.146 0 01.043.102zm.799 0a.15.15 0 01-.043.104.15.15 0 01-.104.043.138.138 0 01-.056-.012.127.127 0 01-.047-.032.125.125 0 01-.031-.047.154.154 0 01-.01-.056.142.142 0 01.144-.143c.019 0 .038.003.056.01a.152.152 0 01.048.031.146.146 0 01.043.102zm-.515.677a.143.143 0 100-.286.143.143 0 100 .286zm-.817 0a.143.143 0 10.002-.286.143.143 0 00-.002.286zm-.672-.143a.154.154 0 01-.01.056.16.16 0 01-.031.047.127.127 0 01-.047.032.146.146 0 01-.16-.238.15.15 0 01.206.002.142.142 0 01.042.101zm-.96.143a.143.143 0 100-.286.143.143 0 100 .286zm-.817 0a.143.143 0 10.002-.286.143.143 0 00-.002.286zm-.672-.143a.143.143 0 01-.044.103.144.144 0 01-.159.032.142.142 0 01-.088-.135.142.142 0 01.143-.143.13.13 0 01.056.01.14.14 0 01.08.077.138.138 0 01.012.056z" fill="#263238"/><path d="M129.442 83.192c.194.001.385.034.568.098a3.227 3.227 0 011.38.9 5.937 5.937 0 011.223 2.302c.341 1.102.598 2.228.768 3.369.394 2.978.469 5.99.224 8.985a5.262 5.262 0 01-.785 2.49 3.229 3.229 0 01-.988.952 2.216 2.216 0 01-1.367.321 2.14 2.14 0 01-1.299-.6 1.58 1.58 0 01-.382-.635 1.366 1.366 0 010-.75 1.609 1.609 0 01.977-1.095 1.16 1.16 0 01.775 0c.245.095.46.256.62.464a1.914 1.914 0 01.35 1.448 3.98 3.98 0 01-.504 1.37 5.406 5.406 0 01-1.998 2.002 5.374 5.374 0 01-5.189.074 6.146 6.146 0 01-1.892-1.622 7.81 7.81 0 01-1.145-2.048 13.31 13.31 0 01-.768-4.119c-.07-1.28 0-2.441-.126-3.442a5.687 5.687 0 00-.326-1.36 3.867 3.867 0 00-.585-1.02 2.906 2.906 0 00-1.3-.958 4.315 4.315 0 00-.56-.133c.194.001.387.034.571.098.53.18.996.51 1.342.948.257.31.464.657.613 1.03.174.449.291.917.35 1.395.137 1.018.074 2.18.151 3.453a13.35 13.35 0 00.781 4.066c.276.72.657 1.395 1.132 2.002a5.944 5.944 0 001.846 1.577 5.197 5.197 0 003.885.4 5.17 5.17 0 003.06-2.416c.241-.403.405-.846.483-1.308a1.71 1.71 0 00-.304-1.311 1.218 1.218 0 00-.536-.405.973.973 0 00-.652 0 1.438 1.438 0 00-.862.97 1.244 1.244 0 00.35 1.213c.321.314.74.509 1.188.552.441.038.882-.067 1.258-.3a3.01 3.01 0 00.935-.897 5.107 5.107 0 00.761-2.41c.25-2.98.189-5.978-.183-8.946a22.696 22.696 0 00-.739-3.36 5.888 5.888 0 00-1.177-2.284 3.21 3.21 0 00-1.338-.913 3.84 3.84 0 00-.586-.147z" fill="#E0E0E0"/><path d="M126.692 88.239h-11.64v2.209h11.64v-2.209z" fill="#E0E0E0"/><path d="M42.676 111.06H27.494v32.531h15.182V111.06z" fill="#263238"/><path d="M41.369 140.166v-2.099c0-1.361 0-3.335-.025-5.811 0-4.96-.024-11.943-.042-20.069l.088.087H28.668l.09-.091c0 10.868-.02 20.739-.027 27.98l-.063-.066 9.27.038h3.213-.651l-2.52.017-9.312.035H28.6v-.066c0-7.241 0-17.112-.028-27.98v-.09h12.883v.083c0 8.151-.031 15.152-.042 20.125 0 2.473 0 4.437-.024 5.794v1.932a.87.87 0 01-.021.181z" fill="#455A64"/><path d="M40.584 114.556v-.349c0-.227 0-.545-.021-.943l.038.039c-1.965.031-6.173.052-11.043.052l.09-.091v1.274l-.09-.09c3.086 0 5.833.021 7.82.041l2.351.025h.872a1.19 1.19 0 01-.206 0h-.624l-2.326.028a910.59 910.59 0 01-7.887.038h-.091v-1.364l.09-.091c4.87 0 9.079.021 11.044.049h.043v.042c0 .408 0 .726-.025.966 0 .126-.011.251-.035.374zm-9.934.92c0 .052-.227.091-.507.091s-.512-.039-.512-.091.228-.091.512-.091c.284 0 .508.042.508.091zm9.643 1.681c0 .049-2.35.091-5.256.091-2.904 0-5.255-.042-5.255-.091 0-.049 2.35-.091 5.255-.091s5.256.039 5.256.091zm.042 2.027c0 .048-2.312.09-5.16.09-2.85 0-5.162-.042-5.162-.09 0-.049 2.313-.091 5.161-.091 2.849 0 5.161.042 5.161.091z" fill="#455A64"/><path d="M35.038 124.751c.46 0 .833-.372.833-.831a.832.832 0 00-.834-.83.832.832 0 00-.833.83c0 .459.373.831.834.831z" fill="#FEC830"/><path d="M32.683 123.868a3.42 3.42 0 01-1.118.09c-.374.032-.75.001-1.114-.09.364-.09.74-.12 1.114-.091.375-.029.753.001 1.118.091zm6.783-.199a3.236 3.236 0 01-1.05.091 3.264 3.264 0 01-1.052-.091c.343-.09.698-.12 1.051-.091.353-.03.709.001 1.051.091z" fill="#455A64"/><path d="M28.03 127.387a3.218 3.218 0 01-.568-.105 4.88 4.88 0 01-1.503-.697 6.434 6.434 0 01-1.811-1.88 10.823 10.823 0 01-1.321-3.199 12.986 12.986 0 01-.42-4.168 8.524 8.524 0 011.594-4.51 7.146 7.146 0 011.902-1.799 6.464 6.464 0 011.223-.604 6.409 6.409 0 011.352-.321c.925-.129 1.871-.111 2.803-.167a7 7 0 002.772-.635 3.113 3.113 0 001.724-2.092 2.925 2.925 0 00-.592-2.516 2.963 2.963 0 00-2.359-1.077 2.114 2.114 0 00-1.17.432 1.262 1.262 0 00-.49 1.047c.042.393.222.759.508 1.033a1.7 1.7 0 001.054.47 2.571 2.571 0 002.005-.896 4.802 4.802 0 00.97-1.891c.174-.643.308-1.297.403-1.956.252-2.003.314-4.024.186-6.038-.035-.697-.063-1.259-.084-1.646 0-.181 0-.321-.021-.426a.762.762 0 010-.146.783.783 0 01.02.143c0 .105.022.248.04.429.027.373.073.928.115 1.643a30.852 30.852 0 01-.126 6.058 16.917 16.917 0 01-.4 1.978 4.876 4.876 0 01-.991 1.953 2.715 2.715 0 01-2.127.956 1.86 1.86 0 01-1.163-.515 1.845 1.845 0 01-.557-1.139 1.43 1.43 0 01.536-1.196 2.274 2.274 0 011.265-.474 3.161 3.161 0 011.705.463 3.14 3.14 0 011.482 3.04 3.13 3.13 0 01-.69 1.62 3.644 3.644 0 01-1.173.911 7.243 7.243 0 01-2.845.655c-.957.053-1.9.035-2.803.161-.45.056-.89.16-1.317.31a6.31 6.31 0 00-1.188.586 6.96 6.96 0 00-1.86 1.744 8.4 8.4 0 00-1.58 4.426c-.092 1.386.04 2.778.392 4.123.258 1.118.69 2.189 1.282 3.174a6.397 6.397 0 001.752 1.876 5.037 5.037 0 001.892.82l.182.042zm30.76-66.789H22.84v24.575h35.95V60.598z" fill="#263238"/><path d="M42.931 81.821h-4.894v9.271h4.894v-9.27z" fill="#263238"/><path d="M26.418 90.734v3.337h18.55v49.685h1.705V94.071l77.468.38v49.305h1.672V94.357l11.954.098v-4.008l-111.349.287z" fill="#263238"/><path d="M38.289 93.422l7.312 5.242-.634.607-7.375-5.532.697-.317zm94.415.488l-8.486 6.017.638.607 8.546-6.303-.698-.32zm-60.141-4.405H53.39v1.407h19.173v-1.407z" fill="#263238"/></g><defs><clipPath id="clip0"><path fill="#fff" d="M0 .048h159v153.358H0z"/></clipPath></defs></svg>