<svg width="90" height="90" fill="none" xmlns="http://www.w3.org/2000/svg"><path d="M49.655 80.69v4.655a4.655 4.655 0 11-9.31 0V80.69h9.31z" fill="#E5E5E5"/><path d="M49.655 77.586h-9.31a3.103 3.103 0 000 6.207h9.31a3.103 3.103 0 100-6.207z" fill="#E0E0E0"/><path d="M79.138 48.103H72.93a1.552 1.552 0 110-3.103h6.207a1.552 1.552 0 110 3.103zm-62.069 0h-6.207a1.552 1.552 0 110-3.103h6.207a1.552 1.552 0 110 3.103zm-5.355 7.629a1.552 1.552 0 01-.354-3.063l6.052-1.422a1.553 1.553 0 01.709 3.023l-6.052 1.421c-.116.027-.236.04-.355.04zm2.522 7.423a1.552 1.552 0 01-.691-2.948l5.594-2.775a1.552 1.552 0 011.38 2.78L14.922 63c-.214.104-.45.157-.688.155zm4.057 6.673a1.552 1.552 0 01-.987-2.752l4.856-3.986a1.553 1.553 0 011.97 2.4l-4.855 3.985a1.552 1.552 0 01-.984.353zm-.524-27.931a1.64 1.64 0 01-.355-.04l-6.052-1.422a1.552 1.552 0 11.709-3.023l6.052 1.421a1.552 1.552 0 01-.354 3.064zm60.388 13.835c-.12 0-.239-.014-.355-.04L71.75 54.27a1.552 1.552 0 11.71-3.023l6.051 1.422a1.552 1.552 0 01-.354 3.063zm-2.521 7.423a1.534 1.534 0 01-.688-.155l-5.595-2.775a1.552 1.552 0 011.38-2.779l5.593 2.775a1.552 1.552 0 01-.69 2.948v-.014zm-4.056 6.673c-.36 0-.707-.125-.984-.353l-4.857-3.984a1.553 1.553 0 111.97-2.401l4.857 3.986a1.552 1.552 0 01-.987 2.752zm.522-27.931a1.552 1.552 0 01-.353-3.064l6.051-1.42a1.552 1.552 0 11.71 3.022l-6.052 1.421a1.58 1.58 0 01-.356.04z" fill="#F8E8AB"/><path d="M68.276 25.914l6.455-2.297 4.301-1.536 9.931-3.553a1.552 1.552 0 000-2.918L45.543.093a1.63 1.63 0 00-1.086 0L1.037 15.61a1.552 1.552 0 000 2.918l20.687 7.386h46.552z" fill="#343434"/><path d="M68.276 20.172v13.966c0-2.576-10.428-4.655-23.276-4.655-3.15 0-6.16.124-8.907.357-8.426.698-14.369 2.358-14.369 4.298V20.172c0-2.575 10.428-4.655 23.276-4.655 12.848 0 23.276 2.08 23.276 4.655z" fill="#464F5E"/><path d="M77.586 23.276a1.552 1.552 0 01-1.552-1.552v-10.18a1.552 1.552 0 113.104 0v10.18c0 .857-.695 1.552-1.552 1.552z" fill="#FEC830"/><path d="M74.483 24.828v4.655c0 .857.694 1.552 1.551 1.552h3.104c.857 0 1.552-.695 1.552-1.552v-4.655a3.104 3.104 0 00-6.207 0z" fill="#F1D24B"/><path d="M68.276 34.138c0 1.148-2.08 2.203-5.524 3.01a21.65 21.65 0 00-8.86-7.308c8.44.698 14.384 2.358 14.384 4.298z" fill="#343434"/><path d="M66.724 49.655a21.691 21.691 0 01-8.891 17.52 12.555 12.555 0 00-4.857 7.99 3.05 3.05 0 01-3.026 2.421h-9.9a3.05 3.05 0 01-3.026-2.42 12.555 12.555 0 00-4.857-7.992 21.724 21.724 0 013.926-37.334c2.747-.233 5.757-.357 8.907-.357 3.15 0 6.145.124 8.891.357a21.65 21.65 0 018.86 7.308 9.7 9.7 0 01.45.683c.187.295.373.59.544.884a21.328 21.328 0 012.98 10.94z" fill="#FEC830"/><path d="M29.483 51.207a1.552 1.552 0 01-1.552-1.552A16.947 16.947 0 0134.768 36a1.552 1.552 0 011.862 2.483 13.86 13.86 0 00-5.596 11.172c0 .857-.694 1.552-1.551 1.552z" fill="#F8E8AB"/><path d="M36.093 29.84a21.707 21.707 0 00-8.845 7.308c-3.445-.807-5.524-1.862-5.524-3.01 0-1.94 5.943-3.6 14.37-4.298z" fill="#343434"/></svg>