<svg width="90" height="90" fill="none" xmlns="http://www.w3.org/2000/svg"><g clip-path="url(#clip0)"><path d="M83.792 23.276c-.233 0-.47-.053-.694-.163l-18.62-9.31a1.552 1.552 0 011.388-2.777l18.62 9.31a1.552 1.552 0 01-.694 2.94zM72.933 43.448a1.55 1.55 0 01-1.226-.599L60.845 28.884a1.552 1.552 0 012.448-1.906l10.862 13.966a1.552 1.552 0 01-1.222 2.504zM49.978 69.975a1.55 1.55 0 01-.933-2.792l8.668-6.5a1.552 1.552 0 011.862 2.481l-8.667 6.5a1.55 1.55 0 01-.93.311zm-29.806 6.059H9.31a1.551 1.551 0 110-3.103h10.862a1.551 1.551 0 110 3.103zm21.144-30.778c-.312 0-.628-.095-.901-.29L27.028 35.4a1.552 1.552 0 011.804-2.525l13.387 9.566a1.552 1.552 0 01-.903 2.815zM26.49 26.27a1.55 1.55 0 01-1.02-2.72l12.304-10.753a1.55 1.55 0 012.19.147 1.55 1.55 0 01-.148 2.19L27.51 25.887c-.295.258-.66.384-1.021.384zm-10.973-4.546a1.551 1.551 0 01-1.551-1.552V9.31a1.551 1.551 0 113.103 0v10.862c0 .858-.695 1.552-1.552 1.552zM64.592 84.05c-.228 0-.46-.05-.678-.158l-16.49-8.014a1.552 1.552 0 011.358-2.791l16.49 8.014a1.55 1.55 0 01-.68 2.948z" fill="#E7ECED"/><path d="M31.035 35.69c0-8.57-6.948-15.518-15.518-15.518S0 27.12 0 35.69c0 5.74 3.125 10.74 7.759 13.424v-4.091c0-1.727 1.458-3.127 3.257-3.127h9.003c1.798 0 3.257 1.4 3.257 3.127v4.087c4.635-2.68 7.759-7.68 7.759-13.42z" fill="#FEC830"/><path d="M85.345 27.931a4.655 4.655 0 100-9.31 4.655 4.655 0 000 9.31zM4.655 79.138a4.655 4.655 0 100-9.31 4.655 4.655 0 000 9.31zM68.276 90a4.655 4.655 0 100-9.31 4.655 4.655 0 000 9.31zM45 51.207a4.655 4.655 0 100-9.31 4.655 4.655 0 000 9.31z" fill="#343434"/><path d="M15.517 35.69a4.655 4.655 0 100-9.31 4.655 4.655 0 000 9.31zm4.502 6.207h-9.003c-1.799 0-3.257 1.4-3.257 3.126v4.09a15.418 15.418 0 0015.517 0v-4.09c0-1.727-1.459-3.126-3.257-3.126z" fill="#fff"/><path d="M68.276 15.517C68.276 6.947 61.329 0 52.759 0S37.24 6.947 37.24 15.517c0 5.74 3.126 10.74 7.759 13.424v-4.09c0-1.727 1.459-3.127 3.257-3.127h9.003c1.799 0 3.257 1.4 3.257 3.127v4.087c4.635-2.68 7.759-7.68 7.759-13.42z" fill="#FEC830"/><path d="M52.759 15.517a4.655 4.655 0 100-9.31 4.655 4.655 0 000 9.31zm4.501 6.207h-9.003c-1.798 0-3.257 1.4-3.257 3.127v4.09a15.418 15.418 0 0015.517 0v-4.09c0-1.727-1.458-3.127-3.257-3.127z" fill="#fff"/><path d="M88.448 55.862c0-8.57-6.947-15.517-15.517-15.517s-15.517 6.947-15.517 15.517c0 5.74 3.125 10.74 7.758 13.424v-4.09c0-1.727 1.459-3.127 3.257-3.127h9.003c1.799 0 3.257 1.4 3.257 3.126v4.088c4.636-2.68 7.76-7.681 7.76-13.42z" fill="#FEC830"/><path d="M72.931 55.862a4.655 4.655 0 100-9.31 4.655 4.655 0 000 9.31zm4.502 6.207h-9.004c-1.798 0-3.257 1.4-3.257 3.127v4.09a15.419 15.419 0 0015.517 0v-4.09c0-1.727-1.458-3.127-3.256-3.127z" fill="#fff"/><path d="M51.207 74.483c0-8.57-6.947-15.518-15.517-15.518s-15.518 6.947-15.518 15.518c0 5.74 3.125 10.74 7.759 13.424v-4.09c0-1.728 1.459-3.128 3.257-3.128h9.003c1.798 0 3.257 1.4 3.257 3.127v4.087c4.635-2.68 7.759-7.68 7.759-13.42z" fill="#FEC830"/><path d="M35.69 74.483a4.655 4.655 0 100-9.31 4.655 4.655 0 000 9.31zm4.501 6.207h-9.003c-1.798 0-3.257 1.4-3.257 3.126v4.09a15.419 15.419 0 0015.517 0v-4.09c0-1.727-1.458-3.126-3.257-3.126z" fill="#fff"/><path d="M15.517 9.31a4.655 4.655 0 100-9.31 4.655 4.655 0 000 9.31z" fill="#343434"/></g><defs><clipPath id="clip0"><path fill="#fff" d="M0 0h90v90H0z"/></clipPath></defs></svg>