<svg width="60" height="60" fill="none" xmlns="http://www.w3.org/2000/svg"><path d="M36.68 58.827H16.991a4.695 4.695 0 014.695-4.695h10.298a4.695 4.695 0 014.694 4.695z" fill="#FEC830"/><path d="M31.409 46.516h-9.146v7.616h9.146v-7.616z" fill="#D1D6DE"/><path d="M45.155 7.499h5.258c1.153 0 2.087.931 2.087 2.08v34.745c0 1.15-.934 2.081-2.087 2.081H3.258a2.084 2.084 0 01-2.086-2.08V9.578c0-1.149.934-2.08 2.086-2.08h41.897z" fill="#EBEEF2"/><path d="M52.5 38.905H1.172v7.5H52.5v-7.5z" fill="#E0E0E0"/><path d="M22.426 27.267h-7.352A7.574 7.574 0 007.5 34.84v4.064H30V34.84a7.574 7.574 0 00-7.574-7.574z" fill="#FEC830"/><path d="M22.947 27.267l-4.197 4.196-4.197-4.196h8.394z" fill="#fff"/><path d="M17.569 14.073H23.7v3.043a2.858 2.858 0 01-2.858 2.857H13.8v-2.132a3.768 3.768 0 013.768-3.768z" fill="#FEC830"/><path d="M23.7 19.973v2.344a4.95 4.95 0 01-9.9 0v-2.344h9.9z" fill="#FFF5E0"/><path d="M54.14 1.173H37.267a4.688 4.688 0 00-4.688 4.688V18.4a4.688 4.688 0 004.688 4.687h.507v4.18l4.18-4.18h12.188a4.688 4.688 0 004.687-4.687V5.86a4.688 4.688 0 00-4.687-4.687z" fill="#FEC830"/><path d="M26.836 41.482a1.176 1.176 0 00-1.172 1.172c0 .308.125.61.343.829.218.218.52.343.829.343.308 0 .61-.126.828-.343a1.18 1.18 0 00.344-.829 1.175 1.175 0 00-1.172-1.172z" fill="#343434"/><path d="M52.5 31.407c-.647 0-1.172.525-1.172 1.172v5.154H31.172v-2.892c0-4.457-3.351-8.143-7.665-8.677a6.091 6.091 0 001.365-3.847v-8.245c0-.647-.525-1.171-1.172-1.171h-6.13a4.946 4.946 0 00-4.94 4.94v4.476c0 1.456.511 2.795 1.364 3.847-4.314.535-7.665 4.22-7.665 8.677v2.892H2.344V9.58c0-.5.41-.908.914-.908h24.36a1.172 1.172 0 000-2.344H3.257A3.26 3.26 0 000 9.579v34.745a3.26 3.26 0 003.258 3.253h17.833v5.413a5.875 5.875 0 00-5.27 5.837c0 .647.524 1.172 1.171 1.172H36.68c.647 0 1.172-.525 1.172-1.172a5.875 5.875 0 00-5.271-5.837v-5.413h17.833a3.26 3.26 0 003.258-3.252V32.578c0-.647-.525-1.172-1.172-1.172zm-29.972-9.09a3.782 3.782 0 01-3.778 3.778 3.782 3.782 0 01-3.778-3.778v-1.172h5.87c.602 0 1.173-.133 1.686-.371v1.543zm-2.41 6.122l-1.368 1.367-1.367-1.367h2.735zM14.971 17.84a2.6 2.6 0 012.597-2.597h4.96v1.872c0 .93-.757 1.685-1.687 1.685h-5.87v-.96zm-6.3 17c0-3.212 2.378-5.878 5.465-6.333l3.784 3.784a1.168 1.168 0 001.657 0l3.785-3.784c3.087.455 5.465 3.12 5.465 6.333v2.892H8.672V34.84zm26.635 22.814H18.364a3.529 3.529 0 013.323-2.351h10.298c1.532 0 2.838.983 3.322 2.351zm-5.07-4.695h-6.802v-5.383h6.802v5.383zm20.177-7.727H3.258a.913.913 0 01-.914-.908v-4.248h48.984v4.248c0 .5-.41.908-.915.908zM52.5 26.993c-.308 0-.61.125-.828.343-.218.22-.344.52-.344.829a1.176 1.176 0 001.172 1.172 1.175 1.175 0 001.172-1.172c0-.308-.125-.61-.344-.829a1.18 1.18 0 00-.828-.343z" fill="#343434"/><path d="M52.5 5.509h-8.79a1.172 1.172 0 000 2.344h8.79a1.172 1.172 0 000-2.344zM38.906 7.853c.309 0 .61-.126.829-.344a1.18 1.18 0 00.343-.828c0-.308-.125-.61-.343-.829a1.18 1.18 0 00-.829-.343c-.308 0-.61.125-.828.343-.218.218-.344.52-.344.829 0 .308.126.61.344.828.218.218.52.344.828.344zM52.5 10.665H38.906a1.172 1.172 0 000 2.344H52.5a1.172 1.172 0 000-2.344zm0 5.157H38.906a1.172 1.172 0 000 2.343H52.5a1.172 1.172 0 000-2.343z" fill="#fff"/><path d="M54.14.001H37.267a5.866 5.866 0 00-5.86 5.86V18.4a5.868 5.868 0 005.196 5.822v3.045a1.172 1.172 0 002 .829l3.836-3.837h11.703a5.866 5.866 0 005.859-5.86V5.862A5.87 5.87 0 0054.14 0zM57.657 18.4a3.52 3.52 0 01-3.515 3.515H41.953c-.31 0-.609.124-.829.344l-2.179 2.179v-1.35c0-.648-.525-1.173-1.172-1.173h-.507A3.52 3.52 0 0133.75 18.4V5.86a3.52 3.52 0 013.516-3.515H54.14a3.52 3.52 0 013.515 3.516V18.4z" fill="#FEC830"/></svg>