<svg width="60" height="60" fill="none" xmlns="http://www.w3.org/2000/svg"><g clip-path="url(#clip0)"><path d="M52.063 1.618l1.692 3.427c.117.236.342.4.603.438l3.783.549a.8.8 0 01.444 1.366l-2.736 2.668a.801.801 0 00-.23.71l.647 3.766a.801.801 0 01-1.162.845l-3.384-1.778a.801.801 0 00-.745 0l-3.383 1.78a.801.801 0 01-1.162-.844l.645-3.767a.801.801 0 00-.23-.71l-2.738-2.666a.801.801 0 01.443-1.367l3.783-.55a.801.801 0 00.603-.439l1.69-3.427a.8.8 0 011.437 0zm-21.346 0l1.692 3.427c.117.236.343.4.604.438l3.782.549a.8.8 0 01.444 1.366l-2.736 2.668a.801.801 0 00-.23.71l.647 3.766a.801.801 0 01-1.162.845l-3.384-1.778a.801.801 0 00-.745 0l-3.383 1.78a.801.801 0 01-1.162-.844l.645-3.767a.8.8 0 00-.23-.71L22.76 7.403a.801.801 0 01.444-1.367l3.782-.55a.8.8 0 00.603-.439l1.69-3.427a.801.801 0 011.437 0zm-21.346 0l1.693 3.427a.8.8 0 00.603.438l3.782.549a.8.8 0 01.444 1.366l-2.736 2.668a.801.801 0 00-.23.71l.647 3.766a.801.801 0 01-1.162.845L9.03 13.609a.801.801 0 00-.746 0l-3.382 1.78a.801.801 0 01-1.163-.844l.645-3.767a.8.8 0 00-.23-.71L1.415 7.403a.801.801 0 01.444-1.367l3.782-.55a.801.801 0 00.603-.439l1.69-3.427a.801.801 0 011.437 0z" fill="#FEC830"/><path d="M44.012 58.828l1.653-5.272a27.107 27.107 0 001.242-8.11v-9.888a2.818 2.818 0 10-5.636 0v3.439-5.516a2.818 2.818 0 10-5.635 0v5.516-7.3a2.818 2.818 0 10-5.636 0v7.3-16.536a2.818 2.818 0 00-5.635 0v20.424l-3.31-6.127a2.971 2.971 0 00-5.503 2.108l2.146 8.893a14.961 14.961 0 002.464 5.318l4.202 5.75h19.648z" fill="#FFF5E0"/><path d="M24.365 32.766c-.648 0-1.172.525-1.172 1.172v4.311l-1.107-2.048a4.122 4.122 0 00-5.511-1.73 4.127 4.127 0 00-2.162 4.67l2.146 8.893a16.052 16.052 0 002.657 5.734l4.203 5.752a1.17 1.17 0 001.637.254 1.172 1.172 0 00.255-1.638l-4.203-5.75a13.716 13.716 0 01-2.27-4.902l-2.146-8.892a1.793 1.793 0 01.939-2.029 1.79 1.79 0 012.393.752l3.31 6.127a1.172 1.172 0 002.203-.557v-8.947c0-.647-.525-1.172-1.172-1.172zm19.724-1.198a3.96 3.96 0 00-1.91.488 3.996 3.996 0 00-3.726-2.564c-.732 0-1.418.199-2.009.545a3.994 3.994 0 00-3.626-2.33c-.587 0-1.144.128-1.646.357V22.46c0-2.2-1.79-3.99-3.99-3.99s-3.99 1.79-3.99 3.99v2.031a1.172 1.172 0 002.344 0V22.46c0-.907.739-1.646 1.646-1.646.908 0 1.646.739 1.646 1.646v16.536a1.172 1.172 0 002.344 0v-7.3c0-.908.738-1.646 1.646-1.646.907 0 1.646.738 1.646 1.646v7.3a1.172 1.172 0 002.343 0V33.48c0-.907.739-1.646 1.646-1.646.908 0 1.646.739 1.646 1.646v5.516a1.172 1.172 0 002.344 0v-3.44a1.647 1.647 0 013.292.001v9.888c0 2.635-.4 5.246-1.188 7.76l-1.653 5.271a1.172 1.172 0 002.236.702l1.653-5.272a28.246 28.246 0 001.296-8.461v-9.888c0-2.2-1.79-3.99-3.99-3.99z" fill="#343434"/><path d="M59.902 6.214a1.96 1.96 0 00-1.593-1.342l-3.59-.52-1.606-3.253A1.96 1.96 0 0051.344 0c-.756 0-1.434.422-1.769 1.1l-1.604 3.253-3.59.523a1.96 1.96 0 00-1.592 1.343 1.96 1.96 0 00.5 2.022l2.598 2.531-.612 3.575a1.96 1.96 0 00.785 1.93 1.965 1.965 0 002.078.15l3.21-1.69 3.21 1.688a1.96 1.96 0 002.078-.151 1.96 1.96 0 00.785-1.93l-.614-3.575 2.596-2.532a1.961 1.961 0 00.499-2.023zM55.03 9.227a1.972 1.972 0 00-.567 1.747l.52 3.026-2.718-1.428a1.972 1.972 0 00-1.837 0l-2.717 1.43.518-3.027a1.973 1.973 0 00-.568-1.746l-2.2-2.142 3.04-.443a1.972 1.972 0 001.484-1.08l1.359-2.753 1.36 2.753a1.97 1.97 0 001.485 1.079l3.039.44-2.198 2.144zm-30.489 1.545l-.612 3.575a1.96 1.96 0 00.786 1.93 1.965 1.965 0 002.077.15l3.21-1.69 3.211 1.687a1.96 1.96 0 002.078-.15 1.96 1.96 0 00.784-1.93l-.614-3.575 2.596-2.532a1.96 1.96 0 00.5-2.023 1.96 1.96 0 00-1.594-1.342l-3.59-.52-1.605-3.253A1.96 1.96 0 0029.998 0c-.756 0-1.434.422-1.769 1.1l-1.604 3.253-3.59.523a1.96 1.96 0 00-1.591 1.343 1.96 1.96 0 00.5 2.022l2.597 2.531zm2.615-4.128a1.973 1.973 0 001.485-1.08l1.358-2.753 1.36 2.753a1.97 1.97 0 001.485 1.079l3.039.44-2.198 2.144a1.972 1.972 0 00-.567 1.747l.52 3.026-2.718-1.428a1.972 1.972 0 00-1.837 0l-2.717 1.43.518-3.027a1.973 1.973 0 00-.568-1.746l-2.199-2.142 3.039-.443zm-12.427 7.7l-.614-3.575 2.596-2.532a1.96 1.96 0 00.499-2.023 1.96 1.96 0 00-1.593-1.342l-3.59-.52-1.605-3.253A1.96 1.96 0 008.652 0a1.96 1.96 0 00-1.769 1.1L5.28 4.353l-3.59.523A1.96 1.96 0 00.099 6.219a1.96 1.96 0 00.5 2.022l2.597 2.531-.612 3.575a1.961 1.961 0 00.785 1.93 1.965 1.965 0 002.078.15l3.21-1.69 3.211 1.688c.67.351 1.466.294 2.078-.151a1.962 1.962 0 00.784-1.93zm-2.39-5.117a1.971 1.971 0 00-.567 1.747l.52 3.026-2.718-1.428a1.972 1.972 0 00-1.837 0l-2.717 1.43.518-3.026a1.972 1.972 0 00-.568-1.747L2.771 7.087l3.039-.443a1.973 1.973 0 001.485-1.08l1.358-2.753 1.36 2.753a1.97 1.97 0 001.485 1.079l3.039.44-2.198 2.144z" fill="#FEC830"/><path d="M24.365 28.148c-.309 0-.611.126-.829.344a1.18 1.18 0 00-.343.828c0 .308.125.61.343.829.218.218.52.343.829.343.308 0 .61-.125.828-.343a1.18 1.18 0 00.343-.829c0-.308-.125-.61-.343-.828a1.18 1.18 0 00-.828-.344z" fill="#343434"/></g><defs><clipPath id="clip0"><path fill="#fff" d="M0 0h60v60H0z"/></clipPath></defs></svg>